<?xml version="1.0" encoding="UTF-8" standalone="no"?>
<!-- Created with Digital by H.Neemann -->
<!-- created: Thu Mar 21 00:51:10 BRT 2024 -->

<svg
   xmlns:svg="http://www.w3.org/2000/svg"
   xmlns="http://www.w3.org/2000/svg"
   width="148.95mm"
   height="119.1mm"
   viewBox="289 38 993 794">
<g stroke-linecap="square">
<path d="M 900,700 L 910,700 L 920,700" stroke="#000000" stroke-width="4.0" fill="none"/>
<path d="M 900,720 L 910,720" stroke="#000000" stroke-width="4.0" fill="none"/>
<path d="M 1040,320 L 1050,320 L 1060,320" stroke="#000000" stroke-width="4.0" fill="none"/>
<path d="M 1060,340 L 1050,340" stroke="#000000" stroke-width="4.0" fill="none"/>
<path d="M 1180,600 L 1180,640 L 1200,640" stroke="#0000b2" stroke-width="4.0" fill="none"/>
<path d="M 1000,640 L 1040,640" stroke="#0000b2" stroke-width="4.0" fill="none"/>
<path d="M 580,260 L 740,260 L 800,260 L 800,380 L 860,380" stroke="#0000b2" stroke-width="4.0" fill="none"/>
<path d="M 980,260 L 1000,260" stroke="#0000b2" stroke-width="4.0" fill="none"/>
<path d="M 440,580 L 1120,580 L 1120,400" stroke="#0000b2" stroke-width="4.0" fill="none"/>
<path d="M 480,240 L 480,200 L 600,200 L 600,540 L 620,540 L 624,540" stroke="#0000b2" stroke-width="4.0" fill="none"/>
<path d="M 740,260 L 740,200 L 860,200" stroke="#0000b2" stroke-width="4.0" fill="none"/>
<path d="M 700,520 L 720,520 L 720,120" stroke="#0000b2" stroke-width="4.0" fill="none"/>
<path d="M 1060,400 L 1100,400" stroke="#0000b2" stroke-width="4.0" fill="none"/>
<path d="M 1000,720 L 1040,720" stroke="#0000b2" stroke-width="4.0" fill="none"/>
<path d="M 440,340 L 480,340 L 480,280 L 500,280 L 504,280" stroke="#0000b2" stroke-width="4.0" fill="none"/>
<path d="M 1060,340 L 1160,340" stroke="#0000b2" stroke-width="4.0" fill="none"/>
<path d="M 1000,660 L 1040,660" stroke="#0000b2" stroke-width="4.0" fill="none"/>
<path d="M 440,660 L 680,660 L 680,780 L 740,780 L 744,780" stroke="#0000b2" stroke-width="4.0" fill="none"/>
<path d="M 960,180 L 960,220 L 1000,220" stroke="#0000b2" stroke-width="4.0" fill="none"/>
<path d="M 1060,220 L 1100,220 L 1100,40 L 680,40 L 680,80 L 700,80" stroke="#0000b2" stroke-width="4.0" fill="none"/>
<path d="M 820,800 L 860,800 L 860,720 L 900,720" stroke="#0000b2" stroke-width="4.0" fill="none"/>
<path d="M 1000,740 L 1040,740" stroke="#0000b2" stroke-width="4.0" fill="none"/>
<path d="M 440,740 L 640,740 L 640,680 L 740,680 L 744,680" stroke="#0000b2" stroke-width="4.0" fill="none"/>
<path d="M 740,100 L 820,100 L 820,160 L 860,160" stroke="#0000b2" stroke-width="4.0" fill="none"/>
<path d="M 440,420 L 620,420 L 620,120 L 700,120" stroke="#0000b2" stroke-width="4.0" fill="none"/>
<path d="M 780,180 L 780,360 L 860,360" stroke="#0000b2" stroke-width="4.0" fill="none"/>
<path d="M 920,360 L 960,360 L 1100,360" stroke="#0000b2" stroke-width="4.0" fill="none"/>
<path d="M 1100,620 L 1160,620 L 1160,660 L 1200,660" stroke="#0000b2" stroke-width="4.0" fill="none"/>
<path d="M 440,240 L 480,240 L 500,240 L 504,240" stroke="#0000b2" stroke-width="4.0" fill="none"/>
<path d="M 940,280 L 940,240 L 1000,240" stroke="#0000b2" stroke-width="4.0" fill="none"/>
<path d="M 920,180 L 960,180 L 1120,180" stroke="#0000b2" stroke-width="4.0" fill="none"/>
<path d="M 440,180 L 780,180 L 860,180" stroke="#0000b2" stroke-width="4.0" fill="none"/>
<path d="M 440,500 L 620,500 L 624,500" stroke="#0000b2" stroke-width="4.0" fill="none"/>
<path d="M 820,700 L 900,700" stroke="#0000b2" stroke-width="4.0" fill="none"/>
<path d="M 920,700 L 980,700 L 980,800 L 1220,800 L 1220,720" stroke="#0000b2" stroke-width="4.0" fill="none"/>
<path d="M 1020,620 L 1020,700 L 1040,700" stroke="#0000b2" stroke-width="4.0" fill="none"/>
<path d="M 1100,700 L 1120,700 L 1120,680 L 1200,680" stroke="#0000b2" stroke-width="4.0" fill="none"/>
<path d="M 1160,700 L 1200,700" stroke="#0000b2" stroke-width="4.0" fill="none"/>
<path d="M 1040,320 L 960,320 L 960,360 L 960,400 L 1000,400" stroke="#0000b2" stroke-width="4.0" fill="none"/>
<path d="M 744,720 L 740,720 L 720,720 L 720,820 L 740,820 L 744,820" stroke="#0000b2" stroke-width="4.0" fill="none"/>
<path d="M 720,520 L 720,720" stroke="#0000b2" stroke-width="4.0" fill="none"/>
<path d="M 860,340 L 820,340 L 820,280 L 940,280 L 1280,280 L 1280,680 L 1240,680" stroke="#0000b2" stroke-width="4.0" fill="none"/>
<path d="M 1140,380 L 1180,380 L 1180,600 L 1020,600 L 1020,620 L 1040,620" stroke="#0000b2" stroke-width="4.0" fill="none"/>
<g>
<circle cx="740.0" cy="260.0" r="4.0" stroke="#0000b2" stroke-width="4.0" fill="#0000b2" />
<circle cx="720.0" cy="520.0" r="4.0" stroke="#0000b2" stroke-width="4.0" fill="#0000b2" />
<circle cx="720.0" cy="720.0" r="4.0" stroke="#0000b2" stroke-width="4.0" fill="#0000b2" />
<circle cx="940.0" cy="280.0" r="4.0" stroke="#0000b2" stroke-width="4.0" fill="#0000b2" />
<circle cx="1180.0" cy="600.0" r="4.0" stroke="#0000b2" stroke-width="4.0" fill="#0000b2" />
<circle cx="960.0" cy="360.0" r="4.0" stroke="#0000b2" stroke-width="4.0" fill="#0000b2" />
<circle cx="1020.0" cy="620.0" r="4.0" stroke="#0000b2" stroke-width="4.0" fill="#0000b2" />
<circle cx="480.0" cy="240.0" r="4.0" stroke="#0000b2" stroke-width="4.0" fill="#0000b2" />
<circle cx="960.0" cy="180.0" r="4.0" stroke="#0000b2" stroke-width="4.0" fill="#0000b2" />
<circle cx="780.0" cy="180.0" r="4.0" stroke="#0000b2" stroke-width="4.0" fill="#0000b2" />
</g>
<g>
<path d="M 409,165 L 439,165 L 439,195 L 409,195 Z" stroke="#000000" stroke-width="4.0" fill="none"/>
<circle cx="424.0" cy="180.0" r="9.0" stroke="#000000" stroke-width="4.0" fill="none" />
<text text-anchor="end" x="395.0" y="189.0" fill="#000000" style="font-size:24px"><tspan style="font-style:italic;">relogio</tspan></text>
<circle cx="440.0" cy="180.0" r="2.0" stroke="#b20000" stroke-width="4.0" fill="#b20000" />
</g>
<g>
<path d="M 409,225 L 439,225 L 439,255 L 409,255 Z" stroke="#000000" stroke-width="4.0" fill="none"/>
<circle cx="424.0" cy="240.0" r="9.0" stroke="#000000" stroke-width="4.0" fill="none" />
<text text-anchor="end" x="395.0" y="249.0" fill="#000000" style="font-size:24px"><tspan style="font-style:italic;">inicializa</tspan></text>
<circle cx="440.0" cy="240.0" r="2.0" stroke="#b20000" stroke-width="4.0" fill="#b20000" />
</g>
<g>
<path d="M 409,325 L 439,325 L 439,355 L 409,355 Z" stroke="#000000" stroke-width="4.0" fill="none"/>
<circle cx="424.0" cy="340.0" r="9.0" stroke="#000000" stroke-width="4.0" fill="none" />
<text text-anchor="end" x="395.0" y="349.0" fill="#000000" style="font-size:24px"><tspan style="font-style:italic;">move</tspan></text>
<circle cx="440.0" cy="340.0" r="2.0" stroke="#b20000" stroke-width="4.0" fill="#b20000" />
</g>
<g>
<path d="M 409,405 L 439,405 L 439,435 L 409,435 Z" stroke="#000000" stroke-width="4.0" fill="none"/>
<circle cx="424.0" cy="420.0" r="9.0" stroke="#000000" stroke-width="4.0" fill="none" />
<text text-anchor="end" x="395.0" y="429.0" fill="#000000" style="font-size:24px"><tspan style="font-style:italic;">centro</tspan></text>
<circle cx="440.0" cy="420.0" r="2.0" stroke="#b20000" stroke-width="4.0" fill="#b20000" />
</g>
<g>
<path d="M 409,485 L 439,485 L 439,515 L 409,515 Z" stroke="#000000" stroke-width="4.0" fill="none"/>
<circle cx="424.0" cy="500.0" r="9.0" stroke="#000000" stroke-width="4.0" fill="none" />
<text text-anchor="end" x="395.0" y="509.0" fill="#000000" style="font-size:24px"><tspan style="font-style:italic;">volta</tspan></text>
<circle cx="440.0" cy="500.0" r="2.0" stroke="#b20000" stroke-width="4.0" fill="#b20000" />
</g>
<g>
<path d="M 409,565 L 439,565 L 439,595 L 409,595 Z" stroke="#000000" stroke-width="4.0" fill="none"/>
<circle cx="424.0" cy="580.0" r="9.0" stroke="#000000" stroke-width="4.0" fill="none" />
<text text-anchor="end" x="395.0" y="589.0" fill="#000000" style="font-size:24px"><tspan style="font-style:italic;">reflete</tspan></text>
<circle cx="440.0" cy="580.0" r="2.0" stroke="#b20000" stroke-width="4.0" fill="#b20000" />
</g>
<g>
<path d="M 409,645 L 439,645 L 439,675 L 409,675 Z" stroke="#000000" stroke-width="4.0" fill="none"/>
<circle cx="424.0" cy="660.0" r="9.0" stroke="#000000" stroke-width="4.0" fill="none" />
<text text-anchor="end" x="395.0" y="669.0" fill="#000000" style="font-size:24px"><tspan style="font-style:italic;">sobe</tspan></text>
<circle cx="440.0" cy="660.0" r="2.0" stroke="#b20000" stroke-width="4.0" fill="#b20000" />
</g>
<g>
<path d="M 409,725 L 439,725 L 439,755 L 409,755 Z" stroke="#000000" stroke-width="4.0" fill="none"/>
<circle cx="424.0" cy="740.0" r="9.0" stroke="#000000" stroke-width="4.0" fill="none" />
<text text-anchor="end" x="395.0" y="749.0" fill="#000000" style="font-size:24px"><tspan style="font-style:italic;">desce</tspan></text>
<circle cx="440.0" cy="740.0" r="2.0" stroke="#b20000" stroke-width="4.0" fill="#b20000" />
</g>
<g>
<circle cx="1136.0" cy="180.0" r="9.0" stroke="#000000" stroke-width="4.0" fill="none" />
<circle cx="1136.0" cy="180.0" r="15.0" stroke="#000000" stroke-width="4.0" fill="none" />
<text text-anchor="start" x="1165.0" y="189.0" fill="#000000" style="font-size:24px"><tspan style="font-style:italic;">posicao</tspan></text>
<circle cx="1120.0" cy="180.0" r="2.0" stroke="#0000b2" stroke-width="4.0" fill="#0000b2" />
</g>
<g>
<path d="M 861,150 L 919,150 L 919,210 L 861,210 Z" stroke="#000000" stroke-width="4.0" fill="none"/>
<text text-anchor="middle" x="890.0" y="142.0" fill="#000000" style="font-size:24px">posicao</text>
<text text-anchor="start" x="864.0" y="166.75" fill="#808080" style="font-size:18px">D</text>
<path d="M 861,187 L 868,180 L 861,173" stroke="#000000" stroke-width="2.0" fill="none"/>
<text text-anchor="start" x="871.0" y="186.75" fill="#808080" style="font-size:18px">C</text>
<text text-anchor="start" x="864.0" y="206.75" fill="#808080" style="font-size:18px">en</text>
<text text-anchor="end" x="916.0" y="186.75" fill="#808080" style="font-size:18px">Q</text>
<text text-anchor="middle" x="890.0" y="227.5" fill="#808080" style="font-size:18px">Reg</text>
<circle cx="860.0" cy="160.0" r="2.0" stroke="#0000b2" stroke-width="4.0" fill="#0000b2" />
<circle cx="860.0" cy="180.0" r="2.0" stroke="#0000b2" stroke-width="4.0" fill="#0000b2" />
<circle cx="860.0" cy="200.0" r="2.0" stroke="#0000b2" stroke-width="4.0" fill="#0000b2" />
<circle cx="920.0" cy="180.0" r="2.0" stroke="#b20000" stroke-width="4.0" fill="#b20000" />
</g>
<g>
<path d="M 861,330 L 919,330 L 919,390 L 861,390 Z" stroke="#000000" stroke-width="4.0" fill="none"/>
<text text-anchor="middle" x="890.0" y="322.0" fill="#000000" style="font-size:24px">velocidade</text>
<text text-anchor="start" x="864.0" y="346.75" fill="#808080" style="font-size:18px">D</text>
<path d="M 861,367 L 868,360 L 861,353" stroke="#000000" stroke-width="2.0" fill="none"/>
<text text-anchor="start" x="871.0" y="366.75" fill="#808080" style="font-size:18px">C</text>
<text text-anchor="start" x="864.0" y="386.75" fill="#808080" style="font-size:18px">en</text>
<text text-anchor="end" x="916.0" y="366.75" fill="#808080" style="font-size:18px">Q</text>
<text text-anchor="middle" x="890.0" y="407.5" fill="#808080" style="font-size:18px">Reg</text>
<circle cx="860.0" cy="340.0" r="2.0" stroke="#0000b2" stroke-width="4.0" fill="#0000b2" />
<circle cx="860.0" cy="360.0" r="2.0" stroke="#0000b2" stroke-width="4.0" fill="#0000b2" />
<circle cx="860.0" cy="380.0" r="2.0" stroke="#0000b2" stroke-width="4.0" fill="#0000b2" />
<circle cx="920.0" cy="360.0" r="2.0" stroke="#b20000" stroke-width="4.0" fill="#b20000" />
</g>
<g>
<path d="M 530,290 L 500,290 C 510,274 510,246 500,230 L 520,230 C 550,230 570,240 580,260 C 570,280 550,290 530,290 Z" stroke="#000000" stroke-width="4.0" fill="none"/>
<circle cx="500.0" cy="240.0" r="2.0" stroke="#0000b2" stroke-width="4.0" fill="#0000b2" />
<circle cx="500.0" cy="280.0" r="2.0" stroke="#0000b2" stroke-width="4.0" fill="#0000b2" />
<circle cx="580.0" cy="260.0" r="2.0" stroke="#b20000" stroke-width="4.0" fill="#b20000" />
</g>
<g>
<path d="M 1101,356 L 1139,365 L 1139,395 L 1101,404 Z" stroke="#000000" stroke-width="4.0" fill="none"/>
<text text-anchor="start" x="1103.0" y="375.5" fill="#808080" style="font-size:18px">0</text>
<circle cx="1120.0" cy="400.0" r="2.0" stroke="#0000b2" stroke-width="4.0" fill="#0000b2" />
<circle cx="1100.0" cy="360.0" r="2.0" stroke="#0000b2" stroke-width="4.0" fill="#0000b2" />
<circle cx="1100.0" cy="400.0" r="2.0" stroke="#0000b2" stroke-width="4.0" fill="#0000b2" />
<circle cx="1140.0" cy="380.0" r="2.0" stroke="#b20000" stroke-width="4.0" fill="#b20000" />
</g>
<g>
<path d="M 1001,390 L 1059,390 L 1059,410 L 1001,410 Z" stroke="#000000" stroke-width="4.0" fill="none"/>
<text text-anchor="start" x="1004.0" y="406.75" fill="#808080" style="font-size:18px">in</text>
<text text-anchor="end" x="1056.0" y="406.75" fill="#808080" style="font-size:18px">out</text>
<text text-anchor="middle" x="1030.0" y="427.5" fill="#808080" style="font-size:18px">Neg</text>
<circle cx="1000.0" cy="400.0" r="2.0" stroke="#0000b2" stroke-width="4.0" fill="#0000b2" />
<circle cx="1060.0" cy="400.0" r="2.0" stroke="#b20000" stroke-width="4.0" fill="#b20000" />
</g>
<g>
<path d="M 1201,636 L 1239,645 L 1239,715 L 1201,724 Z" stroke="#000000" stroke-width="4.0" fill="none"/>
<text text-anchor="start" x="1203.0" y="655.5" fill="#808080" style="font-size:18px">0</text>
<circle cx="1220.0" cy="720.0" r="2.0" stroke="#0000b2" stroke-width="4.0" fill="#0000b2" />
<circle cx="1200.0" cy="640.0" r="2.0" stroke="#0000b2" stroke-width="4.0" fill="#0000b2" />
<circle cx="1200.0" cy="660.0" r="2.0" stroke="#0000b2" stroke-width="4.0" fill="#0000b2" />
<circle cx="1200.0" cy="680.0" r="2.0" stroke="#0000b2" stroke-width="4.0" fill="#0000b2" />
<circle cx="1200.0" cy="700.0" r="2.0" stroke="#0000b2" stroke-width="4.0" fill="#0000b2" />
<circle cx="1240.0" cy="680.0" r="2.0" stroke="#b20000" stroke-width="4.0" fill="#b20000" />
</g>
<g>
<path d="M 770,730 L 740,730 C 750,714 750,686 740,670 L 760,670 C 790,670 810,680 820,700 C 810,720 790,730 770,730 Z" stroke="#000000" stroke-width="4.0" fill="none"/>
<circle cx="740.0" cy="680.0" r="2.0" stroke="#0000b2" stroke-width="4.0" fill="#0000b2" />
<circle cx="740.0" cy="720.0" r="2.0" stroke="#0000b2" stroke-width="4.0" fill="#0000b2" />
<circle cx="820.0" cy="700.0" r="2.0" stroke="#b20000" stroke-width="4.0" fill="#b20000" />
</g>
<g>
<path d="M 770,830 L 740,830 C 750,814 750,786 740,770 L 760,770 C 790,770 810,780 820,800 C 810,820 790,830 770,830 Z" stroke="#000000" stroke-width="4.0" fill="none"/>
<circle cx="740.0" cy="780.0" r="2.0" stroke="#0000b2" stroke-width="4.0" fill="#0000b2" />
<circle cx="740.0" cy="820.0" r="2.0" stroke="#0000b2" stroke-width="4.0" fill="#0000b2" />
<circle cx="820.0" cy="800.0" r="2.0" stroke="#b20000" stroke-width="4.0" fill="#b20000" />
</g>
<g>
<text text-anchor="end" x="898.0" y="697.0" fill="#808080" style="font-size:12px">0</text>
<text text-anchor="end" x="898.0" y="717.0" fill="#808080" style="font-size:12px">1</text>
<text text-anchor="start" x="922.0" y="697.0" fill="#808080" style="font-size:12px">0,1</text>
<path d="M 908,698 L 912,698 L 912,722 L 908,722 Z" stroke="#000000" stroke-width="4.0" fill="#000000" fill-opacity="1.0"/>
<circle cx="900.0" cy="700.0" r="2.0" stroke="#0000b2" stroke-width="4.0" fill="#0000b2" />
<circle cx="900.0" cy="720.0" r="2.0" stroke="#0000b2" stroke-width="4.0" fill="#0000b2" />
<circle cx="920.0" cy="700.0" r="2.0" stroke="#b20000" stroke-width="4.0" fill="#b20000" />
</g>
<g>
<path d="M 650,550 L 620,550 C 630,534 630,506 620,490 L 640,490 C 670,490 690,500 700,520 C 690,540 670,550 650,550 Z" stroke="#000000" stroke-width="4.0" fill="none"/>
<circle cx="620.0" cy="500.0" r="2.0" stroke="#0000b2" stroke-width="4.0" fill="#0000b2" />
<circle cx="620.0" cy="540.0" r="2.0" stroke="#0000b2" stroke-width="4.0" fill="#0000b2" />
<circle cx="700.0" cy="520.0" r="2.0" stroke="#b20000" stroke-width="4.0" fill="#b20000" />
</g>
<g>
<path d="M 1041,610 L 1099,610 L 1099,670 L 1041,670 Z" stroke="#000000" stroke-width="4.0" fill="none"/>
<text text-anchor="start" x="1044.0" y="626.75" fill="#808080" style="font-size:18px">a</text>
<text text-anchor="start" x="1044.0" y="646.75" fill="#808080" style="font-size:18px">b</text>
<text text-anchor="start" x="1044.0" y="666.75" fill="#808080" style="font-size:18px">c<tspan style="font-size:80%;baseline-shift:sub;">i</tspan></text>
<text text-anchor="end" x="1096.0" y="626.75" fill="#808080" style="font-size:18px">s</text>
<text text-anchor="end" x="1096.0" y="646.75" fill="#808080" style="font-size:18px">c<tspan style="font-size:80%;baseline-shift:sub;">o</tspan></text>
<text text-anchor="middle" x="1070.0" y="687.5" fill="#808080" style="font-size:18px">Soma</text>
<circle cx="1040.0" cy="620.0" r="2.0" stroke="#0000b2" stroke-width="4.0" fill="#0000b2" />
<circle cx="1040.0" cy="640.0" r="2.0" stroke="#0000b2" stroke-width="4.0" fill="#0000b2" />
<circle cx="1040.0" cy="660.0" r="2.0" stroke="#0000b2" stroke-width="4.0" fill="#0000b2" />
<circle cx="1100.0" cy="620.0" r="2.0" stroke="#b20000" stroke-width="4.0" fill="#b20000" />
<circle cx="1100.0" cy="640.0" r="2.0" stroke="#b20000" stroke-width="4.0" fill="#b20000" />
</g>
<g>
<path d="M 1041,690 L 1099,690 L 1099,750 L 1041,750 Z" stroke="#000000" stroke-width="4.0" fill="none"/>
<text text-anchor="start" x="1044.0" y="706.75" fill="#808080" style="font-size:18px">a</text>
<text text-anchor="start" x="1044.0" y="726.75" fill="#808080" style="font-size:18px">b</text>
<text text-anchor="start" x="1044.0" y="746.75" fill="#808080" style="font-size:18px">c<tspan style="font-size:80%;baseline-shift:sub;">i</tspan></text>
<text text-anchor="end" x="1096.0" y="706.75" fill="#808080" style="font-size:18px">s</text>
<text text-anchor="end" x="1096.0" y="726.75" fill="#808080" style="font-size:18px">c<tspan style="font-size:80%;baseline-shift:sub;">o</tspan></text>
<text text-anchor="middle" x="1070.0" y="767.5" fill="#808080" style="font-size:18px">Sub</text>
<circle cx="1040.0" cy="700.0" r="2.0" stroke="#0000b2" stroke-width="4.0" fill="#0000b2" />
<circle cx="1040.0" cy="720.0" r="2.0" stroke="#0000b2" stroke-width="4.0" fill="#0000b2" />
<circle cx="1040.0" cy="740.0" r="2.0" stroke="#0000b2" stroke-width="4.0" fill="#0000b2" />
<circle cx="1100.0" cy="700.0" r="2.0" stroke="#b20000" stroke-width="4.0" fill="#b20000" />
<circle cx="1100.0" cy="720.0" r="2.0" stroke="#b20000" stroke-width="4.0" fill="#b20000" />
</g>
<g>
<text text-anchor="end" x="997.0" y="669.0" fill="#000000" style="font-size:24px">0</text>
<circle cx="1000.0" cy="660.0" r="2.0" stroke="#b20000" stroke-width="4.0" fill="#b20000" />
</g>
<g>
<text text-anchor="end" x="997.0" y="749.0" fill="#000000" style="font-size:24px">0</text>
<circle cx="1000.0" cy="740.0" r="2.0" stroke="#b20000" stroke-width="4.0" fill="#b20000" />
</g>
<g>
<text text-anchor="end" x="997.0" y="649.0" fill="#000000" style="font-size:24px">1</text>
<circle cx="1000.0" cy="640.0" r="2.0" stroke="#b20000" stroke-width="4.0" fill="#b20000" />
</g>
<g>
<text text-anchor="end" x="997.0" y="729.0" fill="#000000" style="font-size:24px">1</text>
<circle cx="1000.0" cy="720.0" r="2.0" stroke="#b20000" stroke-width="4.0" fill="#b20000" />
</g>
<g>
<text text-anchor="end" x="1157.0" y="709.0" fill="#000000" style="font-size:24px">-1</text>
<circle cx="1160.0" cy="700.0" r="2.0" stroke="#b20000" stroke-width="4.0" fill="#b20000" />
</g>
<g>
<path d="M 1001,210 L 1059,210 L 1059,270 L 1001,270 Z" stroke="#000000" stroke-width="4.0" fill="none"/>
<text text-anchor="start" x="1004.0" y="226.75" fill="#808080" style="font-size:18px">a</text>
<text text-anchor="start" x="1004.0" y="246.75" fill="#808080" style="font-size:18px">b</text>
<text text-anchor="start" x="1004.0" y="266.75" fill="#808080" style="font-size:18px">c<tspan style="font-size:80%;baseline-shift:sub;">i</tspan></text>
<text text-anchor="end" x="1056.0" y="226.75" fill="#808080" style="font-size:18px">s</text>
<text text-anchor="end" x="1056.0" y="246.75" fill="#808080" style="font-size:18px">c<tspan style="font-size:80%;baseline-shift:sub;">o</tspan></text>
<text text-anchor="middle" x="1030.0" y="287.5" fill="#808080" style="font-size:18px">Soma</text>
<circle cx="1000.0" cy="220.0" r="2.0" stroke="#0000b2" stroke-width="4.0" fill="#0000b2" />
<circle cx="1000.0" cy="240.0" r="2.0" stroke="#0000b2" stroke-width="4.0" fill="#0000b2" />
<circle cx="1000.0" cy="260.0" r="2.0" stroke="#0000b2" stroke-width="4.0" fill="#0000b2" />
<circle cx="1060.0" cy="220.0" r="2.0" stroke="#b20000" stroke-width="4.0" fill="#b20000" />
<circle cx="1060.0" cy="240.0" r="2.0" stroke="#b20000" stroke-width="4.0" fill="#b20000" />
</g>
<g>
<path d="M 701,76 L 739,85 L 739,115 L 701,124 Z" stroke="#000000" stroke-width="4.0" fill="none"/>
<text text-anchor="start" x="703.0" y="95.5" fill="#808080" style="font-size:18px">0</text>
<circle cx="720.0" cy="120.0" r="2.0" stroke="#0000b2" stroke-width="4.0" fill="#0000b2" />
<circle cx="700.0" cy="80.0" r="2.0" stroke="#0000b2" stroke-width="4.0" fill="#0000b2" />
<circle cx="700.0" cy="120.0" r="2.0" stroke="#0000b2" stroke-width="4.0" fill="#0000b2" />
<circle cx="740.0" cy="100.0" r="2.0" stroke="#b20000" stroke-width="4.0" fill="#b20000" />
</g>
<g>
<text text-anchor="end" x="1038.0" y="317.0" fill="#808080" style="font-size:12px">0-11</text>
<text text-anchor="start" x="1062.0" y="317.0" fill="#808080" style="font-size:12px">0-10</text>
<text text-anchor="start" x="1062.0" y="337.0" fill="#808080" style="font-size:12px">11</text>
<path d="M 1048,318 L 1052,318 L 1052,342 L 1048,342 Z" stroke="#000000" stroke-width="4.0" fill="#000000" fill-opacity="1.0"/>
<circle cx="1040.0" cy="320.0" r="2.0" stroke="#0000b2" stroke-width="4.0" fill="#0000b2" />
<circle cx="1060.0" cy="320.0" r="2.0" stroke="#b20000" stroke-width="4.0" fill="#b20000" />
<circle cx="1060.0" cy="340.0" r="2.0" stroke="#b20000" stroke-width="4.0" fill="#b20000" />
</g>
<g>
<circle cx="1176.0" cy="340.0" r="9.0" stroke="#000000" stroke-width="4.0" fill="none" />
<circle cx="1176.0" cy="340.0" r="15.0" stroke="#000000" stroke-width="4.0" fill="none" />
<text text-anchor="start" x="1205.0" y="349.0" fill="#000000" style="font-size:24px"><tspan style="font-style:italic;">dir</tspan></text>
<circle cx="1160.0" cy="340.0" r="2.0" stroke="#0000b2" stroke-width="4.0" fill="#0000b2" />
</g>
<g>
<text text-anchor="end" x="977.0" y="269.0" fill="#000000" style="font-size:24px">0</text>
<circle cx="980.0" cy="260.0" r="2.0" stroke="#b20000" stroke-width="4.0" fill="#b20000" />
</g>
</g>
</svg>