<?xml version="1.0" encoding="UTF-8" standalone="no"?>
<!-- Created with Digital by H.Neemann -->
<!-- created: Thu Mar 21 00:52:45 BRT 2024 -->

<svg
   xmlns:svg="http://www.w3.org/2000/svg"
   xmlns="http://www.w3.org/2000/svg"
   width="149.85mm"
   height="233.1mm"
   viewBox="223 83 999 1554">
<g stroke-linecap="square">
<path d="M 360,1540 L 420,1540 L 420,1480 L 440,1480" stroke="#0000b2" stroke-width="4.0" fill="none"/>
<path d="M 540,520 L 560,520 L 680,520 L 680,720 L 800,720" stroke="#0000b2" stroke-width="4.0" fill="none"/>
<path d="M 540,1160 L 560,1160 L 740,1160 L 740,880 L 800,880" stroke="#0000b2" stroke-width="4.0" fill="none"/>
<path d="M 420,700 L 420,780 L 480,780" stroke="#0000b2" stroke-width="4.0" fill="none"/>
<path d="M 840,780 L 900,780 L 940,780" stroke="#0000b2" stroke-width="4.0" fill="none"/>
<path d="M 1140,780 L 1160,780" stroke="#0000b2" stroke-width="4.0" fill="none"/>
<path d="M 1000,780 L 1020,780 L 1020,760 L 1060,760" stroke="#0000b2" stroke-width="4.0" fill="none"/>
<path d="M 360,1420 L 440,1420" stroke="#0000b2" stroke-width="4.0" fill="none"/>
<path d="M 460,1420 L 820,1420 L 820,940" stroke="#0000b2" stroke-width="4.0" fill="none"/>
<path d="M 540,280 L 560,280 L 740,280 L 740,660 L 800,660" stroke="#0000b2" stroke-width="4.0" fill="none"/>
<path d="M 540,920 L 560,920 L 680,920 L 680,820 L 800,820" stroke="#0000b2" stroke-width="4.0" fill="none"/>
<path d="M 780,1320 L 780,920 L 800,920" stroke="#0000b2" stroke-width="4.0" fill="none"/>
<path d="M 420,460 L 420,540 L 480,540" stroke="#0000b2" stroke-width="4.0" fill="none"/>
<path d="M 420,1100 L 420,1180 L 480,1180" stroke="#0000b2" stroke-width="4.0" fill="none"/>
<path d="M 320,160 L 420,160 L 420,140 L 480,140" stroke="#0000b2" stroke-width="4.0" fill="none"/>
<path d="M 540,680 L 560,680 L 640,680 L 640,760 L 800,760" stroke="#0000b2" stroke-width="4.0" fill="none"/>
<path d="M 900,780 L 900,680 L 1060,680" stroke="#0000b2" stroke-width="4.0" fill="none"/>
<path d="M 540,1320 L 780,1320 L 1120,1320" stroke="#0000b2" stroke-width="4.0" fill="none"/>
<path d="M 360,1460 L 380,1460 L 380,1440 L 440,1440" stroke="#0000b2" stroke-width="4.0" fill="none"/>
<path d="M 540,440 L 560,440 L 700,440 L 700,700 L 800,700" stroke="#0000b2" stroke-width="4.0" fill="none"/>
<path d="M 540,1080 L 560,1080 L 720,1080 L 720,860 L 800,860" stroke="#0000b2" stroke-width="4.0" fill="none"/>
<path d="M 420,620 L 420,700 L 480,700" stroke="#0000b2" stroke-width="4.0" fill="none"/>
<path d="M 1140,700 L 1160,700" stroke="#0000b2" stroke-width="4.0" fill="none"/>
<path d="M 420,1260 L 420,1340 L 480,1340" stroke="#0000b2" stroke-width="4.0" fill="none"/>
<path d="M 540,200 L 560,200 L 760,200 L 760,640 L 800,640" stroke="#0000b2" stroke-width="4.0" fill="none"/>
<path d="M 540,840 L 560,840 L 660,840 L 660,800 L 800,800" stroke="#0000b2" stroke-width="4.0" fill="none"/>
<path d="M 420,380 L 420,460 L 480,460" stroke="#0000b2" stroke-width="4.0" fill="none"/>
<path d="M 420,1020 L 420,1100 L 480,1100" stroke="#0000b2" stroke-width="4.0" fill="none"/>
<path d="M 360,1620 L 920,1620 L 920,900" stroke="#0000b2" stroke-width="4.0" fill="none"/>
<path d="M 540,600 L 560,600 L 660,600 L 660,740 L 800,740" stroke="#0000b2" stroke-width="4.0" fill="none"/>
<path d="M 540,1240 L 560,1240 L 760,1240 L 760,900 L 800,900" stroke="#0000b2" stroke-width="4.0" fill="none"/>
<path d="M 420,160 L 420,220 L 480,220" stroke="#0000b2" stroke-width="4.0" fill="none"/>
<path d="M 360,1500 L 400,1500 L 400,1460 L 440,1460" stroke="#0000b2" stroke-width="4.0" fill="none"/>
<path d="M 320,100 L 460,100 L 460,120 L 480,120" stroke="#0000b2" stroke-width="4.0" fill="none"/>
<path d="M 540,360 L 560,360 L 720,360 L 720,680 L 800,680" stroke="#0000b2" stroke-width="4.0" fill="none"/>
<path d="M 540,1000 L 560,1000 L 700,1000 L 700,840 L 800,840" stroke="#0000b2" stroke-width="4.0" fill="none"/>
<path d="M 420,540 L 420,620 L 480,620" stroke="#0000b2" stroke-width="4.0" fill="none"/>
<path d="M 420,1180 L 420,1260 L 480,1260" stroke="#0000b2" stroke-width="4.0" fill="none"/>
<path d="M 940,880 L 960,880" stroke="#0000b2" stroke-width="4.0" fill="none"/>
<path d="M 1020,880 L 1040,880 L 1040,800" stroke="#0000b2" stroke-width="4.0" fill="none"/>
<path d="M 540,120 L 560,120 L 780,120 L 780,620 L 800,620" stroke="#0000b2" stroke-width="4.0" fill="none"/>
<path d="M 540,760 L 560,760 L 620,760 L 620,780 L 800,780" stroke="#0000b2" stroke-width="4.0" fill="none"/>
<path d="M 420,940 L 420,1020 L 480,1020" stroke="#0000b2" stroke-width="4.0" fill="none"/>
<path d="M 480,300 L 420,300 L 420,380 L 480,380" stroke="#0000b2" stroke-width="4.0" fill="none"/>
<path d="M 480,940 L 420,940 L 420,860 L 480,860" stroke="#0000b2" stroke-width="4.0" fill="none"/>
<path d="M 420,220 L 420,300" stroke="#0000b2" stroke-width="4.0" fill="none"/>
<path d="M 420,780 L 420,860" stroke="#0000b2" stroke-width="4.0" fill="none"/>
<path d="M 560,120 L 560,180 L 460,180 L 460,200 L 480,200" stroke="#0000b2" stroke-width="4.0" fill="none"/>
<path d="M 560,280 L 560,340 L 460,340 L 460,360 L 480,360" stroke="#0000b2" stroke-width="4.0" fill="none"/>
<path d="M 560,200 L 560,260 L 460,260 L 460,280 L 480,280" stroke="#0000b2" stroke-width="4.0" fill="none"/>
<path d="M 480,520 L 460,520 L 460,500 L 560,500 L 560,440" stroke="#0000b2" stroke-width="4.0" fill="none"/>
<path d="M 560,600 L 560,660 L 460,660 L 460,680 L 480,680" stroke="#0000b2" stroke-width="4.0" fill="none"/>
<path d="M 560,520 L 560,580 L 460,580 L 460,600 L 480,600" stroke="#0000b2" stroke-width="4.0" fill="none"/>
<path d="M 560,360 L 560,420 L 460,420 L 460,440 L 480,440" stroke="#0000b2" stroke-width="4.0" fill="none"/>
<path d="M 560,760 L 560,820 L 460,820 L 460,840 L 480,840" stroke="#0000b2" stroke-width="4.0" fill="none"/>
<path d="M 560,920 L 560,980 L 460,980 L 460,1000 L 480,1000" stroke="#0000b2" stroke-width="4.0" fill="none"/>
<path d="M 560,840 L 560,900 L 460,900 L 460,920 L 480,920" stroke="#0000b2" stroke-width="4.0" fill="none"/>
<path d="M 480,1160 L 460,1160 L 460,1140 L 560,1140 L 560,1080" stroke="#0000b2" stroke-width="4.0" fill="none"/>
<path d="M 560,1240 L 560,1300 L 460,1300 L 460,1320 L 480,1320" stroke="#0000b2" stroke-width="4.0" fill="none"/>
<path d="M 560,1160 L 560,1220 L 460,1220 L 460,1240 L 480,1240" stroke="#0000b2" stroke-width="4.0" fill="none"/>
<path d="M 560,1000 L 560,1060 L 460,1060 L 460,1080 L 480,1080" stroke="#0000b2" stroke-width="4.0" fill="none"/>
<path d="M 560,680 L 560,740 L 460,740 L 460,760 L 480,760" stroke="#0000b2" stroke-width="4.0" fill="none"/>
<path d="M 1060,800 L 1040,800 L 1040,720 L 1060,720" stroke="#0000b2" stroke-width="4.0" fill="none"/>
<path d="M 960,900 L 920,900 L 920,800 L 940,800" stroke="#0000b2" stroke-width="4.0" fill="none"/>
<path d="M 440,1420 L 450,1420 L 460,1420" stroke="#000000" stroke-width="4.0" fill="none"/>
<path d="M 440,1440 L 450,1440" stroke="#000000" stroke-width="4.0" fill="none"/>
<path d="M 440,1460 L 450,1460" stroke="#000000" stroke-width="4.0" fill="none"/>
<path d="M 440,1480 L 450,1480" stroke="#000000" stroke-width="4.0" fill="none"/>
<g>
<circle cx="920.0" cy="900.0" r="4.0" stroke="#0000b2" stroke-width="4.0" fill="#0000b2" />
<circle cx="560.0" cy="520.0" r="4.0" stroke="#0000b2" stroke-width="4.0" fill="#0000b2" />
<circle cx="560.0" cy="1160.0" r="4.0" stroke="#0000b2" stroke-width="4.0" fill="#0000b2" />
<circle cx="420.0" cy="780.0" r="4.0" stroke="#0000b2" stroke-width="4.0" fill="#0000b2" />
<circle cx="900.0" cy="780.0" r="4.0" stroke="#0000b2" stroke-width="4.0" fill="#0000b2" />
<circle cx="560.0" cy="280.0" r="4.0" stroke="#0000b2" stroke-width="4.0" fill="#0000b2" />
<circle cx="560.0" cy="920.0" r="4.0" stroke="#0000b2" stroke-width="4.0" fill="#0000b2" />
<circle cx="420.0" cy="540.0" r="4.0" stroke="#0000b2" stroke-width="4.0" fill="#0000b2" />
<circle cx="420.0" cy="1180.0" r="4.0" stroke="#0000b2" stroke-width="4.0" fill="#0000b2" />
<circle cx="1040.0" cy="800.0" r="4.0" stroke="#0000b2" stroke-width="4.0" fill="#0000b2" />
<circle cx="420.0" cy="160.0" r="4.0" stroke="#0000b2" stroke-width="4.0" fill="#0000b2" />
<circle cx="560.0" cy="680.0" r="4.0" stroke="#0000b2" stroke-width="4.0" fill="#0000b2" />
<circle cx="780.0" cy="1320.0" r="4.0" stroke="#0000b2" stroke-width="4.0" fill="#0000b2" />
<circle cx="420.0" cy="300.0" r="4.0" stroke="#0000b2" stroke-width="4.0" fill="#0000b2" />
<circle cx="420.0" cy="940.0" r="4.0" stroke="#0000b2" stroke-width="4.0" fill="#0000b2" />
<circle cx="560.0" cy="440.0" r="4.0" stroke="#0000b2" stroke-width="4.0" fill="#0000b2" />
<circle cx="560.0" cy="1080.0" r="4.0" stroke="#0000b2" stroke-width="4.0" fill="#0000b2" />
<circle cx="420.0" cy="700.0" r="4.0" stroke="#0000b2" stroke-width="4.0" fill="#0000b2" />
<circle cx="560.0" cy="200.0" r="4.0" stroke="#0000b2" stroke-width="4.0" fill="#0000b2" />
<circle cx="560.0" cy="840.0" r="4.0" stroke="#0000b2" stroke-width="4.0" fill="#0000b2" />
<circle cx="420.0" cy="460.0" r="4.0" stroke="#0000b2" stroke-width="4.0" fill="#0000b2" />
<circle cx="420.0" cy="1100.0" r="4.0" stroke="#0000b2" stroke-width="4.0" fill="#0000b2" />
<circle cx="560.0" cy="600.0" r="4.0" stroke="#0000b2" stroke-width="4.0" fill="#0000b2" />
<circle cx="560.0" cy="1240.0" r="4.0" stroke="#0000b2" stroke-width="4.0" fill="#0000b2" />
<circle cx="420.0" cy="220.0" r="4.0" stroke="#0000b2" stroke-width="4.0" fill="#0000b2" />
<circle cx="420.0" cy="860.0" r="4.0" stroke="#0000b2" stroke-width="4.0" fill="#0000b2" />
<circle cx="560.0" cy="360.0" r="4.0" stroke="#0000b2" stroke-width="4.0" fill="#0000b2" />
<circle cx="560.0" cy="1000.0" r="4.0" stroke="#0000b2" stroke-width="4.0" fill="#0000b2" />
<circle cx="420.0" cy="620.0" r="4.0" stroke="#0000b2" stroke-width="4.0" fill="#0000b2" />
<circle cx="420.0" cy="1260.0" r="4.0" stroke="#0000b2" stroke-width="4.0" fill="#0000b2" />
<circle cx="560.0" cy="120.0" r="4.0" stroke="#0000b2" stroke-width="4.0" fill="#0000b2" />
<circle cx="560.0" cy="760.0" r="4.0" stroke="#0000b2" stroke-width="4.0" fill="#0000b2" />
<circle cx="420.0" cy="380.0" r="4.0" stroke="#0000b2" stroke-width="4.0" fill="#0000b2" />
<circle cx="420.0" cy="1020.0" r="4.0" stroke="#0000b2" stroke-width="4.0" fill="#0000b2" />
</g>
<g>
<path d="M 481,110 L 539,110 L 539,150 L 481,150 Z" stroke="#000000" stroke-width="4.0" fill="none"/>
<text text-anchor="start" x="484.0" y="126.75" fill="#808080" style="font-size:18px">D</text>
<path d="M 481,147 L 488,140 L 481,133" stroke="#000000" stroke-width="2.0" fill="none"/>
<text text-anchor="start" x="491.0" y="146.75" fill="#808080" style="font-size:18px">C</text>
<text text-anchor="end" x="536.0" y="126.75" fill="#808080" style="font-size:18px">Q</text>
<text text-anchor="end" x="536.0" y="146.75" fill="#808080" style="font-size:18px"><tspan style="text-decoration:overline;">Q</tspan></text>
<text text-anchor="middle" x="510.0" y="167.5" fill="#808080" style="font-size:18px">D</text>
<circle cx="480.0" cy="120.0" r="2.0" stroke="#0000b2" stroke-width="4.0" fill="#0000b2" />
<circle cx="480.0" cy="140.0" r="2.0" stroke="#0000b2" stroke-width="4.0" fill="#0000b2" />
<circle cx="540.0" cy="120.0" r="2.0" stroke="#b20000" stroke-width="4.0" fill="#b20000" />
<circle cx="540.0" cy="140.0" r="2.0" stroke="#b20000" stroke-width="4.0" fill="#b20000" />
</g>
<g>
<path d="M 481,190 L 539,190 L 539,230 L 481,230 Z" stroke="#000000" stroke-width="4.0" fill="none"/>
<text text-anchor="start" x="484.0" y="206.75" fill="#808080" style="font-size:18px">D</text>
<path d="M 481,227 L 488,220 L 481,213" stroke="#000000" stroke-width="2.0" fill="none"/>
<text text-anchor="start" x="491.0" y="226.75" fill="#808080" style="font-size:18px">C</text>
<text text-anchor="end" x="536.0" y="206.75" fill="#808080" style="font-size:18px">Q</text>
<text text-anchor="end" x="536.0" y="226.75" fill="#808080" style="font-size:18px"><tspan style="text-decoration:overline;">Q</tspan></text>
<text text-anchor="middle" x="510.0" y="247.5" fill="#808080" style="font-size:18px">D</text>
<circle cx="480.0" cy="200.0" r="2.0" stroke="#0000b2" stroke-width="4.0" fill="#0000b2" />
<circle cx="480.0" cy="220.0" r="2.0" stroke="#0000b2" stroke-width="4.0" fill="#0000b2" />
<circle cx="540.0" cy="200.0" r="2.0" stroke="#b20000" stroke-width="4.0" fill="#b20000" />
<circle cx="540.0" cy="220.0" r="2.0" stroke="#b20000" stroke-width="4.0" fill="#b20000" />
</g>
<g>
<path d="M 481,270 L 539,270 L 539,310 L 481,310 Z" stroke="#000000" stroke-width="4.0" fill="none"/>
<text text-anchor="start" x="484.0" y="286.75" fill="#808080" style="font-size:18px">D</text>
<path d="M 481,307 L 488,300 L 481,293" stroke="#000000" stroke-width="2.0" fill="none"/>
<text text-anchor="start" x="491.0" y="306.75" fill="#808080" style="font-size:18px">C</text>
<text text-anchor="end" x="536.0" y="286.75" fill="#808080" style="font-size:18px">Q</text>
<text text-anchor="end" x="536.0" y="306.75" fill="#808080" style="font-size:18px"><tspan style="text-decoration:overline;">Q</tspan></text>
<text text-anchor="middle" x="510.0" y="327.5" fill="#808080" style="font-size:18px">D</text>
<circle cx="480.0" cy="280.0" r="2.0" stroke="#0000b2" stroke-width="4.0" fill="#0000b2" />
<circle cx="480.0" cy="300.0" r="2.0" stroke="#0000b2" stroke-width="4.0" fill="#0000b2" />
<circle cx="540.0" cy="280.0" r="2.0" stroke="#b20000" stroke-width="4.0" fill="#b20000" />
<circle cx="540.0" cy="300.0" r="2.0" stroke="#b20000" stroke-width="4.0" fill="#b20000" />
</g>
<g>
<path d="M 481,350 L 539,350 L 539,390 L 481,390 Z" stroke="#000000" stroke-width="4.0" fill="none"/>
<text text-anchor="start" x="484.0" y="366.75" fill="#808080" style="font-size:18px">D</text>
<path d="M 481,387 L 488,380 L 481,373" stroke="#000000" stroke-width="2.0" fill="none"/>
<text text-anchor="start" x="491.0" y="386.75" fill="#808080" style="font-size:18px">C</text>
<text text-anchor="end" x="536.0" y="366.75" fill="#808080" style="font-size:18px">Q</text>
<text text-anchor="end" x="536.0" y="386.75" fill="#808080" style="font-size:18px"><tspan style="text-decoration:overline;">Q</tspan></text>
<text text-anchor="middle" x="510.0" y="407.5" fill="#808080" style="font-size:18px">D</text>
<circle cx="480.0" cy="360.0" r="2.0" stroke="#0000b2" stroke-width="4.0" fill="#0000b2" />
<circle cx="480.0" cy="380.0" r="2.0" stroke="#0000b2" stroke-width="4.0" fill="#0000b2" />
<circle cx="540.0" cy="360.0" r="2.0" stroke="#b20000" stroke-width="4.0" fill="#b20000" />
<circle cx="540.0" cy="380.0" r="2.0" stroke="#b20000" stroke-width="4.0" fill="#b20000" />
</g>
<g>
<path d="M 481,430 L 539,430 L 539,470 L 481,470 Z" stroke="#000000" stroke-width="4.0" fill="none"/>
<text text-anchor="start" x="484.0" y="446.75" fill="#808080" style="font-size:18px">D</text>
<path d="M 481,467 L 488,460 L 481,453" stroke="#000000" stroke-width="2.0" fill="none"/>
<text text-anchor="start" x="491.0" y="466.75" fill="#808080" style="font-size:18px">C</text>
<text text-anchor="end" x="536.0" y="446.75" fill="#808080" style="font-size:18px">Q</text>
<text text-anchor="end" x="536.0" y="466.75" fill="#808080" style="font-size:18px"><tspan style="text-decoration:overline;">Q</tspan></text>
<text text-anchor="middle" x="510.0" y="487.5" fill="#808080" style="font-size:18px">D</text>
<circle cx="480.0" cy="440.0" r="2.0" stroke="#0000b2" stroke-width="4.0" fill="#0000b2" />
<circle cx="480.0" cy="460.0" r="2.0" stroke="#0000b2" stroke-width="4.0" fill="#0000b2" />
<circle cx="540.0" cy="440.0" r="2.0" stroke="#b20000" stroke-width="4.0" fill="#b20000" />
<circle cx="540.0" cy="460.0" r="2.0" stroke="#b20000" stroke-width="4.0" fill="#b20000" />
</g>
<g>
<path d="M 481,510 L 539,510 L 539,550 L 481,550 Z" stroke="#000000" stroke-width="4.0" fill="none"/>
<text text-anchor="start" x="484.0" y="526.75" fill="#808080" style="font-size:18px">D</text>
<path d="M 481,547 L 488,540 L 481,533" stroke="#000000" stroke-width="2.0" fill="none"/>
<text text-anchor="start" x="491.0" y="546.75" fill="#808080" style="font-size:18px">C</text>
<text text-anchor="end" x="536.0" y="526.75" fill="#808080" style="font-size:18px">Q</text>
<text text-anchor="end" x="536.0" y="546.75" fill="#808080" style="font-size:18px"><tspan style="text-decoration:overline;">Q</tspan></text>
<text text-anchor="middle" x="510.0" y="567.5" fill="#808080" style="font-size:18px">D</text>
<circle cx="480.0" cy="520.0" r="2.0" stroke="#0000b2" stroke-width="4.0" fill="#0000b2" />
<circle cx="480.0" cy="540.0" r="2.0" stroke="#0000b2" stroke-width="4.0" fill="#0000b2" />
<circle cx="540.0" cy="520.0" r="2.0" stroke="#b20000" stroke-width="4.0" fill="#b20000" />
<circle cx="540.0" cy="540.0" r="2.0" stroke="#b20000" stroke-width="4.0" fill="#b20000" />
</g>
<g>
<path d="M 481,590 L 539,590 L 539,630 L 481,630 Z" stroke="#000000" stroke-width="4.0" fill="none"/>
<text text-anchor="start" x="484.0" y="606.75" fill="#808080" style="font-size:18px">D</text>
<path d="M 481,627 L 488,620 L 481,613" stroke="#000000" stroke-width="2.0" fill="none"/>
<text text-anchor="start" x="491.0" y="626.75" fill="#808080" style="font-size:18px">C</text>
<text text-anchor="end" x="536.0" y="606.75" fill="#808080" style="font-size:18px">Q</text>
<text text-anchor="end" x="536.0" y="626.75" fill="#808080" style="font-size:18px"><tspan style="text-decoration:overline;">Q</tspan></text>
<text text-anchor="middle" x="510.0" y="647.5" fill="#808080" style="font-size:18px">D</text>
<circle cx="480.0" cy="600.0" r="2.0" stroke="#0000b2" stroke-width="4.0" fill="#0000b2" />
<circle cx="480.0" cy="620.0" r="2.0" stroke="#0000b2" stroke-width="4.0" fill="#0000b2" />
<circle cx="540.0" cy="600.0" r="2.0" stroke="#b20000" stroke-width="4.0" fill="#b20000" />
<circle cx="540.0" cy="620.0" r="2.0" stroke="#b20000" stroke-width="4.0" fill="#b20000" />
</g>
<g>
<path d="M 481,670 L 539,670 L 539,710 L 481,710 Z" stroke="#000000" stroke-width="4.0" fill="none"/>
<text text-anchor="start" x="484.0" y="686.75" fill="#808080" style="font-size:18px">D</text>
<path d="M 481,707 L 488,700 L 481,693" stroke="#000000" stroke-width="2.0" fill="none"/>
<text text-anchor="start" x="491.0" y="706.75" fill="#808080" style="font-size:18px">C</text>
<text text-anchor="end" x="536.0" y="686.75" fill="#808080" style="font-size:18px">Q</text>
<text text-anchor="end" x="536.0" y="706.75" fill="#808080" style="font-size:18px"><tspan style="text-decoration:overline;">Q</tspan></text>
<text text-anchor="middle" x="510.0" y="727.5" fill="#808080" style="font-size:18px">D</text>
<circle cx="480.0" cy="680.0" r="2.0" stroke="#0000b2" stroke-width="4.0" fill="#0000b2" />
<circle cx="480.0" cy="700.0" r="2.0" stroke="#0000b2" stroke-width="4.0" fill="#0000b2" />
<circle cx="540.0" cy="680.0" r="2.0" stroke="#b20000" stroke-width="4.0" fill="#b20000" />
<circle cx="540.0" cy="700.0" r="2.0" stroke="#b20000" stroke-width="4.0" fill="#b20000" />
</g>
<g>
<path d="M 481,750 L 539,750 L 539,790 L 481,790 Z" stroke="#000000" stroke-width="4.0" fill="none"/>
<text text-anchor="start" x="484.0" y="766.75" fill="#808080" style="font-size:18px">D</text>
<path d="M 481,787 L 488,780 L 481,773" stroke="#000000" stroke-width="2.0" fill="none"/>
<text text-anchor="start" x="491.0" y="786.75" fill="#808080" style="font-size:18px">C</text>
<text text-anchor="end" x="536.0" y="766.75" fill="#808080" style="font-size:18px">Q</text>
<text text-anchor="end" x="536.0" y="786.75" fill="#808080" style="font-size:18px"><tspan style="text-decoration:overline;">Q</tspan></text>
<text text-anchor="middle" x="510.0" y="807.5" fill="#808080" style="font-size:18px">D</text>
<circle cx="480.0" cy="760.0" r="2.0" stroke="#0000b2" stroke-width="4.0" fill="#0000b2" />
<circle cx="480.0" cy="780.0" r="2.0" stroke="#0000b2" stroke-width="4.0" fill="#0000b2" />
<circle cx="540.0" cy="760.0" r="2.0" stroke="#b20000" stroke-width="4.0" fill="#b20000" />
<circle cx="540.0" cy="780.0" r="2.0" stroke="#b20000" stroke-width="4.0" fill="#b20000" />
</g>
<g>
<path d="M 481,830 L 539,830 L 539,870 L 481,870 Z" stroke="#000000" stroke-width="4.0" fill="none"/>
<text text-anchor="start" x="484.0" y="846.75" fill="#808080" style="font-size:18px">D</text>
<path d="M 481,867 L 488,860 L 481,853" stroke="#000000" stroke-width="2.0" fill="none"/>
<text text-anchor="start" x="491.0" y="866.75" fill="#808080" style="font-size:18px">C</text>
<text text-anchor="end" x="536.0" y="846.75" fill="#808080" style="font-size:18px">Q</text>
<text text-anchor="end" x="536.0" y="866.75" fill="#808080" style="font-size:18px"><tspan style="text-decoration:overline;">Q</tspan></text>
<text text-anchor="middle" x="510.0" y="887.5" fill="#808080" style="font-size:18px">D</text>
<circle cx="480.0" cy="840.0" r="2.0" stroke="#0000b2" stroke-width="4.0" fill="#0000b2" />
<circle cx="480.0" cy="860.0" r="2.0" stroke="#0000b2" stroke-width="4.0" fill="#0000b2" />
<circle cx="540.0" cy="840.0" r="2.0" stroke="#b20000" stroke-width="4.0" fill="#b20000" />
<circle cx="540.0" cy="860.0" r="2.0" stroke="#b20000" stroke-width="4.0" fill="#b20000" />
</g>
<g>
<path d="M 481,910 L 539,910 L 539,950 L 481,950 Z" stroke="#000000" stroke-width="4.0" fill="none"/>
<text text-anchor="start" x="484.0" y="926.75" fill="#808080" style="font-size:18px">D</text>
<path d="M 481,947 L 488,940 L 481,933" stroke="#000000" stroke-width="2.0" fill="none"/>
<text text-anchor="start" x="491.0" y="946.75" fill="#808080" style="font-size:18px">C</text>
<text text-anchor="end" x="536.0" y="926.75" fill="#808080" style="font-size:18px">Q</text>
<text text-anchor="end" x="536.0" y="946.75" fill="#808080" style="font-size:18px"><tspan style="text-decoration:overline;">Q</tspan></text>
<text text-anchor="middle" x="510.0" y="967.5" fill="#808080" style="font-size:18px">D</text>
<circle cx="480.0" cy="920.0" r="2.0" stroke="#0000b2" stroke-width="4.0" fill="#0000b2" />
<circle cx="480.0" cy="940.0" r="2.0" stroke="#0000b2" stroke-width="4.0" fill="#0000b2" />
<circle cx="540.0" cy="920.0" r="2.0" stroke="#b20000" stroke-width="4.0" fill="#b20000" />
<circle cx="540.0" cy="940.0" r="2.0" stroke="#b20000" stroke-width="4.0" fill="#b20000" />
</g>
<g>
<path d="M 481,990 L 539,990 L 539,1030 L 481,1030 Z" stroke="#000000" stroke-width="4.0" fill="none"/>
<text text-anchor="start" x="484.0" y="1006.75" fill="#808080" style="font-size:18px">D</text>
<path d="M 481,1027 L 488,1020 L 481,1013" stroke="#000000" stroke-width="2.0" fill="none"/>
<text text-anchor="start" x="491.0" y="1026.75" fill="#808080" style="font-size:18px">C</text>
<text text-anchor="end" x="536.0" y="1006.75" fill="#808080" style="font-size:18px">Q</text>
<text text-anchor="end" x="536.0" y="1026.75" fill="#808080" style="font-size:18px"><tspan style="text-decoration:overline;">Q</tspan></text>
<text text-anchor="middle" x="510.0" y="1047.5" fill="#808080" style="font-size:18px">D</text>
<circle cx="480.0" cy="1000.0" r="2.0" stroke="#0000b2" stroke-width="4.0" fill="#0000b2" />
<circle cx="480.0" cy="1020.0" r="2.0" stroke="#0000b2" stroke-width="4.0" fill="#0000b2" />
<circle cx="540.0" cy="1000.0" r="2.0" stroke="#b20000" stroke-width="4.0" fill="#b20000" />
<circle cx="540.0" cy="1020.0" r="2.0" stroke="#b20000" stroke-width="4.0" fill="#b20000" />
</g>
<g>
<path d="M 481,1070 L 539,1070 L 539,1110 L 481,1110 Z" stroke="#000000" stroke-width="4.0" fill="none"/>
<text text-anchor="start" x="484.0" y="1086.75" fill="#808080" style="font-size:18px">D</text>
<path d="M 481,1107 L 488,1100 L 481,1093" stroke="#000000" stroke-width="2.0" fill="none"/>
<text text-anchor="start" x="491.0" y="1106.75" fill="#808080" style="font-size:18px">C</text>
<text text-anchor="end" x="536.0" y="1086.75" fill="#808080" style="font-size:18px">Q</text>
<text text-anchor="end" x="536.0" y="1106.75" fill="#808080" style="font-size:18px"><tspan style="text-decoration:overline;">Q</tspan></text>
<text text-anchor="middle" x="510.0" y="1127.5" fill="#808080" style="font-size:18px">D</text>
<circle cx="480.0" cy="1080.0" r="2.0" stroke="#0000b2" stroke-width="4.0" fill="#0000b2" />
<circle cx="480.0" cy="1100.0" r="2.0" stroke="#0000b2" stroke-width="4.0" fill="#0000b2" />
<circle cx="540.0" cy="1080.0" r="2.0" stroke="#b20000" stroke-width="4.0" fill="#b20000" />
<circle cx="540.0" cy="1100.0" r="2.0" stroke="#b20000" stroke-width="4.0" fill="#b20000" />
</g>
<g>
<path d="M 481,1150 L 539,1150 L 539,1190 L 481,1190 Z" stroke="#000000" stroke-width="4.0" fill="none"/>
<text text-anchor="start" x="484.0" y="1166.75" fill="#808080" style="font-size:18px">D</text>
<path d="M 481,1187 L 488,1180 L 481,1173" stroke="#000000" stroke-width="2.0" fill="none"/>
<text text-anchor="start" x="491.0" y="1186.75" fill="#808080" style="font-size:18px">C</text>
<text text-anchor="end" x="536.0" y="1166.75" fill="#808080" style="font-size:18px">Q</text>
<text text-anchor="end" x="536.0" y="1186.75" fill="#808080" style="font-size:18px"><tspan style="text-decoration:overline;">Q</tspan></text>
<text text-anchor="middle" x="510.0" y="1207.5" fill="#808080" style="font-size:18px">D</text>
<circle cx="480.0" cy="1160.0" r="2.0" stroke="#0000b2" stroke-width="4.0" fill="#0000b2" />
<circle cx="480.0" cy="1180.0" r="2.0" stroke="#0000b2" stroke-width="4.0" fill="#0000b2" />
<circle cx="540.0" cy="1160.0" r="2.0" stroke="#b20000" stroke-width="4.0" fill="#b20000" />
<circle cx="540.0" cy="1180.0" r="2.0" stroke="#b20000" stroke-width="4.0" fill="#b20000" />
</g>
<g>
<path d="M 481,1230 L 539,1230 L 539,1270 L 481,1270 Z" stroke="#000000" stroke-width="4.0" fill="none"/>
<text text-anchor="start" x="484.0" y="1246.75" fill="#808080" style="font-size:18px">D</text>
<path d="M 481,1267 L 488,1260 L 481,1253" stroke="#000000" stroke-width="2.0" fill="none"/>
<text text-anchor="start" x="491.0" y="1266.75" fill="#808080" style="font-size:18px">C</text>
<text text-anchor="end" x="536.0" y="1246.75" fill="#808080" style="font-size:18px">Q</text>
<text text-anchor="end" x="536.0" y="1266.75" fill="#808080" style="font-size:18px"><tspan style="text-decoration:overline;">Q</tspan></text>
<text text-anchor="middle" x="510.0" y="1287.5" fill="#808080" style="font-size:18px">D</text>
<circle cx="480.0" cy="1240.0" r="2.0" stroke="#0000b2" stroke-width="4.0" fill="#0000b2" />
<circle cx="480.0" cy="1260.0" r="2.0" stroke="#0000b2" stroke-width="4.0" fill="#0000b2" />
<circle cx="540.0" cy="1240.0" r="2.0" stroke="#b20000" stroke-width="4.0" fill="#b20000" />
<circle cx="540.0" cy="1260.0" r="2.0" stroke="#b20000" stroke-width="4.0" fill="#b20000" />
</g>
<g>
<path d="M 481,1310 L 539,1310 L 539,1350 L 481,1350 Z" stroke="#000000" stroke-width="4.0" fill="none"/>
<text text-anchor="start" x="484.0" y="1326.75" fill="#808080" style="font-size:18px">D</text>
<path d="M 481,1347 L 488,1340 L 481,1333" stroke="#000000" stroke-width="2.0" fill="none"/>
<text text-anchor="start" x="491.0" y="1346.75" fill="#808080" style="font-size:18px">C</text>
<text text-anchor="end" x="536.0" y="1326.75" fill="#808080" style="font-size:18px">Q</text>
<text text-anchor="end" x="536.0" y="1346.75" fill="#808080" style="font-size:18px"><tspan style="text-decoration:overline;">Q</tspan></text>
<text text-anchor="middle" x="510.0" y="1367.5" fill="#808080" style="font-size:18px">D</text>
<circle cx="480.0" cy="1320.0" r="2.0" stroke="#0000b2" stroke-width="4.0" fill="#0000b2" />
<circle cx="480.0" cy="1340.0" r="2.0" stroke="#0000b2" stroke-width="4.0" fill="#0000b2" />
<circle cx="540.0" cy="1320.0" r="2.0" stroke="#b20000" stroke-width="4.0" fill="#b20000" />
<circle cx="540.0" cy="1340.0" r="2.0" stroke="#b20000" stroke-width="4.0" fill="#b20000" />
</g>
<g>
<path d="M 801,616 L 839,625 L 839,935 L 801,944 Z" stroke="#000000" stroke-width="4.0" fill="none"/>
<text text-anchor="start" x="803.0" y="635.5" fill="#808080" style="font-size:18px">0</text>
<circle cx="820.0" cy="940.0" r="2.0" stroke="#0000b2" stroke-width="4.0" fill="#0000b2" />
<circle cx="800.0" cy="620.0" r="2.0" stroke="#0000b2" stroke-width="4.0" fill="#0000b2" />
<circle cx="800.0" cy="640.0" r="2.0" stroke="#0000b2" stroke-width="4.0" fill="#0000b2" />
<circle cx="800.0" cy="660.0" r="2.0" stroke="#0000b2" stroke-width="4.0" fill="#0000b2" />
<circle cx="800.0" cy="680.0" r="2.0" stroke="#0000b2" stroke-width="4.0" fill="#0000b2" />
<circle cx="800.0" cy="700.0" r="2.0" stroke="#0000b2" stroke-width="4.0" fill="#0000b2" />
<circle cx="800.0" cy="720.0" r="2.0" stroke="#0000b2" stroke-width="4.0" fill="#0000b2" />
<circle cx="800.0" cy="740.0" r="2.0" stroke="#0000b2" stroke-width="4.0" fill="#0000b2" />
<circle cx="800.0" cy="760.0" r="2.0" stroke="#0000b2" stroke-width="4.0" fill="#0000b2" />
<circle cx="800.0" cy="780.0" r="2.0" stroke="#0000b2" stroke-width="4.0" fill="#0000b2" />
<circle cx="800.0" cy="800.0" r="2.0" stroke="#0000b2" stroke-width="4.0" fill="#0000b2" />
<circle cx="800.0" cy="820.0" r="2.0" stroke="#0000b2" stroke-width="4.0" fill="#0000b2" />
<circle cx="800.0" cy="840.0" r="2.0" stroke="#0000b2" stroke-width="4.0" fill="#0000b2" />
<circle cx="800.0" cy="860.0" r="2.0" stroke="#0000b2" stroke-width="4.0" fill="#0000b2" />
<circle cx="800.0" cy="880.0" r="2.0" stroke="#0000b2" stroke-width="4.0" fill="#0000b2" />
<circle cx="800.0" cy="900.0" r="2.0" stroke="#0000b2" stroke-width="4.0" fill="#0000b2" />
<circle cx="800.0" cy="920.0" r="2.0" stroke="#0000b2" stroke-width="4.0" fill="#0000b2" />
<circle cx="840.0" cy="780.0" r="2.0" stroke="#b20000" stroke-width="4.0" fill="#b20000" />
</g>
<g>
<path d="M 289,85 L 319,85 L 319,115 L 289,115 Z" stroke="#000000" stroke-width="4.0" fill="none"/>
<circle cx="304.0" cy="100.0" r="9.0" stroke="#000000" stroke-width="4.0" fill="none" />
<text text-anchor="end" x="275.0" y="109.0" fill="#000000" style="font-size:24px"><tspan style="font-style:italic;">ecfg</tspan></text>
<circle cx="320.0" cy="100.0" r="2.0" stroke="#b20000" stroke-width="4.0" fill="#b20000" />
</g>
<g>
<path d="M 289,145 L 319,145 L 319,175 L 289,175 Z" stroke="#000000" stroke-width="4.0" fill="none"/>
<circle cx="304.0" cy="160.0" r="9.0" stroke="#000000" stroke-width="4.0" fill="none" />
<text text-anchor="end" x="275.0" y="169.0" fill="#000000" style="font-size:24px"><tspan style="font-style:italic;">rcfg</tspan></text>
<circle cx="320.0" cy="160.0" r="2.0" stroke="#b20000" stroke-width="4.0" fill="#b20000" />
</g>
<g>
<path d="M 329,1405 L 359,1405 L 359,1435 L 329,1435 Z" stroke="#000000" stroke-width="4.0" fill="none"/>
<circle cx="344.0" cy="1420.0" r="9.0" stroke="#000000" stroke-width="4.0" fill="none" />
<text text-anchor="end" x="315.0" y="1429.0" fill="#000000" style="font-size:24px"><tspan style="font-style:italic;">e0</tspan></text>
<circle cx="360.0" cy="1420.0" r="2.0" stroke="#b20000" stroke-width="4.0" fill="#b20000" />
</g>
<g>
<path d="M 329,1445 L 359,1445 L 359,1475 L 329,1475 Z" stroke="#000000" stroke-width="4.0" fill="none"/>
<circle cx="344.0" cy="1460.0" r="9.0" stroke="#000000" stroke-width="4.0" fill="none" />
<text text-anchor="end" x="315.0" y="1469.0" fill="#000000" style="font-size:24px"><tspan style="font-style:italic;">e1</tspan></text>
<circle cx="360.0" cy="1460.0" r="2.0" stroke="#b20000" stroke-width="4.0" fill="#b20000" />
</g>
<g>
<path d="M 329,1485 L 359,1485 L 359,1515 L 329,1515 Z" stroke="#000000" stroke-width="4.0" fill="none"/>
<circle cx="344.0" cy="1500.0" r="9.0" stroke="#000000" stroke-width="4.0" fill="none" />
<text text-anchor="end" x="315.0" y="1509.0" fill="#000000" style="font-size:24px"><tspan style="font-style:italic;">e2</tspan></text>
<circle cx="360.0" cy="1500.0" r="2.0" stroke="#b20000" stroke-width="4.0" fill="#b20000" />
</g>
<g>
<path d="M 329,1525 L 359,1525 L 359,1555 L 329,1555 Z" stroke="#000000" stroke-width="4.0" fill="none"/>
<circle cx="344.0" cy="1540.0" r="9.0" stroke="#000000" stroke-width="4.0" fill="none" />
<text text-anchor="end" x="315.0" y="1549.0" fill="#000000" style="font-size:24px"><tspan style="font-style:italic;">e3</tspan></text>
<circle cx="360.0" cy="1540.0" r="2.0" stroke="#b20000" stroke-width="4.0" fill="#b20000" />
</g>
<g>
<text text-anchor="end" x="438.0" y="1417.0" fill="#808080" style="font-size:12px">0</text>
<text text-anchor="end" x="438.0" y="1437.0" fill="#808080" style="font-size:12px">1</text>
<text text-anchor="end" x="438.0" y="1457.0" fill="#808080" style="font-size:12px">2</text>
<text text-anchor="end" x="438.0" y="1477.0" fill="#808080" style="font-size:12px">3</text>
<text text-anchor="start" x="462.0" y="1417.0" fill="#808080" style="font-size:12px">0-3</text>
<path d="M 448,1418 L 452,1418 L 452,1482 L 448,1482 Z" stroke="#000000" stroke-width="4.0" fill="#000000" fill-opacity="1.0"/>
<circle cx="440.0" cy="1420.0" r="2.0" stroke="#0000b2" stroke-width="4.0" fill="#0000b2" />
<circle cx="440.0" cy="1440.0" r="2.0" stroke="#0000b2" stroke-width="4.0" fill="#0000b2" />
<circle cx="440.0" cy="1460.0" r="2.0" stroke="#0000b2" stroke-width="4.0" fill="#0000b2" />
<circle cx="440.0" cy="1480.0" r="2.0" stroke="#0000b2" stroke-width="4.0" fill="#0000b2" />
<circle cx="460.0" cy="1420.0" r="2.0" stroke="#b20000" stroke-width="4.0" fill="#b20000" />
</g>
<g>
<path d="M 941,770 L 999,770 L 999,810 L 941,810 Z" stroke="#000000" stroke-width="4.0" fill="none"/>
<text text-anchor="start" x="944.0" y="786.75" fill="#808080" style="font-size:18px">D</text>
<path d="M 941,807 L 948,800 L 941,793" stroke="#000000" stroke-width="2.0" fill="none"/>
<text text-anchor="start" x="951.0" y="806.75" fill="#808080" style="font-size:18px">C</text>
<text text-anchor="end" x="996.0" y="786.75" fill="#808080" style="font-size:18px">Q</text>
<text text-anchor="end" x="996.0" y="806.75" fill="#808080" style="font-size:18px"><tspan style="text-decoration:overline;">Q</tspan></text>
<text text-anchor="middle" x="970.0" y="827.5" fill="#808080" style="font-size:18px">D</text>
<circle cx="940.0" cy="780.0" r="2.0" stroke="#0000b2" stroke-width="4.0" fill="#0000b2" />
<circle cx="940.0" cy="800.0" r="2.0" stroke="#0000b2" stroke-width="4.0" fill="#0000b2" />
<circle cx="1000.0" cy="780.0" r="2.0" stroke="#b20000" stroke-width="4.0" fill="#b20000" />
<circle cx="1000.0" cy="800.0" r="2.0" stroke="#b20000" stroke-width="4.0" fill="#b20000" />
</g>
<g>
<circle cx="1176.0" cy="780.0" r="9.0" stroke="#000000" stroke-width="4.0" fill="none" />
<circle cx="1176.0" cy="780.0" r="15.0" stroke="#000000" stroke-width="4.0" fill="none" />
<text text-anchor="start" x="1205.0" y="789.0" fill="#000000" style="font-size:24px"><tspan style="font-style:italic;">q</tspan></text>
<circle cx="1160.0" cy="780.0" r="2.0" stroke="#0000b2" stroke-width="4.0" fill="#0000b2" />
</g>
<g>
<circle cx="1176.0" cy="700.0" r="9.0" stroke="#000000" stroke-width="4.0" fill="none" />
<circle cx="1176.0" cy="700.0" r="15.0" stroke="#000000" stroke-width="4.0" fill="none" />
<text text-anchor="start" x="1205.0" y="709.0" fill="#000000" style="font-size:24px"><tspan style="font-style:italic;">s</tspan></text>
<circle cx="1160.0" cy="700.0" r="2.0" stroke="#0000b2" stroke-width="4.0" fill="#0000b2" />
</g>
<g>
<circle cx="1136.0" cy="1320.0" r="9.0" stroke="#000000" stroke-width="4.0" fill="none" />
<circle cx="1136.0" cy="1320.0" r="15.0" stroke="#000000" stroke-width="4.0" fill="none" />
<text text-anchor="start" x="1165.0" y="1329.0" fill="#000000" style="font-size:24px"><tspan style="font-style:italic;">scfg</tspan></text>
<circle cx="1120.0" cy="1320.0" r="2.0" stroke="#0000b2" stroke-width="4.0" fill="#0000b2" />
</g>
<g>
<path d="M 329,1605 L 359,1605 L 359,1635 L 329,1635 Z" stroke="#000000" stroke-width="4.0" fill="none"/>
<text text-anchor="end" x="315.0" y="1629.0" fill="#000000" style="font-size:24px"><tspan style="font-style:italic;">c</tspan></text>
<path d="M 335,1625 L 340,1625 L 340,1615 L 345,1615 L 345,1625 L 350,1625 L 350,1615 L 355,1615" stroke="#000000" stroke-width="2.0" fill="none"/>
<circle cx="360.0" cy="1620.0" r="2.0" stroke="#b20000" stroke-width="4.0" fill="#b20000" />
</g>
<g>
<path d="M 1110,730 L 1061,730 L 1061,670 L 1110,670 C 1120,670 1140,680 1139,700 C 1139,720 1120,730 1110,730 Z" stroke="#000000" stroke-width="4.0" fill="none"/>
<circle cx="1060.0" cy="680.0" r="2.0" stroke="#0000b2" stroke-width="4.0" fill="#0000b2" />
<circle cx="1060.0" cy="720.0" r="2.0" stroke="#0000b2" stroke-width="4.0" fill="#0000b2" />
<circle cx="1140.0" cy="700.0" r="2.0" stroke="#b20000" stroke-width="4.0" fill="#b20000" />
</g>
<g>
<path d="M 1110,810 L 1061,810 L 1061,750 L 1110,750 C 1120,750 1140,760 1139,780 C 1139,800 1120,810 1110,810 Z" stroke="#000000" stroke-width="4.0" fill="none"/>
<circle cx="1060.0" cy="760.0" r="2.0" stroke="#0000b2" stroke-width="4.0" fill="#0000b2" />
<circle cx="1060.0" cy="800.0" r="2.0" stroke="#0000b2" stroke-width="4.0" fill="#0000b2" />
<circle cx="1140.0" cy="780.0" r="2.0" stroke="#b20000" stroke-width="4.0" fill="#b20000" />
</g>
<g>
<path d="M 961,870 L 1019,870 L 1019,910 L 961,910 Z" stroke="#000000" stroke-width="4.0" fill="none"/>
<text text-anchor="start" x="964.0" y="886.75" fill="#808080" style="font-size:18px">D</text>
<path d="M 961,907 L 968,900 L 961,893" stroke="#000000" stroke-width="2.0" fill="none"/>
<text text-anchor="start" x="971.0" y="906.75" fill="#808080" style="font-size:18px">C</text>
<text text-anchor="end" x="1016.0" y="886.75" fill="#808080" style="font-size:18px">Q</text>
<text text-anchor="end" x="1016.0" y="906.75" fill="#808080" style="font-size:18px"><tspan style="text-decoration:overline;">Q</tspan></text>
<text text-anchor="middle" x="990.0" y="927.5" fill="#808080" style="font-size:18px">D</text>
<circle cx="960.0" cy="880.0" r="2.0" stroke="#0000b2" stroke-width="4.0" fill="#0000b2" />
<circle cx="960.0" cy="900.0" r="2.0" stroke="#0000b2" stroke-width="4.0" fill="#0000b2" />
<circle cx="1020.0" cy="880.0" r="2.0" stroke="#b20000" stroke-width="4.0" fill="#b20000" />
<circle cx="1020.0" cy="900.0" r="2.0" stroke="#b20000" stroke-width="4.0" fill="#b20000" />
</g>
<g>
<text text-anchor="end" x="937.0" y="889.0" fill="#000000" style="font-size:24px">1</text>
<circle cx="940.0" cy="880.0" r="2.0" stroke="#b20000" stroke-width="4.0" fill="#b20000" />
</g>
</g>
</svg>