<?xml version="1.0" encoding="UTF-8" standalone="no"?>
<!-- Created with Digital by H.Neemann -->
<!-- created: Sun Mar 17 19:33:12 BRT 2024 -->

<svg
   xmlns:svg="http://www.w3.org/2000/svg"
   xmlns="http://www.w3.org/2000/svg"
   width="95.55mm"
   height="40.35mm"
   viewBox="349 163 637 269">
<g stroke-linecap="square">
<path d="M 720,400 L 740,400 L 780,400 L 780,240 L 800,240" stroke="#0000b2" stroke-width="4.0" fill="none"/>
<path d="M 420,400 L 440,400 L 480,400" stroke="#0000b2" stroke-width="4.0" fill="none"/>
<path d="M 420,240 L 440,240 L 480,240" stroke="#0000b2" stroke-width="4.0" fill="none"/>
<path d="M 420,180 L 760,180 L 760,200 L 800,200" stroke="#0000b2" stroke-width="4.0" fill="none"/>
<path d="M 580,260 L 620,260" stroke="#0000b2" stroke-width="4.0" fill="none"/>
<path d="M 720,280 L 760,280 L 760,360 L 600,360 L 600,420 L 620,420" stroke="#0000b2" stroke-width="4.0" fill="none"/>
<path d="M 440,400 L 440,280 L 460,280" stroke="#0000b2" stroke-width="4.0" fill="none"/>
<path d="M 880,220 L 920,220" stroke="#0000b2" stroke-width="4.0" fill="none"/>
<path d="M 580,380 L 620,380" stroke="#0000b2" stroke-width="4.0" fill="none"/>
<path d="M 440,240 L 440,260 L 420,260 L 420,360 L 480,360" stroke="#0000b2" stroke-width="4.0" fill="none"/>
<path d="M 740,400 L 740,340 L 600,340 L 600,300 L 620,300" stroke="#0000b2" stroke-width="4.0" fill="none"/>
<g>
<circle cx="740.0" cy="400.0" r="4.0" stroke="#0000b2" stroke-width="4.0" fill="#0000b2" />
<circle cx="440.0" cy="400.0" r="4.0" stroke="#0000b2" stroke-width="4.0" fill="#0000b2" />
<circle cx="440.0" cy="240.0" r="4.0" stroke="#0000b2" stroke-width="4.0" fill="#0000b2" />
</g>
<g>
<path d="M 389,385 L 419,385 L 419,415 L 389,415 Z" stroke="#000000" stroke-width="4.0" fill="none"/>
<circle cx="404.0" cy="400.0" r="9.0" stroke="#000000" stroke-width="4.0" fill="none" />
<text text-anchor="end" x="375.0" y="409.0" fill="#000000" style="font-size:24px"><tspan style="font-style:italic;">D</tspan></text>
<circle cx="420.0" cy="400.0" r="2.0" stroke="#b20000" stroke-width="4.0" fill="#b20000" />
</g>
<g>
<path d="M 389,225 L 419,225 L 419,255 L 389,255 Z" stroke="#000000" stroke-width="4.0" fill="none"/>
<circle cx="404.0" cy="240.0" r="9.0" stroke="#000000" stroke-width="4.0" fill="none" />
<text text-anchor="end" x="375.0" y="249.0" fill="#000000" style="font-size:24px"><tspan style="font-style:italic;">W</tspan></text>
<circle cx="420.0" cy="240.0" r="2.0" stroke="#b20000" stroke-width="4.0" fill="#b20000" />
</g>
<g>
<path d="M 850,250 L 801,250 L 801,190 L 850,190 C 860,190 880,200 879,220 C 879,240 860,250 850,250 Z" stroke="#000000" stroke-width="4.0" fill="none"/>
<circle cx="800.0" cy="200.0" r="2.0" stroke="#0000b2" stroke-width="4.0" fill="#0000b2" />
<circle cx="800.0" cy="240.0" r="2.0" stroke="#0000b2" stroke-width="4.0" fill="#0000b2" />
<circle cx="880.0" cy="220.0" r="2.0" stroke="#b20000" stroke-width="4.0" fill="#b20000" />
</g>
<g>
<path d="M 389,165 L 419,165 L 419,195 L 389,195 Z" stroke="#000000" stroke-width="4.0" fill="none"/>
<circle cx="404.0" cy="180.0" r="9.0" stroke="#000000" stroke-width="4.0" fill="none" />
<text text-anchor="end" x="375.0" y="189.0" fill="#000000" style="font-size:24px"><tspan style="font-style:italic;">R</tspan></text>
<circle cx="420.0" cy="180.0" r="2.0" stroke="#b20000" stroke-width="4.0" fill="#b20000" />
</g>
<g>
<circle cx="936.0" cy="220.0" r="9.0" stroke="#000000" stroke-width="4.0" fill="none" />
<circle cx="936.0" cy="220.0" r="15.0" stroke="#000000" stroke-width="4.0" fill="none" />
<text text-anchor="start" x="965.0" y="229.0" fill="#000000" style="font-size:24px"><tspan style="font-style:italic;">Q</tspan></text>
<circle cx="920.0" cy="220.0" r="2.0" stroke="#0000b2" stroke-width="4.0" fill="#0000b2" />
</g>
<g>
<path d="M 530,290 L 481,290 L 481,230 L 530,230 C 540,230 560,240 559,260 C 559,280 540,290 530,290 Z" stroke="#000000" stroke-width="4.0" fill="none"/>
<circle cx="470.0" cy="280.0" r="8.0" stroke="#000000" stroke-width="4.0" fill="none" />
<circle cx="570.0" cy="260.0" r="9.0" stroke="#000000" stroke-width="4.0" fill="none" />
<circle cx="480.0" cy="240.0" r="2.0" stroke="#0000b2" stroke-width="4.0" fill="#0000b2" />
<circle cx="460.0" cy="280.0" r="2.0" stroke="#0000b2" stroke-width="4.0" fill="#0000b2" />
<circle cx="580.0" cy="260.0" r="2.0" stroke="#b20000" stroke-width="4.0" fill="#b20000" />
</g>
<g>
<path d="M 530,410 L 481,410 L 481,350 L 530,350 C 540,350 560,360 559,380 C 559,400 540,410 530,410 Z" stroke="#000000" stroke-width="4.0" fill="none"/>
<circle cx="570.0" cy="380.0" r="9.0" stroke="#000000" stroke-width="4.0" fill="none" />
<circle cx="480.0" cy="360.0" r="2.0" stroke="#0000b2" stroke-width="4.0" fill="#0000b2" />
<circle cx="480.0" cy="400.0" r="2.0" stroke="#0000b2" stroke-width="4.0" fill="#0000b2" />
<circle cx="580.0" cy="380.0" r="2.0" stroke="#b20000" stroke-width="4.0" fill="#b20000" />
</g>
<g>
<path d="M 670,310 L 621,310 L 621,250 L 670,250 C 680,250 700,260 699,280 C 699,300 680,310 670,310 Z" stroke="#000000" stroke-width="4.0" fill="none"/>
<circle cx="710.0" cy="280.0" r="9.0" stroke="#000000" stroke-width="4.0" fill="none" />
<circle cx="620.0" cy="260.0" r="2.0" stroke="#0000b2" stroke-width="4.0" fill="#0000b2" />
<circle cx="620.0" cy="300.0" r="2.0" stroke="#0000b2" stroke-width="4.0" fill="#0000b2" />
<circle cx="720.0" cy="280.0" r="2.0" stroke="#b20000" stroke-width="4.0" fill="#b20000" />
</g>
<g>
<path d="M 670,430 L 621,430 L 621,370 L 670,370 C 680,370 700,380 699,400 C 699,420 680,430 670,430 Z" stroke="#000000" stroke-width="4.0" fill="none"/>
<circle cx="710.0" cy="400.0" r="9.0" stroke="#000000" stroke-width="4.0" fill="none" />
<circle cx="620.0" cy="380.0" r="2.0" stroke="#0000b2" stroke-width="4.0" fill="#0000b2" />
<circle cx="620.0" cy="420.0" r="2.0" stroke="#0000b2" stroke-width="4.0" fill="#0000b2" />
<circle cx="720.0" cy="400.0" r="2.0" stroke="#b20000" stroke-width="4.0" fill="#b20000" />
</g>
</g>
</svg>