<?xml version="1.0" encoding="UTF-8" standalone="no"?>
<!-- Created with Digital by H.Neemann -->
<!-- created: Sun Mar 17 11:40:21 BRT 2024 -->

<svg
   xmlns:svg="http://www.w3.org/2000/svg"
   xmlns="http://www.w3.org/2000/svg"
   width="265.65mm"
   height="312.9mm"
   viewBox="197 -1322 1771 2086">
<g stroke-linecap="square">
<path d="M 340,40 L 350,40 L 360,40" stroke="#000000" stroke-width="4.0" fill="none"/>
<path d="M 360,60 L 350,60" stroke="#000000" stroke-width="4.0" fill="none"/>
<path d="M 360,80 L 350,80" stroke="#000000" stroke-width="4.0" fill="none"/>
<path d="M 360,100 L 350,100" stroke="#000000" stroke-width="4.0" fill="none"/>
<path d="M 340,280 L 350,280 L 360,280" stroke="#000000" stroke-width="4.0" fill="none"/>
<path d="M 360,300 L 350,300" stroke="#000000" stroke-width="4.0" fill="none"/>
<path d="M 360,320 L 350,320" stroke="#000000" stroke-width="4.0" fill="none"/>
<path d="M 360,340 L 350,340" stroke="#000000" stroke-width="4.0" fill="none"/>
<path d="M 1800,620 L 1810,620 L 1820,620" stroke="#000000" stroke-width="4.0" fill="none"/>
<path d="M 1800,640 L 1810,640" stroke="#000000" stroke-width="4.0" fill="none"/>
<path d="M 1800,660 L 1810,660" stroke="#000000" stroke-width="4.0" fill="none"/>
<path d="M 1800,680 L 1810,680" stroke="#000000" stroke-width="4.0" fill="none"/>
<path d="M 1800,700 L 1810,700" stroke="#000000" stroke-width="4.0" fill="none"/>
<path d="M 1800,720 L 1810,720" stroke="#000000" stroke-width="4.0" fill="none"/>
<path d="M 1800,740 L 1810,740" stroke="#000000" stroke-width="4.0" fill="none"/>
<path d="M 1800,760 L 1810,760" stroke="#000000" stroke-width="4.0" fill="none"/>
<path d="M 840,-320 L 840,-260 L 860,-260" stroke="#0000b2" stroke-width="4.0" fill="none"/>
<path d="M 1020,-320 L 1020,-260 L 1040,-260" stroke="#0000b2" stroke-width="4.0" fill="none"/>
<path d="M 1200,-320 L 1200,-260 L 1220,-260" stroke="#0000b2" stroke-width="4.0" fill="none"/>
<path d="M 1380,-320 L 1380,-260 L 1400,-260" stroke="#0000b2" stroke-width="4.0" fill="none"/>
<path d="M 1460,-260 L 1500,-260 L 1500,-100 L 1340,-100 L 1340,660 L 1800,660" stroke="#0000b2" stroke-width="4.0" fill="none"/>
<path d="M 1280,-260 L 1320,-260 L 1320,-120 L 1160,-120 L 1160,340 L 1220,340" stroke="#0000b2" stroke-width="4.0" fill="none"/>
<path d="M 1100,-260 L 1140,-260 L 1140,-100 L 980,-100 L 980,340 L 1040,340" stroke="#0000b2" stroke-width="4.0" fill="none"/>
<path d="M 920,-260 L 960,-260 L 960,-80 L 800,-80 L 800,340 L 860,340" stroke="#0000b2" stroke-width="4.0" fill="none"/>
<path d="M 260,280 L 340,280" stroke="#0000b2" stroke-width="4.0" fill="none"/>
<path d="M 360,280 L 520,280 L 520,-1240 L 1140,-1240 L 1320,-1240 L 1500,-1240 L 1680,-1240 L 1680,-1220" stroke="#0000b2" stroke-width="4.0" fill="none"/>
<path d="M 260,40 L 340,40" stroke="#0000b2" stroke-width="4.0" fill="none"/>
<path d="M 360,40 L 440,40 L 1220,40 L 1220,180" stroke="#0000b2" stroke-width="4.0" fill="none"/>
<path d="M 360,300 L 540,300 L 540,-1020 L 1000,-1020 L 1180,-1020 L 1360,-1020 L 1540,-1020 L 1540,-1000" stroke="#0000b2" stroke-width="4.0" fill="none"/>
<path d="M 1560,-820 L 1580,-820" stroke="#0000b2" stroke-width="4.0" fill="none"/>
<path d="M 500,-1040 L 500,-440 L 860,-440 L 860,-400" stroke="#0000b2" stroke-width="4.0" fill="none"/>
<path d="M 360,60 L 460,60 L 1040,60 L 1040,180" stroke="#0000b2" stroke-width="4.0" fill="none"/>
<path d="M 660,260 L 660,320 L 680,320" stroke="#0000b2" stroke-width="4.0" fill="none"/>
<path d="M 840,260 L 840,320 L 860,320" stroke="#0000b2" stroke-width="4.0" fill="none"/>
<path d="M 1020,260 L 1020,320 L 1040,320" stroke="#0000b2" stroke-width="4.0" fill="none"/>
<path d="M 1200,260 L 1200,320 L 1220,320" stroke="#0000b2" stroke-width="4.0" fill="none"/>
<path d="M 1280,320 L 1320,320 L 1320,480 L 1160,480 L 1160,680 L 1800,680" stroke="#0000b2" stroke-width="4.0" fill="none"/>
<path d="M 1100,320 L 1140,320 L 1140,460 L 980,460 L 980,700 L 1800,700" stroke="#0000b2" stroke-width="4.0" fill="none"/>
<path d="M 920,320 L 960,320 L 960,480 L 800,480 L 800,720 L 1800,720" stroke="#0000b2" stroke-width="4.0" fill="none"/>
<path d="M 740,320 L 780,320 L 780,500 L 620,500 L 620,740 L 1800,740" stroke="#0000b2" stroke-width="4.0" fill="none"/>
<path d="M 360,320 L 560,320 L 560,-420 L 820,-420 L 1000,-420 L 1180,-420 L 1360,-420 L 1360,-400" stroke="#0000b2" stroke-width="4.0" fill="none"/>
<path d="M 1640,-840 L 1660,-840 L 1660,-760 L 1380,-760 L 1380,-820 L 1400,-820" stroke="#0000b2" stroke-width="4.0" fill="none"/>
<path d="M 1460,-840 L 1480,-840 L 1480,-740 L 1200,-740 L 1200,-820 L 1220,-820" stroke="#0000b2" stroke-width="4.0" fill="none"/>
<path d="M 1280,-840 L 1300,-840 L 1300,-720 L 1020,-720 L 1020,-820 L 1040,-820" stroke="#0000b2" stroke-width="4.0" fill="none"/>
<path d="M 1520,-1140 L 1520,-840 L 1580,-840" stroke="#0000b2" stroke-width="4.0" fill="none"/>
<path d="M 1340,-1140 L 1340,-840 L 1400,-840" stroke="#0000b2" stroke-width="4.0" fill="none"/>
<path d="M 1160,-1140 L 1160,-840 L 1220,-840" stroke="#0000b2" stroke-width="4.0" fill="none"/>
<path d="M 1020,-840 L 1040,-840" stroke="#0000b2" stroke-width="4.0" fill="none"/>
<path d="M 480,80 L 480,-460 L 1040,-460 L 1040,-400" stroke="#0000b2" stroke-width="4.0" fill="none"/>
<path d="M 360,80 L 480,80 L 860,80 L 860,180" stroke="#0000b2" stroke-width="4.0" fill="none"/>
<path d="M 1100,340 L 1120,340 L 1120,440 L 840,440 L 840,360 L 860,360" stroke="#0000b2" stroke-width="4.0" fill="none"/>
<path d="M 920,340 L 940,340 L 940,460 L 660,460 L 660,360 L 680,360" stroke="#0000b2" stroke-width="4.0" fill="none"/>
<path d="M 740,340 L 760,340 L 760,480 L 440,480 L 440,760 L 1800,760" stroke="#0000b2" stroke-width="4.0" fill="none"/>
<path d="M 360,340 L 580,340 L 580,160 L 640,160 L 820,160 L 1000,160 L 1180,160 L 1180,180" stroke="#0000b2" stroke-width="4.0" fill="none"/>
<path d="M 1380,-220 L 1400,-220" stroke="#0000b2" stroke-width="4.0" fill="none"/>
<path d="M 1020,-920 L 1020,-860 L 1040,-860" stroke="#0000b2" stroke-width="4.0" fill="none"/>
<path d="M 1200,-920 L 1200,-860 L 1220,-860" stroke="#0000b2" stroke-width="4.0" fill="none"/>
<path d="M 1380,-920 L 1380,-860 L 1400,-860" stroke="#0000b2" stroke-width="4.0" fill="none"/>
<path d="M 1560,-920 L 1560,-860 L 1580,-860" stroke="#0000b2" stroke-width="4.0" fill="none"/>
<path d="M 1280,-860 L 1320,-860 L 1320,-700 L 1160,-700 L 1160,-240 L 1220,-240" stroke="#0000b2" stroke-width="4.0" fill="none"/>
<path d="M 1100,-860 L 1140,-860 L 1140,-680 L 980,-680 L 980,-240 L 1040,-240" stroke="#0000b2" stroke-width="4.0" fill="none"/>
<path d="M 460,-1080 L 460,-480 L 1220,-480 L 1220,-400" stroke="#0000b2" stroke-width="4.0" fill="none"/>
<path d="M 360,100 L 500,100 L 680,100 L 680,180" stroke="#0000b2" stroke-width="4.0" fill="none"/>
<path d="M 1200,360 L 1220,360" stroke="#0000b2" stroke-width="4.0" fill="none"/>
<path d="M 1820,620 L 1900,620" stroke="#0000b2" stroke-width="4.0" fill="none"/>
<path d="M 1700,-1140 L 1700,620 L 1800,620" stroke="#0000b2" stroke-width="4.0" fill="none"/>
<path d="M 1100,-240 L 1120,-240 L 1120,-120 L 840,-120 L 840,-220 L 860,-220" stroke="#0000b2" stroke-width="4.0" fill="none"/>
<path d="M 440,-1100 L 440,-500 L 1400,-500 L 1400,-400" stroke="#0000b2" stroke-width="4.0" fill="none"/>
<path d="M 640,160 L 640,180" stroke="#0000b2" stroke-width="4.0" fill="none"/>
<path d="M 1540,-1220 L 1540,-1300 L 460,-1300 L 460,-1080 L 1400,-1080 L 1400,-1000" stroke="#0000b2" stroke-width="4.0" fill="none"/>
<path d="M 460,-480 L 460,60" stroke="#0000b2" stroke-width="4.0" fill="none"/>
<path d="M 1360,-1020 L 1360,-1000" stroke="#0000b2" stroke-width="4.0" fill="none"/>
<path d="M 1180,-420 L 1180,-400" stroke="#0000b2" stroke-width="4.0" fill="none"/>
<path d="M 1180,-1020 L 1180,-1000" stroke="#0000b2" stroke-width="4.0" fill="none"/>
<path d="M 1500,-1240 L 1500,-1220" stroke="#0000b2" stroke-width="4.0" fill="none"/>
<path d="M 1100,-840 L 1120,-840 L 1120,-700 L 800,-700 L 800,-240 L 860,-240" stroke="#0000b2" stroke-width="4.0" fill="none"/>
<path d="M 1220,-1000 L 1220,-1060 L 480,-1060 L 480,-1280 L 1360,-1280 L 1360,-1220" stroke="#0000b2" stroke-width="4.0" fill="none"/>
<path d="M 480,-1060 L 480,-460" stroke="#0000b2" stroke-width="4.0" fill="none"/>
<path d="M 1320,-1240 L 1320,-1220" stroke="#0000b2" stroke-width="4.0" fill="none"/>
<path d="M 1000,160 L 1000,180" stroke="#0000b2" stroke-width="4.0" fill="none"/>
<path d="M 1000,-420 L 1000,-400" stroke="#0000b2" stroke-width="4.0" fill="none"/>
<path d="M 1000,-1020 L 1000,-1000" stroke="#0000b2" stroke-width="4.0" fill="none"/>
<path d="M 680,340 L 620,340 L 620,-100 L 940,-100 L 940,-240 L 920,-240" stroke="#0000b2" stroke-width="4.0" fill="none"/>
<path d="M 1460,-240 L 1480,-240 L 1480,-160 L 1200,-160 L 1200,-220 L 1220,-220" stroke="#0000b2" stroke-width="4.0" fill="none"/>
<path d="M 1800,640 L 1520,640 L 1520,-700 L 1680,-700 L 1680,-860 L 1640,-860" stroke="#0000b2" stroke-width="4.0" fill="none"/>
<path d="M 1140,-1240 L 1140,-1220" stroke="#0000b2" stroke-width="4.0" fill="none"/>
<path d="M 820,160 L 820,180" stroke="#0000b2" stroke-width="4.0" fill="none"/>
<path d="M 820,-420 L 820,-400" stroke="#0000b2" stroke-width="4.0" fill="none"/>
<path d="M 1040,-1000 L 1040,-1040 L 500,-1040 L 500,-1260 L 1180,-1260 L 1180,-1220" stroke="#0000b2" stroke-width="4.0" fill="none"/>
<path d="M 500,-440 L 500,100" stroke="#0000b2" stroke-width="4.0" fill="none"/>
<path d="M 1720,-1220 L 1720,-1320 L 440,-1320 L 440,-1100 L 1580,-1100 L 1580,-1000" stroke="#0000b2" stroke-width="4.0" fill="none"/>
<path d="M 440,-500 L 440,40" stroke="#0000b2" stroke-width="4.0" fill="none"/>
<path d="M 1280,340 L 1300,340 L 1300,420 L 1020,420 L 1020,360 L 1040,360" stroke="#0000b2" stroke-width="4.0" fill="none"/>
<path d="M 1280,-240 L 1300,-240 L 1300,-140 L 1020,-140 L 1020,-220 L 1040,-220" stroke="#0000b2" stroke-width="4.0" fill="none"/>
<path d="M 1460,-860 L 1500,-860 L 1500,-720 L 1340,-720 L 1340,-240 L 1400,-240" stroke="#0000b2" stroke-width="4.0" fill="none"/>
<g>
<circle cx="500.0" cy="-1040.0" r="4.0" stroke="#0000b2" stroke-width="4.0" fill="#0000b2" />
<circle cx="640.0" cy="160.0" r="4.0" stroke="#0000b2" stroke-width="4.0" fill="#0000b2" />
<circle cx="820.0" cy="160.0" r="4.0" stroke="#0000b2" stroke-width="4.0" fill="#0000b2" />
<circle cx="1000.0" cy="160.0" r="4.0" stroke="#0000b2" stroke-width="4.0" fill="#0000b2" />
<circle cx="820.0" cy="-420.0" r="4.0" stroke="#0000b2" stroke-width="4.0" fill="#0000b2" />
<circle cx="1180.0" cy="-420.0" r="4.0" stroke="#0000b2" stroke-width="4.0" fill="#0000b2" />
<circle cx="1000.0" cy="-420.0" r="4.0" stroke="#0000b2" stroke-width="4.0" fill="#0000b2" />
<circle cx="480.0" cy="-1060.0" r="4.0" stroke="#0000b2" stroke-width="4.0" fill="#0000b2" />
<circle cx="440.0" cy="40.0" r="4.0" stroke="#0000b2" stroke-width="4.0" fill="#0000b2" />
<circle cx="500.0" cy="-440.0" r="4.0" stroke="#0000b2" stroke-width="4.0" fill="#0000b2" />
<circle cx="460.0" cy="-1080.0" r="4.0" stroke="#0000b2" stroke-width="4.0" fill="#0000b2" />
<circle cx="460.0" cy="60.0" r="4.0" stroke="#0000b2" stroke-width="4.0" fill="#0000b2" />
<circle cx="480.0" cy="-460.0" r="4.0" stroke="#0000b2" stroke-width="4.0" fill="#0000b2" />
<circle cx="440.0" cy="-1100.0" r="4.0" stroke="#0000b2" stroke-width="4.0" fill="#0000b2" />
<circle cx="480.0" cy="80.0" r="4.0" stroke="#0000b2" stroke-width="4.0" fill="#0000b2" />
<circle cx="1140.0" cy="-1240.0" r="4.0" stroke="#0000b2" stroke-width="4.0" fill="#0000b2" />
<circle cx="1500.0" cy="-1240.0" r="4.0" stroke="#0000b2" stroke-width="4.0" fill="#0000b2" />
<circle cx="1320.0" cy="-1240.0" r="4.0" stroke="#0000b2" stroke-width="4.0" fill="#0000b2" />
<circle cx="460.0" cy="-480.0" r="4.0" stroke="#0000b2" stroke-width="4.0" fill="#0000b2" />
<circle cx="500.0" cy="100.0" r="4.0" stroke="#0000b2" stroke-width="4.0" fill="#0000b2" />
<circle cx="440.0" cy="-500.0" r="4.0" stroke="#0000b2" stroke-width="4.0" fill="#0000b2" />
<circle cx="1000.0" cy="-1020.0" r="4.0" stroke="#0000b2" stroke-width="4.0" fill="#0000b2" />
<circle cx="1360.0" cy="-1020.0" r="4.0" stroke="#0000b2" stroke-width="4.0" fill="#0000b2" />
<circle cx="1180.0" cy="-1020.0" r="4.0" stroke="#0000b2" stroke-width="4.0" fill="#0000b2" />
</g>
<g>
<path d="M 229,25 L 259,25 L 259,55 L 229,55 Z" stroke="#000000" stroke-width="4.0" fill="none"/>
<circle cx="244.0" cy="40.0" r="9.0" stroke="#000000" stroke-width="4.0" fill="none" />
<text text-anchor="end" x="215.0" y="49.0" fill="#000000" style="font-size:24px"><tspan style="font-style:italic;">A</tspan></text>
<circle cx="260.0" cy="40.0" r="2.0" stroke="#b20000" stroke-width="4.0" fill="#b20000" />
</g>
<g>
<path d="M 229,265 L 259,265 L 259,295 L 229,295 Z" stroke="#000000" stroke-width="4.0" fill="none"/>
<circle cx="244.0" cy="280.0" r="9.0" stroke="#000000" stroke-width="4.0" fill="none" />
<text text-anchor="end" x="215.0" y="289.0" fill="#000000" style="font-size:24px"><tspan style="font-style:italic;">B</tspan></text>
<circle cx="260.0" cy="280.0" r="2.0" stroke="#b20000" stroke-width="4.0" fill="#b20000" />
</g>
<g>
<text text-anchor="end" x="338.0" y="37.0" fill="#808080" style="font-size:12px">0-3</text>
<text text-anchor="start" x="362.0" y="37.0" fill="#808080" style="font-size:12px">0</text>
<text text-anchor="start" x="362.0" y="57.0" fill="#808080" style="font-size:12px">1</text>
<text text-anchor="start" x="362.0" y="77.0" fill="#808080" style="font-size:12px">2</text>
<text text-anchor="start" x="362.0" y="97.0" fill="#808080" style="font-size:12px">3</text>
<path d="M 348,38 L 352,38 L 352,102 L 348,102 Z" stroke="#000000" stroke-width="4.0" fill="#000000" fill-opacity="1.0"/>
<circle cx="340.0" cy="40.0" r="2.0" stroke="#0000b2" stroke-width="4.0" fill="#0000b2" />
<circle cx="360.0" cy="40.0" r="2.0" stroke="#b20000" stroke-width="4.0" fill="#b20000" />
<circle cx="360.0" cy="60.0" r="2.0" stroke="#b20000" stroke-width="4.0" fill="#b20000" />
<circle cx="360.0" cy="80.0" r="2.0" stroke="#b20000" stroke-width="4.0" fill="#b20000" />
<circle cx="360.0" cy="100.0" r="2.0" stroke="#b20000" stroke-width="4.0" fill="#b20000" />
</g>
<g>
<text text-anchor="end" x="338.0" y="277.0" fill="#808080" style="font-size:12px">0-3</text>
<text text-anchor="start" x="362.0" y="277.0" fill="#808080" style="font-size:12px">0</text>
<text text-anchor="start" x="362.0" y="297.0" fill="#808080" style="font-size:12px">1</text>
<text text-anchor="start" x="362.0" y="317.0" fill="#808080" style="font-size:12px">2</text>
<text text-anchor="start" x="362.0" y="337.0" fill="#808080" style="font-size:12px">3</text>
<path d="M 348,278 L 352,278 L 352,342 L 348,342 Z" stroke="#000000" stroke-width="4.0" fill="#000000" fill-opacity="1.0"/>
<circle cx="340.0" cy="280.0" r="2.0" stroke="#0000b2" stroke-width="4.0" fill="#0000b2" />
<circle cx="360.0" cy="280.0" r="2.0" stroke="#b20000" stroke-width="4.0" fill="#b20000" />
<circle cx="360.0" cy="300.0" r="2.0" stroke="#b20000" stroke-width="4.0" fill="#b20000" />
<circle cx="360.0" cy="320.0" r="2.0" stroke="#b20000" stroke-width="4.0" fill="#b20000" />
<circle cx="360.0" cy="340.0" r="2.0" stroke="#b20000" stroke-width="4.0" fill="#b20000" />
</g>
<g>
<path d="M 630,230 L 630,181 L 690,181 L 690,230 C 690,240 680,260 660,259 C 640,259 630,240 630,230 Z" stroke="#000000" stroke-width="4.0" fill="none"/>
<circle cx="680.0" cy="180.0" r="2.0" stroke="#0000b2" stroke-width="4.0" fill="#0000b2" />
<circle cx="640.0" cy="180.0" r="2.0" stroke="#0000b2" stroke-width="4.0" fill="#0000b2" />
<circle cx="660.0" cy="260.0" r="2.0" stroke="#b20000" stroke-width="4.0" fill="#b20000" />
</g>
<g>
<path d="M 681,306 L 739,306 L 739,374 L 681,374 Z" stroke="#ffffb4" stroke-width="0.0" fill="#ffffb4" fill-opacity="0.7843137254901961"/>
<path d="M 681,306 L 739,306 L 739,374 L 681,374 Z" stroke="#000000" stroke-width="4.0" fill="none"/>
<text text-anchor="start" x="684.0" y="326.75" fill="#808080" style="font-size:18px">A</text>
<text text-anchor="start" x="684.0" y="346.75" fill="#808080" style="font-size:18px">B</text>
<text text-anchor="start" x="684.0" y="366.75" fill="#808080" style="font-size:18px">C</text>
<text text-anchor="end" x="736.0" y="326.75" fill="#808080" style="font-size:18px">S</text>
<text text-anchor="end" x="736.0" y="346.75" fill="#808080" style="font-size:18px">V</text>
<text text-anchor="middle" x="710.0" y="391.5" fill="#808080" style="font-size:18px">somador</text>
<circle cx="680.0" cy="320.0" r="2.0" stroke="#0000b2" stroke-width="4.0" fill="#0000b2" />
<circle cx="680.0" cy="340.0" r="2.0" stroke="#0000b2" stroke-width="4.0" fill="#0000b2" />
<circle cx="680.0" cy="360.0" r="2.0" stroke="#0000b2" stroke-width="4.0" fill="#0000b2" />
<circle cx="740.0" cy="320.0" r="2.0" stroke="#b20000" stroke-width="4.0" fill="#b20000" />
<circle cx="740.0" cy="340.0" r="2.0" stroke="#b20000" stroke-width="4.0" fill="#b20000" />
</g>
<g>
<path d="M 810,230 L 810,181 L 870,181 L 870,230 C 870,240 860,260 840,259 C 820,259 810,240 810,230 Z" stroke="#000000" stroke-width="4.0" fill="none"/>
<circle cx="860.0" cy="180.0" r="2.0" stroke="#0000b2" stroke-width="4.0" fill="#0000b2" />
<circle cx="820.0" cy="180.0" r="2.0" stroke="#0000b2" stroke-width="4.0" fill="#0000b2" />
<circle cx="840.0" cy="260.0" r="2.0" stroke="#b20000" stroke-width="4.0" fill="#b20000" />
</g>
<g>
<path d="M 861,306 L 919,306 L 919,374 L 861,374 Z" stroke="#ffffb4" stroke-width="0.0" fill="#ffffb4" fill-opacity="0.7843137254901961"/>
<path d="M 861,306 L 919,306 L 919,374 L 861,374 Z" stroke="#000000" stroke-width="4.0" fill="none"/>
<text text-anchor="start" x="864.0" y="326.75" fill="#808080" style="font-size:18px">A</text>
<text text-anchor="start" x="864.0" y="346.75" fill="#808080" style="font-size:18px">B</text>
<text text-anchor="start" x="864.0" y="366.75" fill="#808080" style="font-size:18px">C</text>
<text text-anchor="end" x="916.0" y="326.75" fill="#808080" style="font-size:18px">S</text>
<text text-anchor="end" x="916.0" y="346.75" fill="#808080" style="font-size:18px">V</text>
<text text-anchor="middle" x="890.0" y="391.5" fill="#808080" style="font-size:18px">somador</text>
<circle cx="860.0" cy="320.0" r="2.0" stroke="#0000b2" stroke-width="4.0" fill="#0000b2" />
<circle cx="860.0" cy="340.0" r="2.0" stroke="#0000b2" stroke-width="4.0" fill="#0000b2" />
<circle cx="860.0" cy="360.0" r="2.0" stroke="#0000b2" stroke-width="4.0" fill="#0000b2" />
<circle cx="920.0" cy="320.0" r="2.0" stroke="#b20000" stroke-width="4.0" fill="#b20000" />
<circle cx="920.0" cy="340.0" r="2.0" stroke="#b20000" stroke-width="4.0" fill="#b20000" />
</g>
<g>
<path d="M 990,230 L 990,181 L 1050,181 L 1050,230 C 1050,240 1040,260 1020,259 C 1000,259 990,240 990,230 Z" stroke="#000000" stroke-width="4.0" fill="none"/>
<circle cx="1040.0" cy="180.0" r="2.0" stroke="#0000b2" stroke-width="4.0" fill="#0000b2" />
<circle cx="1000.0" cy="180.0" r="2.0" stroke="#0000b2" stroke-width="4.0" fill="#0000b2" />
<circle cx="1020.0" cy="260.0" r="2.0" stroke="#b20000" stroke-width="4.0" fill="#b20000" />
</g>
<g>
<path d="M 1041,306 L 1099,306 L 1099,374 L 1041,374 Z" stroke="#ffffb4" stroke-width="0.0" fill="#ffffb4" fill-opacity="0.7843137254901961"/>
<path d="M 1041,306 L 1099,306 L 1099,374 L 1041,374 Z" stroke="#000000" stroke-width="4.0" fill="none"/>
<text text-anchor="start" x="1044.0" y="326.75" fill="#808080" style="font-size:18px">A</text>
<text text-anchor="start" x="1044.0" y="346.75" fill="#808080" style="font-size:18px">B</text>
<text text-anchor="start" x="1044.0" y="366.75" fill="#808080" style="font-size:18px">C</text>
<text text-anchor="end" x="1096.0" y="326.75" fill="#808080" style="font-size:18px">S</text>
<text text-anchor="end" x="1096.0" y="346.75" fill="#808080" style="font-size:18px">V</text>
<text text-anchor="middle" x="1070.0" y="391.5" fill="#808080" style="font-size:18px">somador</text>
<circle cx="1040.0" cy="320.0" r="2.0" stroke="#0000b2" stroke-width="4.0" fill="#0000b2" />
<circle cx="1040.0" cy="340.0" r="2.0" stroke="#0000b2" stroke-width="4.0" fill="#0000b2" />
<circle cx="1040.0" cy="360.0" r="2.0" stroke="#0000b2" stroke-width="4.0" fill="#0000b2" />
<circle cx="1100.0" cy="320.0" r="2.0" stroke="#b20000" stroke-width="4.0" fill="#b20000" />
<circle cx="1100.0" cy="340.0" r="2.0" stroke="#b20000" stroke-width="4.0" fill="#b20000" />
</g>
<g>
<path d="M 1170,230 L 1170,181 L 1230,181 L 1230,230 C 1230,240 1220,260 1200,259 C 1180,259 1170,240 1170,230 Z" stroke="#000000" stroke-width="4.0" fill="none"/>
<circle cx="1220.0" cy="180.0" r="2.0" stroke="#0000b2" stroke-width="4.0" fill="#0000b2" />
<circle cx="1180.0" cy="180.0" r="2.0" stroke="#0000b2" stroke-width="4.0" fill="#0000b2" />
<circle cx="1200.0" cy="260.0" r="2.0" stroke="#b20000" stroke-width="4.0" fill="#b20000" />
</g>
<g>
<path d="M 1221,306 L 1279,306 L 1279,374 L 1221,374 Z" stroke="#ffffb4" stroke-width="0.0" fill="#ffffb4" fill-opacity="0.7843137254901961"/>
<path d="M 1221,306 L 1279,306 L 1279,374 L 1221,374 Z" stroke="#000000" stroke-width="4.0" fill="none"/>
<text text-anchor="start" x="1224.0" y="326.75" fill="#808080" style="font-size:18px">A</text>
<text text-anchor="start" x="1224.0" y="346.75" fill="#808080" style="font-size:18px">B</text>
<text text-anchor="start" x="1224.0" y="366.75" fill="#808080" style="font-size:18px">C</text>
<text text-anchor="end" x="1276.0" y="326.75" fill="#808080" style="font-size:18px">S</text>
<text text-anchor="end" x="1276.0" y="346.75" fill="#808080" style="font-size:18px">V</text>
<text text-anchor="middle" x="1250.0" y="391.5" fill="#808080" style="font-size:18px">somador</text>
<circle cx="1220.0" cy="320.0" r="2.0" stroke="#0000b2" stroke-width="4.0" fill="#0000b2" />
<circle cx="1220.0" cy="340.0" r="2.0" stroke="#0000b2" stroke-width="4.0" fill="#0000b2" />
<circle cx="1220.0" cy="360.0" r="2.0" stroke="#0000b2" stroke-width="4.0" fill="#0000b2" />
<circle cx="1280.0" cy="320.0" r="2.0" stroke="#b20000" stroke-width="4.0" fill="#b20000" />
<circle cx="1280.0" cy="340.0" r="2.0" stroke="#b20000" stroke-width="4.0" fill="#b20000" />
</g>
<g>
<text text-anchor="end" x="1197.0" y="369.0" fill="#000000" style="font-size:24px">0</text>
<circle cx="1200.0" cy="360.0" r="2.0" stroke="#b20000" stroke-width="4.0" fill="#b20000" />
</g>
<g>
<path d="M 810,-350 L 810,-399 L 870,-399 L 870,-350 C 870,-340 860,-320 840,-321 C 820,-321 810,-340 810,-350 Z" stroke="#000000" stroke-width="4.0" fill="none"/>
<circle cx="860.0" cy="-400.0" r="2.0" stroke="#0000b2" stroke-width="4.0" fill="#0000b2" />
<circle cx="820.0" cy="-400.0" r="2.0" stroke="#0000b2" stroke-width="4.0" fill="#0000b2" />
<circle cx="840.0" cy="-320.0" r="2.0" stroke="#b20000" stroke-width="4.0" fill="#b20000" />
</g>
<g>
<path d="M 861,-274 L 919,-274 L 919,-206 L 861,-206 Z" stroke="#ffffb4" stroke-width="0.0" fill="#ffffb4" fill-opacity="0.7843137254901961"/>
<path d="M 861,-274 L 919,-274 L 919,-206 L 861,-206 Z" stroke="#000000" stroke-width="4.0" fill="none"/>
<text text-anchor="start" x="864.0" y="-253.25" fill="#808080" style="font-size:18px">A</text>
<text text-anchor="start" x="864.0" y="-233.25" fill="#808080" style="font-size:18px">B</text>
<text text-anchor="start" x="864.0" y="-213.25" fill="#808080" style="font-size:18px">C</text>
<text text-anchor="end" x="916.0" y="-253.25" fill="#808080" style="font-size:18px">S</text>
<text text-anchor="end" x="916.0" y="-233.25" fill="#808080" style="font-size:18px">V</text>
<text text-anchor="middle" x="890.0" y="-188.5" fill="#808080" style="font-size:18px">somador</text>
<circle cx="860.0" cy="-260.0" r="2.0" stroke="#0000b2" stroke-width="4.0" fill="#0000b2" />
<circle cx="860.0" cy="-240.0" r="2.0" stroke="#0000b2" stroke-width="4.0" fill="#0000b2" />
<circle cx="860.0" cy="-220.0" r="2.0" stroke="#0000b2" stroke-width="4.0" fill="#0000b2" />
<circle cx="920.0" cy="-260.0" r="2.0" stroke="#b20000" stroke-width="4.0" fill="#b20000" />
<circle cx="920.0" cy="-240.0" r="2.0" stroke="#b20000" stroke-width="4.0" fill="#b20000" />
</g>
<g>
<path d="M 990,-350 L 990,-399 L 1050,-399 L 1050,-350 C 1050,-340 1040,-320 1020,-321 C 1000,-321 990,-340 990,-350 Z" stroke="#000000" stroke-width="4.0" fill="none"/>
<circle cx="1040.0" cy="-400.0" r="2.0" stroke="#0000b2" stroke-width="4.0" fill="#0000b2" />
<circle cx="1000.0" cy="-400.0" r="2.0" stroke="#0000b2" stroke-width="4.0" fill="#0000b2" />
<circle cx="1020.0" cy="-320.0" r="2.0" stroke="#b20000" stroke-width="4.0" fill="#b20000" />
</g>
<g>
<path d="M 1041,-274 L 1099,-274 L 1099,-206 L 1041,-206 Z" stroke="#ffffb4" stroke-width="0.0" fill="#ffffb4" fill-opacity="0.7843137254901961"/>
<path d="M 1041,-274 L 1099,-274 L 1099,-206 L 1041,-206 Z" stroke="#000000" stroke-width="4.0" fill="none"/>
<text text-anchor="start" x="1044.0" y="-253.25" fill="#808080" style="font-size:18px">A</text>
<text text-anchor="start" x="1044.0" y="-233.25" fill="#808080" style="font-size:18px">B</text>
<text text-anchor="start" x="1044.0" y="-213.25" fill="#808080" style="font-size:18px">C</text>
<text text-anchor="end" x="1096.0" y="-253.25" fill="#808080" style="font-size:18px">S</text>
<text text-anchor="end" x="1096.0" y="-233.25" fill="#808080" style="font-size:18px">V</text>
<text text-anchor="middle" x="1070.0" y="-188.5" fill="#808080" style="font-size:18px">somador</text>
<circle cx="1040.0" cy="-260.0" r="2.0" stroke="#0000b2" stroke-width="4.0" fill="#0000b2" />
<circle cx="1040.0" cy="-240.0" r="2.0" stroke="#0000b2" stroke-width="4.0" fill="#0000b2" />
<circle cx="1040.0" cy="-220.0" r="2.0" stroke="#0000b2" stroke-width="4.0" fill="#0000b2" />
<circle cx="1100.0" cy="-260.0" r="2.0" stroke="#b20000" stroke-width="4.0" fill="#b20000" />
<circle cx="1100.0" cy="-240.0" r="2.0" stroke="#b20000" stroke-width="4.0" fill="#b20000" />
</g>
<g>
<path d="M 1170,-350 L 1170,-399 L 1230,-399 L 1230,-350 C 1230,-340 1220,-320 1200,-321 C 1180,-321 1170,-340 1170,-350 Z" stroke="#000000" stroke-width="4.0" fill="none"/>
<circle cx="1220.0" cy="-400.0" r="2.0" stroke="#0000b2" stroke-width="4.0" fill="#0000b2" />
<circle cx="1180.0" cy="-400.0" r="2.0" stroke="#0000b2" stroke-width="4.0" fill="#0000b2" />
<circle cx="1200.0" cy="-320.0" r="2.0" stroke="#b20000" stroke-width="4.0" fill="#b20000" />
</g>
<g>
<path d="M 1221,-274 L 1279,-274 L 1279,-206 L 1221,-206 Z" stroke="#ffffb4" stroke-width="0.0" fill="#ffffb4" fill-opacity="0.7843137254901961"/>
<path d="M 1221,-274 L 1279,-274 L 1279,-206 L 1221,-206 Z" stroke="#000000" stroke-width="4.0" fill="none"/>
<text text-anchor="start" x="1224.0" y="-253.25" fill="#808080" style="font-size:18px">A</text>
<text text-anchor="start" x="1224.0" y="-233.25" fill="#808080" style="font-size:18px">B</text>
<text text-anchor="start" x="1224.0" y="-213.25" fill="#808080" style="font-size:18px">C</text>
<text text-anchor="end" x="1276.0" y="-253.25" fill="#808080" style="font-size:18px">S</text>
<text text-anchor="end" x="1276.0" y="-233.25" fill="#808080" style="font-size:18px">V</text>
<text text-anchor="middle" x="1250.0" y="-188.5" fill="#808080" style="font-size:18px">somador</text>
<circle cx="1220.0" cy="-260.0" r="2.0" stroke="#0000b2" stroke-width="4.0" fill="#0000b2" />
<circle cx="1220.0" cy="-240.0" r="2.0" stroke="#0000b2" stroke-width="4.0" fill="#0000b2" />
<circle cx="1220.0" cy="-220.0" r="2.0" stroke="#0000b2" stroke-width="4.0" fill="#0000b2" />
<circle cx="1280.0" cy="-260.0" r="2.0" stroke="#b20000" stroke-width="4.0" fill="#b20000" />
<circle cx="1280.0" cy="-240.0" r="2.0" stroke="#b20000" stroke-width="4.0" fill="#b20000" />
</g>
<g>
<path d="M 1350,-350 L 1350,-399 L 1410,-399 L 1410,-350 C 1410,-340 1400,-320 1380,-321 C 1360,-321 1350,-340 1350,-350 Z" stroke="#000000" stroke-width="4.0" fill="none"/>
<circle cx="1400.0" cy="-400.0" r="2.0" stroke="#0000b2" stroke-width="4.0" fill="#0000b2" />
<circle cx="1360.0" cy="-400.0" r="2.0" stroke="#0000b2" stroke-width="4.0" fill="#0000b2" />
<circle cx="1380.0" cy="-320.0" r="2.0" stroke="#b20000" stroke-width="4.0" fill="#b20000" />
</g>
<g>
<path d="M 1401,-274 L 1459,-274 L 1459,-206 L 1401,-206 Z" stroke="#ffffb4" stroke-width="0.0" fill="#ffffb4" fill-opacity="0.7843137254901961"/>
<path d="M 1401,-274 L 1459,-274 L 1459,-206 L 1401,-206 Z" stroke="#000000" stroke-width="4.0" fill="none"/>
<text text-anchor="start" x="1404.0" y="-253.25" fill="#808080" style="font-size:18px">A</text>
<text text-anchor="start" x="1404.0" y="-233.25" fill="#808080" style="font-size:18px">B</text>
<text text-anchor="start" x="1404.0" y="-213.25" fill="#808080" style="font-size:18px">C</text>
<text text-anchor="end" x="1456.0" y="-253.25" fill="#808080" style="font-size:18px">S</text>
<text text-anchor="end" x="1456.0" y="-233.25" fill="#808080" style="font-size:18px">V</text>
<text text-anchor="middle" x="1430.0" y="-188.5" fill="#808080" style="font-size:18px">somador</text>
<circle cx="1400.0" cy="-260.0" r="2.0" stroke="#0000b2" stroke-width="4.0" fill="#0000b2" />
<circle cx="1400.0" cy="-240.0" r="2.0" stroke="#0000b2" stroke-width="4.0" fill="#0000b2" />
<circle cx="1400.0" cy="-220.0" r="2.0" stroke="#0000b2" stroke-width="4.0" fill="#0000b2" />
<circle cx="1460.0" cy="-260.0" r="2.0" stroke="#b20000" stroke-width="4.0" fill="#b20000" />
<circle cx="1460.0" cy="-240.0" r="2.0" stroke="#b20000" stroke-width="4.0" fill="#b20000" />
</g>
<g>
<text text-anchor="end" x="1377.0" y="-211.0" fill="#000000" style="font-size:24px">0</text>
<circle cx="1380.0" cy="-220.0" r="2.0" stroke="#b20000" stroke-width="4.0" fill="#b20000" />
</g>
<g>
<path d="M 990,-950 L 990,-999 L 1050,-999 L 1050,-950 C 1050,-940 1040,-920 1020,-921 C 1000,-921 990,-940 990,-950 Z" stroke="#000000" stroke-width="4.0" fill="none"/>
<circle cx="1040.0" cy="-1000.0" r="2.0" stroke="#0000b2" stroke-width="4.0" fill="#0000b2" />
<circle cx="1000.0" cy="-1000.0" r="2.0" stroke="#0000b2" stroke-width="4.0" fill="#0000b2" />
<circle cx="1020.0" cy="-920.0" r="2.0" stroke="#b20000" stroke-width="4.0" fill="#b20000" />
</g>
<g>
<path d="M 1041,-874 L 1099,-874 L 1099,-806 L 1041,-806 Z" stroke="#ffffb4" stroke-width="0.0" fill="#ffffb4" fill-opacity="0.7843137254901961"/>
<path d="M 1041,-874 L 1099,-874 L 1099,-806 L 1041,-806 Z" stroke="#000000" stroke-width="4.0" fill="none"/>
<text text-anchor="start" x="1044.0" y="-853.25" fill="#808080" style="font-size:18px">A</text>
<text text-anchor="start" x="1044.0" y="-833.25" fill="#808080" style="font-size:18px">B</text>
<text text-anchor="start" x="1044.0" y="-813.25" fill="#808080" style="font-size:18px">C</text>
<text text-anchor="end" x="1096.0" y="-853.25" fill="#808080" style="font-size:18px">S</text>
<text text-anchor="end" x="1096.0" y="-833.25" fill="#808080" style="font-size:18px">V</text>
<text text-anchor="middle" x="1070.0" y="-788.5" fill="#808080" style="font-size:18px">somador</text>
<circle cx="1040.0" cy="-860.0" r="2.0" stroke="#0000b2" stroke-width="4.0" fill="#0000b2" />
<circle cx="1040.0" cy="-840.0" r="2.0" stroke="#0000b2" stroke-width="4.0" fill="#0000b2" />
<circle cx="1040.0" cy="-820.0" r="2.0" stroke="#0000b2" stroke-width="4.0" fill="#0000b2" />
<circle cx="1100.0" cy="-860.0" r="2.0" stroke="#b20000" stroke-width="4.0" fill="#b20000" />
<circle cx="1100.0" cy="-840.0" r="2.0" stroke="#b20000" stroke-width="4.0" fill="#b20000" />
</g>
<g>
<path d="M 1170,-950 L 1170,-999 L 1230,-999 L 1230,-950 C 1230,-940 1220,-920 1200,-921 C 1180,-921 1170,-940 1170,-950 Z" stroke="#000000" stroke-width="4.0" fill="none"/>
<circle cx="1220.0" cy="-1000.0" r="2.0" stroke="#0000b2" stroke-width="4.0" fill="#0000b2" />
<circle cx="1180.0" cy="-1000.0" r="2.0" stroke="#0000b2" stroke-width="4.0" fill="#0000b2" />
<circle cx="1200.0" cy="-920.0" r="2.0" stroke="#b20000" stroke-width="4.0" fill="#b20000" />
</g>
<g>
<path d="M 1221,-874 L 1279,-874 L 1279,-806 L 1221,-806 Z" stroke="#ffffb4" stroke-width="0.0" fill="#ffffb4" fill-opacity="0.7843137254901961"/>
<path d="M 1221,-874 L 1279,-874 L 1279,-806 L 1221,-806 Z" stroke="#000000" stroke-width="4.0" fill="none"/>
<text text-anchor="start" x="1224.0" y="-853.25" fill="#808080" style="font-size:18px">A</text>
<text text-anchor="start" x="1224.0" y="-833.25" fill="#808080" style="font-size:18px">B</text>
<text text-anchor="start" x="1224.0" y="-813.25" fill="#808080" style="font-size:18px">C</text>
<text text-anchor="end" x="1276.0" y="-853.25" fill="#808080" style="font-size:18px">S</text>
<text text-anchor="end" x="1276.0" y="-833.25" fill="#808080" style="font-size:18px">V</text>
<text text-anchor="middle" x="1250.0" y="-788.5" fill="#808080" style="font-size:18px">somador</text>
<circle cx="1220.0" cy="-860.0" r="2.0" stroke="#0000b2" stroke-width="4.0" fill="#0000b2" />
<circle cx="1220.0" cy="-840.0" r="2.0" stroke="#0000b2" stroke-width="4.0" fill="#0000b2" />
<circle cx="1220.0" cy="-820.0" r="2.0" stroke="#0000b2" stroke-width="4.0" fill="#0000b2" />
<circle cx="1280.0" cy="-860.0" r="2.0" stroke="#b20000" stroke-width="4.0" fill="#b20000" />
<circle cx="1280.0" cy="-840.0" r="2.0" stroke="#b20000" stroke-width="4.0" fill="#b20000" />
</g>
<g>
<path d="M 1350,-950 L 1350,-999 L 1410,-999 L 1410,-950 C 1410,-940 1400,-920 1380,-921 C 1360,-921 1350,-940 1350,-950 Z" stroke="#000000" stroke-width="4.0" fill="none"/>
<circle cx="1400.0" cy="-1000.0" r="2.0" stroke="#0000b2" stroke-width="4.0" fill="#0000b2" />
<circle cx="1360.0" cy="-1000.0" r="2.0" stroke="#0000b2" stroke-width="4.0" fill="#0000b2" />
<circle cx="1380.0" cy="-920.0" r="2.0" stroke="#b20000" stroke-width="4.0" fill="#b20000" />
</g>
<g>
<path d="M 1401,-874 L 1459,-874 L 1459,-806 L 1401,-806 Z" stroke="#ffffb4" stroke-width="0.0" fill="#ffffb4" fill-opacity="0.7843137254901961"/>
<path d="M 1401,-874 L 1459,-874 L 1459,-806 L 1401,-806 Z" stroke="#000000" stroke-width="4.0" fill="none"/>
<text text-anchor="start" x="1404.0" y="-853.25" fill="#808080" style="font-size:18px">A</text>
<text text-anchor="start" x="1404.0" y="-833.25" fill="#808080" style="font-size:18px">B</text>
<text text-anchor="start" x="1404.0" y="-813.25" fill="#808080" style="font-size:18px">C</text>
<text text-anchor="end" x="1456.0" y="-853.25" fill="#808080" style="font-size:18px">S</text>
<text text-anchor="end" x="1456.0" y="-833.25" fill="#808080" style="font-size:18px">V</text>
<text text-anchor="middle" x="1430.0" y="-788.5" fill="#808080" style="font-size:18px">somador</text>
<circle cx="1400.0" cy="-860.0" r="2.0" stroke="#0000b2" stroke-width="4.0" fill="#0000b2" />
<circle cx="1400.0" cy="-840.0" r="2.0" stroke="#0000b2" stroke-width="4.0" fill="#0000b2" />
<circle cx="1400.0" cy="-820.0" r="2.0" stroke="#0000b2" stroke-width="4.0" fill="#0000b2" />
<circle cx="1460.0" cy="-860.0" r="2.0" stroke="#b20000" stroke-width="4.0" fill="#b20000" />
<circle cx="1460.0" cy="-840.0" r="2.0" stroke="#b20000" stroke-width="4.0" fill="#b20000" />
</g>
<g>
<path d="M 1530,-950 L 1530,-999 L 1590,-999 L 1590,-950 C 1590,-940 1580,-920 1560,-921 C 1540,-921 1530,-940 1530,-950 Z" stroke="#000000" stroke-width="4.0" fill="none"/>
<circle cx="1580.0" cy="-1000.0" r="2.0" stroke="#0000b2" stroke-width="4.0" fill="#0000b2" />
<circle cx="1540.0" cy="-1000.0" r="2.0" stroke="#0000b2" stroke-width="4.0" fill="#0000b2" />
<circle cx="1560.0" cy="-920.0" r="2.0" stroke="#b20000" stroke-width="4.0" fill="#b20000" />
</g>
<g>
<path d="M 1581,-874 L 1639,-874 L 1639,-806 L 1581,-806 Z" stroke="#ffffb4" stroke-width="0.0" fill="#ffffb4" fill-opacity="0.7843137254901961"/>
<path d="M 1581,-874 L 1639,-874 L 1639,-806 L 1581,-806 Z" stroke="#000000" stroke-width="4.0" fill="none"/>
<text text-anchor="start" x="1584.0" y="-853.25" fill="#808080" style="font-size:18px">A</text>
<text text-anchor="start" x="1584.0" y="-833.25" fill="#808080" style="font-size:18px">B</text>
<text text-anchor="start" x="1584.0" y="-813.25" fill="#808080" style="font-size:18px">C</text>
<text text-anchor="end" x="1636.0" y="-853.25" fill="#808080" style="font-size:18px">S</text>
<text text-anchor="end" x="1636.0" y="-833.25" fill="#808080" style="font-size:18px">V</text>
<text text-anchor="middle" x="1610.0" y="-788.5" fill="#808080" style="font-size:18px">somador</text>
<circle cx="1580.0" cy="-860.0" r="2.0" stroke="#0000b2" stroke-width="4.0" fill="#0000b2" />
<circle cx="1580.0" cy="-840.0" r="2.0" stroke="#0000b2" stroke-width="4.0" fill="#0000b2" />
<circle cx="1580.0" cy="-820.0" r="2.0" stroke="#0000b2" stroke-width="4.0" fill="#0000b2" />
<circle cx="1640.0" cy="-860.0" r="2.0" stroke="#b20000" stroke-width="4.0" fill="#b20000" />
<circle cx="1640.0" cy="-840.0" r="2.0" stroke="#b20000" stroke-width="4.0" fill="#b20000" />
</g>
<g>
<text text-anchor="end" x="1557.0" y="-811.0" fill="#000000" style="font-size:24px">0</text>
<circle cx="1560.0" cy="-820.0" r="2.0" stroke="#b20000" stroke-width="4.0" fill="#b20000" />
</g>
<g>
<path d="M 1130,-1170 L 1130,-1219 L 1190,-1219 L 1190,-1170 C 1190,-1160 1180,-1140 1160,-1141 C 1140,-1141 1130,-1160 1130,-1170 Z" stroke="#000000" stroke-width="4.0" fill="none"/>
<circle cx="1180.0" cy="-1220.0" r="2.0" stroke="#0000b2" stroke-width="4.0" fill="#0000b2" />
<circle cx="1140.0" cy="-1220.0" r="2.0" stroke="#0000b2" stroke-width="4.0" fill="#0000b2" />
<circle cx="1160.0" cy="-1140.0" r="2.0" stroke="#b20000" stroke-width="4.0" fill="#b20000" />
</g>
<g>
<path d="M 1310,-1170 L 1310,-1219 L 1370,-1219 L 1370,-1170 C 1370,-1160 1360,-1140 1340,-1141 C 1320,-1141 1310,-1160 1310,-1170 Z" stroke="#000000" stroke-width="4.0" fill="none"/>
<circle cx="1360.0" cy="-1220.0" r="2.0" stroke="#0000b2" stroke-width="4.0" fill="#0000b2" />
<circle cx="1320.0" cy="-1220.0" r="2.0" stroke="#0000b2" stroke-width="4.0" fill="#0000b2" />
<circle cx="1340.0" cy="-1140.0" r="2.0" stroke="#b20000" stroke-width="4.0" fill="#b20000" />
</g>
<g>
<path d="M 1490,-1170 L 1490,-1219 L 1550,-1219 L 1550,-1170 C 1550,-1160 1540,-1140 1520,-1141 C 1500,-1141 1490,-1160 1490,-1170 Z" stroke="#000000" stroke-width="4.0" fill="none"/>
<circle cx="1540.0" cy="-1220.0" r="2.0" stroke="#0000b2" stroke-width="4.0" fill="#0000b2" />
<circle cx="1500.0" cy="-1220.0" r="2.0" stroke="#0000b2" stroke-width="4.0" fill="#0000b2" />
<circle cx="1520.0" cy="-1140.0" r="2.0" stroke="#b20000" stroke-width="4.0" fill="#b20000" />
</g>
<g>
<path d="M 1670,-1170 L 1670,-1219 L 1730,-1219 L 1730,-1170 C 1730,-1160 1720,-1140 1700,-1141 C 1680,-1141 1670,-1160 1670,-1170 Z" stroke="#000000" stroke-width="4.0" fill="none"/>
<circle cx="1720.0" cy="-1220.0" r="2.0" stroke="#0000b2" stroke-width="4.0" fill="#0000b2" />
<circle cx="1680.0" cy="-1220.0" r="2.0" stroke="#0000b2" stroke-width="4.0" fill="#0000b2" />
<circle cx="1700.0" cy="-1140.0" r="2.0" stroke="#b20000" stroke-width="4.0" fill="#b20000" />
</g>
<g>
<text text-anchor="end" x="1017.0" y="-831.0" fill="#000000" style="font-size:24px">0</text>
<circle cx="1020.0" cy="-840.0" r="2.0" stroke="#b20000" stroke-width="4.0" fill="#b20000" />
</g>
<g>
<text text-anchor="end" x="1798.0" y="617.0" fill="#808080" style="font-size:12px">0</text>
<text text-anchor="end" x="1798.0" y="637.0" fill="#808080" style="font-size:12px">1</text>
<text text-anchor="end" x="1798.0" y="657.0" fill="#808080" style="font-size:12px">2</text>
<text text-anchor="end" x="1798.0" y="677.0" fill="#808080" style="font-size:12px">3</text>
<text text-anchor="end" x="1798.0" y="697.0" fill="#808080" style="font-size:12px">4</text>
<text text-anchor="end" x="1798.0" y="717.0" fill="#808080" style="font-size:12px">5</text>
<text text-anchor="end" x="1798.0" y="737.0" fill="#808080" style="font-size:12px">6</text>
<text text-anchor="end" x="1798.0" y="757.0" fill="#808080" style="font-size:12px">7</text>
<text text-anchor="start" x="1822.0" y="617.0" fill="#808080" style="font-size:12px">0-7</text>
<path d="M 1808,618 L 1812,618 L 1812,762 L 1808,762 Z" stroke="#000000" stroke-width="4.0" fill="#000000" fill-opacity="1.0"/>
<circle cx="1800.0" cy="620.0" r="2.0" stroke="#0000b2" stroke-width="4.0" fill="#0000b2" />
<circle cx="1800.0" cy="640.0" r="2.0" stroke="#0000b2" stroke-width="4.0" fill="#0000b2" />
<circle cx="1800.0" cy="660.0" r="2.0" stroke="#0000b2" stroke-width="4.0" fill="#0000b2" />
<circle cx="1800.0" cy="680.0" r="2.0" stroke="#0000b2" stroke-width="4.0" fill="#0000b2" />
<circle cx="1800.0" cy="700.0" r="2.0" stroke="#0000b2" stroke-width="4.0" fill="#0000b2" />
<circle cx="1800.0" cy="720.0" r="2.0" stroke="#0000b2" stroke-width="4.0" fill="#0000b2" />
<circle cx="1800.0" cy="740.0" r="2.0" stroke="#0000b2" stroke-width="4.0" fill="#0000b2" />
<circle cx="1800.0" cy="760.0" r="2.0" stroke="#0000b2" stroke-width="4.0" fill="#0000b2" />
<circle cx="1820.0" cy="620.0" r="2.0" stroke="#b20000" stroke-width="4.0" fill="#b20000" />
</g>
<g>
<circle cx="1916.0" cy="620.0" r="9.0" stroke="#000000" stroke-width="4.0" fill="none" />
<circle cx="1916.0" cy="620.0" r="15.0" stroke="#000000" stroke-width="4.0" fill="none" />
<text text-anchor="start" x="1945.0" y="629.0" fill="#000000" style="font-size:24px"><tspan style="font-style:italic;">M</tspan></text>
<circle cx="1900.0" cy="620.0" r="2.0" stroke="#0000b2" stroke-width="4.0" fill="#0000b2" />
</g>
</g>
</svg>