<?xml version="1.0" encoding="UTF-8" standalone="no"?>
<!-- Created with Digital by H.Neemann -->
<!-- created: Mon Mar 18 14:27:19 BRT 2024 -->

<svg
   xmlns:svg="http://www.w3.org/2000/svg"
   xmlns="http://www.w3.org/2000/svg"
   width="175.65mm"
   height="168.45mm"
   viewBox="-297 -201 1171 1123">
<g stroke-linecap="square">
<path d="M 660,0 L 670,0 L 680,0" stroke="#000000" stroke-width="4.0" fill="none"/>
<path d="M 660,20 L 670,20" stroke="#000000" stroke-width="4.0" fill="none"/>
<path d="M 660,40 L 670,40" stroke="#000000" stroke-width="4.0" fill="none"/>
<path d="M -40,-80 L -40,0 L 20,0" stroke="#0000b2" stroke-width="4.0" fill="none"/>
<path d="M 680,0 L 720,0" stroke="#0000b2" stroke-width="4.0" fill="none"/>
<path d="M 640,0 L 660,0" stroke="#0000b2" stroke-width="4.0" fill="none"/>
<path d="M -40,660 L -40,580 L 20,580 L 24,580" stroke="#0000b2" stroke-width="4.0" fill="none"/>
<path d="M -140,920 L -140,900 L 20,900" stroke="#0000b2" stroke-width="4.0" fill="none"/>
<path d="M 340,200 L 360,200" stroke="#0000b2" stroke-width="4.0" fill="none"/>
<path d="M 100,200 L 140,200 L 147,200" stroke="#0000b2" stroke-width="4.0" fill="none"/>
<path d="M 220,200 L 280,200" stroke="#0000b2" stroke-width="4.0" fill="none"/>
<path d="M 100,520 L 360,520" stroke="#0000b2" stroke-width="4.0" fill="none"/>
<path d="M -80,-20 L -80,140 L 20,140" stroke="#0000b2" stroke-width="4.0" fill="none"/>
<path d="M -100,220 L -100,460 L 20,460" stroke="#0000b2" stroke-width="4.0" fill="none"/>
<path d="M -40,920 L -40,780 L 20,780" stroke="#0000b2" stroke-width="4.0" fill="none"/>
<path d="M -280,-100 L -280,-80 L -260,-80 L -260,-60" stroke="#0000b2" stroke-width="4.0" fill="none"/>
<path d="M -160,-100 L -160,-80 L -140,-80 L -140,-60" stroke="#0000b2" stroke-width="4.0" fill="none"/>
<path d="M -100,-100 L -100,-80 L -80,-80 L -80,-60" stroke="#0000b2" stroke-width="4.0" fill="none"/>
<path d="M -40,-100 L -40,-80 L -20,-80 L -20,-60" stroke="#0000b2" stroke-width="4.0" fill="none"/>
<path d="M 340,400 L 360,400" stroke="#0000b2" stroke-width="4.0" fill="none"/>
<path d="M 220,400 L 280,400" stroke="#0000b2" stroke-width="4.0" fill="none"/>
<path d="M 340,20 L 360,20" stroke="#0000b2" stroke-width="4.0" fill="none"/>
<path d="M 100,20 L 280,20" stroke="#0000b2" stroke-width="4.0" fill="none"/>
<path d="M 640,20 L 660,20" stroke="#0000b2" stroke-width="4.0" fill="none"/>
<path d="M 100,280 L 120,280 L 120,220 L 140,220 L 144,220" stroke="#0000b2" stroke-width="4.0" fill="none"/>
<path d="M -100,920 L -100,600 L 20,600 L 27,600" stroke="#0000b2" stroke-width="4.0" fill="none"/>
<path d="M 100,600 L 360,600" stroke="#0000b2" stroke-width="4.0" fill="none"/>
<path d="M -100,460 L -100,540 L 20,540" stroke="#0000b2" stroke-width="4.0" fill="none"/>
<path d="M -20,420 L -20,860 L 20,860" stroke="#0000b2" stroke-width="4.0" fill="none"/>
<path d="M 100,800 L 360,800" stroke="#0000b2" stroke-width="4.0" fill="none"/>
<path d="M -280,-80 L -280,40 L 20,40" stroke="#0000b2" stroke-width="4.0" fill="none"/>
<path d="M 260,-40 L 260,40 L 280,40" stroke="#0000b2" stroke-width="4.0" fill="none"/>
<path d="M 640,40 L 660,40" stroke="#0000b2" stroke-width="4.0" fill="none"/>
<path d="M -140,-20 L -140,360 L 20,360" stroke="#0000b2" stroke-width="4.0" fill="none"/>
<path d="M 100,360 L 120,360 L 120,380 L 140,380 L 144,380" stroke="#0000b2" stroke-width="4.0" fill="none"/>
<path d="M 100,680 L 360,680" stroke="#0000b2" stroke-width="4.0" fill="none"/>
<path d="M -260,-20 L -260,300 L 20,300" stroke="#0000b2" stroke-width="4.0" fill="none"/>
<path d="M -160,-80 L -160,620 L 20,620 L 24,620" stroke="#0000b2" stroke-width="4.0" fill="none"/>
<path d="M -80,920 L -80,880 L 20,880" stroke="#0000b2" stroke-width="4.0" fill="none"/>
<path d="M 100,880 L 360,880" stroke="#0000b2" stroke-width="4.0" fill="none"/>
<path d="M -20,-20 L -20,180 L 20,180" stroke="#0000b2" stroke-width="4.0" fill="none"/>
<path d="M -40,260 L -40,500 L 20,500" stroke="#0000b2" stroke-width="4.0" fill="none"/>
<path d="M -80,880 L -80,820 L 20,820" stroke="#0000b2" stroke-width="4.0" fill="none"/>
<path d="M 100,120 L 120,120 L 120,180 L 140,180 L 144,180" stroke="#0000b2" stroke-width="4.0" fill="none"/>
<path d="M 100,440 L 120,440 L 120,420 L 140,420 L 144,420" stroke="#0000b2" stroke-width="4.0" fill="none"/>
<path d="M -220,-100 L -220,380 L 20,380" stroke="#0000b2" stroke-width="4.0" fill="none"/>
<path d="M -80,140 L -80,700 L 20,700" stroke="#0000b2" stroke-width="4.0" fill="none"/>
<path d="M -260,300 L -260,920" stroke="#0000b2" stroke-width="4.0" fill="none"/>
<path d="M 20,20 L -100,20 L -100,220 L 20,220" stroke="#0000b2" stroke-width="4.0" fill="none"/>
<path d="M -100,-80 L -100,20" stroke="#0000b2" stroke-width="4.0" fill="none"/>
<path d="M -100,540 L -100,600" stroke="#0000b2" stroke-width="4.0" fill="none"/>
<path d="M 20,340 L -20,340 L -20,420 L 20,420" stroke="#0000b2" stroke-width="4.0" fill="none"/>
<path d="M -20,180 L -20,340" stroke="#0000b2" stroke-width="4.0" fill="none"/>
<path d="M -20,860 L -20,920" stroke="#0000b2" stroke-width="4.0" fill="none"/>
<path d="M 280,220 L 260,220 L 260,420 L 280,420" stroke="#0000b2" stroke-width="4.0" fill="none"/>
<path d="M 260,40 L 260,220" stroke="#0000b2" stroke-width="4.0" fill="none"/>
<path d="M -280,40 L -280,920" stroke="#0000b2" stroke-width="4.0" fill="none"/>
<path d="M 20,660 L -40,660 L -40,740 L 360,740" stroke="#0000b2" stroke-width="4.0" fill="none"/>
<path d="M 20,260 L -40,260 L -40,100 L 20,100" stroke="#0000b2" stroke-width="4.0" fill="none"/>
<path d="M -40,0 L -40,100" stroke="#0000b2" stroke-width="4.0" fill="none"/>
<path d="M -40,500 L -40,580" stroke="#0000b2" stroke-width="4.0" fill="none"/>
<path d="M -40,740 L -40,780" stroke="#0000b2" stroke-width="4.0" fill="none"/>
<path d="M -220,380 L -220,920" stroke="#0000b2" stroke-width="4.0" fill="none"/>
<path d="M -140,360 L -140,900" stroke="#0000b2" stroke-width="4.0" fill="none"/>
<path d="M -160,620 L -160,920" stroke="#0000b2" stroke-width="4.0" fill="none"/>
<path d="M -80,700 L -80,820" stroke="#0000b2" stroke-width="4.0" fill="none"/>
<g>
<circle cx="-40.0" cy="0.0" r="4.0" stroke="#0000b2" stroke-width="4.0" fill="#0000b2" />
<circle cx="-40.0" cy="260.0" r="4.0" stroke="#0000b2" stroke-width="4.0" fill="#0000b2" />
<circle cx="-40.0" cy="580.0" r="4.0" stroke="#0000b2" stroke-width="4.0" fill="#0000b2" />
<circle cx="-140.0" cy="900.0" r="4.0" stroke="#0000b2" stroke-width="4.0" fill="#0000b2" />
<circle cx="-80.0" cy="140.0" r="4.0" stroke="#0000b2" stroke-width="4.0" fill="#0000b2" />
<circle cx="-100.0" cy="460.0" r="4.0" stroke="#0000b2" stroke-width="4.0" fill="#0000b2" />
<circle cx="-40.0" cy="780.0" r="4.0" stroke="#0000b2" stroke-width="4.0" fill="#0000b2" />
<circle cx="-280.0" cy="-80.0" r="4.0" stroke="#0000b2" stroke-width="4.0" fill="#0000b2" />
<circle cx="-160.0" cy="-80.0" r="4.0" stroke="#0000b2" stroke-width="4.0" fill="#0000b2" />
<circle cx="-100.0" cy="-80.0" r="4.0" stroke="#0000b2" stroke-width="4.0" fill="#0000b2" />
<circle cx="-40.0" cy="-80.0" r="4.0" stroke="#0000b2" stroke-width="4.0" fill="#0000b2" />
<circle cx="-100.0" cy="20.0" r="4.0" stroke="#0000b2" stroke-width="4.0" fill="#0000b2" />
<circle cx="-20.0" cy="340.0" r="4.0" stroke="#0000b2" stroke-width="4.0" fill="#0000b2" />
<circle cx="-40.0" cy="660.0" r="4.0" stroke="#0000b2" stroke-width="4.0" fill="#0000b2" />
<circle cx="-100.0" cy="600.0" r="4.0" stroke="#0000b2" stroke-width="4.0" fill="#0000b2" />
<circle cx="-100.0" cy="220.0" r="4.0" stroke="#0000b2" stroke-width="4.0" fill="#0000b2" />
<circle cx="260.0" cy="220.0" r="4.0" stroke="#0000b2" stroke-width="4.0" fill="#0000b2" />
<circle cx="-100.0" cy="540.0" r="4.0" stroke="#0000b2" stroke-width="4.0" fill="#0000b2" />
<circle cx="-20.0" cy="860.0" r="4.0" stroke="#0000b2" stroke-width="4.0" fill="#0000b2" />
<circle cx="-40.0" cy="100.0" r="4.0" stroke="#0000b2" stroke-width="4.0" fill="#0000b2" />
<circle cx="-20.0" cy="420.0" r="4.0" stroke="#0000b2" stroke-width="4.0" fill="#0000b2" />
<circle cx="-40.0" cy="740.0" r="4.0" stroke="#0000b2" stroke-width="4.0" fill="#0000b2" />
<circle cx="-280.0" cy="40.0" r="4.0" stroke="#0000b2" stroke-width="4.0" fill="#0000b2" />
<circle cx="260.0" cy="40.0" r="4.0" stroke="#0000b2" stroke-width="4.0" fill="#0000b2" />
<circle cx="-140.0" cy="360.0" r="4.0" stroke="#0000b2" stroke-width="4.0" fill="#0000b2" />
<circle cx="-260.0" cy="300.0" r="4.0" stroke="#0000b2" stroke-width="4.0" fill="#0000b2" />
<circle cx="-160.0" cy="620.0" r="4.0" stroke="#0000b2" stroke-width="4.0" fill="#0000b2" />
<circle cx="-80.0" cy="880.0" r="4.0" stroke="#0000b2" stroke-width="4.0" fill="#0000b2" />
<circle cx="-20.0" cy="180.0" r="4.0" stroke="#0000b2" stroke-width="4.0" fill="#0000b2" />
<circle cx="-40.0" cy="500.0" r="4.0" stroke="#0000b2" stroke-width="4.0" fill="#0000b2" />
<circle cx="-80.0" cy="820.0" r="4.0" stroke="#0000b2" stroke-width="4.0" fill="#0000b2" />
<circle cx="-220.0" cy="380.0" r="4.0" stroke="#0000b2" stroke-width="4.0" fill="#0000b2" />
<circle cx="-80.0" cy="700.0" r="4.0" stroke="#0000b2" stroke-width="4.0" fill="#0000b2" />
</g>
<g>
<path d="M 360,20 L 374,28 L 374,12 Z" stroke="#000000" stroke-width="4.0" fill="none"/>
<text text-anchor="start" x="379.0" y="26.75" fill="#808080" style="font-size:18px">Z<tspan style="font-size:80%;baseline-shift:sub;">2</tspan><tspan style="font-size:80%;baseline-shift:super;">n</tspan></text>
<circle cx="360.0" cy="20.0" r="2.0" stroke="#0000b2" stroke-width="4.0" fill="#0000b2" />
</g>
<g>
<path d="M 281,10 L 339,10 L 339,50 L 281,50 Z" stroke="#000000" stroke-width="4.0" fill="none"/>
<text text-anchor="middle" x="310.0" y="2.0" fill="#000000" style="font-size:24px">Z<tspan style="font-size:80%;baseline-shift:sub;">2</tspan><tspan style="font-size:80%;baseline-shift:super;">n</tspan></text>
<text text-anchor="start" x="284.0" y="26.75" fill="#808080" style="font-size:18px">D</text>
<path d="M 281,47 L 288,40 L 281,33" stroke="#000000" stroke-width="2.0" fill="none"/>
<text text-anchor="start" x="291.0" y="46.75" fill="#808080" style="font-size:18px">C</text>
<text text-anchor="end" x="336.0" y="26.75" fill="#808080" style="font-size:18px">Q</text>
<text text-anchor="end" x="336.0" y="46.75" fill="#808080" style="font-size:18px"><tspan style="text-decoration:overline;">Q</tspan></text>
<text text-anchor="middle" x="310.0" y="67.5" fill="#808080" style="font-size:18px">D</text>
<circle cx="280.0" cy="20.0" r="2.0" stroke="#0000b2" stroke-width="4.0" fill="#0000b2" />
<circle cx="280.0" cy="40.0" r="2.0" stroke="#0000b2" stroke-width="4.0" fill="#0000b2" />
<circle cx="340.0" cy="20.0" r="2.0" stroke="#b20000" stroke-width="4.0" fill="#b20000" />
<circle cx="340.0" cy="40.0" r="2.0" stroke="#b20000" stroke-width="4.0" fill="#b20000" />
</g>
<g>
<path d="M 70,50 L 21,50 L 21,-10 L 70,-10 C 80,-10 100,0 99,20 C 99,40 80,50 70,50 Z" stroke="#000000" stroke-width="4.0" fill="none"/>
<circle cx="20.0" cy="0.0" r="2.0" stroke="#0000b2" stroke-width="4.0" fill="#0000b2" />
<circle cx="20.0" cy="20.0" r="2.0" stroke="#0000b2" stroke-width="4.0" fill="#0000b2" />
<circle cx="20.0" cy="40.0" r="2.0" stroke="#0000b2" stroke-width="4.0" fill="#0000b2" />
<circle cx="100.0" cy="20.0" r="2.0" stroke="#b20000" stroke-width="4.0" fill="#b20000" />
</g>
<g>
<path d="M 360,200 L 374,208 L 374,192 Z" stroke="#000000" stroke-width="4.0" fill="none"/>
<text text-anchor="start" x="379.0" y="206.75" fill="#808080" style="font-size:18px">Z<tspan style="font-size:80%;baseline-shift:sub;">1</tspan><tspan style="font-size:80%;baseline-shift:super;">n</tspan></text>
<circle cx="360.0" cy="200.0" r="2.0" stroke="#0000b2" stroke-width="4.0" fill="#0000b2" />
</g>
<g>
<path d="M 281,190 L 339,190 L 339,230 L 281,230 Z" stroke="#000000" stroke-width="4.0" fill="none"/>
<text text-anchor="middle" x="310.0" y="182.0" fill="#000000" style="font-size:24px">Z<tspan style="font-size:80%;baseline-shift:sub;">1</tspan><tspan style="font-size:80%;baseline-shift:super;">n</tspan></text>
<text text-anchor="start" x="284.0" y="206.75" fill="#808080" style="font-size:18px">D</text>
<path d="M 281,227 L 288,220 L 281,213" stroke="#000000" stroke-width="2.0" fill="none"/>
<text text-anchor="start" x="291.0" y="226.75" fill="#808080" style="font-size:18px">C</text>
<text text-anchor="end" x="336.0" y="206.75" fill="#808080" style="font-size:18px">Q</text>
<text text-anchor="end" x="336.0" y="226.75" fill="#808080" style="font-size:18px"><tspan style="text-decoration:overline;">Q</tspan></text>
<text text-anchor="middle" x="310.0" y="247.5" fill="#808080" style="font-size:18px">D</text>
<circle cx="280.0" cy="200.0" r="2.0" stroke="#0000b2" stroke-width="4.0" fill="#0000b2" />
<circle cx="280.0" cy="220.0" r="2.0" stroke="#0000b2" stroke-width="4.0" fill="#0000b2" />
<circle cx="340.0" cy="200.0" r="2.0" stroke="#b20000" stroke-width="4.0" fill="#b20000" />
<circle cx="340.0" cy="220.0" r="2.0" stroke="#b20000" stroke-width="4.0" fill="#b20000" />
</g>
<g>
<path d="M 170,230 L 140,230 C 150,214 150,186 140,170 L 160,170 C 190,170 210,180 220,200 C 210,220 190,230 170,230 Z" stroke="#000000" stroke-width="4.0" fill="none"/>
<circle cx="140.0" cy="180.0" r="2.0" stroke="#0000b2" stroke-width="4.0" fill="#0000b2" />
<circle cx="140.0" cy="200.0" r="2.0" stroke="#0000b2" stroke-width="4.0" fill="#0000b2" />
<circle cx="140.0" cy="220.0" r="2.0" stroke="#0000b2" stroke-width="4.0" fill="#0000b2" />
<circle cx="220.0" cy="200.0" r="2.0" stroke="#b20000" stroke-width="4.0" fill="#b20000" />
</g>
<g>
<path d="M 70,150 L 21,150 L 21,90 L 70,90 C 80,90 100,100 99,120 C 99,140 80,150 70,150 Z" stroke="#000000" stroke-width="4.0" fill="none"/>
<circle cx="20.0" cy="100.0" r="2.0" stroke="#0000b2" stroke-width="4.0" fill="#0000b2" />
<circle cx="20.0" cy="140.0" r="2.0" stroke="#0000b2" stroke-width="4.0" fill="#0000b2" />
<circle cx="100.0" cy="120.0" r="2.0" stroke="#b20000" stroke-width="4.0" fill="#b20000" />
</g>
<g>
<path d="M 70,230 L 21,230 L 21,170 L 70,170 C 80,170 100,180 99,200 C 99,220 80,230 70,230 Z" stroke="#000000" stroke-width="4.0" fill="none"/>
<circle cx="20.0" cy="180.0" r="2.0" stroke="#0000b2" stroke-width="4.0" fill="#0000b2" />
<circle cx="20.0" cy="220.0" r="2.0" stroke="#0000b2" stroke-width="4.0" fill="#0000b2" />
<circle cx="100.0" cy="200.0" r="2.0" stroke="#b20000" stroke-width="4.0" fill="#b20000" />
</g>
<g>
<path d="M 70,310 L 21,310 L 21,250 L 70,250 C 80,250 100,260 99,280 C 99,300 80,310 70,310 Z" stroke="#000000" stroke-width="4.0" fill="none"/>
<circle cx="20.0" cy="260.0" r="2.0" stroke="#0000b2" stroke-width="4.0" fill="#0000b2" />
<circle cx="20.0" cy="300.0" r="2.0" stroke="#0000b2" stroke-width="4.0" fill="#0000b2" />
<circle cx="100.0" cy="280.0" r="2.0" stroke="#b20000" stroke-width="4.0" fill="#b20000" />
</g>
<g>
<path d="M 360,400 L 374,408 L 374,392 Z" stroke="#000000" stroke-width="4.0" fill="none"/>
<text text-anchor="start" x="379.0" y="406.75" fill="#808080" style="font-size:18px">Z<tspan style="font-size:80%;baseline-shift:sub;">0</tspan><tspan style="font-size:80%;baseline-shift:super;">n</tspan></text>
<circle cx="360.0" cy="400.0" r="2.0" stroke="#0000b2" stroke-width="4.0" fill="#0000b2" />
</g>
<g>
<path d="M 281,390 L 339,390 L 339,430 L 281,430 Z" stroke="#000000" stroke-width="4.0" fill="none"/>
<text text-anchor="middle" x="310.0" y="382.0" fill="#000000" style="font-size:24px">Z<tspan style="font-size:80%;baseline-shift:sub;">0</tspan><tspan style="font-size:80%;baseline-shift:super;">n</tspan></text>
<text text-anchor="start" x="284.0" y="406.75" fill="#808080" style="font-size:18px">D</text>
<path d="M 281,427 L 288,420 L 281,413" stroke="#000000" stroke-width="2.0" fill="none"/>
<text text-anchor="start" x="291.0" y="426.75" fill="#808080" style="font-size:18px">C</text>
<text text-anchor="end" x="336.0" y="406.75" fill="#808080" style="font-size:18px">Q</text>
<text text-anchor="end" x="336.0" y="426.75" fill="#808080" style="font-size:18px"><tspan style="text-decoration:overline;">Q</tspan></text>
<text text-anchor="middle" x="310.0" y="447.5" fill="#808080" style="font-size:18px">D</text>
<circle cx="280.0" cy="400.0" r="2.0" stroke="#0000b2" stroke-width="4.0" fill="#0000b2" />
<circle cx="280.0" cy="420.0" r="2.0" stroke="#0000b2" stroke-width="4.0" fill="#0000b2" />
<circle cx="340.0" cy="400.0" r="2.0" stroke="#b20000" stroke-width="4.0" fill="#b20000" />
<circle cx="340.0" cy="420.0" r="2.0" stroke="#b20000" stroke-width="4.0" fill="#b20000" />
</g>
<g>
<path d="M 170,430 L 140,430 C 150,414 150,386 140,370 L 160,370 C 190,370 210,380 220,400 C 210,420 190,430 170,430 Z" stroke="#000000" stroke-width="4.0" fill="none"/>
<circle cx="140.0" cy="380.0" r="2.0" stroke="#0000b2" stroke-width="4.0" fill="#0000b2" />
<circle cx="140.0" cy="420.0" r="2.0" stroke="#0000b2" stroke-width="4.0" fill="#0000b2" />
<circle cx="220.0" cy="400.0" r="2.0" stroke="#b20000" stroke-width="4.0" fill="#b20000" />
</g>
<g>
<path d="M 70,390 L 21,390 L 21,330 L 70,330 C 80,330 100,340 99,360 C 99,380 80,390 70,390 Z" stroke="#000000" stroke-width="4.0" fill="none"/>
<circle cx="20.0" cy="340.0" r="2.0" stroke="#0000b2" stroke-width="4.0" fill="#0000b2" />
<circle cx="20.0" cy="360.0" r="2.0" stroke="#0000b2" stroke-width="4.0" fill="#0000b2" />
<circle cx="20.0" cy="380.0" r="2.0" stroke="#0000b2" stroke-width="4.0" fill="#0000b2" />
<circle cx="100.0" cy="360.0" r="2.0" stroke="#b20000" stroke-width="4.0" fill="#b20000" />
</g>
<g>
<path d="M 70,470 L 21,470 L 21,410 L 70,410 C 80,410 100,420 99,440 C 99,460 80,470 70,470 Z" stroke="#000000" stroke-width="4.0" fill="none"/>
<circle cx="20.0" cy="420.0" r="2.0" stroke="#0000b2" stroke-width="4.0" fill="#0000b2" />
<circle cx="20.0" cy="460.0" r="2.0" stroke="#0000b2" stroke-width="4.0" fill="#0000b2" />
<circle cx="100.0" cy="440.0" r="2.0" stroke="#b20000" stroke-width="4.0" fill="#b20000" />
</g>
<g>
<circle cx="376.0" cy="520.0" r="9.0" stroke="#000000" stroke-width="4.0" fill="none" />
<circle cx="376.0" cy="520.0" r="15.0" stroke="#000000" stroke-width="4.0" fill="none" />
<text text-anchor="start" x="405.0" y="529.0" fill="#000000" style="font-size:24px"><tspan style="font-style:italic;">desl</tspan></text>
<circle cx="360.0" cy="520.0" r="2.0" stroke="#0000b2" stroke-width="4.0" fill="#0000b2" />
</g>
<g>
<path d="M 70,550 L 21,550 L 21,490 L 70,490 C 80,490 100,500 99,520 C 99,540 80,550 70,550 Z" stroke="#000000" stroke-width="4.0" fill="none"/>
<circle cx="20.0" cy="500.0" r="2.0" stroke="#0000b2" stroke-width="4.0" fill="#0000b2" />
<circle cx="20.0" cy="540.0" r="2.0" stroke="#0000b2" stroke-width="4.0" fill="#0000b2" />
<circle cx="100.0" cy="520.0" r="2.0" stroke="#b20000" stroke-width="4.0" fill="#b20000" />
</g>
<g>
<circle cx="376.0" cy="600.0" r="9.0" stroke="#000000" stroke-width="4.0" fill="none" />
<circle cx="376.0" cy="600.0" r="15.0" stroke="#000000" stroke-width="4.0" fill="none" />
<text text-anchor="start" x="405.0" y="609.0" fill="#000000" style="font-size:24px"><tspan style="font-style:italic;">hA</tspan></text>
<circle cx="360.0" cy="600.0" r="2.0" stroke="#0000b2" stroke-width="4.0" fill="#0000b2" />
</g>
<g>
<path d="M 50,630 L 20,630 C 30,614 30,586 20,570 L 40,570 C 70,570 90,580 100,600 C 90,620 70,630 50,630 Z" stroke="#000000" stroke-width="4.0" fill="none"/>
<circle cx="20.0" cy="580.0" r="2.0" stroke="#0000b2" stroke-width="4.0" fill="#0000b2" />
<circle cx="20.0" cy="600.0" r="2.0" stroke="#0000b2" stroke-width="4.0" fill="#0000b2" />
<circle cx="20.0" cy="620.0" r="2.0" stroke="#0000b2" stroke-width="4.0" fill="#0000b2" />
<circle cx="100.0" cy="600.0" r="2.0" stroke="#b20000" stroke-width="4.0" fill="#b20000" />
</g>
<g>
<circle cx="376.0" cy="680.0" r="9.0" stroke="#000000" stroke-width="4.0" fill="none" />
<circle cx="376.0" cy="680.0" r="15.0" stroke="#000000" stroke-width="4.0" fill="none" />
<text text-anchor="start" x="405.0" y="689.0" fill="#000000" style="font-size:24px"><tspan style="font-style:italic;">hM</tspan></text>
<circle cx="360.0" cy="680.0" r="2.0" stroke="#0000b2" stroke-width="4.0" fill="#0000b2" />
</g>
<g>
<path d="M 70,710 L 21,710 L 21,650 L 70,650 C 80,650 100,660 99,680 C 99,700 80,710 70,710 Z" stroke="#000000" stroke-width="4.0" fill="none"/>
<circle cx="20.0" cy="660.0" r="2.0" stroke="#0000b2" stroke-width="4.0" fill="#0000b2" />
<circle cx="20.0" cy="700.0" r="2.0" stroke="#0000b2" stroke-width="4.0" fill="#0000b2" />
<circle cx="100.0" cy="680.0" r="2.0" stroke="#b20000" stroke-width="4.0" fill="#b20000" />
</g>
<g>
<circle cx="376.0" cy="740.0" r="9.0" stroke="#000000" stroke-width="4.0" fill="none" />
<circle cx="376.0" cy="740.0" r="15.0" stroke="#000000" stroke-width="4.0" fill="none" />
<text text-anchor="start" x="405.0" y="749.0" fill="#000000" style="font-size:24px"><tspan style="font-style:italic;">hQ</tspan></text>
<circle cx="360.0" cy="740.0" r="2.0" stroke="#0000b2" stroke-width="4.0" fill="#0000b2" />
</g>
<g>
<circle cx="376.0" cy="800.0" r="9.0" stroke="#000000" stroke-width="4.0" fill="none" />
<circle cx="376.0" cy="800.0" r="15.0" stroke="#000000" stroke-width="4.0" fill="none" />
<text text-anchor="start" x="405.0" y="809.0" fill="#000000" style="font-size:24px"><tspan style="font-style:italic;">inicia</tspan></text>
<circle cx="360.0" cy="800.0" r="2.0" stroke="#0000b2" stroke-width="4.0" fill="#0000b2" />
</g>
<g>
<path d="M 70,830 L 21,830 L 21,770 L 70,770 C 80,770 100,780 99,800 C 99,820 80,830 70,830 Z" stroke="#000000" stroke-width="4.0" fill="none"/>
<circle cx="20.0" cy="780.0" r="2.0" stroke="#0000b2" stroke-width="4.0" fill="#0000b2" />
<circle cx="20.0" cy="820.0" r="2.0" stroke="#0000b2" stroke-width="4.0" fill="#0000b2" />
<circle cx="100.0" cy="800.0" r="2.0" stroke="#b20000" stroke-width="4.0" fill="#b20000" />
</g>
<g>
<circle cx="376.0" cy="880.0" r="9.0" stroke="#000000" stroke-width="4.0" fill="none" />
<circle cx="376.0" cy="880.0" r="15.0" stroke="#000000" stroke-width="4.0" fill="none" />
<text text-anchor="start" x="405.0" y="889.0" fill="#000000" style="font-size:24px"><tspan style="font-style:italic;">pronto</tspan></text>
<circle cx="360.0" cy="880.0" r="2.0" stroke="#0000b2" stroke-width="4.0" fill="#0000b2" />
</g>
<g>
<path d="M 70,910 L 21,910 L 21,850 L 70,850 C 80,850 100,860 99,880 C 99,900 80,910 70,910 Z" stroke="#000000" stroke-width="4.0" fill="none"/>
<circle cx="20.0" cy="860.0" r="2.0" stroke="#0000b2" stroke-width="4.0" fill="#0000b2" />
<circle cx="20.0" cy="880.0" r="2.0" stroke="#0000b2" stroke-width="4.0" fill="#0000b2" />
<circle cx="20.0" cy="900.0" r="2.0" stroke="#0000b2" stroke-width="4.0" fill="#0000b2" />
<circle cx="100.0" cy="880.0" r="2.0" stroke="#b20000" stroke-width="4.0" fill="#b20000" />
</g>
<g>
<path d="M -265,-131 L -265,-101 L -295,-101 L -295,-131 Z" stroke="#000000" stroke-width="4.0" fill="none"/>
<circle cx="-280.0" cy="-116.0" r="9.0" stroke="#000000" stroke-width="4.0" fill="none" />
<text text-anchor="start" x="-280.0" y="-136.0" fill="#000000" style="font-size:24px" transform="rotate(-90,-280.0,-145.0)" ><tspan style="font-style:italic;">fim</tspan></text>
<circle cx="-280.0" cy="-100.0" r="2.0" stroke="#b20000" stroke-width="4.0" fill="#b20000" />
</g>
<g>
<path d="M -248,-59 L -260,-41 L -272,-59 Z" stroke="#000000" stroke-width="4.0" fill="none"/>
<circle cx="-260.0" cy="-30.0" r="9.0" stroke="#000000" stroke-width="4.0" fill="none" />
<circle cx="-260.0" cy="-60.0" r="2.0" stroke="#0000b2" stroke-width="4.0" fill="#0000b2" />
<circle cx="-260.0" cy="-20.0" r="2.0" stroke="#b20000" stroke-width="4.0" fill="#b20000" />
</g>
<g>
<path d="M -205,-131 L -205,-101 L -235,-101 L -235,-131 Z" stroke="#000000" stroke-width="4.0" fill="none"/>
<circle cx="-220.0" cy="-116.0" r="9.0" stroke="#000000" stroke-width="4.0" fill="none" />
<text text-anchor="start" x="-220.0" y="-136.0" fill="#000000" style="font-size:24px" transform="rotate(-90,-220.0,-145.0)" ><tspan style="font-style:italic;">mult</tspan></text>
<circle cx="-220.0" cy="-100.0" r="2.0" stroke="#b20000" stroke-width="4.0" fill="#b20000" />
</g>
<g>
<path d="M -160,-100 L -152,-114 L -168,-114 Z" stroke="#000000" stroke-width="4.0" fill="none"/>
<text text-anchor="start" x="-160.0" y="-112.25" fill="#808080" style="font-size:18px" transform="rotate(-90,-160.0,-119.0)" >Z<tspan style="font-size:80%;baseline-shift:sub;">2</tspan><tspan style="font-size:80%;baseline-shift:super;">n</tspan></text>
<circle cx="-160.0" cy="-100.0" r="2.0" stroke="#0000b2" stroke-width="4.0" fill="#0000b2" />
</g>
<g>
<path d="M -128,-59 L -140,-41 L -152,-59 Z" stroke="#000000" stroke-width="4.0" fill="none"/>
<circle cx="-140.0" cy="-30.0" r="9.0" stroke="#000000" stroke-width="4.0" fill="none" />
<circle cx="-140.0" cy="-60.0" r="2.0" stroke="#0000b2" stroke-width="4.0" fill="#0000b2" />
<circle cx="-140.0" cy="-20.0" r="2.0" stroke="#b20000" stroke-width="4.0" fill="#b20000" />
</g>
<g>
<path d="M -100,-100 L -92,-114 L -108,-114 Z" stroke="#000000" stroke-width="4.0" fill="none"/>
<text text-anchor="start" x="-100.0" y="-112.25" fill="#808080" style="font-size:18px" transform="rotate(-90,-100.0,-119.0)" >Z<tspan style="font-size:80%;baseline-shift:sub;">1</tspan><tspan style="font-size:80%;baseline-shift:super;">n</tspan></text>
<circle cx="-100.0" cy="-100.0" r="2.0" stroke="#0000b2" stroke-width="4.0" fill="#0000b2" />
</g>
<g>
<path d="M -68,-59 L -80,-41 L -92,-59 Z" stroke="#000000" stroke-width="4.0" fill="none"/>
<circle cx="-80.0" cy="-30.0" r="9.0" stroke="#000000" stroke-width="4.0" fill="none" />
<circle cx="-80.0" cy="-60.0" r="2.0" stroke="#0000b2" stroke-width="4.0" fill="#0000b2" />
<circle cx="-80.0" cy="-20.0" r="2.0" stroke="#b20000" stroke-width="4.0" fill="#b20000" />
</g>
<g>
<path d="M -40,-100 L -32,-114 L -48,-114 Z" stroke="#000000" stroke-width="4.0" fill="none"/>
<text text-anchor="start" x="-40.0" y="-112.25" fill="#808080" style="font-size:18px" transform="rotate(-90,-40.0,-119.0)" >Z<tspan style="font-size:80%;baseline-shift:sub;">0</tspan><tspan style="font-size:80%;baseline-shift:super;">n</tspan></text>
<circle cx="-40.0" cy="-100.0" r="2.0" stroke="#0000b2" stroke-width="4.0" fill="#0000b2" />
</g>
<g>
<path d="M -8,-59 L -20,-41 L -32,-59 Z" stroke="#000000" stroke-width="4.0" fill="none"/>
<circle cx="-20.0" cy="-30.0" r="9.0" stroke="#000000" stroke-width="4.0" fill="none" />
<circle cx="-20.0" cy="-60.0" r="2.0" stroke="#0000b2" stroke-width="4.0" fill="#0000b2" />
<circle cx="-20.0" cy="-20.0" r="2.0" stroke="#b20000" stroke-width="4.0" fill="#b20000" />
</g>
<g>
<path d="M 275,-71 L 275,-41 L 245,-41 L 245,-71 Z" stroke="#000000" stroke-width="4.0" fill="none"/>
<text text-anchor="start" x="260.0" y="-76.0" fill="#000000" style="font-size:24px" transform="rotate(-90,260.0,-85.0)" ><tspan style="font-style:italic;">C</tspan></text>
<path d="M 255,-65 L 255,-60 L 265,-60 L 265,-55 L 255,-55 L 255,-50 L 265,-50 L 265,-45" stroke="#000000" stroke-width="2.0" fill="none"/>
<circle cx="260.0" cy="-40.0" r="2.0" stroke="#b20000" stroke-width="4.0" fill="#b20000" />
</g>
<g>
<text text-anchor="end" x="658.0" y="-3.0" fill="#808080" style="font-size:12px">0</text>
<text text-anchor="end" x="658.0" y="17.0" fill="#808080" style="font-size:12px">1</text>
<text text-anchor="end" x="658.0" y="37.0" fill="#808080" style="font-size:12px">2</text>
<text text-anchor="start" x="682.0" y="-3.0" fill="#808080" style="font-size:12px">0-2</text>
<path d="M 668,-2 L 672,-2 L 672,42 L 668,42 Z" stroke="#000000" stroke-width="4.0" fill="#000000" fill-opacity="1.0"/>
<circle cx="660.0" cy="0.0" r="2.0" stroke="#0000b2" stroke-width="4.0" fill="#0000b2" />
<circle cx="660.0" cy="20.0" r="2.0" stroke="#0000b2" stroke-width="4.0" fill="#0000b2" />
<circle cx="660.0" cy="40.0" r="2.0" stroke="#0000b2" stroke-width="4.0" fill="#0000b2" />
<circle cx="680.0" cy="0.0" r="2.0" stroke="#b20000" stroke-width="4.0" fill="#b20000" />
</g>
<g>
<text text-anchor="start" x="722.0" y="-4.0" fill="#000000" style="font-size:24px">multfsm.fsm</text>
<text text-anchor="start" x="722.0" y="22.0" fill="#000000" style="font-size:24px">?</text>
<circle cx="720.0" cy="0.0" r="2.0" stroke="#0000b2" stroke-width="4.0" fill="#0000b2" />
</g>
<g>
<path d="M 640,0 L 626,-8 L 626,8 Z" stroke="#000000" stroke-width="4.0" fill="none"/>
<text text-anchor="end" x="621.0" y="6.75" fill="#808080" style="font-size:18px">Z<tspan style="font-size:80%;baseline-shift:sub;">0</tspan><tspan style="font-size:80%;baseline-shift:super;">n</tspan></text>
<circle cx="640.0" cy="0.0" r="2.0" stroke="#0000b2" stroke-width="4.0" fill="#0000b2" />
</g>
<g>
<path d="M 640,20 L 626,12 L 626,28 Z" stroke="#000000" stroke-width="4.0" fill="none"/>
<text text-anchor="end" x="621.0" y="26.75" fill="#808080" style="font-size:18px">Z<tspan style="font-size:80%;baseline-shift:sub;">1</tspan><tspan style="font-size:80%;baseline-shift:super;">n</tspan></text>
<circle cx="640.0" cy="20.0" r="2.0" stroke="#0000b2" stroke-width="4.0" fill="#0000b2" />
</g>
<g>
<path d="M 640,40 L 626,32 L 626,48 Z" stroke="#000000" stroke-width="4.0" fill="none"/>
<text text-anchor="end" x="621.0" y="46.75" fill="#808080" style="font-size:18px">Z<tspan style="font-size:80%;baseline-shift:sub;">2</tspan><tspan style="font-size:80%;baseline-shift:super;">n</tspan></text>
<circle cx="640.0" cy="40.0" r="2.0" stroke="#0000b2" stroke-width="4.0" fill="#0000b2" />
</g>
</g>
</svg>