<?xml version="1.0" encoding="UTF-8" standalone="no"?>
<!-- Created with Digital by H.Neemann -->
<!-- created: Mon Mar 18 14:26:34 BRT 2024 -->

<svg
   xmlns:svg="http://www.w3.org/2000/svg"
   xmlns="http://www.w3.org/2000/svg"
   width="229.35mm"
   height="149.1mm"
   viewBox="-362 3 1529 994">
<g stroke-linecap="square">
<path d="M 200,400 L 210,400 L 220,400" stroke="#000000" stroke-width="4.0" fill="none"/>
<path d="M 220,420 L 210,420" stroke="#000000" stroke-width="4.0" fill="none"/>
<path d="M 200,320 L 210,320 L 220,320" stroke="#000000" stroke-width="4.0" fill="none"/>
<path d="M 220,340 L 210,340" stroke="#000000" stroke-width="4.0" fill="none"/>
<path d="M 320,320 L 330,320 L 340,320" stroke="#000000" stroke-width="4.0" fill="none"/>
<path d="M 320,340 L 330,340" stroke="#000000" stroke-width="4.0" fill="none"/>
<path d="M 320,400 L 330,400 L 340,400" stroke="#000000" stroke-width="4.0" fill="none"/>
<path d="M 320,420 L 330,420" stroke="#000000" stroke-width="4.0" fill="none"/>
<path d="M 860,260 L 860,320 L 880,320" stroke="#0000b2" stroke-width="4.0" fill="none"/>
<path d="M 120,260 L 120,320 L 200,320" stroke="#0000b2" stroke-width="4.0" fill="none"/>
<path d="M 220,320 L 240,320 L 240,300 L 280,300 L 280,420 L 320,420" stroke="#0000b2" stroke-width="4.0" fill="none"/>
<path d="M 340,320 L 420,320 L 420,240 L 440,240" stroke="#0000b2" stroke-width="4.0" fill="none"/>
<path d="M 580,320 L 620,320 L 620,300 L 520,300 L 520,260 L 540,260" stroke="#0000b2" stroke-width="4.0" fill="none"/>
<path d="M 820,260 L 860,260 L 880,260" stroke="#0000b2" stroke-width="4.0" fill="none"/>
<path d="M 740,140 L 740,260 L 760,260" stroke="#0000b2" stroke-width="4.0" fill="none"/>
<path d="M -120,260 L 120,260 L 120,200 L 240,200" stroke="#0000b2" stroke-width="4.0" fill="none"/>
<path d="M 820,580 L 880,580" stroke="#0000b2" stroke-width="4.0" fill="none"/>
<path d="M -120,580 L -20,580" stroke="#0000b2" stroke-width="4.0" fill="none"/>
<path d="M 500,580 L 640,580 L 640,420 L 760,420" stroke="#0000b2" stroke-width="4.0" fill="none"/>
<path d="M 680,600 L 680,900 L 760,900" stroke="#0000b2" stroke-width="4.0" fill="none"/>
<path d="M 300,200 L 440,200" stroke="#0000b2" stroke-width="4.0" fill="none"/>
<path d="M 500,520 L 620,520 L 620,860 L 760,860" stroke="#0000b2" stroke-width="4.0" fill="none"/>
<path d="M 820,140 L 880,140" stroke="#0000b2" stroke-width="4.0" fill="none"/>
<path d="M -120,140 L 100,140 L 100,360 L 300,360 L 300,340 L 320,340" stroke="#0000b2" stroke-width="4.0" fill="none"/>
<path d="M 860,400 L 860,460 L 880,460" stroke="#0000b2" stroke-width="4.0" fill="none"/>
<path d="M 500,320 L 500,460 L 680,460 L 680,600 L 500,600" stroke="#0000b2" stroke-width="4.0" fill="none"/>
<path d="M 820,400 L 860,400 L 880,400" stroke="#0000b2" stroke-width="4.0" fill="none"/>
<path d="M -120,400 L 200,400" stroke="#0000b2" stroke-width="4.0" fill="none"/>
<path d="M 340,400 L 600,400" stroke="#0000b2" stroke-width="4.0" fill="none"/>
<path d="M 220,400 L 240,400 L 240,660 L -120,660 L -120,620 L -100,620" stroke="#0000b2" stroke-width="4.0" fill="none"/>
<path d="M -100,720 L 560,720 L 560,360 L 600,360" stroke="#0000b2" stroke-width="4.0" fill="none"/>
<path d="M 680,20 L 740,20 L 740,140 L 760,140" stroke="#0000b2" stroke-width="4.0" fill="none"/>
<path d="M 220,340 L 260,340 L 260,320 L 320,320" stroke="#0000b2" stroke-width="4.0" fill="none"/>
<path d="M -100,980 L 260,980 L 260,540 L 340,540" stroke="#0000b2" stroke-width="4.0" fill="none"/>
<path d="M 60,600 L 140,600 L 140,220 L 240,220" stroke="#0000b2" stroke-width="4.0" fill="none"/>
<path d="M 480,220 L 560,220" stroke="#0000b2" stroke-width="4.0" fill="none"/>
<path d="M 300,220 L 380,220 L 380,100 L 560,100" stroke="#0000b2" stroke-width="4.0" fill="none"/>
<path d="M 820,860 L 840,860 L 840,800 L 880,800" stroke="#0000b2" stroke-width="4.0" fill="none"/>
<path d="M 500,540 L 720,540 L 720,280" stroke="#0000b2" stroke-width="4.0" fill="none"/>
<path d="M 220,420 L 260,420 L 260,400 L 320,400" stroke="#0000b2" stroke-width="4.0" fill="none"/>
<path d="M 500,620 L 640,620 L 640,700 L 880,700" stroke="#0000b2" stroke-width="4.0" fill="none"/>
<path d="M -40,620 L -20,620" stroke="#0000b2" stroke-width="4.0" fill="none"/>
<path d="M 640,240 L 760,240" stroke="#0000b2" stroke-width="4.0" fill="none"/>
<path d="M 220,240 L 240,240" stroke="#0000b2" stroke-width="4.0" fill="none"/>
<path d="M 500,560 L 660,560 L 660,580 L 720,580 L 720,600 L 760,600" stroke="#0000b2" stroke-width="4.0" fill="none"/>
<path d="M 820,880 L 880,880" stroke="#0000b2" stroke-width="4.0" fill="none"/>
<path d="M -120,880 L 280,880 L 280,520 L 340,520" stroke="#0000b2" stroke-width="4.0" fill="none"/>
<path d="M -100,820 L 700,820 L 700,560 L 760,560" stroke="#0000b2" stroke-width="4.0" fill="none"/>
<path d="M 640,120 L 760,120" stroke="#0000b2" stroke-width="4.0" fill="none"/>
<path d="M 460,240 L 460,440 L 620,440 L 620,400" stroke="#0000b2" stroke-width="4.0" fill="none"/>
<path d="M 640,380 L 760,380" stroke="#0000b2" stroke-width="4.0" fill="none"/>
<path d="M 760,580 L 740,580 L 740,400 L 760,400" stroke="#0000b2" stroke-width="4.0" fill="none"/>
<path d="M 760,880 L 740,880 L 740,680 L 320,680 L 320,560 L 340,560" stroke="#0000b2" stroke-width="4.0" fill="none"/>
<path d="M 740,260 L 740,400" stroke="#0000b2" stroke-width="4.0" fill="none"/>
<path d="M 740,580 L 740,680" stroke="#0000b2" stroke-width="4.0" fill="none"/>
<path d="M 620,440 L 620,520" stroke="#0000b2" stroke-width="4.0" fill="none"/>
<path d="M 760,280 L 720,280 L 720,160 L 760,160" stroke="#0000b2" stroke-width="4.0" fill="none"/>
<path d="M 520,320 L 500,320 L 500,140 L 540,140" stroke="#0000b2" stroke-width="4.0" fill="none"/>
<g>
<circle cx="500.0" cy="320.0" r="4.0" stroke="#0000b2" stroke-width="4.0" fill="#0000b2" />
<circle cx="860.0" cy="260.0" r="4.0" stroke="#0000b2" stroke-width="4.0" fill="#0000b2" />
<circle cx="740.0" cy="260.0" r="4.0" stroke="#0000b2" stroke-width="4.0" fill="#0000b2" />
<circle cx="120.0" cy="260.0" r="4.0" stroke="#0000b2" stroke-width="4.0" fill="#0000b2" />
<circle cx="740.0" cy="580.0" r="4.0" stroke="#0000b2" stroke-width="4.0" fill="#0000b2" />
<circle cx="620.0" cy="520.0" r="4.0" stroke="#0000b2" stroke-width="4.0" fill="#0000b2" />
<circle cx="740.0" cy="140.0" r="4.0" stroke="#0000b2" stroke-width="4.0" fill="#0000b2" />
<circle cx="860.0" cy="400.0" r="4.0" stroke="#0000b2" stroke-width="4.0" fill="#0000b2" />
<circle cx="740.0" cy="400.0" r="4.0" stroke="#0000b2" stroke-width="4.0" fill="#0000b2" />
<circle cx="680.0" cy="600.0" r="4.0" stroke="#0000b2" stroke-width="4.0" fill="#0000b2" />
<circle cx="720.0" cy="280.0" r="4.0" stroke="#0000b2" stroke-width="4.0" fill="#0000b2" />
<circle cx="740.0" cy="680.0" r="4.0" stroke="#0000b2" stroke-width="4.0" fill="#0000b2" />
<circle cx="620.0" cy="440.0" r="4.0" stroke="#0000b2" stroke-width="4.0" fill="#0000b2" />
</g>
<g>
<path d="M 761,230 L 819,230 L 819,290 L 761,290 Z" stroke="#000000" stroke-width="4.0" fill="none"/>
<text text-anchor="middle" x="790.0" y="222.0" fill="#000000" style="font-size:24px">A</text>
<text text-anchor="start" x="764.0" y="246.75" fill="#808080" style="font-size:18px">D</text>
<path d="M 761,267 L 768,260 L 761,253" stroke="#000000" stroke-width="2.0" fill="none"/>
<text text-anchor="start" x="771.0" y="266.75" fill="#808080" style="font-size:18px">C</text>
<text text-anchor="start" x="764.0" y="286.75" fill="#808080" style="font-size:18px">en</text>
<text text-anchor="end" x="816.0" y="266.75" fill="#808080" style="font-size:18px">Q</text>
<text text-anchor="middle" x="790.0" y="307.5" fill="#808080" style="font-size:18px">Reg</text>
<circle cx="760.0" cy="240.0" r="2.0" stroke="#0000b2" stroke-width="4.0" fill="#0000b2" />
<circle cx="760.0" cy="260.0" r="2.0" stroke="#0000b2" stroke-width="4.0" fill="#0000b2" />
<circle cx="760.0" cy="280.0" r="2.0" stroke="#0000b2" stroke-width="4.0" fill="#0000b2" />
<circle cx="820.0" cy="260.0" r="2.0" stroke="#b20000" stroke-width="4.0" fill="#b20000" />
</g>
<g>
<path d="M 761,370 L 819,370 L 819,430 L 761,430 Z" stroke="#000000" stroke-width="4.0" fill="none"/>
<text text-anchor="middle" x="790.0" y="362.0" fill="#000000" style="font-size:24px">Q</text>
<text text-anchor="start" x="764.0" y="386.75" fill="#808080" style="font-size:18px">D</text>
<path d="M 761,407 L 768,400 L 761,393" stroke="#000000" stroke-width="2.0" fill="none"/>
<text text-anchor="start" x="771.0" y="406.75" fill="#808080" style="font-size:18px">C</text>
<text text-anchor="start" x="764.0" y="426.75" fill="#808080" style="font-size:18px">en</text>
<text text-anchor="end" x="816.0" y="406.75" fill="#808080" style="font-size:18px">Q</text>
<text text-anchor="middle" x="790.0" y="447.5" fill="#808080" style="font-size:18px">Reg</text>
<circle cx="760.0" cy="380.0" r="2.0" stroke="#0000b2" stroke-width="4.0" fill="#0000b2" />
<circle cx="760.0" cy="400.0" r="2.0" stroke="#0000b2" stroke-width="4.0" fill="#0000b2" />
<circle cx="760.0" cy="420.0" r="2.0" stroke="#0000b2" stroke-width="4.0" fill="#0000b2" />
<circle cx="820.0" cy="400.0" r="2.0" stroke="#b20000" stroke-width="4.0" fill="#b20000" />
</g>
<g>
<path d="M 761,550 L 819,550 L 819,610 L 761,610 Z" stroke="#000000" stroke-width="4.0" fill="none"/>
<text text-anchor="middle" x="790.0" y="542.0" fill="#000000" style="font-size:24px">M</text>
<text text-anchor="start" x="764.0" y="566.75" fill="#808080" style="font-size:18px">D</text>
<path d="M 761,587 L 768,580 L 761,573" stroke="#000000" stroke-width="2.0" fill="none"/>
<text text-anchor="start" x="771.0" y="586.75" fill="#808080" style="font-size:18px">C</text>
<text text-anchor="start" x="764.0" y="606.75" fill="#808080" style="font-size:18px">en</text>
<text text-anchor="end" x="816.0" y="586.75" fill="#808080" style="font-size:18px">Q</text>
<text text-anchor="middle" x="790.0" y="627.5" fill="#808080" style="font-size:18px">Reg</text>
<circle cx="760.0" cy="560.0" r="2.0" stroke="#0000b2" stroke-width="4.0" fill="#0000b2" />
<circle cx="760.0" cy="580.0" r="2.0" stroke="#0000b2" stroke-width="4.0" fill="#0000b2" />
<circle cx="760.0" cy="600.0" r="2.0" stroke="#0000b2" stroke-width="4.0" fill="#0000b2" />
<circle cx="820.0" cy="580.0" r="2.0" stroke="#b20000" stroke-width="4.0" fill="#b20000" />
</g>
<g>
<path d="M 761,110 L 819,110 L 819,170 L 761,170 Z" stroke="#000000" stroke-width="4.0" fill="none"/>
<text text-anchor="middle" x="790.0" y="102.0" fill="#000000" style="font-size:24px">C</text>
<text text-anchor="start" x="764.0" y="126.75" fill="#808080" style="font-size:18px">D</text>
<path d="M 761,147 L 768,140 L 761,133" stroke="#000000" stroke-width="2.0" fill="none"/>
<text text-anchor="start" x="771.0" y="146.75" fill="#808080" style="font-size:18px">C</text>
<text text-anchor="start" x="764.0" y="166.75" fill="#808080" style="font-size:18px">en</text>
<text text-anchor="end" x="816.0" y="146.75" fill="#808080" style="font-size:18px">Q</text>
<text text-anchor="middle" x="790.0" y="187.5" fill="#808080" style="font-size:18px">Reg</text>
<circle cx="760.0" cy="120.0" r="2.0" stroke="#0000b2" stroke-width="4.0" fill="#0000b2" />
<circle cx="760.0" cy="140.0" r="2.0" stroke="#0000b2" stroke-width="4.0" fill="#0000b2" />
<circle cx="760.0" cy="160.0" r="2.0" stroke="#0000b2" stroke-width="4.0" fill="#0000b2" />
<circle cx="820.0" cy="140.0" r="2.0" stroke="#b20000" stroke-width="4.0" fill="#b20000" />
</g>
<g>
<path d="M 880,140 L 894,148 L 894,132 Z" stroke="#000000" stroke-width="4.0" fill="none"/>
<text text-anchor="start" x="899.0" y="146.75" fill="#808080" style="font-size:18px">C</text>
<circle cx="880.0" cy="140.0" r="2.0" stroke="#0000b2" stroke-width="4.0" fill="#0000b2" />
</g>
<g>
<path d="M -120,140 L -134,132 L -134,148 Z" stroke="#000000" stroke-width="4.0" fill="none"/>
<text text-anchor="end" x="-139.0" y="146.75" fill="#808080" style="font-size:18px">C</text>
<circle cx="-120.0" cy="140.0" r="2.0" stroke="#0000b2" stroke-width="4.0" fill="#0000b2" />
</g>
<g>
<path d="M 880,260 L 894,268 L 894,252 Z" stroke="#000000" stroke-width="4.0" fill="none"/>
<text text-anchor="start" x="899.0" y="266.75" fill="#808080" style="font-size:18px">A</text>
<circle cx="880.0" cy="260.0" r="2.0" stroke="#0000b2" stroke-width="4.0" fill="#0000b2" />
</g>
<g>
<path d="M -120,260 L -134,252 L -134,268 Z" stroke="#000000" stroke-width="4.0" fill="none"/>
<text text-anchor="end" x="-139.0" y="266.75" fill="#808080" style="font-size:18px">A</text>
<circle cx="-120.0" cy="260.0" r="2.0" stroke="#0000b2" stroke-width="4.0" fill="#0000b2" />
</g>
<g>
<path d="M 880,400 L 894,408 L 894,392 Z" stroke="#000000" stroke-width="4.0" fill="none"/>
<text text-anchor="start" x="899.0" y="406.75" fill="#808080" style="font-size:18px">Q</text>
<circle cx="880.0" cy="400.0" r="2.0" stroke="#0000b2" stroke-width="4.0" fill="#0000b2" />
</g>
<g>
<path d="M -120,400 L -134,392 L -134,408 Z" stroke="#000000" stroke-width="4.0" fill="none"/>
<text text-anchor="end" x="-139.0" y="406.75" fill="#808080" style="font-size:18px">Q</text>
<circle cx="-120.0" cy="400.0" r="2.0" stroke="#0000b2" stroke-width="4.0" fill="#0000b2" />
</g>
<g>
<path d="M 880,580 L 894,588 L 894,572 Z" stroke="#000000" stroke-width="4.0" fill="none"/>
<text text-anchor="start" x="899.0" y="586.75" fill="#808080" style="font-size:18px">M</text>
<circle cx="880.0" cy="580.0" r="2.0" stroke="#0000b2" stroke-width="4.0" fill="#0000b2" />
</g>
<g>
<path d="M -120,580 L -134,572 L -134,588 Z" stroke="#000000" stroke-width="4.0" fill="none"/>
<text text-anchor="end" x="-139.0" y="586.75" fill="#808080" style="font-size:18px">M</text>
<circle cx="-120.0" cy="580.0" r="2.0" stroke="#0000b2" stroke-width="4.0" fill="#0000b2" />
</g>
<g>
<path d="M 649,5 L 679,5 L 679,35 L 649,35 Z" stroke="#000000" stroke-width="4.0" fill="none"/>
<text text-anchor="end" x="635.0" y="29.0" fill="#000000" style="font-size:24px"><tspan style="font-style:italic;">relogio</tspan></text>
<path d="M 655,25 L 660,25 L 660,15 L 665,15 L 665,25 L 670,25 L 670,15 L 675,15" stroke="#000000" stroke-width="2.0" fill="none"/>
<circle cx="680.0" cy="20.0" r="2.0" stroke="#b20000" stroke-width="4.0" fill="#b20000" />
</g>
<g>
<path d="M 610,150 L 561,150 L 561,90 L 610,90 C 620,90 640,100 639,120 C 639,140 620,150 610,150 Z" stroke="#000000" stroke-width="4.0" fill="none"/>
<circle cx="550.0" cy="140.0" r="8.0" stroke="#000000" stroke-width="4.0" fill="none" />
<circle cx="560.0" cy="100.0" r="2.0" stroke="#0000b2" stroke-width="4.0" fill="#0000b2" />
<circle cx="540.0" cy="140.0" r="2.0" stroke="#0000b2" stroke-width="4.0" fill="#0000b2" />
<circle cx="640.0" cy="120.0" r="2.0" stroke="#b20000" stroke-width="4.0" fill="#b20000" />
</g>
<g>
<path d="M 610,270 L 561,270 L 561,210 L 610,210 C 620,210 640,220 639,240 C 639,260 620,270 610,270 Z" stroke="#000000" stroke-width="4.0" fill="none"/>
<circle cx="550.0" cy="260.0" r="8.0" stroke="#000000" stroke-width="4.0" fill="none" />
<circle cx="560.0" cy="220.0" r="2.0" stroke="#0000b2" stroke-width="4.0" fill="#0000b2" />
<circle cx="540.0" cy="260.0" r="2.0" stroke="#0000b2" stroke-width="4.0" fill="#0000b2" />
<circle cx="640.0" cy="240.0" r="2.0" stroke="#b20000" stroke-width="4.0" fill="#b20000" />
</g>
<g>
<path d="M 441,196 L 479,205 L 479,235 L 441,244 Z" stroke="#000000" stroke-width="4.0" fill="none"/>
<text text-anchor="start" x="443.0" y="215.5" fill="#808080" style="font-size:18px">0</text>
<circle cx="460.0" cy="240.0" r="2.0" stroke="#0000b2" stroke-width="4.0" fill="#0000b2" />
<circle cx="440.0" cy="200.0" r="2.0" stroke="#0000b2" stroke-width="4.0" fill="#0000b2" />
<circle cx="440.0" cy="240.0" r="2.0" stroke="#0000b2" stroke-width="4.0" fill="#0000b2" />
<circle cx="480.0" cy="220.0" r="2.0" stroke="#b20000" stroke-width="4.0" fill="#b20000" />
</g>
<g>
<path d="M 601,356 L 639,365 L 639,395 L 601,404 Z" stroke="#000000" stroke-width="4.0" fill="none"/>
<text text-anchor="start" x="603.0" y="375.5" fill="#808080" style="font-size:18px">0</text>
<circle cx="620.0" cy="400.0" r="2.0" stroke="#0000b2" stroke-width="4.0" fill="#0000b2" />
<circle cx="600.0" cy="360.0" r="2.0" stroke="#0000b2" stroke-width="4.0" fill="#0000b2" />
<circle cx="600.0" cy="400.0" r="2.0" stroke="#0000b2" stroke-width="4.0" fill="#0000b2" />
<circle cx="640.0" cy="380.0" r="2.0" stroke="#b20000" stroke-width="4.0" fill="#b20000" />
</g>
<g>
<path d="M 30,630 L -19,630 L -19,570 L 30,570 C 40,570 60,580 59,600 C 59,620 40,630 30,630 Z" stroke="#000000" stroke-width="4.0" fill="none"/>
<circle cx="-20.0" cy="580.0" r="2.0" stroke="#0000b2" stroke-width="4.0" fill="#0000b2" />
<circle cx="-20.0" cy="620.0" r="2.0" stroke="#0000b2" stroke-width="4.0" fill="#0000b2" />
<circle cx="60.0" cy="600.0" r="2.0" stroke="#b20000" stroke-width="4.0" fill="#b20000" />
</g>
<g>
<path d="M 241,190 L 299,190 L 299,250 L 241,250 Z" stroke="#000000" stroke-width="4.0" fill="none"/>
<text text-anchor="start" x="244.0" y="206.75" fill="#808080" style="font-size:18px">a</text>
<text text-anchor="start" x="244.0" y="226.75" fill="#808080" style="font-size:18px">b</text>
<text text-anchor="start" x="244.0" y="246.75" fill="#808080" style="font-size:18px">c<tspan style="font-size:80%;baseline-shift:sub;">i</tspan></text>
<text text-anchor="end" x="296.0" y="206.75" fill="#808080" style="font-size:18px">s</text>
<text text-anchor="end" x="296.0" y="226.75" fill="#808080" style="font-size:18px">c<tspan style="font-size:80%;baseline-shift:sub;">o</tspan></text>
<text text-anchor="middle" x="270.0" y="267.5" fill="#808080" style="font-size:18px">Soma</text>
<circle cx="240.0" cy="200.0" r="2.0" stroke="#0000b2" stroke-width="4.0" fill="#0000b2" />
<circle cx="240.0" cy="220.0" r="2.0" stroke="#0000b2" stroke-width="4.0" fill="#0000b2" />
<circle cx="240.0" cy="240.0" r="2.0" stroke="#0000b2" stroke-width="4.0" fill="#0000b2" />
<circle cx="300.0" cy="200.0" r="2.0" stroke="#b20000" stroke-width="4.0" fill="#b20000" />
<circle cx="300.0" cy="220.0" r="2.0" stroke="#b20000" stroke-width="4.0" fill="#b20000" />
</g>
<g>
<path d="M -131,705 L -101,705 L -101,735 L -131,735 Z" stroke="#000000" stroke-width="4.0" fill="none"/>
<circle cx="-116.0" cy="720.0" r="9.0" stroke="#000000" stroke-width="4.0" fill="none" />
<text text-anchor="end" x="-145.0" y="729.0" fill="#000000" style="font-size:24px"><tspan style="font-style:italic;">X</tspan></text>
<circle cx="-100.0" cy="720.0" r="2.0" stroke="#b20000" stroke-width="4.0" fill="#b20000" />
</g>
<g>
<path d="M -131,805 L -101,805 L -101,835 L -131,835 Z" stroke="#000000" stroke-width="4.0" fill="none"/>
<circle cx="-116.0" cy="820.0" r="9.0" stroke="#000000" stroke-width="4.0" fill="none" />
<text text-anchor="end" x="-145.0" y="829.0" fill="#000000" style="font-size:24px"><tspan style="font-style:italic;">Y</tspan></text>
<circle cx="-100.0" cy="820.0" r="2.0" stroke="#b20000" stroke-width="4.0" fill="#b20000" />
</g>
<g>
<path d="M -131,965 L -101,965 L -101,995 L -131,995 Z" stroke="#000000" stroke-width="4.0" fill="none"/>
<circle cx="-116.0" cy="980.0" r="9.0" stroke="#000000" stroke-width="4.0" fill="none" />
<text text-anchor="end" x="-145.0" y="989.0" fill="#000000" style="font-size:24px"><tspan style="font-style:italic;">mult</tspan></text>
<circle cx="-100.0" cy="980.0" r="2.0" stroke="#b20000" stroke-width="4.0" fill="#b20000" />
</g>
<g>
<circle cx="896.0" cy="320.0" r="9.0" stroke="#000000" stroke-width="4.0" fill="none" />
<circle cx="896.0" cy="320.0" r="15.0" stroke="#000000" stroke-width="4.0" fill="none" />
<text text-anchor="start" x="925.0" y="329.0" fill="#000000" style="font-size:24px"><tspan style="font-style:italic;">MH</tspan></text>
<circle cx="880.0" cy="320.0" r="2.0" stroke="#0000b2" stroke-width="4.0" fill="#0000b2" />
</g>
<g>
<circle cx="896.0" cy="460.0" r="9.0" stroke="#000000" stroke-width="4.0" fill="none" />
<circle cx="896.0" cy="460.0" r="15.0" stroke="#000000" stroke-width="4.0" fill="none" />
<text text-anchor="start" x="925.0" y="469.0" fill="#000000" style="font-size:24px"><tspan style="font-style:italic;">ML</tspan></text>
<circle cx="880.0" cy="460.0" r="2.0" stroke="#0000b2" stroke-width="4.0" fill="#0000b2" />
</g>
<g>
<circle cx="896.0" cy="700.0" r="9.0" stroke="#000000" stroke-width="4.0" fill="none" />
<circle cx="896.0" cy="700.0" r="15.0" stroke="#000000" stroke-width="4.0" fill="none" />
<text text-anchor="start" x="925.0" y="709.0" fill="#000000" style="font-size:24px"><tspan style="font-style:italic;">pronto</tspan></text>
<circle cx="880.0" cy="700.0" r="2.0" stroke="#0000b2" stroke-width="4.0" fill="#0000b2" />
</g>
<g>
<text text-anchor="end" x="217.0" y="249.0" fill="#000000" style="font-size:24px">0</text>
<circle cx="220.0" cy="240.0" r="2.0" stroke="#b20000" stroke-width="4.0" fill="#b20000" />
</g>
<g>
<text text-anchor="end" x="198.0" y="397.0" fill="#808080" style="font-size:12px">0-15</text>
<text text-anchor="start" x="222.0" y="397.0" fill="#808080" style="font-size:12px">0</text>
<text text-anchor="start" x="222.0" y="417.0" fill="#808080" style="font-size:12px">1-15</text>
<path d="M 208,398 L 212,398 L 212,422 L 208,422 Z" stroke="#000000" stroke-width="4.0" fill="#000000" fill-opacity="1.0"/>
<circle cx="200.0" cy="400.0" r="2.0" stroke="#0000b2" stroke-width="4.0" fill="#0000b2" />
<circle cx="220.0" cy="400.0" r="2.0" stroke="#b20000" stroke-width="4.0" fill="#b20000" />
<circle cx="220.0" cy="420.0" r="2.0" stroke="#b20000" stroke-width="4.0" fill="#b20000" />
</g>
<g>
<text text-anchor="end" x="198.0" y="317.0" fill="#808080" style="font-size:12px">0-15</text>
<text text-anchor="start" x="222.0" y="317.0" fill="#808080" style="font-size:12px">0</text>
<text text-anchor="start" x="222.0" y="337.0" fill="#808080" style="font-size:12px">1-15</text>
<path d="M 208,318 L 212,318 L 212,342 L 208,342 Z" stroke="#000000" stroke-width="4.0" fill="#000000" fill-opacity="1.0"/>
<circle cx="200.0" cy="320.0" r="2.0" stroke="#0000b2" stroke-width="4.0" fill="#0000b2" />
<circle cx="220.0" cy="320.0" r="2.0" stroke="#b20000" stroke-width="4.0" fill="#b20000" />
<circle cx="220.0" cy="340.0" r="2.0" stroke="#b20000" stroke-width="4.0" fill="#b20000" />
</g>
<g>
<text text-anchor="end" x="318.0" y="317.0" fill="#808080" style="font-size:12px">0-14</text>
<text text-anchor="end" x="318.0" y="337.0" fill="#808080" style="font-size:12px">15</text>
<text text-anchor="start" x="342.0" y="317.0" fill="#808080" style="font-size:12px">0-15</text>
<path d="M 328,318 L 332,318 L 332,342 L 328,342 Z" stroke="#000000" stroke-width="4.0" fill="#000000" fill-opacity="1.0"/>
<circle cx="320.0" cy="320.0" r="2.0" stroke="#0000b2" stroke-width="4.0" fill="#0000b2" />
<circle cx="320.0" cy="340.0" r="2.0" stroke="#0000b2" stroke-width="4.0" fill="#0000b2" />
<circle cx="340.0" cy="320.0" r="2.0" stroke="#b20000" stroke-width="4.0" fill="#b20000" />
</g>
<g>
<text text-anchor="end" x="318.0" y="397.0" fill="#808080" style="font-size:12px">0-14</text>
<text text-anchor="end" x="318.0" y="417.0" fill="#808080" style="font-size:12px">15</text>
<text text-anchor="start" x="342.0" y="397.0" fill="#808080" style="font-size:12px">0-15</text>
<path d="M 328,398 L 332,398 L 332,422 L 328,422 Z" stroke="#000000" stroke-width="4.0" fill="#000000" fill-opacity="1.0"/>
<circle cx="320.0" cy="400.0" r="2.0" stroke="#0000b2" stroke-width="4.0" fill="#0000b2" />
<circle cx="320.0" cy="420.0" r="2.0" stroke="#0000b2" stroke-width="4.0" fill="#0000b2" />
<circle cx="340.0" cy="400.0" r="2.0" stroke="#b20000" stroke-width="4.0" fill="#b20000" />
</g>
<g>
<text text-anchor="start" x="240.0" y="47.0" fill="#000000" style="font-size:36px">Ciclo N</text>
</g>
<g>
<text text-anchor="start" x="-360.0" y="47.0" fill="#000000" style="font-size:36px">Ciclo N-1</text>
</g>
<g>
<text text-anchor="start" x="980.0" y="47.0" fill="#000000" style="font-size:36px">Ciclo N+1</text>
</g>
<g>
<path d="M 761,850 L 819,850 L 819,910 L 761,910 Z" stroke="#000000" stroke-width="4.0" fill="none"/>
<text text-anchor="start" x="764.0" y="866.75" fill="#808080" style="font-size:18px">en</text>
<path d="M 761,887 L 768,880 L 761,873" stroke="#000000" stroke-width="2.0" fill="none"/>
<text text-anchor="start" x="771.0" y="886.75" fill="#808080" style="font-size:18px">C</text>
<text text-anchor="start" x="764.0" y="906.75" fill="#808080" style="font-size:18px">clr</text>
<text text-anchor="end" x="816.0" y="866.75" fill="#808080" style="font-size:18px">out</text>
<text text-anchor="end" x="816.0" y="886.75" fill="#808080" style="font-size:18px">ovf</text>
<text text-anchor="middle" x="790.0" y="927.5" fill="#808080" style="font-size:18px">Contador</text>
<circle cx="760.0" cy="860.0" r="2.0" stroke="#0000b2" stroke-width="4.0" fill="#0000b2" />
<circle cx="760.0" cy="880.0" r="2.0" stroke="#0000b2" stroke-width="4.0" fill="#0000b2" />
<circle cx="760.0" cy="900.0" r="2.0" stroke="#0000b2" stroke-width="4.0" fill="#0000b2" />
<circle cx="820.0" cy="860.0" r="2.0" stroke="#b20000" stroke-width="4.0" fill="#b20000" />
<circle cx="820.0" cy="880.0" r="2.0" stroke="#b20000" stroke-width="4.0" fill="#b20000" />
</g>
<g>
<path d="M 880,880 L 894,888 L 894,872 Z" stroke="#000000" stroke-width="4.0" fill="none"/>
<text text-anchor="start" x="899.0" y="886.75" fill="#808080" style="font-size:18px">fim</text>
<circle cx="880.0" cy="880.0" r="2.0" stroke="#0000b2" stroke-width="4.0" fill="#0000b2" />
</g>
<g>
<path d="M -120,880 L -134,872 L -134,888 Z" stroke="#000000" stroke-width="4.0" fill="none"/>
<text text-anchor="end" x="-139.0" y="886.75" fill="#808080" style="font-size:18px">fim</text>
<circle cx="-120.0" cy="880.0" r="2.0" stroke="#0000b2" stroke-width="4.0" fill="#0000b2" />
</g>
<g>
<path d="M 341,506 L 499,506 L 499,634 L 341,634 Z" stroke="#ffffb4" stroke-width="0.0" fill="#ffffb4" fill-opacity="0.7843137254901961"/>
<path d="M 341,506 L 499,506 L 499,634 L 341,634 Z" stroke="#000000" stroke-width="4.0" fill="none"/>
<text text-anchor="start" x="344.0" y="526.75" fill="#808080" style="font-size:18px">fim</text>
<text text-anchor="start" x="344.0" y="546.75" fill="#808080" style="font-size:18px">mult</text>
<path d="M 341,567 L 348,560 L 341,553" stroke="#000000" stroke-width="2.0" fill="none"/>
<text text-anchor="start" x="351.0" y="566.75" fill="#808080" style="font-size:18px">C</text>
<text text-anchor="end" x="496.0" y="526.75" fill="#808080" style="font-size:18px">desl</text>
<text text-anchor="end" x="496.0" y="546.75" fill="#808080" style="font-size:18px">hA</text>
<text text-anchor="end" x="496.0" y="566.75" fill="#808080" style="font-size:18px">hM</text>
<text text-anchor="end" x="496.0" y="586.75" fill="#808080" style="font-size:18px">hQ</text>
<text text-anchor="end" x="496.0" y="606.75" fill="#808080" style="font-size:18px">inicia</text>
<text text-anchor="end" x="496.0" y="626.75" fill="#808080" style="font-size:18px">pronto</text>
<text text-anchor="middle" x="420.0" y="651.5" fill="#808080" style="font-size:18px">multfsmcir</text>
<circle cx="340.0" cy="520.0" r="2.0" stroke="#0000b2" stroke-width="4.0" fill="#0000b2" />
<circle cx="340.0" cy="540.0" r="2.0" stroke="#0000b2" stroke-width="4.0" fill="#0000b2" />
<circle cx="340.0" cy="560.0" r="2.0" stroke="#0000b2" stroke-width="4.0" fill="#0000b2" />
<circle cx="500.0" cy="520.0" r="2.0" stroke="#b20000" stroke-width="4.0" fill="#b20000" />
<circle cx="500.0" cy="540.0" r="2.0" stroke="#b20000" stroke-width="4.0" fill="#b20000" />
<circle cx="500.0" cy="560.0" r="2.0" stroke="#b20000" stroke-width="4.0" fill="#b20000" />
<circle cx="500.0" cy="580.0" r="2.0" stroke="#b20000" stroke-width="4.0" fill="#b20000" />
<circle cx="500.0" cy="600.0" r="2.0" stroke="#b20000" stroke-width="4.0" fill="#b20000" />
<circle cx="500.0" cy="620.0" r="2.0" stroke="#b20000" stroke-width="4.0" fill="#b20000" />
</g>
<g>
<path d="M -99,606 L -41,606 L -41,634 L -99,634 Z" stroke="#ffffb4" stroke-width="0.0" fill="#ffffb4" fill-opacity="0.7843137254901961"/>
<path d="M -99,606 L -41,606 L -41,634 L -99,634 Z" stroke="#000000" stroke-width="4.0" fill="none"/>
<text text-anchor="start" x="-96.0" y="626.75" fill="#808080" style="font-size:18px">e</text>
<text text-anchor="end" x="-44.0" y="626.75" fill="#808080" style="font-size:18px">s</text>
<text text-anchor="middle" x="-70.0" y="651.5" fill="#808080" style="font-size:18px">c1p16</text>
<circle cx="-100.0" cy="620.0" r="2.0" stroke="#0000b2" stroke-width="4.0" fill="#0000b2" />
<circle cx="-40.0" cy="620.0" r="2.0" stroke="#b20000" stroke-width="4.0" fill="#b20000" />
</g>
<g>
<path d="M 521,306 L 579,306 L 579,334 L 521,334 Z" stroke="#ffffb4" stroke-width="0.0" fill="#ffffb4" fill-opacity="0.7843137254901961"/>
<path d="M 521,306 L 579,306 L 579,334 L 521,334 Z" stroke="#000000" stroke-width="4.0" fill="none"/>
<text text-anchor="start" x="524.0" y="326.75" fill="#808080" style="font-size:18px">e</text>
<text text-anchor="end" x="576.0" y="326.75" fill="#808080" style="font-size:18px">s</text>
<text text-anchor="middle" x="550.0" y="351.5" fill="#808080" style="font-size:18px">c1p16</text>
<circle cx="520.0" cy="320.0" r="2.0" stroke="#0000b2" stroke-width="4.0" fill="#0000b2" />
<circle cx="580.0" cy="320.0" r="2.0" stroke="#b20000" stroke-width="4.0" fill="#b20000" />
</g>
<g>
<circle cx="896.0" cy="800.0" r="9.0" stroke="#000000" stroke-width="4.0" fill="none" />
<circle cx="896.0" cy="800.0" r="15.0" stroke="#000000" stroke-width="4.0" fill="none" />
<text text-anchor="start" x="925.0" y="809.0" fill="#000000" style="font-size:24px"><tspan style="font-style:italic;">cnt</tspan></text>
<circle cx="880.0" cy="800.0" r="2.0" stroke="#0000b2" stroke-width="4.0" fill="#0000b2" />
</g>
</g>
</svg>