<?xml version="1.0" encoding="UTF-8" standalone="no"?>
<!-- Created with Digital by H.Neemann -->
<!-- created: Thu Mar 21 00:56:07 BRT 2024 -->

<svg
   xmlns:svg="http://www.w3.org/2000/svg"
   xmlns="http://www.w3.org/2000/svg"
   width="176.25mm"
   height="176.25mm"
   viewBox="176 143 1175 1175">
<g stroke-linecap="square">
<path d="M 880,420 L 880,640 L 980,640" stroke="#0000b2" stroke-width="4.0" fill="none"/>
<path d="M 460,1280 L 520,1280" stroke="#0000b2" stroke-width="4.0" fill="none"/>
<path d="M 960,900 L 1000,900" stroke="#0000b2" stroke-width="4.0" fill="none"/>
<path d="M 580,240 L 580,260 L 600,260" stroke="#0000b2" stroke-width="4.0" fill="none"/>
<path d="M 800,260 L 920,260" stroke="#0000b2" stroke-width="4.0" fill="none"/>
<path d="M 660,260 L 680,260 L 680,220 L 920,220" stroke="#0000b2" stroke-width="4.0" fill="none"/>
<path d="M 960,1040 L 1000,1040" stroke="#0000b2" stroke-width="4.0" fill="none"/>
<path d="M 800,1040 L 820,1040" stroke="#0000b2" stroke-width="4.0" fill="none"/>
<path d="M 320,400 L 580,400 L 600,400" stroke="#0000b2" stroke-width="4.0" fill="none"/>
<path d="M 800,400 L 860,400 L 860,300 L 920,300" stroke="#0000b2" stroke-width="4.0" fill="none"/>
<path d="M 660,400 L 680,400 L 680,360 L 840,360 L 840,280 L 920,280" stroke="#0000b2" stroke-width="4.0" fill="none"/>
<path d="M 940,660 L 980,660" stroke="#0000b2" stroke-width="4.0" fill="none"/>
<path d="M 580,280 L 600,280" stroke="#0000b2" stroke-width="4.0" fill="none"/>
<path d="M 720,280 L 740,280" stroke="#0000b2" stroke-width="4.0" fill="none"/>
<path d="M 460,920 L 520,920" stroke="#0000b2" stroke-width="4.0" fill="none"/>
<path d="M 1060,920 L 1160,920 L 1164,920" stroke="#0000b2" stroke-width="4.0" fill="none"/>
<path d="M 580,520 L 580,540 L 600,540" stroke="#0000b2" stroke-width="4.0" fill="none"/>
<path d="M 660,540 L 680,540 L 680,500 L 920,500" stroke="#0000b2" stroke-width="4.0" fill="none"/>
<path d="M 800,540 L 860,540 L 860,520 L 920,520" stroke="#0000b2" stroke-width="4.0" fill="none"/>
<path d="M 320,160 L 500,160 L 900,160 L 900,180 L 920,180" stroke="#0000b2" stroke-width="4.0" fill="none"/>
<path d="M 760,800 L 1140,800 L 1140,300 L 1200,300" stroke="#0000b2" stroke-width="4.0" fill="none"/>
<path d="M 620,1060 L 660,1060 L 660,1100 L 680,1100 L 684,1100" stroke="#0000b2" stroke-width="4.0" fill="none"/>
<path d="M 880,200 L 880,420 L 920,420" stroke="#0000b2" stroke-width="4.0" fill="none"/>
<path d="M 580,420 L 600,420" stroke="#0000b2" stroke-width="4.0" fill="none"/>
<path d="M 720,420 L 740,420" stroke="#0000b2" stroke-width="4.0" fill="none"/>
<path d="M 500,160 L 500,680 L 520,680" stroke="#0000b2" stroke-width="4.0" fill="none"/>
<path d="M 320,680 L 420,680 L 420,740 L 520,740" stroke="#0000b2" stroke-width="4.0" fill="none"/>
<path d="M 1040,680 L 1060,680 L 1060,400 L 1200,400" stroke="#0000b2" stroke-width="4.0" fill="none"/>
<path d="M 940,680 L 960,680 L 960,700 L 980,700" stroke="#0000b2" stroke-width="4.0" fill="none"/>
<path d="M 580,300 L 600,300" stroke="#0000b2" stroke-width="4.0" fill="none"/>
<path d="M 720,300 L 740,300" stroke="#0000b2" stroke-width="4.0" fill="none"/>
<path d="M 320,940 L 360,940 L 360,1260 L 520,1260" stroke="#0000b2" stroke-width="4.0" fill="none"/>
<path d="M 1240,940 L 1280,940 L 1280,740 L 1180,740 L 1180,680 L 1200,680" stroke="#0000b2" stroke-width="4.0" fill="none"/>
<path d="M 500,1020 L 500,1200 L 520,1200" stroke="#0000b2" stroke-width="4.0" fill="none"/>
<path d="M 580,560 L 600,560" stroke="#0000b2" stroke-width="4.0" fill="none"/>
<path d="M 720,560 L 740,560" stroke="#0000b2" stroke-width="4.0" fill="none"/>
<path d="M 320,560 L 340,560 L 340,620 L 700,620 L 700,680 L 840,680 L 840,700 L 860,700" stroke="#0000b2" stroke-width="4.0" fill="none"/>
<path d="M 580,440 L 600,440" stroke="#0000b2" stroke-width="4.0" fill="none"/>
<path d="M 720,440 L 740,440" stroke="#0000b2" stroke-width="4.0" fill="none"/>
<path d="M 860,440 L 920,440" stroke="#0000b2" stroke-width="4.0" fill="none"/>
<path d="M 700,680 L 700,700 L 720,700" stroke="#0000b2" stroke-width="4.0" fill="none"/>
<path d="M 780,700 L 800,700 L 800,780 L 960,780 L 960,720 L 980,720" stroke="#0000b2" stroke-width="4.0" fill="none"/>
<path d="M 920,700 L 940,700 L 940,740 L 980,740" stroke="#0000b2" stroke-width="4.0" fill="none"/>
<path d="M 320,320 L 520,320 L 520,240 L 580,240 L 720,240 L 720,260 L 740,260" stroke="#0000b2" stroke-width="4.0" fill="none"/>
<path d="M 800,960 L 820,960" stroke="#0000b2" stroke-width="4.0" fill="none"/>
<path d="M 580,580 L 600,580" stroke="#0000b2" stroke-width="4.0" fill="none"/>
<path d="M 720,580 L 740,580" stroke="#0000b2" stroke-width="4.0" fill="none"/>
<path d="M 500,680 L 500,840 L 520,840" stroke="#0000b2" stroke-width="4.0" fill="none"/>
<path d="M 460,1100 L 520,1100" stroke="#0000b2" stroke-width="4.0" fill="none"/>
<path d="M 980,460 L 1080,460 L 1080,200 L 1200,200" stroke="#0000b2" stroke-width="4.0" fill="none"/>
<path d="M 620,720 L 660,720 L 660,780 L 680,780 L 684,780" stroke="#0000b2" stroke-width="4.0" fill="none"/>
<path d="M 700,720 L 720,720" stroke="#0000b2" stroke-width="4.0" fill="none"/>
<path d="M 840,720 L 860,720" stroke="#0000b2" stroke-width="4.0" fill="none"/>
<path d="M 480,860 L 480,980 L 700,980 L 700,940" stroke="#0000b2" stroke-width="4.0" fill="none"/>
<path d="M 880,980 L 1080,980 L 1080,940 L 1160,940 L 1167,940" stroke="#0000b2" stroke-width="4.0" fill="none"/>
<path d="M 620,1240 L 660,1240 L 660,1140 L 680,1140 L 684,1140" stroke="#0000b2" stroke-width="4.0" fill="none"/>
<path d="M 320,220 L 480,220 L 480,200 L 880,200 L 920,200" stroke="#0000b2" stroke-width="4.0" fill="none"/>
<path d="M 320,860 L 380,860 L 380,1080 L 520,1080" stroke="#0000b2" stroke-width="4.0" fill="none"/>
<path d="M 760,1120 L 1120,1120 L 1120,520 L 1200,520" stroke="#0000b2" stroke-width="4.0" fill="none"/>
<path d="M 860,480 L 920,480" stroke="#0000b2" stroke-width="4.0" fill="none"/>
<path d="M 700,740 L 720,740" stroke="#0000b2" stroke-width="4.0" fill="none"/>
<path d="M 840,740 L 860,740" stroke="#0000b2" stroke-width="4.0" fill="none"/>
<path d="M 800,1000 L 820,1000" stroke="#0000b2" stroke-width="4.0" fill="none"/>
<path d="M 980,240 L 1100,240 L 1100,600 L 1200,600" stroke="#0000b2" stroke-width="4.0" fill="none"/>
<path d="M 620,880 L 660,880 L 660,820 L 680,820 L 684,820" stroke="#0000b2" stroke-width="4.0" fill="none"/>
<path d="M 320,500 L 580,500 L 580,520 L 720,520 L 720,540 L 740,540" stroke="#0000b2" stroke-width="4.0" fill="none"/>
<path d="M 320,760 L 400,760 L 400,900 L 520,900" stroke="#0000b2" stroke-width="4.0" fill="none"/>
<path d="M 460,760 L 520,760" stroke="#0000b2" stroke-width="4.0" fill="none"/>
<path d="M 980,880 L 980,1020 L 1000,1020" stroke="#0000b2" stroke-width="4.0" fill="none"/>
<path d="M 800,1020 L 820,1020" stroke="#0000b2" stroke-width="4.0" fill="none"/>
<path d="M 1060,1020 L 1100,1020 L 1100,960 L 1160,960 L 1164,960" stroke="#0000b2" stroke-width="4.0" fill="none"/>
<path d="M 580,400 L 580,380 L 720,380 L 720,400 L 740,400" stroke="#0000b2" stroke-width="4.0" fill="none"/>
<path d="M 920,400 L 900,400 L 900,620 L 980,620" stroke="#0000b2" stroke-width="4.0" fill="none"/>
<path d="M 900,180 L 900,400" stroke="#0000b2" stroke-width="4.0" fill="none"/>
<path d="M 520,1040 L 480,1040 L 480,1220 L 520,1220" stroke="#0000b2" stroke-width="4.0" fill="none"/>
<path d="M 520,700 L 480,700 L 480,860 L 520,860" stroke="#0000b2" stroke-width="4.0" fill="none"/>
<path d="M 480,220 L 480,700" stroke="#0000b2" stroke-width="4.0" fill="none"/>
<path d="M 480,980 L 480,1040" stroke="#0000b2" stroke-width="4.0" fill="none"/>
<path d="M 820,920 L 680,920 L 680,960 L 500,960 L 500,1020 L 520,1020" stroke="#0000b2" stroke-width="4.0" fill="none"/>
<path d="M 500,840 L 500,960" stroke="#0000b2" stroke-width="4.0" fill="none"/>
<path d="M 820,940 L 700,940 L 700,880 L 980,880 L 1000,880" stroke="#0000b2" stroke-width="4.0" fill="none"/>
<g>
<circle cx="580.0" cy="520.0" r="4.0" stroke="#0000b2" stroke-width="4.0" fill="#0000b2" />
<circle cx="480.0" cy="1040.0" r="4.0" stroke="#0000b2" stroke-width="4.0" fill="#0000b2" />
<circle cx="900.0" cy="400.0" r="4.0" stroke="#0000b2" stroke-width="4.0" fill="#0000b2" />
<circle cx="580.0" cy="400.0" r="4.0" stroke="#0000b2" stroke-width="4.0" fill="#0000b2" />
<circle cx="500.0" cy="160.0" r="4.0" stroke="#0000b2" stroke-width="4.0" fill="#0000b2" />
<circle cx="880.0" cy="420.0" r="4.0" stroke="#0000b2" stroke-width="4.0" fill="#0000b2" />
<circle cx="700.0" cy="680.0" r="4.0" stroke="#0000b2" stroke-width="4.0" fill="#0000b2" />
<circle cx="500.0" cy="680.0" r="4.0" stroke="#0000b2" stroke-width="4.0" fill="#0000b2" />
<circle cx="700.0" cy="940.0" r="4.0" stroke="#0000b2" stroke-width="4.0" fill="#0000b2" />
<circle cx="900.0" cy="180.0" r="4.0" stroke="#0000b2" stroke-width="4.0" fill="#0000b2" />
<circle cx="480.0" cy="700.0" r="4.0" stroke="#0000b2" stroke-width="4.0" fill="#0000b2" />
<circle cx="500.0" cy="960.0" r="4.0" stroke="#0000b2" stroke-width="4.0" fill="#0000b2" />
<circle cx="500.0" cy="840.0" r="4.0" stroke="#0000b2" stroke-width="4.0" fill="#0000b2" />
<circle cx="880.0" cy="200.0" r="4.0" stroke="#0000b2" stroke-width="4.0" fill="#0000b2" />
<circle cx="480.0" cy="980.0" r="4.0" stroke="#0000b2" stroke-width="4.0" fill="#0000b2" />
<circle cx="480.0" cy="220.0" r="4.0" stroke="#0000b2" stroke-width="4.0" fill="#0000b2" />
<circle cx="480.0" cy="860.0" r="4.0" stroke="#0000b2" stroke-width="4.0" fill="#0000b2" />
<circle cx="580.0" cy="240.0" r="4.0" stroke="#0000b2" stroke-width="4.0" fill="#0000b2" />
<circle cx="980.0" cy="880.0" r="4.0" stroke="#0000b2" stroke-width="4.0" fill="#0000b2" />
<circle cx="500.0" cy="1020.0" r="4.0" stroke="#0000b2" stroke-width="4.0" fill="#0000b2" />
</g>
<g>
<path d="M 289,145 L 319,145 L 319,175 L 289,175 Z" stroke="#000000" stroke-width="4.0" fill="none"/>
<circle cx="304.0" cy="160.0" r="9.0" stroke="#000000" stroke-width="4.0" fill="none" />
<text text-anchor="end" x="275.0" y="169.0" fill="#000000" style="font-size:24px"><tspan style="font-style:italic;">x</tspan></text>
<circle cx="320.0" cy="160.0" r="2.0" stroke="#b20000" stroke-width="4.0" fill="#b20000" />
</g>
<g>
<path d="M 289,205 L 319,205 L 319,235 L 289,235 Z" stroke="#000000" stroke-width="4.0" fill="none"/>
<circle cx="304.0" cy="220.0" r="9.0" stroke="#000000" stroke-width="4.0" fill="none" />
<text text-anchor="end" x="275.0" y="229.0" fill="#000000" style="font-size:24px"><tspan style="font-style:italic;">y</tspan></text>
<circle cx="320.0" cy="220.0" r="2.0" stroke="#b20000" stroke-width="4.0" fill="#b20000" />
</g>
<g>
<path d="M 289,305 L 319,305 L 319,335 L 289,335 Z" stroke="#000000" stroke-width="4.0" fill="none"/>
<circle cx="304.0" cy="320.0" r="9.0" stroke="#000000" stroke-width="4.0" fill="none" />
<text text-anchor="end" x="275.0" y="329.0" fill="#000000" style="font-size:24px"><tspan style="font-style:italic;">bx</tspan></text>
<circle cx="320.0" cy="320.0" r="2.0" stroke="#b20000" stroke-width="4.0" fill="#b20000" />
</g>
<g>
<path d="M 289,385 L 319,385 L 319,415 L 289,415 Z" stroke="#000000" stroke-width="4.0" fill="none"/>
<circle cx="304.0" cy="400.0" r="9.0" stroke="#000000" stroke-width="4.0" fill="none" />
<text text-anchor="end" x="275.0" y="409.0" fill="#000000" style="font-size:24px"><tspan style="font-style:italic;">by</tspan></text>
<circle cx="320.0" cy="400.0" r="2.0" stroke="#b20000" stroke-width="4.0" fill="#b20000" />
</g>
<g>
<path d="M 289,485 L 319,485 L 319,515 L 289,515 Z" stroke="#000000" stroke-width="4.0" fill="none"/>
<circle cx="304.0" cy="500.0" r="9.0" stroke="#000000" stroke-width="4.0" fill="none" />
<text text-anchor="end" x="275.0" y="509.0" fill="#000000" style="font-size:24px"><tspan style="font-style:italic;">j1y</tspan></text>
<circle cx="320.0" cy="500.0" r="2.0" stroke="#b20000" stroke-width="4.0" fill="#b20000" />
</g>
<g>
<path d="M 289,545 L 319,545 L 319,575 L 289,575 Z" stroke="#000000" stroke-width="4.0" fill="none"/>
<circle cx="304.0" cy="560.0" r="9.0" stroke="#000000" stroke-width="4.0" fill="none" />
<text text-anchor="end" x="275.0" y="569.0" fill="#000000" style="font-size:24px"><tspan style="font-style:italic;">j2y</tspan></text>
<circle cx="320.0" cy="560.0" r="2.0" stroke="#b20000" stroke-width="4.0" fill="#b20000" />
</g>
<g>
<path d="M 289,665 L 319,665 L 319,695 L 289,695 Z" stroke="#000000" stroke-width="4.0" fill="none"/>
<circle cx="304.0" cy="680.0" r="9.0" stroke="#000000" stroke-width="4.0" fill="none" />
<text text-anchor="end" x="275.0" y="689.0" fill="#000000" style="font-size:24px"><tspan style="font-style:italic;">digito1</tspan></text>
<circle cx="320.0" cy="680.0" r="2.0" stroke="#b20000" stroke-width="4.0" fill="#b20000" />
</g>
<g>
<path d="M 289,745 L 319,745 L 319,775 L 289,775 Z" stroke="#000000" stroke-width="4.0" fill="none"/>
<circle cx="304.0" cy="760.0" r="9.0" stroke="#000000" stroke-width="4.0" fill="none" />
<text text-anchor="end" x="275.0" y="769.0" fill="#000000" style="font-size:24px"><tspan style="font-style:italic;">digito10</tspan></text>
<circle cx="320.0" cy="760.0" r="2.0" stroke="#b20000" stroke-width="4.0" fill="#b20000" />
</g>
<g>
<path d="M 289,845 L 319,845 L 319,875 L 289,875 Z" stroke="#000000" stroke-width="4.0" fill="none"/>
<circle cx="304.0" cy="860.0" r="9.0" stroke="#000000" stroke-width="4.0" fill="none" />
<text text-anchor="end" x="275.0" y="869.0" fill="#000000" style="font-size:24px"><tspan style="font-style:italic;">digito2</tspan></text>
<circle cx="320.0" cy="860.0" r="2.0" stroke="#b20000" stroke-width="4.0" fill="#b20000" />
</g>
<g>
<path d="M 289,925 L 319,925 L 319,955 L 289,955 Z" stroke="#000000" stroke-width="4.0" fill="none"/>
<circle cx="304.0" cy="940.0" r="9.0" stroke="#000000" stroke-width="4.0" fill="none" />
<text text-anchor="end" x="275.0" y="949.0" fill="#000000" style="font-size:24px"><tspan style="font-style:italic;">digito20</tspan></text>
<circle cx="320.0" cy="940.0" r="2.0" stroke="#b20000" stroke-width="4.0" fill="#b20000" />
</g>
<g>
<circle cx="1216.0" cy="680.0" r="9.0" stroke="#000000" stroke-width="4.0" fill="none" />
<circle cx="1216.0" cy="680.0" r="15.0" stroke="#000000" stroke-width="4.0" fill="none" />
<text text-anchor="start" x="1245.0" y="689.0" fill="#000000" style="font-size:24px"><tspan style="font-style:italic;">borda</tspan></text>
<circle cx="1200.0" cy="680.0" r="2.0" stroke="#0000b2" stroke-width="4.0" fill="#0000b2" />
</g>
<g>
<circle cx="1216.0" cy="520.0" r="9.0" stroke="#000000" stroke-width="4.0" fill="none" />
<circle cx="1216.0" cy="520.0" r="15.0" stroke="#000000" stroke-width="4.0" fill="none" />
<text text-anchor="start" x="1245.0" y="529.0" fill="#000000" style="font-size:24px"><tspan style="font-style:italic;">placar2</tspan></text>
<circle cx="1200.0" cy="520.0" r="2.0" stroke="#0000b2" stroke-width="4.0" fill="#0000b2" />
</g>
<g>
<circle cx="1216.0" cy="400.0" r="9.0" stroke="#000000" stroke-width="4.0" fill="none" />
<circle cx="1216.0" cy="400.0" r="15.0" stroke="#000000" stroke-width="4.0" fill="none" />
<text text-anchor="start" x="1245.0" y="409.0" fill="#000000" style="font-size:24px"><tspan style="font-style:italic;">jogador2</tspan></text>
<circle cx="1200.0" cy="400.0" r="2.0" stroke="#0000b2" stroke-width="4.0" fill="#0000b2" />
</g>
<g>
<circle cx="1216.0" cy="300.0" r="9.0" stroke="#000000" stroke-width="4.0" fill="none" />
<circle cx="1216.0" cy="300.0" r="15.0" stroke="#000000" stroke-width="4.0" fill="none" />
<text text-anchor="start" x="1245.0" y="309.0" fill="#000000" style="font-size:24px"><tspan style="font-style:italic;">placar1</tspan></text>
<circle cx="1200.0" cy="300.0" r="2.0" stroke="#0000b2" stroke-width="4.0" fill="#0000b2" />
</g>
<g>
<circle cx="1216.0" cy="200.0" r="9.0" stroke="#000000" stroke-width="4.0" fill="none" />
<circle cx="1216.0" cy="200.0" r="15.0" stroke="#000000" stroke-width="4.0" fill="none" />
<text text-anchor="start" x="1245.0" y="209.0" fill="#000000" style="font-size:24px"><tspan style="font-style:italic;">jogador1</tspan></text>
<circle cx="1200.0" cy="200.0" r="2.0" stroke="#0000b2" stroke-width="4.0" fill="#0000b2" />
</g>
<g>
<circle cx="1216.0" cy="600.0" r="9.0" stroke="#000000" stroke-width="4.0" fill="none" />
<circle cx="1216.0" cy="600.0" r="15.0" stroke="#000000" stroke-width="4.0" fill="none" />
<text text-anchor="start" x="1245.0" y="609.0" fill="#000000" style="font-size:24px"><tspan style="font-style:italic;">bola</tspan></text>
<circle cx="1200.0" cy="600.0" r="2.0" stroke="#0000b2" stroke-width="4.0" fill="#0000b2" />
</g>
<g>
<path d="M 521,666 L 619,666 L 619,774 L 521,774 Z" stroke="#ffffb4" stroke-width="0.0" fill="#ffffb4" fill-opacity="0.7843137254901961"/>
<path d="M 521,666 L 619,666 L 619,774 L 521,774 Z" stroke="#000000" stroke-width="4.0" fill="none"/>
<text text-anchor="start" x="524.0" y="686.75" fill="#808080" style="font-size:18px">x</text>
<text text-anchor="start" x="524.0" y="706.75" fill="#808080" style="font-size:18px">y</text>
<text text-anchor="start" x="524.0" y="746.75" fill="#808080" style="font-size:18px">digito</text>
<text text-anchor="start" x="524.0" y="766.75" fill="#808080" style="font-size:18px">pos</text>
<text text-anchor="end" x="616.0" y="726.75" fill="#808080" style="font-size:18px">caracter</text>
<text text-anchor="middle" x="570.0" y="791.5" fill="#808080" style="font-size:18px">seg</text>
<circle cx="520.0" cy="680.0" r="2.0" stroke="#0000b2" stroke-width="4.0" fill="#0000b2" />
<circle cx="520.0" cy="700.0" r="2.0" stroke="#0000b2" stroke-width="4.0" fill="#0000b2" />
<circle cx="520.0" cy="740.0" r="2.0" stroke="#0000b2" stroke-width="4.0" fill="#0000b2" />
<circle cx="520.0" cy="760.0" r="2.0" stroke="#0000b2" stroke-width="4.0" fill="#0000b2" />
<circle cx="620.0" cy="720.0" r="2.0" stroke="#b20000" stroke-width="4.0" fill="#b20000" />
</g>
<g>
<path d="M 521,826 L 619,826 L 619,934 L 521,934 Z" stroke="#ffffb4" stroke-width="0.0" fill="#ffffb4" fill-opacity="0.7843137254901961"/>
<path d="M 521,826 L 619,826 L 619,934 L 521,934 Z" stroke="#000000" stroke-width="4.0" fill="none"/>
<text text-anchor="start" x="524.0" y="846.75" fill="#808080" style="font-size:18px">x</text>
<text text-anchor="start" x="524.0" y="866.75" fill="#808080" style="font-size:18px">y</text>
<text text-anchor="start" x="524.0" y="906.75" fill="#808080" style="font-size:18px">digito</text>
<text text-anchor="start" x="524.0" y="926.75" fill="#808080" style="font-size:18px">pos</text>
<text text-anchor="end" x="616.0" y="886.75" fill="#808080" style="font-size:18px">caracter</text>
<text text-anchor="middle" x="570.0" y="951.5" fill="#808080" style="font-size:18px">seg</text>
<circle cx="520.0" cy="840.0" r="2.0" stroke="#0000b2" stroke-width="4.0" fill="#0000b2" />
<circle cx="520.0" cy="860.0" r="2.0" stroke="#0000b2" stroke-width="4.0" fill="#0000b2" />
<circle cx="520.0" cy="900.0" r="2.0" stroke="#0000b2" stroke-width="4.0" fill="#0000b2" />
<circle cx="520.0" cy="920.0" r="2.0" stroke="#0000b2" stroke-width="4.0" fill="#0000b2" />
<circle cx="620.0" cy="880.0" r="2.0" stroke="#b20000" stroke-width="4.0" fill="#b20000" />
</g>
<g>
<path d="M 521,1006 L 619,1006 L 619,1114 L 521,1114 Z" stroke="#ffffb4" stroke-width="0.0" fill="#ffffb4" fill-opacity="0.7843137254901961"/>
<path d="M 521,1006 L 619,1006 L 619,1114 L 521,1114 Z" stroke="#000000" stroke-width="4.0" fill="none"/>
<text text-anchor="start" x="524.0" y="1026.75" fill="#808080" style="font-size:18px">x</text>
<text text-anchor="start" x="524.0" y="1046.75" fill="#808080" style="font-size:18px">y</text>
<text text-anchor="start" x="524.0" y="1086.75" fill="#808080" style="font-size:18px">digito</text>
<text text-anchor="start" x="524.0" y="1106.75" fill="#808080" style="font-size:18px">pos</text>
<text text-anchor="end" x="616.0" y="1066.75" fill="#808080" style="font-size:18px">caracter</text>
<text text-anchor="middle" x="570.0" y="1131.5" fill="#808080" style="font-size:18px">seg</text>
<circle cx="520.0" cy="1020.0" r="2.0" stroke="#0000b2" stroke-width="4.0" fill="#0000b2" />
<circle cx="520.0" cy="1040.0" r="2.0" stroke="#0000b2" stroke-width="4.0" fill="#0000b2" />
<circle cx="520.0" cy="1080.0" r="2.0" stroke="#0000b2" stroke-width="4.0" fill="#0000b2" />
<circle cx="520.0" cy="1100.0" r="2.0" stroke="#0000b2" stroke-width="4.0" fill="#0000b2" />
<circle cx="620.0" cy="1060.0" r="2.0" stroke="#b20000" stroke-width="4.0" fill="#b20000" />
</g>
<g>
<path d="M 521,1186 L 619,1186 L 619,1294 L 521,1294 Z" stroke="#ffffb4" stroke-width="0.0" fill="#ffffb4" fill-opacity="0.7843137254901961"/>
<path d="M 521,1186 L 619,1186 L 619,1294 L 521,1294 Z" stroke="#000000" stroke-width="4.0" fill="none"/>
<text text-anchor="start" x="524.0" y="1206.75" fill="#808080" style="font-size:18px">x</text>
<text text-anchor="start" x="524.0" y="1226.75" fill="#808080" style="font-size:18px">y</text>
<text text-anchor="start" x="524.0" y="1266.75" fill="#808080" style="font-size:18px">digito</text>
<text text-anchor="start" x="524.0" y="1286.75" fill="#808080" style="font-size:18px">pos</text>
<text text-anchor="end" x="616.0" y="1246.75" fill="#808080" style="font-size:18px">caracter</text>
<text text-anchor="middle" x="570.0" y="1311.5" fill="#808080" style="font-size:18px">seg</text>
<circle cx="520.0" cy="1200.0" r="2.0" stroke="#0000b2" stroke-width="4.0" fill="#0000b2" />
<circle cx="520.0" cy="1220.0" r="2.0" stroke="#0000b2" stroke-width="4.0" fill="#0000b2" />
<circle cx="520.0" cy="1260.0" r="2.0" stroke="#0000b2" stroke-width="4.0" fill="#0000b2" />
<circle cx="520.0" cy="1280.0" r="2.0" stroke="#0000b2" stroke-width="4.0" fill="#0000b2" />
<circle cx="620.0" cy="1240.0" r="2.0" stroke="#b20000" stroke-width="4.0" fill="#b20000" />
</g>
<g>
<path d="M 710,830 L 680,830 C 690,814 690,786 680,770 L 700,770 C 730,770 750,780 760,800 C 750,820 730,830 710,830 Z" stroke="#000000" stroke-width="4.0" fill="none"/>
<circle cx="680.0" cy="780.0" r="2.0" stroke="#0000b2" stroke-width="4.0" fill="#0000b2" />
<circle cx="680.0" cy="820.0" r="2.0" stroke="#0000b2" stroke-width="4.0" fill="#0000b2" />
<circle cx="760.0" cy="800.0" r="2.0" stroke="#b20000" stroke-width="4.0" fill="#b20000" />
</g>
<g>
<path d="M 710,1150 L 680,1150 C 690,1134 690,1106 680,1090 L 700,1090 C 730,1090 750,1100 760,1120 C 750,1140 730,1150 710,1150 Z" stroke="#000000" stroke-width="4.0" fill="none"/>
<circle cx="680.0" cy="1100.0" r="2.0" stroke="#0000b2" stroke-width="4.0" fill="#0000b2" />
<circle cx="680.0" cy="1140.0" r="2.0" stroke="#0000b2" stroke-width="4.0" fill="#0000b2" />
<circle cx="760.0" cy="1120.0" r="2.0" stroke="#b20000" stroke-width="4.0" fill="#b20000" />
</g>
<g>
<path d="M 921,166 L 979,166 L 979,314 L 921,314 Z" stroke="#ffffb4" stroke-width="0.0" fill="#ffffb4" fill-opacity="0.7843137254901961"/>
<path d="M 921,166 L 979,166 L 979,314 L 921,314 Z" stroke="#000000" stroke-width="4.0" fill="none"/>
<text text-anchor="start" x="924.0" y="186.75" fill="#808080" style="font-size:18px">x</text>
<text text-anchor="start" x="924.0" y="206.75" fill="#808080" style="font-size:18px">y</text>
<text text-anchor="start" x="924.0" y="226.75" fill="#808080" style="font-size:18px">xmin</text>
<text text-anchor="start" x="924.0" y="266.75" fill="#808080" style="font-size:18px">xmax</text>
<text text-anchor="start" x="924.0" y="286.75" fill="#808080" style="font-size:18px">ymin</text>
<text text-anchor="start" x="924.0" y="306.75" fill="#808080" style="font-size:18px">ymax</text>
<text text-anchor="end" x="976.0" y="246.75" fill="#808080" style="font-size:18px">r</text>
<text text-anchor="middle" x="950.0" y="331.5" fill="#808080" style="font-size:18px">retangulo</text>
<circle cx="920.0" cy="180.0" r="2.0" stroke="#0000b2" stroke-width="4.0" fill="#0000b2" />
<circle cx="920.0" cy="200.0" r="2.0" stroke="#0000b2" stroke-width="4.0" fill="#0000b2" />
<circle cx="920.0" cy="220.0" r="2.0" stroke="#0000b2" stroke-width="4.0" fill="#0000b2" />
<circle cx="920.0" cy="260.0" r="2.0" stroke="#0000b2" stroke-width="4.0" fill="#0000b2" />
<circle cx="920.0" cy="280.0" r="2.0" stroke="#0000b2" stroke-width="4.0" fill="#0000b2" />
<circle cx="920.0" cy="300.0" r="2.0" stroke="#0000b2" stroke-width="4.0" fill="#0000b2" />
<circle cx="980.0" cy="240.0" r="2.0" stroke="#b20000" stroke-width="4.0" fill="#b20000" />
</g>
<g>
<path d="M 921,386 L 979,386 L 979,534 L 921,534 Z" stroke="#ffffb4" stroke-width="0.0" fill="#ffffb4" fill-opacity="0.7843137254901961"/>
<path d="M 921,386 L 979,386 L 979,534 L 921,534 Z" stroke="#000000" stroke-width="4.0" fill="none"/>
<text text-anchor="start" x="924.0" y="406.75" fill="#808080" style="font-size:18px">x</text>
<text text-anchor="start" x="924.0" y="426.75" fill="#808080" style="font-size:18px">y</text>
<text text-anchor="start" x="924.0" y="446.75" fill="#808080" style="font-size:18px">xmin</text>
<text text-anchor="start" x="924.0" y="486.75" fill="#808080" style="font-size:18px">xmax</text>
<text text-anchor="start" x="924.0" y="506.75" fill="#808080" style="font-size:18px">ymin</text>
<text text-anchor="start" x="924.0" y="526.75" fill="#808080" style="font-size:18px">ymax</text>
<text text-anchor="end" x="976.0" y="466.75" fill="#808080" style="font-size:18px">r</text>
<text text-anchor="middle" x="950.0" y="551.5" fill="#808080" style="font-size:18px">retangulo</text>
<circle cx="920.0" cy="400.0" r="2.0" stroke="#0000b2" stroke-width="4.0" fill="#0000b2" />
<circle cx="920.0" cy="420.0" r="2.0" stroke="#0000b2" stroke-width="4.0" fill="#0000b2" />
<circle cx="920.0" cy="440.0" r="2.0" stroke="#0000b2" stroke-width="4.0" fill="#0000b2" />
<circle cx="920.0" cy="480.0" r="2.0" stroke="#0000b2" stroke-width="4.0" fill="#0000b2" />
<circle cx="920.0" cy="500.0" r="2.0" stroke="#0000b2" stroke-width="4.0" fill="#0000b2" />
<circle cx="920.0" cy="520.0" r="2.0" stroke="#0000b2" stroke-width="4.0" fill="#0000b2" />
<circle cx="980.0" cy="460.0" r="2.0" stroke="#b20000" stroke-width="4.0" fill="#b20000" />
</g>
<g>
<path d="M 981,606 L 1039,606 L 1039,754 L 981,754 Z" stroke="#ffffb4" stroke-width="0.0" fill="#ffffb4" fill-opacity="0.7843137254901961"/>
<path d="M 981,606 L 1039,606 L 1039,754 L 981,754 Z" stroke="#000000" stroke-width="4.0" fill="none"/>
<text text-anchor="start" x="984.0" y="626.75" fill="#808080" style="font-size:18px">x</text>
<text text-anchor="start" x="984.0" y="646.75" fill="#808080" style="font-size:18px">y</text>
<text text-anchor="start" x="984.0" y="666.75" fill="#808080" style="font-size:18px">xmin</text>
<text text-anchor="start" x="984.0" y="706.75" fill="#808080" style="font-size:18px">xmax</text>
<text text-anchor="start" x="984.0" y="726.75" fill="#808080" style="font-size:18px">ymin</text>
<text text-anchor="start" x="984.0" y="746.75" fill="#808080" style="font-size:18px">ymax</text>
<text text-anchor="end" x="1036.0" y="686.75" fill="#808080" style="font-size:18px">r</text>
<text text-anchor="middle" x="1010.0" y="771.5" fill="#808080" style="font-size:18px">retangulo</text>
<circle cx="980.0" cy="620.0" r="2.0" stroke="#0000b2" stroke-width="4.0" fill="#0000b2" />
<circle cx="980.0" cy="640.0" r="2.0" stroke="#0000b2" stroke-width="4.0" fill="#0000b2" />
<circle cx="980.0" cy="660.0" r="2.0" stroke="#0000b2" stroke-width="4.0" fill="#0000b2" />
<circle cx="980.0" cy="700.0" r="2.0" stroke="#0000b2" stroke-width="4.0" fill="#0000b2" />
<circle cx="980.0" cy="720.0" r="2.0" stroke="#0000b2" stroke-width="4.0" fill="#0000b2" />
<circle cx="980.0" cy="740.0" r="2.0" stroke="#0000b2" stroke-width="4.0" fill="#0000b2" />
<circle cx="1040.0" cy="680.0" r="2.0" stroke="#b20000" stroke-width="4.0" fill="#b20000" />
</g>
<g>
<path d="M 741,250 L 799,250 L 799,310 L 741,310 Z" stroke="#000000" stroke-width="4.0" fill="none"/>
<text text-anchor="start" x="744.0" y="266.75" fill="#808080" style="font-size:18px">a</text>
<text text-anchor="start" x="744.0" y="286.75" fill="#808080" style="font-size:18px">b</text>
<text text-anchor="start" x="744.0" y="306.75" fill="#808080" style="font-size:18px">c<tspan style="font-size:80%;baseline-shift:sub;">i</tspan></text>
<text text-anchor="end" x="796.0" y="266.75" fill="#808080" style="font-size:18px">s</text>
<text text-anchor="end" x="796.0" y="286.75" fill="#808080" style="font-size:18px">c<tspan style="font-size:80%;baseline-shift:sub;">o</tspan></text>
<text text-anchor="middle" x="770.0" y="327.5" fill="#808080" style="font-size:18px">Soma</text>
<circle cx="740.0" cy="260.0" r="2.0" stroke="#0000b2" stroke-width="4.0" fill="#0000b2" />
<circle cx="740.0" cy="280.0" r="2.0" stroke="#0000b2" stroke-width="4.0" fill="#0000b2" />
<circle cx="740.0" cy="300.0" r="2.0" stroke="#0000b2" stroke-width="4.0" fill="#0000b2" />
<circle cx="800.0" cy="260.0" r="2.0" stroke="#b20000" stroke-width="4.0" fill="#b20000" />
<circle cx="800.0" cy="280.0" r="2.0" stroke="#b20000" stroke-width="4.0" fill="#b20000" />
</g>
<g>
<path d="M 601,250 L 659,250 L 659,310 L 601,310 Z" stroke="#000000" stroke-width="4.0" fill="none"/>
<text text-anchor="start" x="604.0" y="266.75" fill="#808080" style="font-size:18px">a</text>
<text text-anchor="start" x="604.0" y="286.75" fill="#808080" style="font-size:18px">b</text>
<text text-anchor="start" x="604.0" y="306.75" fill="#808080" style="font-size:18px">c<tspan style="font-size:80%;baseline-shift:sub;">i</tspan></text>
<text text-anchor="end" x="656.0" y="266.75" fill="#808080" style="font-size:18px">s</text>
<text text-anchor="end" x="656.0" y="286.75" fill="#808080" style="font-size:18px">c<tspan style="font-size:80%;baseline-shift:sub;">o</tspan></text>
<text text-anchor="middle" x="630.0" y="327.5" fill="#808080" style="font-size:18px">Sub</text>
<circle cx="600.0" cy="260.0" r="2.0" stroke="#0000b2" stroke-width="4.0" fill="#0000b2" />
<circle cx="600.0" cy="280.0" r="2.0" stroke="#0000b2" stroke-width="4.0" fill="#0000b2" />
<circle cx="600.0" cy="300.0" r="2.0" stroke="#0000b2" stroke-width="4.0" fill="#0000b2" />
<circle cx="660.0" cy="260.0" r="2.0" stroke="#b20000" stroke-width="4.0" fill="#b20000" />
<circle cx="660.0" cy="280.0" r="2.0" stroke="#b20000" stroke-width="4.0" fill="#b20000" />
</g>
<g>
<text text-anchor="end" x="577.0" y="309.0" fill="#000000" style="font-size:24px">0</text>
<circle cx="580.0" cy="300.0" r="2.0" stroke="#b20000" stroke-width="4.0" fill="#b20000" />
</g>
<g>
<text text-anchor="end" x="717.0" y="309.0" fill="#000000" style="font-size:24px">0</text>
<circle cx="720.0" cy="300.0" r="2.0" stroke="#b20000" stroke-width="4.0" fill="#b20000" />
</g>
<g>
<text text-anchor="end" x="577.0" y="289.0" fill="#000000" style="font-size:24px">6</text>
<circle cx="580.0" cy="280.0" r="2.0" stroke="#b20000" stroke-width="4.0" fill="#b20000" />
</g>
<g>
<text text-anchor="end" x="717.0" y="289.0" fill="#000000" style="font-size:24px">6</text>
<circle cx="720.0" cy="280.0" r="2.0" stroke="#b20000" stroke-width="4.0" fill="#b20000" />
</g>
<g>
<path d="M 741,390 L 799,390 L 799,450 L 741,450 Z" stroke="#000000" stroke-width="4.0" fill="none"/>
<text text-anchor="start" x="744.0" y="406.75" fill="#808080" style="font-size:18px">a</text>
<text text-anchor="start" x="744.0" y="426.75" fill="#808080" style="font-size:18px">b</text>
<text text-anchor="start" x="744.0" y="446.75" fill="#808080" style="font-size:18px">c<tspan style="font-size:80%;baseline-shift:sub;">i</tspan></text>
<text text-anchor="end" x="796.0" y="406.75" fill="#808080" style="font-size:18px">s</text>
<text text-anchor="end" x="796.0" y="426.75" fill="#808080" style="font-size:18px">c<tspan style="font-size:80%;baseline-shift:sub;">o</tspan></text>
<text text-anchor="middle" x="770.0" y="467.5" fill="#808080" style="font-size:18px">Soma</text>
<circle cx="740.0" cy="400.0" r="2.0" stroke="#0000b2" stroke-width="4.0" fill="#0000b2" />
<circle cx="740.0" cy="420.0" r="2.0" stroke="#0000b2" stroke-width="4.0" fill="#0000b2" />
<circle cx="740.0" cy="440.0" r="2.0" stroke="#0000b2" stroke-width="4.0" fill="#0000b2" />
<circle cx="800.0" cy="400.0" r="2.0" stroke="#b20000" stroke-width="4.0" fill="#b20000" />
<circle cx="800.0" cy="420.0" r="2.0" stroke="#b20000" stroke-width="4.0" fill="#b20000" />
</g>
<g>
<path d="M 601,390 L 659,390 L 659,450 L 601,450 Z" stroke="#000000" stroke-width="4.0" fill="none"/>
<text text-anchor="start" x="604.0" y="406.75" fill="#808080" style="font-size:18px">a</text>
<text text-anchor="start" x="604.0" y="426.75" fill="#808080" style="font-size:18px">b</text>
<text text-anchor="start" x="604.0" y="446.75" fill="#808080" style="font-size:18px">c<tspan style="font-size:80%;baseline-shift:sub;">i</tspan></text>
<text text-anchor="end" x="656.0" y="406.75" fill="#808080" style="font-size:18px">s</text>
<text text-anchor="end" x="656.0" y="426.75" fill="#808080" style="font-size:18px">c<tspan style="font-size:80%;baseline-shift:sub;">o</tspan></text>
<text text-anchor="middle" x="630.0" y="467.5" fill="#808080" style="font-size:18px">Sub</text>
<circle cx="600.0" cy="400.0" r="2.0" stroke="#0000b2" stroke-width="4.0" fill="#0000b2" />
<circle cx="600.0" cy="420.0" r="2.0" stroke="#0000b2" stroke-width="4.0" fill="#0000b2" />
<circle cx="600.0" cy="440.0" r="2.0" stroke="#0000b2" stroke-width="4.0" fill="#0000b2" />
<circle cx="660.0" cy="400.0" r="2.0" stroke="#b20000" stroke-width="4.0" fill="#b20000" />
<circle cx="660.0" cy="420.0" r="2.0" stroke="#b20000" stroke-width="4.0" fill="#b20000" />
</g>
<g>
<text text-anchor="end" x="577.0" y="449.0" fill="#000000" style="font-size:24px">0</text>
<circle cx="580.0" cy="440.0" r="2.0" stroke="#b20000" stroke-width="4.0" fill="#b20000" />
</g>
<g>
<text text-anchor="end" x="717.0" y="449.0" fill="#000000" style="font-size:24px">0</text>
<circle cx="720.0" cy="440.0" r="2.0" stroke="#b20000" stroke-width="4.0" fill="#b20000" />
</g>
<g>
<text text-anchor="end" x="577.0" y="429.0" fill="#000000" style="font-size:24px">6</text>
<circle cx="580.0" cy="420.0" r="2.0" stroke="#b20000" stroke-width="4.0" fill="#b20000" />
</g>
<g>
<text text-anchor="end" x="717.0" y="429.0" fill="#000000" style="font-size:24px">6</text>
<circle cx="720.0" cy="420.0" r="2.0" stroke="#b20000" stroke-width="4.0" fill="#b20000" />
</g>
<g>
<path d="M 741,530 L 799,530 L 799,590 L 741,590 Z" stroke="#000000" stroke-width="4.0" fill="none"/>
<text text-anchor="start" x="744.0" y="546.75" fill="#808080" style="font-size:18px">a</text>
<text text-anchor="start" x="744.0" y="566.75" fill="#808080" style="font-size:18px">b</text>
<text text-anchor="start" x="744.0" y="586.75" fill="#808080" style="font-size:18px">c<tspan style="font-size:80%;baseline-shift:sub;">i</tspan></text>
<text text-anchor="end" x="796.0" y="546.75" fill="#808080" style="font-size:18px">s</text>
<text text-anchor="end" x="796.0" y="566.75" fill="#808080" style="font-size:18px">c<tspan style="font-size:80%;baseline-shift:sub;">o</tspan></text>
<text text-anchor="middle" x="770.0" y="607.5" fill="#808080" style="font-size:18px">Soma</text>
<circle cx="740.0" cy="540.0" r="2.0" stroke="#0000b2" stroke-width="4.0" fill="#0000b2" />
<circle cx="740.0" cy="560.0" r="2.0" stroke="#0000b2" stroke-width="4.0" fill="#0000b2" />
<circle cx="740.0" cy="580.0" r="2.0" stroke="#0000b2" stroke-width="4.0" fill="#0000b2" />
<circle cx="800.0" cy="540.0" r="2.0" stroke="#b20000" stroke-width="4.0" fill="#b20000" />
<circle cx="800.0" cy="560.0" r="2.0" stroke="#b20000" stroke-width="4.0" fill="#b20000" />
</g>
<g>
<path d="M 601,530 L 659,530 L 659,590 L 601,590 Z" stroke="#000000" stroke-width="4.0" fill="none"/>
<text text-anchor="start" x="604.0" y="546.75" fill="#808080" style="font-size:18px">a</text>
<text text-anchor="start" x="604.0" y="566.75" fill="#808080" style="font-size:18px">b</text>
<text text-anchor="start" x="604.0" y="586.75" fill="#808080" style="font-size:18px">c<tspan style="font-size:80%;baseline-shift:sub;">i</tspan></text>
<text text-anchor="end" x="656.0" y="546.75" fill="#808080" style="font-size:18px">s</text>
<text text-anchor="end" x="656.0" y="566.75" fill="#808080" style="font-size:18px">c<tspan style="font-size:80%;baseline-shift:sub;">o</tspan></text>
<text text-anchor="middle" x="630.0" y="607.5" fill="#808080" style="font-size:18px">Sub</text>
<circle cx="600.0" cy="540.0" r="2.0" stroke="#0000b2" stroke-width="4.0" fill="#0000b2" />
<circle cx="600.0" cy="560.0" r="2.0" stroke="#0000b2" stroke-width="4.0" fill="#0000b2" />
<circle cx="600.0" cy="580.0" r="2.0" stroke="#0000b2" stroke-width="4.0" fill="#0000b2" />
<circle cx="660.0" cy="540.0" r="2.0" stroke="#b20000" stroke-width="4.0" fill="#b20000" />
<circle cx="660.0" cy="560.0" r="2.0" stroke="#b20000" stroke-width="4.0" fill="#b20000" />
</g>
<g>
<text text-anchor="end" x="577.0" y="589.0" fill="#000000" style="font-size:24px">0</text>
<circle cx="580.0" cy="580.0" r="2.0" stroke="#b20000" stroke-width="4.0" fill="#b20000" />
</g>
<g>
<text text-anchor="end" x="717.0" y="589.0" fill="#000000" style="font-size:24px">0</text>
<circle cx="720.0" cy="580.0" r="2.0" stroke="#b20000" stroke-width="4.0" fill="#b20000" />
</g>
<g>
<text text-anchor="end" x="577.0" y="569.0" fill="#000000" style="font-size:24px">40</text>
<circle cx="580.0" cy="560.0" r="2.0" stroke="#b20000" stroke-width="4.0" fill="#b20000" />
</g>
<g>
<text text-anchor="end" x="717.0" y="569.0" fill="#000000" style="font-size:24px">40</text>
<circle cx="720.0" cy="560.0" r="2.0" stroke="#b20000" stroke-width="4.0" fill="#b20000" />
</g>
<g>
<path d="M 861,690 L 919,690 L 919,750 L 861,750 Z" stroke="#000000" stroke-width="4.0" fill="none"/>
<text text-anchor="start" x="864.0" y="706.75" fill="#808080" style="font-size:18px">a</text>
<text text-anchor="start" x="864.0" y="726.75" fill="#808080" style="font-size:18px">b</text>
<text text-anchor="start" x="864.0" y="746.75" fill="#808080" style="font-size:18px">c<tspan style="font-size:80%;baseline-shift:sub;">i</tspan></text>
<text text-anchor="end" x="916.0" y="706.75" fill="#808080" style="font-size:18px">s</text>
<text text-anchor="end" x="916.0" y="726.75" fill="#808080" style="font-size:18px">c<tspan style="font-size:80%;baseline-shift:sub;">o</tspan></text>
<text text-anchor="middle" x="890.0" y="767.5" fill="#808080" style="font-size:18px">Soma</text>
<circle cx="860.0" cy="700.0" r="2.0" stroke="#0000b2" stroke-width="4.0" fill="#0000b2" />
<circle cx="860.0" cy="720.0" r="2.0" stroke="#0000b2" stroke-width="4.0" fill="#0000b2" />
<circle cx="860.0" cy="740.0" r="2.0" stroke="#0000b2" stroke-width="4.0" fill="#0000b2" />
<circle cx="920.0" cy="700.0" r="2.0" stroke="#b20000" stroke-width="4.0" fill="#b20000" />
<circle cx="920.0" cy="720.0" r="2.0" stroke="#b20000" stroke-width="4.0" fill="#b20000" />
</g>
<g>
<path d="M 721,690 L 779,690 L 779,750 L 721,750 Z" stroke="#000000" stroke-width="4.0" fill="none"/>
<text text-anchor="start" x="724.0" y="706.75" fill="#808080" style="font-size:18px">a</text>
<text text-anchor="start" x="724.0" y="726.75" fill="#808080" style="font-size:18px">b</text>
<text text-anchor="start" x="724.0" y="746.75" fill="#808080" style="font-size:18px">c<tspan style="font-size:80%;baseline-shift:sub;">i</tspan></text>
<text text-anchor="end" x="776.0" y="706.75" fill="#808080" style="font-size:18px">s</text>
<text text-anchor="end" x="776.0" y="726.75" fill="#808080" style="font-size:18px">c<tspan style="font-size:80%;baseline-shift:sub;">o</tspan></text>
<text text-anchor="middle" x="750.0" y="767.5" fill="#808080" style="font-size:18px">Sub</text>
<circle cx="720.0" cy="700.0" r="2.0" stroke="#0000b2" stroke-width="4.0" fill="#0000b2" />
<circle cx="720.0" cy="720.0" r="2.0" stroke="#0000b2" stroke-width="4.0" fill="#0000b2" />
<circle cx="720.0" cy="740.0" r="2.0" stroke="#0000b2" stroke-width="4.0" fill="#0000b2" />
<circle cx="780.0" cy="700.0" r="2.0" stroke="#b20000" stroke-width="4.0" fill="#b20000" />
<circle cx="780.0" cy="720.0" r="2.0" stroke="#b20000" stroke-width="4.0" fill="#b20000" />
</g>
<g>
<text text-anchor="end" x="697.0" y="749.0" fill="#000000" style="font-size:24px">0</text>
<circle cx="700.0" cy="740.0" r="2.0" stroke="#b20000" stroke-width="4.0" fill="#b20000" />
</g>
<g>
<text text-anchor="end" x="837.0" y="749.0" fill="#000000" style="font-size:24px">0</text>
<circle cx="840.0" cy="740.0" r="2.0" stroke="#b20000" stroke-width="4.0" fill="#b20000" />
</g>
<g>
<text text-anchor="end" x="697.0" y="729.0" fill="#000000" style="font-size:24px">40</text>
<circle cx="700.0" cy="720.0" r="2.0" stroke="#b20000" stroke-width="4.0" fill="#b20000" />
</g>
<g>
<text text-anchor="end" x="837.0" y="729.0" fill="#000000" style="font-size:24px">40</text>
<circle cx="840.0" cy="720.0" r="2.0" stroke="#b20000" stroke-width="4.0" fill="#b20000" />
</g>
<g>
<text text-anchor="end" x="457.0" y="769.0" fill="#000000" style="font-size:24px">6</text>
<circle cx="460.0" cy="760.0" r="2.0" stroke="#b20000" stroke-width="4.0" fill="#b20000" />
</g>
<g>
<text text-anchor="end" x="457.0" y="929.0" fill="#000000" style="font-size:24px">5</text>
<circle cx="460.0" cy="920.0" r="2.0" stroke="#b20000" stroke-width="4.0" fill="#b20000" />
</g>
<g>
<text text-anchor="end" x="457.0" y="1109.0" fill="#000000" style="font-size:24px">15</text>
<circle cx="460.0" cy="1100.0" r="2.0" stroke="#b20000" stroke-width="4.0" fill="#b20000" />
</g>
<g>
<text text-anchor="end" x="457.0" y="1289.0" fill="#000000" style="font-size:24px">14</text>
<circle cx="460.0" cy="1280.0" r="2.0" stroke="#b20000" stroke-width="4.0" fill="#b20000" />
</g>
<g>
<text text-anchor="end" x="857.0" y="449.0" fill="#000000" style="font-size:24px">32</text>
<circle cx="860.0" cy="440.0" r="2.0" stroke="#b20000" stroke-width="4.0" fill="#b20000" />
</g>
<g>
<text text-anchor="end" x="857.0" y="489.0" fill="#000000" style="font-size:24px">46</text>
<circle cx="860.0" cy="480.0" r="2.0" stroke="#b20000" stroke-width="4.0" fill="#b20000" />
</g>
<g>
<text text-anchor="end" x="937.0" y="669.0" fill="#000000" style="font-size:24px">594</text>
<circle cx="940.0" cy="660.0" r="2.0" stroke="#b20000" stroke-width="4.0" fill="#b20000" />
</g>
<g>
<text text-anchor="end" x="937.0" y="689.0" fill="#000000" style="font-size:24px">608</text>
<circle cx="940.0" cy="680.0" r="2.0" stroke="#b20000" stroke-width="4.0" fill="#b20000" />
</g>
<g>
<path d="M 821,906 L 879,906 L 879,1054 L 821,1054 Z" stroke="#ffffb4" stroke-width="0.0" fill="#ffffb4" fill-opacity="0.7843137254901961"/>
<path d="M 821,906 L 879,906 L 879,1054 L 821,1054 Z" stroke="#000000" stroke-width="4.0" fill="none"/>
<text text-anchor="start" x="824.0" y="926.75" fill="#808080" style="font-size:18px">x</text>
<text text-anchor="start" x="824.0" y="946.75" fill="#808080" style="font-size:18px">y</text>
<text text-anchor="start" x="824.0" y="966.75" fill="#808080" style="font-size:18px">xmin</text>
<text text-anchor="start" x="824.0" y="1006.75" fill="#808080" style="font-size:18px">xmax</text>
<text text-anchor="start" x="824.0" y="1026.75" fill="#808080" style="font-size:18px">ymin</text>
<text text-anchor="start" x="824.0" y="1046.75" fill="#808080" style="font-size:18px">ymax</text>
<text text-anchor="end" x="876.0" y="986.75" fill="#808080" style="font-size:18px">r</text>
<text text-anchor="middle" x="850.0" y="1071.5" fill="#808080" style="font-size:18px">retangulo</text>
<circle cx="820.0" cy="920.0" r="2.0" stroke="#0000b2" stroke-width="4.0" fill="#0000b2" />
<circle cx="820.0" cy="940.0" r="2.0" stroke="#0000b2" stroke-width="4.0" fill="#0000b2" />
<circle cx="820.0" cy="960.0" r="2.0" stroke="#0000b2" stroke-width="4.0" fill="#0000b2" />
<circle cx="820.0" cy="1000.0" r="2.0" stroke="#0000b2" stroke-width="4.0" fill="#0000b2" />
<circle cx="820.0" cy="1020.0" r="2.0" stroke="#0000b2" stroke-width="4.0" fill="#0000b2" />
<circle cx="820.0" cy="1040.0" r="2.0" stroke="#0000b2" stroke-width="4.0" fill="#0000b2" />
<circle cx="880.0" cy="980.0" r="2.0" stroke="#b20000" stroke-width="4.0" fill="#b20000" />
</g>
<g>
<path d="M 1001,870 L 1059,870 L 1059,930 L 1001,930 Z" stroke="#000000" stroke-width="4.0" fill="none"/>
<text text-anchor="start" x="1004.0" y="886.75" fill="#808080" style="font-size:18px">a</text>
<text text-anchor="start" x="1004.0" y="906.75" fill="#808080" style="font-size:18px">b</text>
<text text-anchor="end" x="1056.0" y="886.75" fill="#808080" style="font-size:18px">&gt;</text>
<text text-anchor="end" x="1056.0" y="906.75" fill="#808080" style="font-size:18px">=</text>
<text text-anchor="end" x="1056.0" y="926.75" fill="#808080" style="font-size:18px">&lt;</text>
<circle cx="1000.0" cy="880.0" r="2.0" stroke="#0000b2" stroke-width="4.0" fill="#0000b2" />
<circle cx="1000.0" cy="900.0" r="2.0" stroke="#0000b2" stroke-width="4.0" fill="#0000b2" />
<circle cx="1060.0" cy="880.0" r="2.0" stroke="#b20000" stroke-width="4.0" fill="#b20000" />
<circle cx="1060.0" cy="900.0" r="2.0" stroke="#b20000" stroke-width="4.0" fill="#b20000" />
<circle cx="1060.0" cy="920.0" r="2.0" stroke="#b20000" stroke-width="4.0" fill="#b20000" />
</g>
<g>
<path d="M 1001,1010 L 1059,1010 L 1059,1070 L 1001,1070 Z" stroke="#000000" stroke-width="4.0" fill="none"/>
<text text-anchor="start" x="1004.0" y="1026.75" fill="#808080" style="font-size:18px">a</text>
<text text-anchor="start" x="1004.0" y="1046.75" fill="#808080" style="font-size:18px">b</text>
<text text-anchor="end" x="1056.0" y="1026.75" fill="#808080" style="font-size:18px">&gt;</text>
<text text-anchor="end" x="1056.0" y="1046.75" fill="#808080" style="font-size:18px">=</text>
<text text-anchor="end" x="1056.0" y="1066.75" fill="#808080" style="font-size:18px">&lt;</text>
<circle cx="1000.0" cy="1020.0" r="2.0" stroke="#0000b2" stroke-width="4.0" fill="#0000b2" />
<circle cx="1000.0" cy="1040.0" r="2.0" stroke="#0000b2" stroke-width="4.0" fill="#0000b2" />
<circle cx="1060.0" cy="1020.0" r="2.0" stroke="#b20000" stroke-width="4.0" fill="#b20000" />
<circle cx="1060.0" cy="1040.0" r="2.0" stroke="#b20000" stroke-width="4.0" fill="#b20000" />
<circle cx="1060.0" cy="1060.0" r="2.0" stroke="#b20000" stroke-width="4.0" fill="#b20000" />
</g>
<g>
<path d="M 1190,970 L 1160,970 C 1170,954 1170,926 1160,910 L 1180,910 C 1210,910 1230,920 1240,940 C 1230,960 1210,970 1190,970 Z" stroke="#000000" stroke-width="4.0" fill="none"/>
<circle cx="1160.0" cy="920.0" r="2.0" stroke="#0000b2" stroke-width="4.0" fill="#0000b2" />
<circle cx="1160.0" cy="940.0" r="2.0" stroke="#0000b2" stroke-width="4.0" fill="#0000b2" />
<circle cx="1160.0" cy="960.0" r="2.0" stroke="#0000b2" stroke-width="4.0" fill="#0000b2" />
<circle cx="1240.0" cy="940.0" r="2.0" stroke="#b20000" stroke-width="4.0" fill="#b20000" />
</g>
<g>
<text text-anchor="end" x="797.0" y="969.0" fill="#000000" style="font-size:24px">316</text>
<circle cx="800.0" cy="960.0" r="2.0" stroke="#b20000" stroke-width="4.0" fill="#b20000" />
</g>
<g>
<text text-anchor="end" x="797.0" y="1009.0" fill="#000000" style="font-size:24px">324</text>
<circle cx="800.0" cy="1000.0" r="2.0" stroke="#b20000" stroke-width="4.0" fill="#b20000" />
</g>
<g>
<text text-anchor="end" x="797.0" y="1029.0" fill="#000000" style="font-size:24px">1</text>
<circle cx="800.0" cy="1020.0" r="2.0" stroke="#b20000" stroke-width="4.0" fill="#b20000" />
</g>
<g>
<text text-anchor="end" x="797.0" y="1049.0" fill="#000000" style="font-size:24px">478</text>
<circle cx="800.0" cy="1040.0" r="2.0" stroke="#b20000" stroke-width="4.0" fill="#b20000" />
</g>
<g>
<text text-anchor="end" x="957.0" y="909.0" fill="#000000" style="font-size:24px">8</text>
<circle cx="960.0" cy="900.0" r="2.0" stroke="#b20000" stroke-width="4.0" fill="#b20000" />
</g>
<g>
<text text-anchor="end" x="957.0" y="1049.0" fill="#000000" style="font-size:24px">472</text>
<circle cx="960.0" cy="1040.0" r="2.0" stroke="#b20000" stroke-width="4.0" fill="#b20000" />
</g>
</g>
</svg>