<?xml version="1.0" encoding="UTF-8" standalone="no"?>
<!-- Created with Digital by H.Neemann -->
<!-- created: Tue Mar 19 15:38:39 BRT 2024 -->

<svg
   xmlns:svg="http://www.w3.org/2000/svg"
   xmlns="http://www.w3.org/2000/svg"
   width="133.8mm"
   height="108.6mm"
   viewBox="310 -142 892 724">
<g stroke-linecap="square">
<path d="M 860,300 L 870,300 L 880,300" stroke="#000000" stroke-width="4.0" fill="none"/>
<path d="M 860,320 L 870,320" stroke="#000000" stroke-width="4.0" fill="none"/>
<path d="M 460,320 L 500,320 L 500,260 L 540,260 L 544,260" stroke="#0000b2" stroke-width="4.0" fill="none"/>
<path d="M 1000,320 L 1080,320" stroke="#0000b2" stroke-width="4.0" fill="none"/>
<path d="M 660,520 L 720,520 L 720,500 L 740,500 L 744,500" stroke="#0000b2" stroke-width="4.0" fill="none"/>
<path d="M 840,100 L 840,200 L 920,200 L 920,300 L 880,300" stroke="#0000b2" stroke-width="4.0" fill="none"/>
<path d="M 1140,460 L 1180,460 L 1180,580 L 540,580 L 540,540 L 580,540" stroke="#0000b2" stroke-width="4.0" fill="none"/>
<path d="M 620,-80 L 680,-80 L 680,40 L 820,40" stroke="#0000b2" stroke-width="4.0" fill="none"/>
<path d="M 460,400 L 520,400 L 520,380 L 580,380" stroke="#0000b2" stroke-width="4.0" fill="none"/>
<path d="M 660,400 L 680,400 L 680,320 L 720,320 L 724,320" stroke="#0000b2" stroke-width="4.0" fill="none"/>
<path d="M 760,80 L 820,80" stroke="#0000b2" stroke-width="4.0" fill="none"/>
<path d="M 800,-20 L 800,20 L 820,20" stroke="#0000b2" stroke-width="4.0" fill="none"/>
<path d="M 620,20 L 660,20 L 660,60 L 820,60" stroke="#0000b2" stroke-width="4.0" fill="none"/>
<path d="M 540,-80 L 540,20 L 560,20" stroke="#0000b2" stroke-width="4.0" fill="none"/>
<path d="M 480,220 L 480,280 L 700,280 L 720,280 L 724,280" stroke="#0000b2" stroke-width="4.0" fill="none"/>
<path d="M 460,220 L 480,220 L 540,220 L 544,220" stroke="#0000b2" stroke-width="4.0" fill="none"/>
<path d="M 1020,160 L 1040,160 L 1100,160 L 1140,160" stroke="#0000b2" stroke-width="4.0" fill="none"/>
<path d="M 460,160 L 960,160" stroke="#0000b2" stroke-width="4.0" fill="none"/>
<path d="M 460,480 L 540,480 L 540,500 L 580,500" stroke="#0000b2" stroke-width="4.0" fill="none"/>
<path d="M 820,480 L 840,480 L 840,320 L 860,320" stroke="#0000b2" stroke-width="4.0" fill="none"/>
<path d="M 1040,300 L 1040,420 L 1080,420" stroke="#0000b2" stroke-width="4.0" fill="none"/>
<path d="M 520,-40 L 560,-40" stroke="#0000b2" stroke-width="4.0" fill="none"/>
<path d="M 700,280 L 700,360 L 720,360 L 720,460 L 740,460 L 744,460" stroke="#0000b2" stroke-width="4.0" fill="none"/>
<path d="M 520,40 L 560,40" stroke="#0000b2" stroke-width="4.0" fill="none"/>
<path d="M 1040,160 L 1040,300 L 1080,300" stroke="#0000b2" stroke-width="4.0" fill="none"/>
<path d="M 800,300 L 860,300" stroke="#0000b2" stroke-width="4.0" fill="none"/>
<path d="M 1140,300 L 1160,300 L 1160,380 L 700,380 L 700,460 L 560,460 L 560,420 L 580,420" stroke="#0000b2" stroke-width="4.0" fill="none"/>
<path d="M 620,240 L 940,240 L 940,180 L 960,180" stroke="#0000b2" stroke-width="4.0" fill="none"/>
<path d="M 1000,440 L 1080,440" stroke="#0000b2" stroke-width="4.0" fill="none"/>
<path d="M 520,-60 L 560,-60" stroke="#0000b2" stroke-width="4.0" fill="none"/>
<path d="M 860,60 L 900,60 L 900,140 L 960,140" stroke="#0000b2" stroke-width="4.0" fill="none"/>
<path d="M 520,60 L 560,60" stroke="#0000b2" stroke-width="4.0" fill="none"/>
<path d="M 1100,160 L 1100,-20 L 800,-20 L 800,-140 L 540,-140 L 540,-80 L 560,-80" stroke="#0000b2" stroke-width="4.0" fill="none"/>
<g>
<circle cx="540.0" cy="-80.0" r="4.0" stroke="#0000b2" stroke-width="4.0" fill="#0000b2" />
<circle cx="800.0" cy="-20.0" r="4.0" stroke="#0000b2" stroke-width="4.0" fill="#0000b2" />
<circle cx="700.0" cy="280.0" r="4.0" stroke="#0000b2" stroke-width="4.0" fill="#0000b2" />
<circle cx="480.0" cy="220.0" r="4.0" stroke="#0000b2" stroke-width="4.0" fill="#0000b2" />
<circle cx="1040.0" cy="160.0" r="4.0" stroke="#0000b2" stroke-width="4.0" fill="#0000b2" />
<circle cx="1100.0" cy="160.0" r="4.0" stroke="#0000b2" stroke-width="4.0" fill="#0000b2" />
<circle cx="1040.0" cy="300.0" r="4.0" stroke="#0000b2" stroke-width="4.0" fill="#0000b2" />
</g>
<g>
<path d="M 429,145 L 459,145 L 459,175 L 429,175 Z" stroke="#000000" stroke-width="4.0" fill="none"/>
<circle cx="444.0" cy="160.0" r="9.0" stroke="#000000" stroke-width="4.0" fill="none" />
<text text-anchor="end" x="415.0" y="169.0" fill="#000000" style="font-size:24px"><tspan style="font-style:italic;">relogio</tspan></text>
<circle cx="460.0" cy="160.0" r="2.0" stroke="#b20000" stroke-width="4.0" fill="#b20000" />
</g>
<g>
<path d="M 429,205 L 459,205 L 459,235 L 429,235 Z" stroke="#000000" stroke-width="4.0" fill="none"/>
<circle cx="444.0" cy="220.0" r="9.0" stroke="#000000" stroke-width="4.0" fill="none" />
<text text-anchor="end" x="415.0" y="229.0" fill="#000000" style="font-size:24px"><tspan style="font-style:italic;">inicializa</tspan></text>
<circle cx="460.0" cy="220.0" r="2.0" stroke="#b20000" stroke-width="4.0" fill="#b20000" />
</g>
<g>
<path d="M 429,305 L 459,305 L 459,335 L 429,335 Z" stroke="#000000" stroke-width="4.0" fill="none"/>
<circle cx="444.0" cy="320.0" r="9.0" stroke="#000000" stroke-width="4.0" fill="none" />
<text text-anchor="end" x="415.0" y="329.0" fill="#000000" style="font-size:24px"><tspan style="font-style:italic;">move</tspan></text>
<circle cx="460.0" cy="320.0" r="2.0" stroke="#b20000" stroke-width="4.0" fill="#b20000" />
</g>
<g>
<path d="M 429,385 L 459,385 L 459,415 L 429,415 Z" stroke="#000000" stroke-width="4.0" fill="none"/>
<circle cx="444.0" cy="400.0" r="9.0" stroke="#000000" stroke-width="4.0" fill="none" />
<text text-anchor="end" x="415.0" y="409.0" fill="#000000" style="font-size:24px"><tspan style="font-style:italic;">sobe</tspan></text>
<circle cx="460.0" cy="400.0" r="2.0" stroke="#b20000" stroke-width="4.0" fill="#b20000" />
</g>
<g>
<path d="M 429,465 L 459,465 L 459,495 L 429,495 Z" stroke="#000000" stroke-width="4.0" fill="none"/>
<circle cx="444.0" cy="480.0" r="9.0" stroke="#000000" stroke-width="4.0" fill="none" />
<text text-anchor="end" x="415.0" y="489.0" fill="#000000" style="font-size:24px"><tspan style="font-style:italic;">desce</tspan></text>
<circle cx="460.0" cy="480.0" r="2.0" stroke="#b20000" stroke-width="4.0" fill="#b20000" />
</g>
<g>
<circle cx="1156.0" cy="160.0" r="9.0" stroke="#000000" stroke-width="4.0" fill="none" />
<circle cx="1156.0" cy="160.0" r="15.0" stroke="#000000" stroke-width="4.0" fill="none" />
<text text-anchor="start" x="1185.0" y="169.0" fill="#000000" style="font-size:24px"><tspan style="font-style:italic;">y</tspan></text>
<circle cx="1140.0" cy="160.0" r="2.0" stroke="#0000b2" stroke-width="4.0" fill="#0000b2" />
</g>
<g>
<path d="M 961,130 L 1019,130 L 1019,190 L 961,190 Z" stroke="#000000" stroke-width="4.0" fill="none"/>
<text text-anchor="middle" x="990.0" y="122.0" fill="#000000" style="font-size:24px">posicao</text>
<text text-anchor="start" x="964.0" y="146.75" fill="#808080" style="font-size:18px">D</text>
<path d="M 961,167 L 968,160 L 961,153" stroke="#000000" stroke-width="2.0" fill="none"/>
<text text-anchor="start" x="971.0" y="166.75" fill="#808080" style="font-size:18px">C</text>
<text text-anchor="start" x="964.0" y="186.75" fill="#808080" style="font-size:18px">en</text>
<text text-anchor="end" x="1016.0" y="166.75" fill="#808080" style="font-size:18px">Q</text>
<text text-anchor="middle" x="990.0" y="207.5" fill="#808080" style="font-size:18px">Reg</text>
<circle cx="960.0" cy="140.0" r="2.0" stroke="#0000b2" stroke-width="4.0" fill="#0000b2" />
<circle cx="960.0" cy="160.0" r="2.0" stroke="#0000b2" stroke-width="4.0" fill="#0000b2" />
<circle cx="960.0" cy="180.0" r="2.0" stroke="#0000b2" stroke-width="4.0" fill="#0000b2" />
<circle cx="1020.0" cy="160.0" r="2.0" stroke="#b20000" stroke-width="4.0" fill="#b20000" />
</g>
<g>
<path d="M 570,270 L 540,270 C 550,254 550,226 540,210 L 560,210 C 590,210 610,220 620,240 C 610,260 590,270 570,270 Z" stroke="#000000" stroke-width="4.0" fill="none"/>
<circle cx="540.0" cy="220.0" r="2.0" stroke="#0000b2" stroke-width="4.0" fill="#0000b2" />
<circle cx="540.0" cy="260.0" r="2.0" stroke="#0000b2" stroke-width="4.0" fill="#0000b2" />
<circle cx="620.0" cy="240.0" r="2.0" stroke="#b20000" stroke-width="4.0" fill="#b20000" />
</g>
<g>
<path d="M 1081,290 L 1139,290 L 1139,350 L 1081,350 Z" stroke="#000000" stroke-width="4.0" fill="none"/>
<text text-anchor="start" x="1084.0" y="306.75" fill="#808080" style="font-size:18px">a</text>
<text text-anchor="start" x="1084.0" y="326.75" fill="#808080" style="font-size:18px">b</text>
<text text-anchor="end" x="1136.0" y="306.75" fill="#808080" style="font-size:18px">&gt;</text>
<text text-anchor="end" x="1136.0" y="326.75" fill="#808080" style="font-size:18px">=</text>
<text text-anchor="end" x="1136.0" y="346.75" fill="#808080" style="font-size:18px">&lt;</text>
<circle cx="1080.0" cy="300.0" r="2.0" stroke="#0000b2" stroke-width="4.0" fill="#0000b2" />
<circle cx="1080.0" cy="320.0" r="2.0" stroke="#0000b2" stroke-width="4.0" fill="#0000b2" />
<circle cx="1140.0" cy="300.0" r="2.0" stroke="#b20000" stroke-width="4.0" fill="#b20000" />
<circle cx="1140.0" cy="320.0" r="2.0" stroke="#b20000" stroke-width="4.0" fill="#b20000" />
<circle cx="1140.0" cy="340.0" r="2.0" stroke="#b20000" stroke-width="4.0" fill="#b20000" />
</g>
<g>
<path d="M 1081,410 L 1139,410 L 1139,470 L 1081,470 Z" stroke="#000000" stroke-width="4.0" fill="none"/>
<text text-anchor="start" x="1084.0" y="426.75" fill="#808080" style="font-size:18px">a</text>
<text text-anchor="start" x="1084.0" y="446.75" fill="#808080" style="font-size:18px">b</text>
<text text-anchor="end" x="1136.0" y="426.75" fill="#808080" style="font-size:18px">&gt;</text>
<text text-anchor="end" x="1136.0" y="446.75" fill="#808080" style="font-size:18px">=</text>
<text text-anchor="end" x="1136.0" y="466.75" fill="#808080" style="font-size:18px">&lt;</text>
<circle cx="1080.0" cy="420.0" r="2.0" stroke="#0000b2" stroke-width="4.0" fill="#0000b2" />
<circle cx="1080.0" cy="440.0" r="2.0" stroke="#0000b2" stroke-width="4.0" fill="#0000b2" />
<circle cx="1140.0" cy="420.0" r="2.0" stroke="#b20000" stroke-width="4.0" fill="#b20000" />
<circle cx="1140.0" cy="440.0" r="2.0" stroke="#b20000" stroke-width="4.0" fill="#b20000" />
<circle cx="1140.0" cy="460.0" r="2.0" stroke="#b20000" stroke-width="4.0" fill="#b20000" />
</g>
<g>
<text text-anchor="end" x="997.0" y="329.0" fill="#000000" style="font-size:24px">40</text>
<circle cx="1000.0" cy="320.0" r="2.0" stroke="#b20000" stroke-width="4.0" fill="#b20000" />
</g>
<g>
<text text-anchor="end" x="997.0" y="449.0" fill="#000000" style="font-size:24px">440</text>
<circle cx="1000.0" cy="440.0" r="2.0" stroke="#b20000" stroke-width="4.0" fill="#b20000" />
</g>
<g>
<path d="M 630,430 L 581,430 L 581,370 L 630,370 C 640,370 660,380 659,400 C 659,420 640,430 630,430 Z" stroke="#000000" stroke-width="4.0" fill="none"/>
<circle cx="580.0" cy="380.0" r="2.0" stroke="#0000b2" stroke-width="4.0" fill="#0000b2" />
<circle cx="580.0" cy="420.0" r="2.0" stroke="#0000b2" stroke-width="4.0" fill="#0000b2" />
<circle cx="660.0" cy="400.0" r="2.0" stroke="#b20000" stroke-width="4.0" fill="#b20000" />
</g>
<g>
<path d="M 630,550 L 581,550 L 581,490 L 630,490 C 640,490 660,500 659,520 C 659,540 640,550 630,550 Z" stroke="#000000" stroke-width="4.0" fill="none"/>
<circle cx="580.0" cy="500.0" r="2.0" stroke="#0000b2" stroke-width="4.0" fill="#0000b2" />
<circle cx="580.0" cy="540.0" r="2.0" stroke="#0000b2" stroke-width="4.0" fill="#0000b2" />
<circle cx="660.0" cy="520.0" r="2.0" stroke="#b20000" stroke-width="4.0" fill="#b20000" />
</g>
<g>
<path d="M 750,330 L 720,330 C 730,314 730,286 720,270 L 740,270 C 770,270 790,280 800,300 C 790,320 770,330 750,330 Z" stroke="#000000" stroke-width="4.0" fill="none"/>
<circle cx="720.0" cy="280.0" r="2.0" stroke="#0000b2" stroke-width="4.0" fill="#0000b2" />
<circle cx="720.0" cy="320.0" r="2.0" stroke="#0000b2" stroke-width="4.0" fill="#0000b2" />
<circle cx="800.0" cy="300.0" r="2.0" stroke="#b20000" stroke-width="4.0" fill="#b20000" />
</g>
<g>
<path d="M 770,510 L 740,510 C 750,494 750,466 740,450 L 760,450 C 790,450 810,460 820,480 C 810,500 790,510 770,510 Z" stroke="#000000" stroke-width="4.0" fill="none"/>
<circle cx="740.0" cy="460.0" r="2.0" stroke="#0000b2" stroke-width="4.0" fill="#0000b2" />
<circle cx="740.0" cy="500.0" r="2.0" stroke="#0000b2" stroke-width="4.0" fill="#0000b2" />
<circle cx="820.0" cy="480.0" r="2.0" stroke="#b20000" stroke-width="4.0" fill="#b20000" />
</g>
<g>
<text text-anchor="end" x="858.0" y="297.0" fill="#808080" style="font-size:12px">0</text>
<text text-anchor="end" x="858.0" y="317.0" fill="#808080" style="font-size:12px">1</text>
<text text-anchor="start" x="882.0" y="297.0" fill="#808080" style="font-size:12px">0,1</text>
<path d="M 868,298 L 872,298 L 872,322 L 868,322 Z" stroke="#000000" stroke-width="4.0" fill="#000000" fill-opacity="1.0"/>
<circle cx="860.0" cy="300.0" r="2.0" stroke="#0000b2" stroke-width="4.0" fill="#0000b2" />
<circle cx="860.0" cy="320.0" r="2.0" stroke="#0000b2" stroke-width="4.0" fill="#0000b2" />
<circle cx="880.0" cy="300.0" r="2.0" stroke="#b20000" stroke-width="4.0" fill="#b20000" />
</g>
<g>
<path d="M 821,16 L 859,25 L 859,95 L 821,104 Z" stroke="#000000" stroke-width="4.0" fill="none"/>
<text text-anchor="start" x="823.0" y="35.5" fill="#808080" style="font-size:18px">0</text>
<circle cx="840.0" cy="100.0" r="2.0" stroke="#0000b2" stroke-width="4.0" fill="#0000b2" />
<circle cx="820.0" cy="20.0" r="2.0" stroke="#0000b2" stroke-width="4.0" fill="#0000b2" />
<circle cx="820.0" cy="40.0" r="2.0" stroke="#0000b2" stroke-width="4.0" fill="#0000b2" />
<circle cx="820.0" cy="60.0" r="2.0" stroke="#0000b2" stroke-width="4.0" fill="#0000b2" />
<circle cx="820.0" cy="80.0" r="2.0" stroke="#0000b2" stroke-width="4.0" fill="#0000b2" />
<circle cx="860.0" cy="60.0" r="2.0" stroke="#b20000" stroke-width="4.0" fill="#b20000" />
</g>
<g>
<text text-anchor="end" x="757.0" y="89.0" fill="#000000" style="font-size:24px">240</text>
<circle cx="760.0" cy="80.0" r="2.0" stroke="#b20000" stroke-width="4.0" fill="#b20000" />
</g>
<g>
<path d="M 561,10 L 619,10 L 619,70 L 561,70 Z" stroke="#000000" stroke-width="4.0" fill="none"/>
<text text-anchor="start" x="564.0" y="26.75" fill="#808080" style="font-size:18px">a</text>
<text text-anchor="start" x="564.0" y="46.75" fill="#808080" style="font-size:18px">b</text>
<text text-anchor="start" x="564.0" y="66.75" fill="#808080" style="font-size:18px">c<tspan style="font-size:80%;baseline-shift:sub;">i</tspan></text>
<text text-anchor="end" x="616.0" y="26.75" fill="#808080" style="font-size:18px">s</text>
<text text-anchor="end" x="616.0" y="46.75" fill="#808080" style="font-size:18px">c<tspan style="font-size:80%;baseline-shift:sub;">o</tspan></text>
<text text-anchor="middle" x="590.0" y="87.5" fill="#808080" style="font-size:18px">Soma</text>
<circle cx="560.0" cy="20.0" r="2.0" stroke="#0000b2" stroke-width="4.0" fill="#0000b2" />
<circle cx="560.0" cy="40.0" r="2.0" stroke="#0000b2" stroke-width="4.0" fill="#0000b2" />
<circle cx="560.0" cy="60.0" r="2.0" stroke="#0000b2" stroke-width="4.0" fill="#0000b2" />
<circle cx="620.0" cy="20.0" r="2.0" stroke="#b20000" stroke-width="4.0" fill="#b20000" />
<circle cx="620.0" cy="40.0" r="2.0" stroke="#b20000" stroke-width="4.0" fill="#b20000" />
</g>
<g>
<path d="M 561,-90 L 619,-90 L 619,-30 L 561,-30 Z" stroke="#000000" stroke-width="4.0" fill="none"/>
<text text-anchor="start" x="564.0" y="-73.25" fill="#808080" style="font-size:18px">a</text>
<text text-anchor="start" x="564.0" y="-53.25" fill="#808080" style="font-size:18px">b</text>
<text text-anchor="start" x="564.0" y="-33.25" fill="#808080" style="font-size:18px">c<tspan style="font-size:80%;baseline-shift:sub;">i</tspan></text>
<text text-anchor="end" x="616.0" y="-73.25" fill="#808080" style="font-size:18px">s</text>
<text text-anchor="end" x="616.0" y="-53.25" fill="#808080" style="font-size:18px">c<tspan style="font-size:80%;baseline-shift:sub;">o</tspan></text>
<text text-anchor="middle" x="590.0" y="-12.5" fill="#808080" style="font-size:18px">Sub</text>
<circle cx="560.0" cy="-80.0" r="2.0" stroke="#0000b2" stroke-width="4.0" fill="#0000b2" />
<circle cx="560.0" cy="-60.0" r="2.0" stroke="#0000b2" stroke-width="4.0" fill="#0000b2" />
<circle cx="560.0" cy="-40.0" r="2.0" stroke="#0000b2" stroke-width="4.0" fill="#0000b2" />
<circle cx="620.0" cy="-80.0" r="2.0" stroke="#b20000" stroke-width="4.0" fill="#b20000" />
<circle cx="620.0" cy="-60.0" r="2.0" stroke="#b20000" stroke-width="4.0" fill="#b20000" />
</g>
<g>
<text text-anchor="end" x="517.0" y="-31.0" fill="#000000" style="font-size:24px">0</text>
<circle cx="520.0" cy="-40.0" r="2.0" stroke="#b20000" stroke-width="4.0" fill="#b20000" />
</g>
<g>
<text text-anchor="end" x="517.0" y="69.0" fill="#000000" style="font-size:24px">0</text>
<circle cx="520.0" cy="60.0" r="2.0" stroke="#b20000" stroke-width="4.0" fill="#b20000" />
</g>
<g>
<text text-anchor="end" x="517.0" y="-51.0" fill="#000000" style="font-size:24px">2</text>
<circle cx="520.0" cy="-60.0" r="2.0" stroke="#b20000" stroke-width="4.0" fill="#b20000" />
</g>
<g>
<text text-anchor="end" x="517.0" y="49.0" fill="#000000" style="font-size:24px">2</text>
<circle cx="520.0" cy="40.0" r="2.0" stroke="#b20000" stroke-width="4.0" fill="#b20000" />
</g>
</g>
</svg>