<?xml version="1.0" encoding="UTF-8" standalone="no"?>
<!-- Created with Digital by H.Neemann -->
<!-- created: Mon Mar 18 00:30:39 BRT 2024 -->

<svg
   xmlns:svg="http://www.w3.org/2000/svg"
   xmlns="http://www.w3.org/2000/svg"
   width="106.8mm"
   height="65.1mm"
   viewBox="385 263 712 434">
<g stroke-linecap="square">
<path d="M 881,460 L 881,469" stroke="#000000" stroke-width="4.0" fill="none"/>
<path d="M 881,540 L 881,531" stroke="#000000" stroke-width="4.0" fill="none"/>
<path d="M 740,320 L 820,320 L 820,460 L 880,460" stroke="#0000b2" stroke-width="4.0" fill="none"/>
<path d="M 500,420 L 580,420 L 580,400 L 680,400" stroke="#0000b2" stroke-width="4.0" fill="none"/>
<path d="M 500,360 L 640,360 L 640,300 L 680,300" stroke="#0000b2" stroke-width="4.0" fill="none"/>
<path d="M 500,520 L 600,520 L 680,520" stroke="#0000b2" stroke-width="4.0" fill="none"/>
<path d="M 500,680 L 580,680 L 580,640 L 680,640" stroke="#0000b2" stroke-width="4.0" fill="none"/>
<path d="M 600,520 L 600,620 L 680,620" stroke="#0000b2" stroke-width="4.0" fill="none"/>
<path d="M 740,620 L 800,620 L 800,540 L 880,540" stroke="#0000b2" stroke-width="4.0" fill="none"/>
<path d="M 740,560 L 780,560 L 780,520 L 880,520 L 884,520" stroke="#0000b2" stroke-width="4.0" fill="none"/>
<path d="M 980,500 L 1040,500" stroke="#0000b2" stroke-width="4.0" fill="none"/>
<path d="M 500,280 L 600,280 L 680,280" stroke="#0000b2" stroke-width="4.0" fill="none"/>
<path d="M 500,600 L 640,600 L 640,540 L 680,540" stroke="#0000b2" stroke-width="4.0" fill="none"/>
<path d="M 600,280 L 600,380 L 680,380" stroke="#0000b2" stroke-width="4.0" fill="none"/>
<path d="M 740,380 L 800,380 L 800,480 L 880,480 L 884,480" stroke="#0000b2" stroke-width="4.0" fill="none"/>
<g>
<circle cx="600.0" cy="520.0" r="4.0" stroke="#0000b2" stroke-width="4.0" fill="#0000b2" />
<circle cx="600.0" cy="280.0" r="4.0" stroke="#0000b2" stroke-width="4.0" fill="#0000b2" />
</g>
<g>
<path d="M 469,265 L 499,265 L 499,295 L 469,295 Z" stroke="#000000" stroke-width="4.0" fill="none"/>
<circle cx="484.0" cy="280.0" r="9.0" stroke="#000000" stroke-width="4.0" fill="none" />
<text text-anchor="end" x="455.0" y="289.0" fill="#000000" style="font-size:24px"><tspan style="font-style:italic;">x</tspan></text>
<circle cx="500.0" cy="280.0" r="2.0" stroke="#b20000" stroke-width="4.0" fill="#b20000" />
</g>
<g>
<path d="M 469,505 L 499,505 L 499,535 L 469,535 Z" stroke="#000000" stroke-width="4.0" fill="none"/>
<circle cx="484.0" cy="520.0" r="9.0" stroke="#000000" stroke-width="4.0" fill="none" />
<text text-anchor="end" x="455.0" y="529.0" fill="#000000" style="font-size:24px"><tspan style="font-style:italic;">y</tspan></text>
<circle cx="500.0" cy="520.0" r="2.0" stroke="#b20000" stroke-width="4.0" fill="#b20000" />
</g>
<g>
<path d="M 469,345 L 499,345 L 499,375 L 469,375 Z" stroke="#000000" stroke-width="4.0" fill="none"/>
<circle cx="484.0" cy="360.0" r="9.0" stroke="#000000" stroke-width="4.0" fill="none" />
<text text-anchor="end" x="455.0" y="369.0" fill="#000000" style="font-size:24px"><tspan style="font-style:italic;">xmin</tspan></text>
<circle cx="500.0" cy="360.0" r="2.0" stroke="#b20000" stroke-width="4.0" fill="#b20000" />
</g>
<g>
<path d="M 469,405 L 499,405 L 499,435 L 469,435 Z" stroke="#000000" stroke-width="4.0" fill="none"/>
<circle cx="484.0" cy="420.0" r="9.0" stroke="#000000" stroke-width="4.0" fill="none" />
<text text-anchor="end" x="455.0" y="429.0" fill="#000000" style="font-size:24px"><tspan style="font-style:italic;">xmax</tspan></text>
<circle cx="500.0" cy="420.0" r="2.0" stroke="#b20000" stroke-width="4.0" fill="#b20000" />
</g>
<g>
<path d="M 469,585 L 499,585 L 499,615 L 469,615 Z" stroke="#000000" stroke-width="4.0" fill="none"/>
<circle cx="484.0" cy="600.0" r="9.0" stroke="#000000" stroke-width="4.0" fill="none" />
<text text-anchor="end" x="455.0" y="609.0" fill="#000000" style="font-size:24px"><tspan style="font-style:italic;">ymin</tspan></text>
<circle cx="500.0" cy="600.0" r="2.0" stroke="#b20000" stroke-width="4.0" fill="#b20000" />
</g>
<g>
<path d="M 469,665 L 499,665 L 499,695 L 469,695 Z" stroke="#000000" stroke-width="4.0" fill="none"/>
<circle cx="484.0" cy="680.0" r="9.0" stroke="#000000" stroke-width="4.0" fill="none" />
<text text-anchor="end" x="455.0" y="689.0" fill="#000000" style="font-size:24px"><tspan style="font-style:italic;">ymax</tspan></text>
<circle cx="500.0" cy="680.0" r="2.0" stroke="#b20000" stroke-width="4.0" fill="#b20000" />
</g>
<g>
<path d="M 681,270 L 739,270 L 739,330 L 681,330 Z" stroke="#000000" stroke-width="4.0" fill="none"/>
<text text-anchor="start" x="684.0" y="286.75" fill="#808080" style="font-size:18px">a</text>
<text text-anchor="start" x="684.0" y="306.75" fill="#808080" style="font-size:18px">b</text>
<text text-anchor="end" x="736.0" y="286.75" fill="#808080" style="font-size:18px">&gt;</text>
<text text-anchor="end" x="736.0" y="306.75" fill="#808080" style="font-size:18px">=</text>
<text text-anchor="end" x="736.0" y="326.75" fill="#808080" style="font-size:18px">&lt;</text>
<circle cx="680.0" cy="280.0" r="2.0" stroke="#0000b2" stroke-width="4.0" fill="#0000b2" />
<circle cx="680.0" cy="300.0" r="2.0" stroke="#0000b2" stroke-width="4.0" fill="#0000b2" />
<circle cx="740.0" cy="280.0" r="2.0" stroke="#b20000" stroke-width="4.0" fill="#b20000" />
<circle cx="740.0" cy="300.0" r="2.0" stroke="#b20000" stroke-width="4.0" fill="#b20000" />
<circle cx="740.0" cy="320.0" r="2.0" stroke="#b20000" stroke-width="4.0" fill="#b20000" />
</g>
<g>
<path d="M 681,370 L 739,370 L 739,430 L 681,430 Z" stroke="#000000" stroke-width="4.0" fill="none"/>
<text text-anchor="start" x="684.0" y="386.75" fill="#808080" style="font-size:18px">a</text>
<text text-anchor="start" x="684.0" y="406.75" fill="#808080" style="font-size:18px">b</text>
<text text-anchor="end" x="736.0" y="386.75" fill="#808080" style="font-size:18px">&gt;</text>
<text text-anchor="end" x="736.0" y="406.75" fill="#808080" style="font-size:18px">=</text>
<text text-anchor="end" x="736.0" y="426.75" fill="#808080" style="font-size:18px">&lt;</text>
<circle cx="680.0" cy="380.0" r="2.0" stroke="#0000b2" stroke-width="4.0" fill="#0000b2" />
<circle cx="680.0" cy="400.0" r="2.0" stroke="#0000b2" stroke-width="4.0" fill="#0000b2" />
<circle cx="740.0" cy="380.0" r="2.0" stroke="#b20000" stroke-width="4.0" fill="#b20000" />
<circle cx="740.0" cy="400.0" r="2.0" stroke="#b20000" stroke-width="4.0" fill="#b20000" />
<circle cx="740.0" cy="420.0" r="2.0" stroke="#b20000" stroke-width="4.0" fill="#b20000" />
</g>
<g>
<path d="M 681,510 L 739,510 L 739,570 L 681,570 Z" stroke="#000000" stroke-width="4.0" fill="none"/>
<text text-anchor="start" x="684.0" y="526.75" fill="#808080" style="font-size:18px">a</text>
<text text-anchor="start" x="684.0" y="546.75" fill="#808080" style="font-size:18px">b</text>
<text text-anchor="end" x="736.0" y="526.75" fill="#808080" style="font-size:18px">&gt;</text>
<text text-anchor="end" x="736.0" y="546.75" fill="#808080" style="font-size:18px">=</text>
<text text-anchor="end" x="736.0" y="566.75" fill="#808080" style="font-size:18px">&lt;</text>
<circle cx="680.0" cy="520.0" r="2.0" stroke="#0000b2" stroke-width="4.0" fill="#0000b2" />
<circle cx="680.0" cy="540.0" r="2.0" stroke="#0000b2" stroke-width="4.0" fill="#0000b2" />
<circle cx="740.0" cy="520.0" r="2.0" stroke="#b20000" stroke-width="4.0" fill="#b20000" />
<circle cx="740.0" cy="540.0" r="2.0" stroke="#b20000" stroke-width="4.0" fill="#b20000" />
<circle cx="740.0" cy="560.0" r="2.0" stroke="#b20000" stroke-width="4.0" fill="#b20000" />
</g>
<g>
<path d="M 681,610 L 739,610 L 739,670 L 681,670 Z" stroke="#000000" stroke-width="4.0" fill="none"/>
<text text-anchor="start" x="684.0" y="626.75" fill="#808080" style="font-size:18px">a</text>
<text text-anchor="start" x="684.0" y="646.75" fill="#808080" style="font-size:18px">b</text>
<text text-anchor="end" x="736.0" y="626.75" fill="#808080" style="font-size:18px">&gt;</text>
<text text-anchor="end" x="736.0" y="646.75" fill="#808080" style="font-size:18px">=</text>
<text text-anchor="end" x="736.0" y="666.75" fill="#808080" style="font-size:18px">&lt;</text>
<circle cx="680.0" cy="620.0" r="2.0" stroke="#0000b2" stroke-width="4.0" fill="#0000b2" />
<circle cx="680.0" cy="640.0" r="2.0" stroke="#0000b2" stroke-width="4.0" fill="#0000b2" />
<circle cx="740.0" cy="620.0" r="2.0" stroke="#b20000" stroke-width="4.0" fill="#b20000" />
<circle cx="740.0" cy="640.0" r="2.0" stroke="#b20000" stroke-width="4.0" fill="#b20000" />
<circle cx="740.0" cy="660.0" r="2.0" stroke="#b20000" stroke-width="4.0" fill="#b20000" />
</g>
<g>
<path d="M 910,530 L 880,530 C 890,514 890,486 880,470 L 900,470 C 930,470 950,480 960,500 C 950,520 930,530 910,530 Z" stroke="#000000" stroke-width="4.0" fill="none"/>
<circle cx="970.0" cy="500.0" r="9.0" stroke="#000000" stroke-width="4.0" fill="none" />
<circle cx="880.0" cy="460.0" r="2.0" stroke="#0000b2" stroke-width="4.0" fill="#0000b2" />
<circle cx="880.0" cy="480.0" r="2.0" stroke="#0000b2" stroke-width="4.0" fill="#0000b2" />
<circle cx="880.0" cy="520.0" r="2.0" stroke="#0000b2" stroke-width="4.0" fill="#0000b2" />
<circle cx="880.0" cy="540.0" r="2.0" stroke="#0000b2" stroke-width="4.0" fill="#0000b2" />
<circle cx="980.0" cy="500.0" r="2.0" stroke="#b20000" stroke-width="4.0" fill="#b20000" />
</g>
<g>
<circle cx="1056.0" cy="500.0" r="9.0" stroke="#000000" stroke-width="4.0" fill="none" />
<circle cx="1056.0" cy="500.0" r="15.0" stroke="#000000" stroke-width="4.0" fill="none" />
<text text-anchor="start" x="1085.0" y="509.0" fill="#000000" style="font-size:24px"><tspan style="font-style:italic;">r</tspan></text>
<circle cx="1040.0" cy="500.0" r="2.0" stroke="#0000b2" stroke-width="4.0" fill="#0000b2" />
</g>
</g>
</svg>