<?xml version="1.0" encoding="UTF-8" standalone="no"?>
<!-- Created with Digital by H.Neemann -->
<!-- created: Mon Mar 18 18:37:51 BRT 2024 -->

<svg
   xmlns:svg="http://www.w3.org/2000/svg"
   xmlns="http://www.w3.org/2000/svg"
   width="106.8mm"
   height="111.45mm"
   viewBox="203 183 712 743">
<g stroke-linecap="square">
<path d="M 660,640 L 670,640 L 680,640" stroke="#000000" stroke-width="4.0" fill="none"/>
<path d="M 660,660 L 670,660" stroke="#000000" stroke-width="4.0" fill="none"/>
<path d="M 660,680 L 670,680" stroke="#000000" stroke-width="4.0" fill="none"/>
<path d="M 660,800 L 670,800 L 680,800" stroke="#000000" stroke-width="4.0" fill="none"/>
<path d="M 660,820 L 670,820" stroke="#000000" stroke-width="4.0" fill="none"/>
<path d="M 660,840 L 670,840" stroke="#000000" stroke-width="4.0" fill="none"/>
<path d="M 440,320 L 500,320 L 500,260 L 600,260 L 680,260" stroke="#0000b2" stroke-width="4.0" fill="none"/>
<path d="M 440,700 L 440,640 L 660,640" stroke="#0000b2" stroke-width="4.0" fill="none"/>
<path d="M 680,640 L 700,640 L 700,580" stroke="#0000b2" stroke-width="4.0" fill="none"/>
<path d="M 440,200 L 660,200 L 680,200" stroke="#0000b2" stroke-width="4.0" fill="none"/>
<path d="M 560,400 L 560,520 L 680,520" stroke="#0000b2" stroke-width="4.0" fill="none"/>
<path d="M 640,860 L 640,840 L 660,840" stroke="#0000b2" stroke-width="4.0" fill="none"/>
<path d="M 620,240 L 620,460 L 680,460" stroke="#0000b2" stroke-width="4.0" fill="none"/>
<path d="M 440,760 L 440,720 L 460,720" stroke="#0000b2" stroke-width="4.0" fill="none"/>
<path d="M 300,720 L 320,720 L 340,720 L 360,720" stroke="#0000b2" stroke-width="4.0" fill="none"/>
<path d="M 440,400 L 560,400 L 560,300 L 680,300" stroke="#0000b2" stroke-width="4.0" fill="none"/>
<path d="M 540,700 L 540,660 L 660,660" stroke="#0000b2" stroke-width="4.0" fill="none"/>
<path d="M 300,660 L 320,660 L 320,700 L 360,700" stroke="#0000b2" stroke-width="4.0" fill="none"/>
<path d="M 440,280 L 480,280 L 480,240 L 620,240 L 680,240" stroke="#0000b2" stroke-width="4.0" fill="none"/>
<path d="M 720,280 L 800,280" stroke="#0000b2" stroke-width="4.0" fill="none"/>
<path d="M 340,880 L 340,920 L 440,920 L 540,920 L 540,880 L 560,880" stroke="#0000b2" stroke-width="4.0" fill="none"/>
<path d="M 540,440 L 540,540 L 680,540" stroke="#0000b2" stroke-width="4.0" fill="none"/>
<path d="M 420,860 L 440,860 L 460,860" stroke="#0000b2" stroke-width="4.0" fill="none"/>
<path d="M 520,860 L 540,860 L 560,860" stroke="#0000b2" stroke-width="4.0" fill="none"/>
<path d="M 620,860 L 640,860 L 820,860" stroke="#0000b2" stroke-width="4.0" fill="none"/>
<path d="M 600,260 L 600,480 L 680,480" stroke="#0000b2" stroke-width="4.0" fill="none"/>
<path d="M 440,480 L 520,480 L 520,340 L 680,340" stroke="#0000b2" stroke-width="4.0" fill="none"/>
<path d="M 440,860 L 440,800 L 660,800" stroke="#0000b2" stroke-width="4.0" fill="none"/>
<path d="M 680,800 L 760,800 L 760,380 L 700,380 L 700,360" stroke="#0000b2" stroke-width="4.0" fill="none"/>
<path d="M 660,200 L 660,420 L 680,420" stroke="#0000b2" stroke-width="4.0" fill="none"/>
<path d="M 440,360 L 580,360 L 580,280 L 680,280" stroke="#0000b2" stroke-width="4.0" fill="none"/>
<path d="M 440,240 L 460,240 L 460,220 L 640,220 L 680,220" stroke="#0000b2" stroke-width="4.0" fill="none"/>
<path d="M 520,480 L 520,560 L 680,560" stroke="#0000b2" stroke-width="4.0" fill="none"/>
<path d="M 440,920 L 440,880 L 460,880" stroke="#0000b2" stroke-width="4.0" fill="none"/>
<path d="M 320,720 L 320,880 L 340,880 L 360,880" stroke="#0000b2" stroke-width="4.0" fill="none"/>
<path d="M 580,360 L 580,500 L 680,500" stroke="#0000b2" stroke-width="4.0" fill="none"/>
<path d="M 720,500 L 820,500" stroke="#0000b2" stroke-width="4.0" fill="none"/>
<path d="M 540,860 L 540,820 L 660,820" stroke="#0000b2" stroke-width="4.0" fill="none"/>
<path d="M 340,720 L 340,760 L 440,760 L 540,760 L 540,720 L 560,720" stroke="#0000b2" stroke-width="4.0" fill="none"/>
<path d="M 640,220 L 640,440 L 680,440" stroke="#0000b2" stroke-width="4.0" fill="none"/>
<path d="M 440,440 L 540,440 L 540,320 L 680,320" stroke="#0000b2" stroke-width="4.0" fill="none"/>
<path d="M 420,700 L 440,700 L 460,700" stroke="#0000b2" stroke-width="4.0" fill="none"/>
<path d="M 520,700 L 540,700 L 560,700" stroke="#0000b2" stroke-width="4.0" fill="none"/>
<path d="M 620,700 L 640,700 L 640,680 L 660,680" stroke="#0000b2" stroke-width="4.0" fill="none"/>
<path d="M 640,700 L 640,780 L 340,780 L 340,860 L 360,860" stroke="#0000b2" stroke-width="4.0" fill="none"/>
<g>
<circle cx="600.0" cy="260.0" r="4.0" stroke="#0000b2" stroke-width="4.0" fill="#0000b2" />
<circle cx="660.0" cy="200.0" r="4.0" stroke="#0000b2" stroke-width="4.0" fill="#0000b2" />
<circle cx="320.0" cy="720.0" r="4.0" stroke="#0000b2" stroke-width="4.0" fill="#0000b2" />
<circle cx="340.0" cy="720.0" r="4.0" stroke="#0000b2" stroke-width="4.0" fill="#0000b2" />
<circle cx="560.0" cy="400.0" r="4.0" stroke="#0000b2" stroke-width="4.0" fill="#0000b2" />
<circle cx="440.0" cy="920.0" r="4.0" stroke="#0000b2" stroke-width="4.0" fill="#0000b2" />
<circle cx="640.0" cy="220.0" r="4.0" stroke="#0000b2" stroke-width="4.0" fill="#0000b2" />
<circle cx="440.0" cy="860.0" r="4.0" stroke="#0000b2" stroke-width="4.0" fill="#0000b2" />
<circle cx="540.0" cy="860.0" r="4.0" stroke="#0000b2" stroke-width="4.0" fill="#0000b2" />
<circle cx="640.0" cy="860.0" r="4.0" stroke="#0000b2" stroke-width="4.0" fill="#0000b2" />
<circle cx="520.0" cy="480.0" r="4.0" stroke="#0000b2" stroke-width="4.0" fill="#0000b2" />
<circle cx="580.0" cy="360.0" r="4.0" stroke="#0000b2" stroke-width="4.0" fill="#0000b2" />
<circle cx="620.0" cy="240.0" r="4.0" stroke="#0000b2" stroke-width="4.0" fill="#0000b2" />
<circle cx="340.0" cy="880.0" r="4.0" stroke="#0000b2" stroke-width="4.0" fill="#0000b2" />
<circle cx="440.0" cy="760.0" r="4.0" stroke="#0000b2" stroke-width="4.0" fill="#0000b2" />
<circle cx="540.0" cy="440.0" r="4.0" stroke="#0000b2" stroke-width="4.0" fill="#0000b2" />
<circle cx="440.0" cy="700.0" r="4.0" stroke="#0000b2" stroke-width="4.0" fill="#0000b2" />
<circle cx="540.0" cy="700.0" r="4.0" stroke="#0000b2" stroke-width="4.0" fill="#0000b2" />
<circle cx="640.0" cy="700.0" r="4.0" stroke="#0000b2" stroke-width="4.0" fill="#0000b2" />
</g>
<g>
<path d="M 681,196 L 719,205 L 719,355 L 681,364 Z" stroke="#000000" stroke-width="4.0" fill="none"/>
<text text-anchor="start" x="683.0" y="215.5" fill="#808080" style="font-size:18px">0</text>
<circle cx="700.0" cy="360.0" r="2.0" stroke="#0000b2" stroke-width="4.0" fill="#0000b2" />
<circle cx="680.0" cy="200.0" r="2.0" stroke="#0000b2" stroke-width="4.0" fill="#0000b2" />
<circle cx="680.0" cy="220.0" r="2.0" stroke="#0000b2" stroke-width="4.0" fill="#0000b2" />
<circle cx="680.0" cy="240.0" r="2.0" stroke="#0000b2" stroke-width="4.0" fill="#0000b2" />
<circle cx="680.0" cy="260.0" r="2.0" stroke="#0000b2" stroke-width="4.0" fill="#0000b2" />
<circle cx="680.0" cy="280.0" r="2.0" stroke="#0000b2" stroke-width="4.0" fill="#0000b2" />
<circle cx="680.0" cy="300.0" r="2.0" stroke="#0000b2" stroke-width="4.0" fill="#0000b2" />
<circle cx="680.0" cy="320.0" r="2.0" stroke="#0000b2" stroke-width="4.0" fill="#0000b2" />
<circle cx="680.0" cy="340.0" r="2.0" stroke="#0000b2" stroke-width="4.0" fill="#0000b2" />
<circle cx="720.0" cy="280.0" r="2.0" stroke="#b20000" stroke-width="4.0" fill="#b20000" />
</g>
<g>
<path d="M 681,416 L 719,425 L 719,575 L 681,584 Z" stroke="#000000" stroke-width="4.0" fill="none"/>
<text text-anchor="start" x="683.0" y="435.5" fill="#808080" style="font-size:18px">0</text>
<circle cx="700.0" cy="580.0" r="2.0" stroke="#0000b2" stroke-width="4.0" fill="#0000b2" />
<circle cx="680.0" cy="420.0" r="2.0" stroke="#0000b2" stroke-width="4.0" fill="#0000b2" />
<circle cx="680.0" cy="440.0" r="2.0" stroke="#0000b2" stroke-width="4.0" fill="#0000b2" />
<circle cx="680.0" cy="460.0" r="2.0" stroke="#0000b2" stroke-width="4.0" fill="#0000b2" />
<circle cx="680.0" cy="480.0" r="2.0" stroke="#0000b2" stroke-width="4.0" fill="#0000b2" />
<circle cx="680.0" cy="500.0" r="2.0" stroke="#0000b2" stroke-width="4.0" fill="#0000b2" />
<circle cx="680.0" cy="520.0" r="2.0" stroke="#0000b2" stroke-width="4.0" fill="#0000b2" />
<circle cx="680.0" cy="540.0" r="2.0" stroke="#0000b2" stroke-width="4.0" fill="#0000b2" />
<circle cx="680.0" cy="560.0" r="2.0" stroke="#0000b2" stroke-width="4.0" fill="#0000b2" />
<circle cx="720.0" cy="500.0" r="2.0" stroke="#b20000" stroke-width="4.0" fill="#b20000" />
</g>
<g>
<path d="M 409,185 L 439,185 L 439,215 L 409,215 Z" stroke="#000000" stroke-width="4.0" fill="none"/>
<circle cx="424.0" cy="200.0" r="9.0" stroke="#000000" stroke-width="4.0" fill="none" />
<text text-anchor="end" x="395.0" y="209.0" fill="#000000" style="font-size:24px"><tspan style="font-style:italic;">e0</tspan></text>
<circle cx="440.0" cy="200.0" r="2.0" stroke="#b20000" stroke-width="4.0" fill="#b20000" />
</g>
<g>
<path d="M 409,225 L 439,225 L 439,255 L 409,255 Z" stroke="#000000" stroke-width="4.0" fill="none"/>
<circle cx="424.0" cy="240.0" r="9.0" stroke="#000000" stroke-width="4.0" fill="none" />
<text text-anchor="end" x="395.0" y="249.0" fill="#000000" style="font-size:24px"><tspan style="font-style:italic;">e1</tspan></text>
<circle cx="440.0" cy="240.0" r="2.0" stroke="#b20000" stroke-width="4.0" fill="#b20000" />
</g>
<g>
<path d="M 409,265 L 439,265 L 439,295 L 409,295 Z" stroke="#000000" stroke-width="4.0" fill="none"/>
<circle cx="424.0" cy="280.0" r="9.0" stroke="#000000" stroke-width="4.0" fill="none" />
<text text-anchor="end" x="395.0" y="289.0" fill="#000000" style="font-size:24px"><tspan style="font-style:italic;">e2</tspan></text>
<circle cx="440.0" cy="280.0" r="2.0" stroke="#b20000" stroke-width="4.0" fill="#b20000" />
</g>
<g>
<path d="M 409,305 L 439,305 L 439,335 L 409,335 Z" stroke="#000000" stroke-width="4.0" fill="none"/>
<circle cx="424.0" cy="320.0" r="9.0" stroke="#000000" stroke-width="4.0" fill="none" />
<text text-anchor="end" x="395.0" y="329.0" fill="#000000" style="font-size:24px"><tspan style="font-style:italic;">e3</tspan></text>
<circle cx="440.0" cy="320.0" r="2.0" stroke="#b20000" stroke-width="4.0" fill="#b20000" />
</g>
<g>
<path d="M 409,345 L 439,345 L 439,375 L 409,375 Z" stroke="#000000" stroke-width="4.0" fill="none"/>
<circle cx="424.0" cy="360.0" r="9.0" stroke="#000000" stroke-width="4.0" fill="none" />
<text text-anchor="end" x="395.0" y="369.0" fill="#000000" style="font-size:24px"><tspan style="font-style:italic;">e4</tspan></text>
<circle cx="440.0" cy="360.0" r="2.0" stroke="#b20000" stroke-width="4.0" fill="#b20000" />
</g>
<g>
<path d="M 409,385 L 439,385 L 439,415 L 409,415 Z" stroke="#000000" stroke-width="4.0" fill="none"/>
<circle cx="424.0" cy="400.0" r="9.0" stroke="#000000" stroke-width="4.0" fill="none" />
<text text-anchor="end" x="395.0" y="409.0" fill="#000000" style="font-size:24px"><tspan style="font-style:italic;">e5</tspan></text>
<circle cx="440.0" cy="400.0" r="2.0" stroke="#b20000" stroke-width="4.0" fill="#b20000" />
</g>
<g>
<path d="M 409,425 L 439,425 L 439,455 L 409,455 Z" stroke="#000000" stroke-width="4.0" fill="none"/>
<circle cx="424.0" cy="440.0" r="9.0" stroke="#000000" stroke-width="4.0" fill="none" />
<text text-anchor="end" x="395.0" y="449.0" fill="#000000" style="font-size:24px"><tspan style="font-style:italic;">e6</tspan></text>
<circle cx="440.0" cy="440.0" r="2.0" stroke="#b20000" stroke-width="4.0" fill="#b20000" />
</g>
<g>
<path d="M 409,465 L 439,465 L 439,495 L 409,495 Z" stroke="#000000" stroke-width="4.0" fill="none"/>
<circle cx="424.0" cy="480.0" r="9.0" stroke="#000000" stroke-width="4.0" fill="none" />
<text text-anchor="end" x="395.0" y="489.0" fill="#000000" style="font-size:24px"><tspan style="font-style:italic;">e7</tspan></text>
<circle cx="440.0" cy="480.0" r="2.0" stroke="#b20000" stroke-width="4.0" fill="#b20000" />
</g>
<g>
<circle cx="816.0" cy="280.0" r="9.0" stroke="#000000" stroke-width="4.0" fill="none" />
<circle cx="816.0" cy="280.0" r="15.0" stroke="#000000" stroke-width="4.0" fill="none" />
<text text-anchor="start" x="845.0" y="289.0" fill="#000000" style="font-size:24px"><tspan style="font-style:italic;">s0</tspan></text>
<circle cx="800.0" cy="280.0" r="2.0" stroke="#0000b2" stroke-width="4.0" fill="#0000b2" />
</g>
<g>
<circle cx="836.0" cy="500.0" r="9.0" stroke="#000000" stroke-width="4.0" fill="none" />
<circle cx="836.0" cy="500.0" r="15.0" stroke="#000000" stroke-width="4.0" fill="none" />
<text text-anchor="start" x="865.0" y="509.0" fill="#000000" style="font-size:24px"><tspan style="font-style:italic;">s1</tspan></text>
<circle cx="820.0" cy="500.0" r="2.0" stroke="#0000b2" stroke-width="4.0" fill="#0000b2" />
</g>
<g>
<path d="M 361,690 L 419,690 L 419,730 L 361,730 Z" stroke="#000000" stroke-width="4.0" fill="none"/>
<text text-anchor="start" x="364.0" y="706.75" fill="#808080" style="font-size:18px">D</text>
<path d="M 361,727 L 368,720 L 361,713" stroke="#000000" stroke-width="2.0" fill="none"/>
<text text-anchor="start" x="371.0" y="726.75" fill="#808080" style="font-size:18px">C</text>
<text text-anchor="end" x="416.0" y="706.75" fill="#808080" style="font-size:18px">Q</text>
<text text-anchor="end" x="416.0" y="726.75" fill="#808080" style="font-size:18px"><tspan style="text-decoration:overline;">Q</tspan></text>
<text text-anchor="middle" x="390.0" y="747.5" fill="#808080" style="font-size:18px">D</text>
<circle cx="360.0" cy="700.0" r="2.0" stroke="#0000b2" stroke-width="4.0" fill="#0000b2" />
<circle cx="360.0" cy="720.0" r="2.0" stroke="#0000b2" stroke-width="4.0" fill="#0000b2" />
<circle cx="420.0" cy="700.0" r="2.0" stroke="#b20000" stroke-width="4.0" fill="#b20000" />
<circle cx="420.0" cy="720.0" r="2.0" stroke="#b20000" stroke-width="4.0" fill="#b20000" />
</g>
<g>
<path d="M 461,690 L 519,690 L 519,730 L 461,730 Z" stroke="#000000" stroke-width="4.0" fill="none"/>
<text text-anchor="start" x="464.0" y="706.75" fill="#808080" style="font-size:18px">D</text>
<path d="M 461,727 L 468,720 L 461,713" stroke="#000000" stroke-width="2.0" fill="none"/>
<text text-anchor="start" x="471.0" y="726.75" fill="#808080" style="font-size:18px">C</text>
<text text-anchor="end" x="516.0" y="706.75" fill="#808080" style="font-size:18px">Q</text>
<text text-anchor="end" x="516.0" y="726.75" fill="#808080" style="font-size:18px"><tspan style="text-decoration:overline;">Q</tspan></text>
<text text-anchor="middle" x="490.0" y="747.5" fill="#808080" style="font-size:18px">D</text>
<circle cx="460.0" cy="700.0" r="2.0" stroke="#0000b2" stroke-width="4.0" fill="#0000b2" />
<circle cx="460.0" cy="720.0" r="2.0" stroke="#0000b2" stroke-width="4.0" fill="#0000b2" />
<circle cx="520.0" cy="700.0" r="2.0" stroke="#b20000" stroke-width="4.0" fill="#b20000" />
<circle cx="520.0" cy="720.0" r="2.0" stroke="#b20000" stroke-width="4.0" fill="#b20000" />
</g>
<g>
<path d="M 561,690 L 619,690 L 619,730 L 561,730 Z" stroke="#000000" stroke-width="4.0" fill="none"/>
<text text-anchor="start" x="564.0" y="706.75" fill="#808080" style="font-size:18px">D</text>
<path d="M 561,727 L 568,720 L 561,713" stroke="#000000" stroke-width="2.0" fill="none"/>
<text text-anchor="start" x="571.0" y="726.75" fill="#808080" style="font-size:18px">C</text>
<text text-anchor="end" x="616.0" y="706.75" fill="#808080" style="font-size:18px">Q</text>
<text text-anchor="end" x="616.0" y="726.75" fill="#808080" style="font-size:18px"><tspan style="text-decoration:overline;">Q</tspan></text>
<text text-anchor="middle" x="590.0" y="747.5" fill="#808080" style="font-size:18px">D</text>
<circle cx="560.0" cy="700.0" r="2.0" stroke="#0000b2" stroke-width="4.0" fill="#0000b2" />
<circle cx="560.0" cy="720.0" r="2.0" stroke="#0000b2" stroke-width="4.0" fill="#0000b2" />
<circle cx="620.0" cy="700.0" r="2.0" stroke="#b20000" stroke-width="4.0" fill="#b20000" />
<circle cx="620.0" cy="720.0" r="2.0" stroke="#b20000" stroke-width="4.0" fill="#b20000" />
</g>
<g>
<text text-anchor="end" x="658.0" y="637.0" fill="#808080" style="font-size:12px">0</text>
<text text-anchor="end" x="658.0" y="657.0" fill="#808080" style="font-size:12px">1</text>
<text text-anchor="end" x="658.0" y="677.0" fill="#808080" style="font-size:12px">2</text>
<text text-anchor="start" x="682.0" y="637.0" fill="#808080" style="font-size:12px">0-2</text>
<path d="M 668,638 L 672,638 L 672,682 L 668,682 Z" stroke="#000000" stroke-width="4.0" fill="#000000" fill-opacity="1.0"/>
<circle cx="660.0" cy="640.0" r="2.0" stroke="#0000b2" stroke-width="4.0" fill="#0000b2" />
<circle cx="660.0" cy="660.0" r="2.0" stroke="#0000b2" stroke-width="4.0" fill="#0000b2" />
<circle cx="660.0" cy="680.0" r="2.0" stroke="#0000b2" stroke-width="4.0" fill="#0000b2" />
<circle cx="680.0" cy="640.0" r="2.0" stroke="#b20000" stroke-width="4.0" fill="#b20000" />
</g>
<g>
<path d="M 361,850 L 419,850 L 419,890 L 361,890 Z" stroke="#000000" stroke-width="4.0" fill="none"/>
<text text-anchor="start" x="364.0" y="866.75" fill="#808080" style="font-size:18px">D</text>
<path d="M 361,887 L 368,880 L 361,873" stroke="#000000" stroke-width="2.0" fill="none"/>
<text text-anchor="start" x="371.0" y="886.75" fill="#808080" style="font-size:18px">C</text>
<text text-anchor="end" x="416.0" y="866.75" fill="#808080" style="font-size:18px">Q</text>
<text text-anchor="end" x="416.0" y="886.75" fill="#808080" style="font-size:18px"><tspan style="text-decoration:overline;">Q</tspan></text>
<text text-anchor="middle" x="390.0" y="907.5" fill="#808080" style="font-size:18px">D</text>
<circle cx="360.0" cy="860.0" r="2.0" stroke="#0000b2" stroke-width="4.0" fill="#0000b2" />
<circle cx="360.0" cy="880.0" r="2.0" stroke="#0000b2" stroke-width="4.0" fill="#0000b2" />
<circle cx="420.0" cy="860.0" r="2.0" stroke="#b20000" stroke-width="4.0" fill="#b20000" />
<circle cx="420.0" cy="880.0" r="2.0" stroke="#b20000" stroke-width="4.0" fill="#b20000" />
</g>
<g>
<path d="M 461,850 L 519,850 L 519,890 L 461,890 Z" stroke="#000000" stroke-width="4.0" fill="none"/>
<text text-anchor="start" x="464.0" y="866.75" fill="#808080" style="font-size:18px">D</text>
<path d="M 461,887 L 468,880 L 461,873" stroke="#000000" stroke-width="2.0" fill="none"/>
<text text-anchor="start" x="471.0" y="886.75" fill="#808080" style="font-size:18px">C</text>
<text text-anchor="end" x="516.0" y="866.75" fill="#808080" style="font-size:18px">Q</text>
<text text-anchor="end" x="516.0" y="886.75" fill="#808080" style="font-size:18px"><tspan style="text-decoration:overline;">Q</tspan></text>
<text text-anchor="middle" x="490.0" y="907.5" fill="#808080" style="font-size:18px">D</text>
<circle cx="460.0" cy="860.0" r="2.0" stroke="#0000b2" stroke-width="4.0" fill="#0000b2" />
<circle cx="460.0" cy="880.0" r="2.0" stroke="#0000b2" stroke-width="4.0" fill="#0000b2" />
<circle cx="520.0" cy="860.0" r="2.0" stroke="#b20000" stroke-width="4.0" fill="#b20000" />
<circle cx="520.0" cy="880.0" r="2.0" stroke="#b20000" stroke-width="4.0" fill="#b20000" />
</g>
<g>
<path d="M 561,850 L 619,850 L 619,890 L 561,890 Z" stroke="#000000" stroke-width="4.0" fill="none"/>
<text text-anchor="start" x="564.0" y="866.75" fill="#808080" style="font-size:18px">D</text>
<path d="M 561,887 L 568,880 L 561,873" stroke="#000000" stroke-width="2.0" fill="none"/>
<text text-anchor="start" x="571.0" y="886.75" fill="#808080" style="font-size:18px">C</text>
<text text-anchor="end" x="616.0" y="866.75" fill="#808080" style="font-size:18px">Q</text>
<text text-anchor="end" x="616.0" y="886.75" fill="#808080" style="font-size:18px"><tspan style="text-decoration:overline;">Q</tspan></text>
<text text-anchor="middle" x="590.0" y="907.5" fill="#808080" style="font-size:18px">D</text>
<circle cx="560.0" cy="860.0" r="2.0" stroke="#0000b2" stroke-width="4.0" fill="#0000b2" />
<circle cx="560.0" cy="880.0" r="2.0" stroke="#0000b2" stroke-width="4.0" fill="#0000b2" />
<circle cx="620.0" cy="860.0" r="2.0" stroke="#b20000" stroke-width="4.0" fill="#b20000" />
<circle cx="620.0" cy="880.0" r="2.0" stroke="#b20000" stroke-width="4.0" fill="#b20000" />
</g>
<g>
<text text-anchor="end" x="658.0" y="797.0" fill="#808080" style="font-size:12px">0</text>
<text text-anchor="end" x="658.0" y="817.0" fill="#808080" style="font-size:12px">1</text>
<text text-anchor="end" x="658.0" y="837.0" fill="#808080" style="font-size:12px">2</text>
<text text-anchor="start" x="682.0" y="797.0" fill="#808080" style="font-size:12px">0-2</text>
<path d="M 668,798 L 672,798 L 672,842 L 668,842 Z" stroke="#000000" stroke-width="4.0" fill="#000000" fill-opacity="1.0"/>
<circle cx="660.0" cy="800.0" r="2.0" stroke="#0000b2" stroke-width="4.0" fill="#0000b2" />
<circle cx="660.0" cy="820.0" r="2.0" stroke="#0000b2" stroke-width="4.0" fill="#0000b2" />
<circle cx="660.0" cy="840.0" r="2.0" stroke="#0000b2" stroke-width="4.0" fill="#0000b2" />
<circle cx="680.0" cy="800.0" r="2.0" stroke="#b20000" stroke-width="4.0" fill="#b20000" />
</g>
<g>
<path d="M 269,645 L 299,645 L 299,675 L 269,675 Z" stroke="#000000" stroke-width="4.0" fill="none"/>
<circle cx="284.0" cy="660.0" r="9.0" stroke="#000000" stroke-width="4.0" fill="none" />
<text text-anchor="end" x="255.0" y="669.0" fill="#000000" style="font-size:24px"><tspan style="font-style:italic;">ecfg</tspan></text>
<circle cx="300.0" cy="660.0" r="2.0" stroke="#b20000" stroke-width="4.0" fill="#b20000" />
</g>
<g>
<path d="M 269,705 L 299,705 L 299,735 L 269,735 Z" stroke="#000000" stroke-width="4.0" fill="none"/>
<circle cx="284.0" cy="720.0" r="9.0" stroke="#000000" stroke-width="4.0" fill="none" />
<text text-anchor="end" x="255.0" y="729.0" fill="#000000" style="font-size:24px"><tspan style="font-style:italic;">rcfg</tspan></text>
<circle cx="300.0" cy="720.0" r="2.0" stroke="#b20000" stroke-width="4.0" fill="#b20000" />
</g>
<g>
<circle cx="836.0" cy="860.0" r="9.0" stroke="#000000" stroke-width="4.0" fill="none" />
<circle cx="836.0" cy="860.0" r="15.0" stroke="#000000" stroke-width="4.0" fill="none" />
<text text-anchor="start" x="865.0" y="869.0" fill="#000000" style="font-size:24px"><tspan style="font-style:italic;">scfg</tspan></text>
<circle cx="820.0" cy="860.0" r="2.0" stroke="#0000b2" stroke-width="4.0" fill="#0000b2" />
</g>
</g>
</svg>