<?xml version="1.0" encoding="UTF-8" standalone="no"?>
<!-- Created with Digital by H.Neemann -->
<!-- created: Sat Feb 17 21:38:24 BRT 2024 -->

<svg
   xmlns:svg="http://www.w3.org/2000/svg"
   xmlns="http://www.w3.org/2000/svg"
   width="127.2mm"
   height="93.15mm"
   viewBox="237 183 848 621">
<g stroke-linecap="square">
<path d="M 440,600 L 476,590" stroke="#000000" stroke-width="4.0" fill="none"/>
<path d="M 450,560 L 440,560" stroke="#000000" stroke-width="4.0" fill="none"/>
<path d="M 470,560 L 480,560" stroke="#000000" stroke-width="4.0" fill="none"/>
<path d="M 400,574 L 400,580" stroke="#000000" stroke-width="4.0" fill="none"/>
<path d="M 600,666 L 600,680" stroke="#000000" stroke-width="4.0" fill="none"/>
<path d="M 440,700 L 476,690" stroke="#000000" stroke-width="4.0" fill="none"/>
<path d="M 450,660 L 440,660" stroke="#000000" stroke-width="4.0" fill="none"/>
<path d="M 470,660 L 480,660" stroke="#000000" stroke-width="4.0" fill="none"/>
<path d="M 440,800 L 476,790" stroke="#000000" stroke-width="4.0" fill="none"/>
<path d="M 450,760 L 440,760" stroke="#000000" stroke-width="4.0" fill="none"/>
<path d="M 470,760 L 480,760" stroke="#000000" stroke-width="4.0" fill="none"/>
<path d="M 400,674 L 400,680" stroke="#000000" stroke-width="4.0" fill="none"/>
<path d="M 400,774 L 400,780" stroke="#000000" stroke-width="4.0" fill="none"/>
<path d="M 840,600 L 876,590" stroke="#000000" stroke-width="4.0" fill="none"/>
<path d="M 850,560 L 840,560" stroke="#000000" stroke-width="4.0" fill="none"/>
<path d="M 870,560 L 880,560" stroke="#000000" stroke-width="4.0" fill="none"/>
<path d="M 800,574 L 800,580" stroke="#000000" stroke-width="4.0" fill="none"/>
<path d="M 1000,666 L 1000,680" stroke="#000000" stroke-width="4.0" fill="none"/>
<path d="M 840,700 L 876,690" stroke="#000000" stroke-width="4.0" fill="none"/>
<path d="M 850,660 L 840,660" stroke="#000000" stroke-width="4.0" fill="none"/>
<path d="M 870,660 L 880,660" stroke="#000000" stroke-width="4.0" fill="none"/>
<path d="M 840,800 L 876,790" stroke="#000000" stroke-width="4.0" fill="none"/>
<path d="M 850,760 L 840,760" stroke="#000000" stroke-width="4.0" fill="none"/>
<path d="M 870,760 L 880,760" stroke="#000000" stroke-width="4.0" fill="none"/>
<path d="M 450,570 L 470,550" stroke="#000000" stroke-width="2.0" fill="none"/>
<path d="M 450,670 L 470,650" stroke="#000000" stroke-width="2.0" fill="none"/>
<path d="M 450,770 L 470,750" stroke="#000000" stroke-width="2.0" fill="none"/>
<path d="M 850,570 L 870,550" stroke="#000000" stroke-width="2.0" fill="none"/>
<path d="M 850,670 L 870,650" stroke="#000000" stroke-width="2.0" fill="none"/>
<path d="M 850,770 L 870,750" stroke="#000000" stroke-width="2.0" fill="none"/>
<path d="M 460,590 L 460,581" stroke-dasharray="4.0,4.0" stroke="#000000" stroke-width="1.0" fill="none"/>
<path d="M 460,690 L 460,681" stroke-dasharray="4.0,4.0" stroke="#000000" stroke-width="1.0" fill="none"/>
<path d="M 460,790 L 460,781" stroke-dasharray="4.0,4.0" stroke="#000000" stroke-width="1.0" fill="none"/>
<path d="M 860,590 L 860,581" stroke-dasharray="4.0,4.0" stroke="#000000" stroke-width="1.0" fill="none"/>
<path d="M 860,690 L 860,681" stroke-dasharray="4.0,4.0" stroke="#000000" stroke-width="1.0" fill="none"/>
<path d="M 860,790 L 860,781" stroke-dasharray="4.0,4.0" stroke="#000000" stroke-width="1.0" fill="none"/>
<path d="M 300,320 L 340,320 L 740,320 L 740,420 L 880,420" stroke="#0000b2" stroke-width="4.0" fill="none"/>
<path d="M 480,800 L 580,800 L 580,700" stroke="#0000b2" stroke-width="4.0" fill="none"/>
<path d="M 400,780 L 400,800 L 440,800" stroke="#0000b2" stroke-width="4.0" fill="none"/>
<path d="M 880,800 L 980,800 L 980,620 L 1000,620 L 1020,620" stroke="#0000b2" stroke-width="4.0" fill="none"/>
<path d="M 340,320 L 340,420 L 480,420 L 484,420" stroke="#0000b2" stroke-width="4.0" fill="none"/>
<path d="M 300,260 L 360,260 L 760,260 L 760,400 L 880,400" stroke="#0000b2" stroke-width="4.0" fill="none"/>
<path d="M 300,200 L 380,200 L 780,200 L 780,380 L 880,380" stroke="#0000b2" stroke-width="4.0" fill="none"/>
<path d="M 480,600 L 480,620 L 580,620 L 600,620 L 620,620" stroke="#0000b2" stroke-width="4.0" fill="none"/>
<path d="M 360,260 L 360,400 L 480,400 L 487,400" stroke="#0000b2" stroke-width="4.0" fill="none"/>
<path d="M 560,400 L 620,400" stroke="#0000b2" stroke-width="4.0" fill="none"/>
<path d="M 960,400 L 1020,400" stroke="#0000b2" stroke-width="4.0" fill="none"/>
<path d="M 380,380 L 380,560 L 440,560" stroke="#0000b2" stroke-width="4.0" fill="none"/>
<path d="M 480,560 L 520,560 L 520,580" stroke="#0000b2" stroke-width="4.0" fill="none"/>
<path d="M 780,380 L 780,560 L 840,560" stroke="#0000b2" stroke-width="4.0" fill="none"/>
<path d="M 880,560 L 920,560 L 920,580" stroke="#0000b2" stroke-width="4.0" fill="none"/>
<path d="M 480,660 L 540,660 L 540,680" stroke="#0000b2" stroke-width="4.0" fill="none"/>
<path d="M 360,400 L 360,660 L 440,660" stroke="#0000b2" stroke-width="4.0" fill="none"/>
<path d="M 880,660 L 940,660 L 940,680" stroke="#0000b2" stroke-width="4.0" fill="none"/>
<path d="M 760,400 L 760,660 L 840,660" stroke="#0000b2" stroke-width="4.0" fill="none"/>
<path d="M 480,760 L 540,760 L 540,780" stroke="#0000b2" stroke-width="4.0" fill="none"/>
<path d="M 340,420 L 340,760 L 440,760" stroke="#0000b2" stroke-width="4.0" fill="none"/>
<path d="M 880,760 L 940,760 L 940,780" stroke="#0000b2" stroke-width="4.0" fill="none"/>
<path d="M 740,420 L 740,760 L 840,760" stroke="#0000b2" stroke-width="4.0" fill="none"/>
<path d="M 400,580 L 400,600 L 440,600" stroke="#0000b2" stroke-width="4.0" fill="none"/>
<path d="M 800,580 L 800,600 L 840,600" stroke="#0000b2" stroke-width="4.0" fill="none"/>
<path d="M 880,600 L 900,600 L 900,700 L 880,700" stroke="#0000b2" stroke-width="4.0" fill="none"/>
<path d="M 480,700 L 580,700 L 580,620" stroke="#0000b2" stroke-width="4.0" fill="none"/>
<path d="M 400,680 L 400,700 L 440,700" stroke="#0000b2" stroke-width="4.0" fill="none"/>
<path d="M 380,200 L 380,380 L 480,380 L 484,380" stroke="#0000b2" stroke-width="4.0" fill="none"/>
<path d="M 1000,620 L 1000,640" stroke="#0000b2" stroke-width="4.0" fill="none"/>
<path d="M 840,800 L 820,800 L 820,700 L 840,700" stroke="#0000b2" stroke-width="4.0" fill="none"/>
<path d="M 600,620 L 600,640" stroke="#0000b2" stroke-width="4.0" fill="none"/>
<path d="M 510,580 L 530,580" stroke="#000000" stroke-width="6.0" fill="none"/>
<path d="M 590,680 L 610,680" stroke="#000000" stroke-width="6.0" fill="none"/>
<path d="M 530,680 L 550,680" stroke="#000000" stroke-width="6.0" fill="none"/>
<path d="M 530,780 L 550,780" stroke="#000000" stroke-width="6.0" fill="none"/>
<path d="M 910,580 L 930,580" stroke="#000000" stroke-width="6.0" fill="none"/>
<path d="M 990,680 L 1010,680" stroke="#000000" stroke-width="6.0" fill="none"/>
<path d="M 930,680 L 950,680" stroke="#000000" stroke-width="6.0" fill="none"/>
<path d="M 930,780 L 950,780" stroke="#000000" stroke-width="6.0" fill="none"/>
<g>
<circle cx="340.0" cy="320.0" r="4.0" stroke="#0000b2" stroke-width="4.0" fill="#0000b2" />
<circle cx="340.0" cy="420.0" r="4.0" stroke="#0000b2" stroke-width="4.0" fill="#0000b2" />
<circle cx="740.0" cy="420.0" r="4.0" stroke="#0000b2" stroke-width="4.0" fill="#0000b2" />
<circle cx="360.0" cy="260.0" r="4.0" stroke="#0000b2" stroke-width="4.0" fill="#0000b2" />
<circle cx="380.0" cy="200.0" r="4.0" stroke="#0000b2" stroke-width="4.0" fill="#0000b2" />
<circle cx="1000.0" cy="620.0" r="4.0" stroke="#0000b2" stroke-width="4.0" fill="#0000b2" />
<circle cx="580.0" cy="620.0" r="4.0" stroke="#0000b2" stroke-width="4.0" fill="#0000b2" />
<circle cx="600.0" cy="620.0" r="4.0" stroke="#0000b2" stroke-width="4.0" fill="#0000b2" />
<circle cx="360.0" cy="400.0" r="4.0" stroke="#0000b2" stroke-width="4.0" fill="#0000b2" />
<circle cx="760.0" cy="400.0" r="4.0" stroke="#0000b2" stroke-width="4.0" fill="#0000b2" />
<circle cx="580.0" cy="700.0" r="4.0" stroke="#0000b2" stroke-width="4.0" fill="#0000b2" />
<circle cx="380.0" cy="380.0" r="4.0" stroke="#0000b2" stroke-width="4.0" fill="#0000b2" />
<circle cx="780.0" cy="380.0" r="4.0" stroke="#0000b2" stroke-width="4.0" fill="#0000b2" />
</g>
<g>
<path d="M 269,185 L 299,185 L 299,215 L 269,215 Z" stroke="#000000" stroke-width="4.0" fill="none"/>
<circle cx="284.0" cy="200.0" r="9.0" stroke="#000000" stroke-width="4.0" fill="none" />
<text text-anchor="end" x="255.0" y="209.0" fill="#000000" style="font-size:24px"><tspan style="font-style:italic;">X</tspan></text>
<circle cx="300.0" cy="200.0" r="2.0" stroke="#b20000" stroke-width="4.0" fill="#b20000" />
</g>
<g>
<path d="M 269,245 L 299,245 L 299,275 L 269,275 Z" stroke="#000000" stroke-width="4.0" fill="none"/>
<circle cx="284.0" cy="260.0" r="9.0" stroke="#000000" stroke-width="4.0" fill="none" />
<text text-anchor="end" x="255.0" y="269.0" fill="#000000" style="font-size:24px"><tspan style="font-style:italic;">Y</tspan></text>
<circle cx="300.0" cy="260.0" r="2.0" stroke="#b20000" stroke-width="4.0" fill="#b20000" />
</g>
<g>
<path d="M 269,305 L 299,305 L 299,335 L 269,335 Z" stroke="#000000" stroke-width="4.0" fill="none"/>
<circle cx="284.0" cy="320.0" r="9.0" stroke="#000000" stroke-width="4.0" fill="none" />
<text text-anchor="end" x="255.0" y="329.0" fill="#000000" style="font-size:24px"><tspan style="font-style:italic;">Z</tspan></text>
<circle cx="300.0" cy="320.0" r="2.0" stroke="#b20000" stroke-width="4.0" fill="#b20000" />
</g>
<g>
<path d="M 510,430 L 480,430 C 490,414 490,386 480,370 L 500,370 C 530,370 550,380 560,400 C 550,420 530,430 510,430 Z" stroke="#000000" stroke-width="4.0" fill="none"/>
<circle cx="480.0" cy="380.0" r="2.0" stroke="#0000b2" stroke-width="4.0" fill="#0000b2" />
<circle cx="480.0" cy="400.0" r="2.0" stroke="#0000b2" stroke-width="4.0" fill="#0000b2" />
<circle cx="480.0" cy="420.0" r="2.0" stroke="#0000b2" stroke-width="4.0" fill="#0000b2" />
<circle cx="560.0" cy="400.0" r="2.0" stroke="#b20000" stroke-width="4.0" fill="#b20000" />
</g>
<g>
<path d="M 450,580 L 450,540 L 470,540 L 470,580 Z" stroke="#000000" stroke-width="4.0" fill="none"/>
<circle cx="440.0" cy="560.0" r="2.0" stroke="#0000b2" stroke-width="4.0" fill="#0000b2" />
<circle cx="480.0" cy="560.0" r="2.0" stroke="#0000b2" stroke-width="4.0" fill="#0000b2" />
<circle cx="440.0" cy="600.0" r="2.0" stroke="#b20000" stroke-width="4.0" fill="#b20000" />
<circle cx="480.0" cy="600.0" r="2.0" stroke="#b20000" stroke-width="4.0" fill="#b20000" />
</g>
<g>
<circle cx="636.0" cy="400.0" r="9.0" stroke="#000000" stroke-width="4.0" fill="none" />
<circle cx="636.0" cy="400.0" r="15.0" stroke="#000000" stroke-width="4.0" fill="none" />
<text text-anchor="start" x="665.0" y="409.0" fill="#000000" style="font-size:24px"><tspan style="font-style:italic;">A</tspan></text>
<circle cx="620.0" cy="400.0" r="2.0" stroke="#0000b2" stroke-width="4.0" fill="#0000b2" />
</g>
<g>
<path d="M 390,584 L 400,571 L 410,584" stroke="#000000" stroke-width="4.0" fill="none"/>
<circle cx="400.0" cy="580.0" r="2.0" stroke="#b20000" stroke-width="4.0" fill="#b20000" />
</g>
<g>
<circle cx="636.0" cy="620.0" r="9.0" stroke="#000000" stroke-width="4.0" fill="none" />
<circle cx="636.0" cy="620.0" r="15.0" stroke="#000000" stroke-width="4.0" fill="none" />
<text text-anchor="start" x="665.0" y="629.0" fill="#000000" style="font-size:24px"><tspan style="font-style:italic;">B</tspan></text>
<circle cx="620.0" cy="620.0" r="2.0" stroke="#0000b2" stroke-width="4.0" fill="#0000b2" />
</g>
<g>
<circle cx="520.0" cy="580.0" r="2.0" stroke="#b20000" stroke-width="4.0" fill="#b20000" />
</g>
<g>
<path d="M 593,641 L 593,666 L 607,666 L 607,641 Z" stroke="#000000" stroke-width="4.0" fill="none"/>
<circle cx="600.0" cy="640.0" r="2.0" stroke="#b20000" stroke-width="4.0" fill="#b20000" />
</g>
<g>
<path d="M 450,680 L 450,640 L 470,640 L 470,680 Z" stroke="#000000" stroke-width="4.0" fill="none"/>
<circle cx="440.0" cy="660.0" r="2.0" stroke="#0000b2" stroke-width="4.0" fill="#0000b2" />
<circle cx="480.0" cy="660.0" r="2.0" stroke="#0000b2" stroke-width="4.0" fill="#0000b2" />
<circle cx="440.0" cy="700.0" r="2.0" stroke="#b20000" stroke-width="4.0" fill="#b20000" />
<circle cx="480.0" cy="700.0" r="2.0" stroke="#b20000" stroke-width="4.0" fill="#b20000" />
</g>
<g>
<path d="M 450,780 L 450,740 L 470,740 L 470,780 Z" stroke="#000000" stroke-width="4.0" fill="none"/>
<circle cx="440.0" cy="760.0" r="2.0" stroke="#0000b2" stroke-width="4.0" fill="#0000b2" />
<circle cx="480.0" cy="760.0" r="2.0" stroke="#0000b2" stroke-width="4.0" fill="#0000b2" />
<circle cx="440.0" cy="800.0" r="2.0" stroke="#b20000" stroke-width="4.0" fill="#b20000" />
<circle cx="480.0" cy="800.0" r="2.0" stroke="#b20000" stroke-width="4.0" fill="#b20000" />
</g>
<g>
<circle cx="540.0" cy="680.0" r="2.0" stroke="#b20000" stroke-width="4.0" fill="#b20000" />
</g>
<g>
<circle cx="540.0" cy="780.0" r="2.0" stroke="#b20000" stroke-width="4.0" fill="#b20000" />
</g>
<g>
<path d="M 390,684 L 400,671 L 410,684" stroke="#000000" stroke-width="4.0" fill="none"/>
<circle cx="400.0" cy="680.0" r="2.0" stroke="#b20000" stroke-width="4.0" fill="#b20000" />
</g>
<g>
<path d="M 390,784 L 400,771 L 410,784" stroke="#000000" stroke-width="4.0" fill="none"/>
<circle cx="400.0" cy="780.0" r="2.0" stroke="#b20000" stroke-width="4.0" fill="#b20000" />
</g>
<g>
<path d="M 850,580 L 850,540 L 870,540 L 870,580 Z" stroke="#000000" stroke-width="4.0" fill="none"/>
<circle cx="840.0" cy="560.0" r="2.0" stroke="#0000b2" stroke-width="4.0" fill="#0000b2" />
<circle cx="880.0" cy="560.0" r="2.0" stroke="#0000b2" stroke-width="4.0" fill="#0000b2" />
<circle cx="840.0" cy="600.0" r="2.0" stroke="#b20000" stroke-width="4.0" fill="#b20000" />
<circle cx="880.0" cy="600.0" r="2.0" stroke="#b20000" stroke-width="4.0" fill="#b20000" />
</g>
<g>
<circle cx="1036.0" cy="400.0" r="9.0" stroke="#000000" stroke-width="4.0" fill="none" />
<circle cx="1036.0" cy="400.0" r="15.0" stroke="#000000" stroke-width="4.0" fill="none" />
<text text-anchor="start" x="1065.0" y="409.0" fill="#000000" style="font-size:24px"><tspan style="font-style:italic;">C</tspan></text>
<circle cx="1020.0" cy="400.0" r="2.0" stroke="#0000b2" stroke-width="4.0" fill="#0000b2" />
</g>
<g>
<path d="M 790,584 L 800,571 L 810,584" stroke="#000000" stroke-width="4.0" fill="none"/>
<circle cx="800.0" cy="580.0" r="2.0" stroke="#b20000" stroke-width="4.0" fill="#b20000" />
</g>
<g>
<circle cx="1036.0" cy="620.0" r="9.0" stroke="#000000" stroke-width="4.0" fill="none" />
<circle cx="1036.0" cy="620.0" r="15.0" stroke="#000000" stroke-width="4.0" fill="none" />
<text text-anchor="start" x="1065.0" y="629.0" fill="#000000" style="font-size:24px"><tspan style="font-style:italic;">D</tspan></text>
<circle cx="1020.0" cy="620.0" r="2.0" stroke="#0000b2" stroke-width="4.0" fill="#0000b2" />
</g>
<g>
<circle cx="920.0" cy="580.0" r="2.0" stroke="#b20000" stroke-width="4.0" fill="#b20000" />
</g>
<g>
<path d="M 993,641 L 993,666 L 1007,666 L 1007,641 Z" stroke="#000000" stroke-width="4.0" fill="none"/>
<circle cx="1000.0" cy="640.0" r="2.0" stroke="#b20000" stroke-width="4.0" fill="#b20000" />
</g>
<g>
<path d="M 850,680 L 850,640 L 870,640 L 870,680 Z" stroke="#000000" stroke-width="4.0" fill="none"/>
<circle cx="840.0" cy="660.0" r="2.0" stroke="#0000b2" stroke-width="4.0" fill="#0000b2" />
<circle cx="880.0" cy="660.0" r="2.0" stroke="#0000b2" stroke-width="4.0" fill="#0000b2" />
<circle cx="840.0" cy="700.0" r="2.0" stroke="#b20000" stroke-width="4.0" fill="#b20000" />
<circle cx="880.0" cy="700.0" r="2.0" stroke="#b20000" stroke-width="4.0" fill="#b20000" />
</g>
<g>
<path d="M 850,780 L 850,740 L 870,740 L 870,780 Z" stroke="#000000" stroke-width="4.0" fill="none"/>
<circle cx="840.0" cy="760.0" r="2.0" stroke="#0000b2" stroke-width="4.0" fill="#0000b2" />
<circle cx="880.0" cy="760.0" r="2.0" stroke="#0000b2" stroke-width="4.0" fill="#0000b2" />
<circle cx="840.0" cy="800.0" r="2.0" stroke="#b20000" stroke-width="4.0" fill="#b20000" />
<circle cx="880.0" cy="800.0" r="2.0" stroke="#b20000" stroke-width="4.0" fill="#b20000" />
</g>
<g>
<circle cx="940.0" cy="680.0" r="2.0" stroke="#b20000" stroke-width="4.0" fill="#b20000" />
</g>
<g>
<circle cx="940.0" cy="780.0" r="2.0" stroke="#b20000" stroke-width="4.0" fill="#b20000" />
</g>
<g>
<path d="M 930,430 L 881,430 L 881,370 L 930,370 C 940,370 960,380 959,400 C 959,420 940,430 930,430 Z" stroke="#000000" stroke-width="4.0" fill="none"/>
<circle cx="880.0" cy="380.0" r="2.0" stroke="#0000b2" stroke-width="4.0" fill="#0000b2" />
<circle cx="880.0" cy="400.0" r="2.0" stroke="#0000b2" stroke-width="4.0" fill="#0000b2" />
<circle cx="880.0" cy="420.0" r="2.0" stroke="#0000b2" stroke-width="4.0" fill="#0000b2" />
<circle cx="960.0" cy="400.0" r="2.0" stroke="#b20000" stroke-width="4.0" fill="#b20000" />
</g>
</g>
</svg>