<?xml version="1.0" encoding="UTF-8" standalone="no"?>
<!-- Created with Digital by H.Neemann -->
<!-- created: Mon Mar 18 00:32:01 BRT 2024 -->

<svg
   xmlns:svg="http://www.w3.org/2000/svg"
   xmlns="http://www.w3.org/2000/svg"
   width="189.6mm"
   height="133.05mm"
   viewBox="458 -43 1264 887">
<g stroke-linecap="square">
<path d="M 1140,60 L 1150,60 L 1160,60" stroke="#000000" stroke-width="4.0" fill="none"/>
<path d="M 1160,80 L 1150,80" stroke="#000000" stroke-width="4.0" fill="none"/>
<path d="M 1160,100 L 1150,100" stroke="#000000" stroke-width="4.0" fill="none"/>
<path d="M 1240,380 L 1250,380 L 1260,380" stroke="#000000" stroke-width="4.0" fill="none"/>
<path d="M 1260,400 L 1250,400" stroke="#000000" stroke-width="4.0" fill="none"/>
<path d="M 1260,420 L 1250,420" stroke="#000000" stroke-width="4.0" fill="none"/>
<path d="M 1260,440 L 1250,440" stroke="#000000" stroke-width="4.0" fill="none"/>
<path d="M 1260,460 L 1250,460" stroke="#000000" stroke-width="4.0" fill="none"/>
<path d="M 1240,620 L 1250,620 L 1260,620" stroke="#000000" stroke-width="4.0" fill="none"/>
<path d="M 1260,640 L 1250,640" stroke="#000000" stroke-width="4.0" fill="none"/>
<path d="M 1260,660 L 1250,660" stroke="#000000" stroke-width="4.0" fill="none"/>
<path d="M 1260,680 L 1250,680" stroke="#000000" stroke-width="4.0" fill="none"/>
<path d="M 1260,700 L 1250,700" stroke="#000000" stroke-width="4.0" fill="none"/>
<path d="M 1381,260 L 1381,269" stroke="#000000" stroke-width="4.0" fill="none"/>
<path d="M 1381,340 L 1381,331" stroke="#000000" stroke-width="4.0" fill="none"/>
<path d="M 1381,380 L 1381,389" stroke="#000000" stroke-width="4.0" fill="none"/>
<path d="M 1381,460 L 1381,451" stroke="#000000" stroke-width="4.0" fill="none"/>
<path d="M 1381,500 L 1381,509" stroke="#000000" stroke-width="4.0" fill="none"/>
<path d="M 1381,580 L 1381,571" stroke="#000000" stroke-width="4.0" fill="none"/>
<path d="M 1381,620 L 1381,629" stroke="#000000" stroke-width="4.0" fill="none"/>
<path d="M 1381,700 L 1381,691" stroke="#000000" stroke-width="4.0" fill="none"/>
<path d="M 1521,460 L 1521,469" stroke="#000000" stroke-width="4.0" fill="none"/>
<path d="M 1521,540 L 1521,531" stroke="#000000" stroke-width="4.0" fill="none"/>
<path d="M 1660,380 L 1670,380 L 1680,380" stroke="#000000" stroke-width="4.0" fill="none"/>
<path d="M 1660,400 L 1670,400" stroke="#000000" stroke-width="4.0" fill="none"/>
<path d="M 1660,420 L 1670,420" stroke="#000000" stroke-width="4.0" fill="none"/>
<path d="M 1660,440 L 1670,440" stroke="#000000" stroke-width="4.0" fill="none"/>
<path d="M 1660,460 L 1670,460" stroke="#000000" stroke-width="4.0" fill="none"/>
<path d="M 1660,480 L 1670,480" stroke="#000000" stroke-width="4.0" fill="none"/>
<path d="M 1660,500 L 1670,500" stroke="#000000" stroke-width="4.0" fill="none"/>
<path d="M 1660,520 L 1670,520" stroke="#000000" stroke-width="4.0" fill="none"/>
<path d="M 1660,540 L 1670,540" stroke="#000000" stroke-width="4.0" fill="none"/>
<path d="M 1660,560 L 1670,560" stroke="#000000" stroke-width="4.0" fill="none"/>
<path d="M 1660,580 L 1670,580" stroke="#000000" stroke-width="4.0" fill="none"/>
<path d="M 1660,600 L 1670,600" stroke="#000000" stroke-width="4.0" fill="none"/>
<path d="M 1660,620 L 1670,620" stroke="#000000" stroke-width="4.0" fill="none"/>
<path d="M 1660,640 L 1670,640" stroke="#000000" stroke-width="4.0" fill="none"/>
<path d="M 1660,660 L 1670,660" stroke="#000000" stroke-width="4.0" fill="none"/>
<path d="M 1660,680 L 1670,680" stroke="#000000" stroke-width="4.0" fill="none"/>
<path d="M 1660,700 L 1670,700" stroke="#000000" stroke-width="4.0" fill="none"/>
<path d="M 1660,720 L 1670,720" stroke="#000000" stroke-width="4.0" fill="none"/>
<path d="M 1660,740 L 1670,740" stroke="#000000" stroke-width="4.0" fill="none"/>
<path d="M 1660,760 L 1670,760" stroke="#000000" stroke-width="4.0" fill="none"/>
<path d="M 1660,780 L 1670,780" stroke="#000000" stroke-width="4.0" fill="none"/>
<path d="M 1660,800 L 1670,800" stroke="#000000" stroke-width="4.0" fill="none"/>
<path d="M 1660,820 L 1670,820" stroke="#000000" stroke-width="4.0" fill="none"/>
<path d="M 1660,840 L 1670,840" stroke="#000000" stroke-width="4.0" fill="none"/>
<path d="M 560,320 L 580,320 L 660,320" stroke="#0000b2" stroke-width="4.0" fill="none"/>
<path d="M 840,320 L 960,320" stroke="#0000b2" stroke-width="4.0" fill="none"/>
<path d="M 1260,640 L 1280,640 L 1360,640" stroke="#0000b2" stroke-width="4.0" fill="none"/>
<path d="M 1620,620 L 1620,640 L 1660,640" stroke="#0000b2" stroke-width="4.0" fill="none"/>
<path d="M 1280,400 L 1280,260 L 1380,260" stroke="#0000b2" stroke-width="4.0" fill="none"/>
<path d="M 1620,560 L 1620,580 L 1660,580" stroke="#0000b2" stroke-width="4.0" fill="none"/>
<path d="M 1300,620 L 1300,520 L 1380,520" stroke="#0000b2" stroke-width="4.0" fill="none"/>
<path d="M 1620,820 L 1620,840 L 1660,840" stroke="#0000b2" stroke-width="4.0" fill="none"/>
<path d="M 620,140 L 660,140" stroke="#0000b2" stroke-width="4.0" fill="none"/>
<path d="M 1320,440 L 1320,460 L 1360,460" stroke="#0000b2" stroke-width="4.0" fill="none"/>
<path d="M 1620,440 L 1620,460 L 1660,460" stroke="#0000b2" stroke-width="4.0" fill="none"/>
<path d="M 1620,760 L 1620,780 L 1660,780" stroke="#0000b2" stroke-width="4.0" fill="none"/>
<path d="M 620,400 L 660,400" stroke="#0000b2" stroke-width="4.0" fill="none"/>
<path d="M 1260,400 L 1280,400 L 1360,400" stroke="#0000b2" stroke-width="4.0" fill="none"/>
<path d="M 620,80 L 660,80" stroke="#0000b2" stroke-width="4.0" fill="none"/>
<path d="M 840,80 L 860,80 L 860,100 L 900,100" stroke="#0000b2" stroke-width="4.0" fill="none"/>
<path d="M 1160,80 L 1220,80" stroke="#0000b2" stroke-width="4.0" fill="none"/>
<path d="M 1620,700 L 1620,720 L 1660,720" stroke="#0000b2" stroke-width="4.0" fill="none"/>
<path d="M 620,340 L 660,340" stroke="#0000b2" stroke-width="4.0" fill="none"/>
<path d="M 840,340 L 860,340 L 860,360 L 900,360" stroke="#0000b2" stroke-width="4.0" fill="none"/>
<path d="M 840,20 L 940,20 L 940,60 L 980,60 L 980,200 L 1180,200 L 1180,380 L 1240,380" stroke="#0000b2" stroke-width="4.0" fill="none"/>
<path d="M 1260,660 L 1340,660 L 1340,580 L 1380,580" stroke="#0000b2" stroke-width="4.0" fill="none"/>
<path d="M 1460,660 L 1500,660 L 1500,540 L 1520,540" stroke="#0000b2" stroke-width="4.0" fill="none"/>
<path d="M 1620,640 L 1620,660 L 1660,660" stroke="#0000b2" stroke-width="4.0" fill="none"/>
<path d="M 560,280 L 580,280 L 660,280" stroke="#0000b2" stroke-width="4.0" fill="none"/>
<path d="M 840,280 L 920,280 L 920,220 L 1160,220 L 1160,620 L 1240,620" stroke="#0000b2" stroke-width="4.0" fill="none"/>
<path d="M 1300,380 L 1300,280 L 1380,280" stroke="#0000b2" stroke-width="4.0" fill="none"/>
<path d="M 1620,580 L 1620,600 L 1660,600" stroke="#0000b2" stroke-width="4.0" fill="none"/>
<path d="M 1460,540 L 1480,540 L 1480,520 L 1520,520 L 1524,520" stroke="#0000b2" stroke-width="4.0" fill="none"/>
<path d="M 1620,520 L 1620,540 L 1660,540" stroke="#0000b2" stroke-width="4.0" fill="none"/>
<path d="M 1620,780 L 1620,800 L 1660,800" stroke="#0000b2" stroke-width="4.0" fill="none"/>
<path d="M 620,100 L 660,100" stroke="#0000b2" stroke-width="4.0" fill="none"/>
<path d="M 940,100 L 1100,100 L 1100,140 L 1220,140" stroke="#0000b2" stroke-width="4.0" fill="none"/>
<path d="M 1160,100 L 1220,100" stroke="#0000b2" stroke-width="4.0" fill="none"/>
<path d="M 1260,420 L 1340,420 L 1340,320 L 1380,320" stroke="#0000b2" stroke-width="4.0" fill="none"/>
<path d="M 1460,420 L 1480,420 L 1480,480 L 1520,480 L 1524,480" stroke="#0000b2" stroke-width="4.0" fill="none"/>
<path d="M 1620,400 L 1620,420 L 1660,420" stroke="#0000b2" stroke-width="4.0" fill="none"/>
<path d="M 1620,720 L 1620,740 L 1660,740" stroke="#0000b2" stroke-width="4.0" fill="none"/>
<path d="M 620,360 L 660,360" stroke="#0000b2" stroke-width="4.0" fill="none"/>
<path d="M 940,360 L 1120,360 L 1120,120 L 1220,120" stroke="#0000b2" stroke-width="4.0" fill="none"/>
<path d="M 1020,40 L 1060,40" stroke="#0000b2" stroke-width="4.0" fill="none"/>
<path d="M 1340,660 L 1340,680 L 1360,680" stroke="#0000b2" stroke-width="4.0" fill="none"/>
<path d="M 1260,680 L 1320,680 L 1320,560 L 1380,560" stroke="#0000b2" stroke-width="4.0" fill="none"/>
<path d="M 1620,660 L 1620,680 L 1660,680" stroke="#0000b2" stroke-width="4.0" fill="none"/>
<path d="M 620,300 L 660,300" stroke="#0000b2" stroke-width="4.0" fill="none"/>
<path d="M 1040,300 L 1080,300 L 1080,80" stroke="#0000b2" stroke-width="4.0" fill="none"/>
<path d="M 1460,300 L 1500,300 L 1500,460 L 1520,460" stroke="#0000b2" stroke-width="4.0" fill="none"/>
<path d="M 1260,620 L 1300,620 L 1360,620" stroke="#0000b2" stroke-width="4.0" fill="none"/>
<path d="M 1620,600 L 1620,620 L 1660,620" stroke="#0000b2" stroke-width="4.0" fill="none"/>
<path d="M 1620,540 L 1620,560 L 1660,560" stroke="#0000b2" stroke-width="4.0" fill="none"/>
<path d="M 1280,640 L 1280,500 L 1380,500" stroke="#0000b2" stroke-width="4.0" fill="none"/>
<path d="M 1600,500 L 1620,500 L 1660,500" stroke="#0000b2" stroke-width="4.0" fill="none"/>
<path d="M 1620,800 L 1620,820 L 1660,820" stroke="#0000b2" stroke-width="4.0" fill="none"/>
<path d="M 620,120 L 660,120" stroke="#0000b2" stroke-width="4.0" fill="none"/>
<path d="M 1340,420 L 1340,440 L 1360,440" stroke="#0000b2" stroke-width="4.0" fill="none"/>
<path d="M 1260,440 L 1320,440 L 1320,340 L 1380,340" stroke="#0000b2" stroke-width="4.0" fill="none"/>
<path d="M 1620,420 L 1620,440 L 1660,440" stroke="#0000b2" stroke-width="4.0" fill="none"/>
<path d="M 1620,740 L 1620,760 L 1660,760" stroke="#0000b2" stroke-width="4.0" fill="none"/>
<path d="M 620,380 L 660,380" stroke="#0000b2" stroke-width="4.0" fill="none"/>
<path d="M 1260,380 L 1300,380 L 1360,380" stroke="#0000b2" stroke-width="4.0" fill="none"/>
<path d="M 1680,380 L 1720,380 L 1720,0 L 1040,0 L 1040,80 L 1060,80" stroke="#0000b2" stroke-width="4.0" fill="none"/>
<path d="M 840,60 L 880,60 L 880,240 L 940,240 L 940,280 L 960,280" stroke="#0000b2" stroke-width="4.0" fill="none"/>
<path d="M 1160,60 L 1220,60" stroke="#0000b2" stroke-width="4.0" fill="none"/>
<path d="M 1100,60 L 1140,60" stroke="#0000b2" stroke-width="4.0" fill="none"/>
<path d="M 1320,680 L 1320,700 L 1360,700" stroke="#0000b2" stroke-width="4.0" fill="none"/>
<path d="M 1620,680 L 1620,700 L 1660,700" stroke="#0000b2" stroke-width="4.0" fill="none"/>
<path d="M 580,200 L 580,280" stroke="#0000b2" stroke-width="4.0" fill="none"/>
<path d="M 580,320 L 580,360 L 500,360 L 500,60 L 660,60" stroke="#0000b2" stroke-width="4.0" fill="none"/>
<path d="M 1660,400 L 1620,400 L 1620,380 L 1660,380" stroke="#0000b2" stroke-width="4.0" fill="none"/>
<path d="M 1660,520 L 1620,520 L 1620,500 L 1620,480 L 1660,480" stroke="#0000b2" stroke-width="4.0" fill="none"/>
<path d="M 1620,460 L 1620,480" stroke="#0000b2" stroke-width="4.0" fill="none"/>
<path d="M 840,300 L 900,300 L 900,220 L 600,220 L 600,40 L 660,40" stroke="#0000b2" stroke-width="4.0" fill="none"/>
<path d="M 1220,160 L 920,160 L 920,200 L 580,200 L 580,20 L 660,20" stroke="#0000b2" stroke-width="4.0" fill="none"/>
<g>
<circle cx="580.0" cy="320.0" r="4.0" stroke="#0000b2" stroke-width="4.0" fill="#0000b2" />
<circle cx="1280.0" cy="640.0" r="4.0" stroke="#0000b2" stroke-width="4.0" fill="#0000b2" />
<circle cx="1620.0" cy="640.0" r="4.0" stroke="#0000b2" stroke-width="4.0" fill="#0000b2" />
<circle cx="1620.0" cy="580.0" r="4.0" stroke="#0000b2" stroke-width="4.0" fill="#0000b2" />
<circle cx="580.0" cy="200.0" r="4.0" stroke="#0000b2" stroke-width="4.0" fill="#0000b2" />
<circle cx="1620.0" cy="520.0" r="4.0" stroke="#0000b2" stroke-width="4.0" fill="#0000b2" />
<circle cx="1620.0" cy="460.0" r="4.0" stroke="#0000b2" stroke-width="4.0" fill="#0000b2" />
<circle cx="1620.0" cy="780.0" r="4.0" stroke="#0000b2" stroke-width="4.0" fill="#0000b2" />
<circle cx="1280.0" cy="400.0" r="4.0" stroke="#0000b2" stroke-width="4.0" fill="#0000b2" />
<circle cx="1620.0" cy="400.0" r="4.0" stroke="#0000b2" stroke-width="4.0" fill="#0000b2" />
<circle cx="1620.0" cy="720.0" r="4.0" stroke="#0000b2" stroke-width="4.0" fill="#0000b2" />
<circle cx="1340.0" cy="660.0" r="4.0" stroke="#0000b2" stroke-width="4.0" fill="#0000b2" />
<circle cx="1620.0" cy="660.0" r="4.0" stroke="#0000b2" stroke-width="4.0" fill="#0000b2" />
<circle cx="580.0" cy="280.0" r="4.0" stroke="#0000b2" stroke-width="4.0" fill="#0000b2" />
<circle cx="1620.0" cy="600.0" r="4.0" stroke="#0000b2" stroke-width="4.0" fill="#0000b2" />
<circle cx="1620.0" cy="540.0" r="4.0" stroke="#0000b2" stroke-width="4.0" fill="#0000b2" />
<circle cx="1620.0" cy="480.0" r="4.0" stroke="#0000b2" stroke-width="4.0" fill="#0000b2" />
<circle cx="1620.0" cy="800.0" r="4.0" stroke="#0000b2" stroke-width="4.0" fill="#0000b2" />
<circle cx="1340.0" cy="420.0" r="4.0" stroke="#0000b2" stroke-width="4.0" fill="#0000b2" />
<circle cx="1620.0" cy="420.0" r="4.0" stroke="#0000b2" stroke-width="4.0" fill="#0000b2" />
<circle cx="1620.0" cy="740.0" r="4.0" stroke="#0000b2" stroke-width="4.0" fill="#0000b2" />
<circle cx="1320.0" cy="680.0" r="4.0" stroke="#0000b2" stroke-width="4.0" fill="#0000b2" />
<circle cx="1620.0" cy="680.0" r="4.0" stroke="#0000b2" stroke-width="4.0" fill="#0000b2" />
<circle cx="1300.0" cy="620.0" r="4.0" stroke="#0000b2" stroke-width="4.0" fill="#0000b2" />
<circle cx="1620.0" cy="620.0" r="4.0" stroke="#0000b2" stroke-width="4.0" fill="#0000b2" />
<circle cx="1620.0" cy="560.0" r="4.0" stroke="#0000b2" stroke-width="4.0" fill="#0000b2" />
<circle cx="1620.0" cy="500.0" r="4.0" stroke="#0000b2" stroke-width="4.0" fill="#0000b2" />
<circle cx="1620.0" cy="820.0" r="4.0" stroke="#0000b2" stroke-width="4.0" fill="#0000b2" />
<circle cx="1320.0" cy="440.0" r="4.0" stroke="#0000b2" stroke-width="4.0" fill="#0000b2" />
<circle cx="1620.0" cy="440.0" r="4.0" stroke="#0000b2" stroke-width="4.0" fill="#0000b2" />
<circle cx="1620.0" cy="760.0" r="4.0" stroke="#0000b2" stroke-width="4.0" fill="#0000b2" />
<circle cx="1300.0" cy="380.0" r="4.0" stroke="#0000b2" stroke-width="4.0" fill="#0000b2" />
<circle cx="1620.0" cy="700.0" r="4.0" stroke="#0000b2" stroke-width="4.0" fill="#0000b2" />
</g>
<g>
<path d="M 661,266 L 839,266 L 839,414 L 661,414 Z" stroke="#ffffb4" stroke-width="0.0" fill="#ffffb4" fill-opacity="0.7843137254901961"/>
<path d="M 661,266 L 839,266 L 839,414 L 661,414 Z" stroke="#000000" stroke-width="4.0" fill="none"/>
<text text-anchor="start" x="664.0" y="286.75" fill="#808080" style="font-size:18px">relogio</text>
<text text-anchor="start" x="664.0" y="306.75" fill="#808080" style="font-size:18px">conta</text>
<text text-anchor="start" x="664.0" y="326.75" fill="#808080" style="font-size:18px">inicializa</text>
<text text-anchor="start" x="664.0" y="346.75" fill="#808080" style="font-size:18px">upix</text>
<text text-anchor="start" x="664.0" y="366.75" fill="#808080" style="font-size:18px">inisinc</text>
<text text-anchor="start" x="664.0" y="386.75" fill="#808080" style="font-size:18px">fimsinc</text>
<text text-anchor="start" x="664.0" y="406.75" fill="#808080" style="font-size:18px">fimcont</text>
<text text-anchor="end" x="836.0" y="286.75" fill="#808080" style="font-size:18px">contagem</text>
<text text-anchor="end" x="836.0" y="306.75" fill="#808080" style="font-size:18px">fim</text>
<text text-anchor="end" x="836.0" y="326.75" fill="#808080" style="font-size:18px">mostra</text>
<text text-anchor="end" x="836.0" y="346.75" fill="#808080" style="font-size:18px">sinc</text>
<text text-anchor="middle" x="750.0" y="431.5" fill="#808080" style="font-size:18px">temporiza</text>
<circle cx="660.0" cy="280.0" r="2.0" stroke="#0000b2" stroke-width="4.0" fill="#0000b2" />
<circle cx="660.0" cy="300.0" r="2.0" stroke="#0000b2" stroke-width="4.0" fill="#0000b2" />
<circle cx="660.0" cy="320.0" r="2.0" stroke="#0000b2" stroke-width="4.0" fill="#0000b2" />
<circle cx="660.0" cy="340.0" r="2.0" stroke="#0000b2" stroke-width="4.0" fill="#0000b2" />
<circle cx="660.0" cy="360.0" r="2.0" stroke="#0000b2" stroke-width="4.0" fill="#0000b2" />
<circle cx="660.0" cy="380.0" r="2.0" stroke="#0000b2" stroke-width="4.0" fill="#0000b2" />
<circle cx="660.0" cy="400.0" r="2.0" stroke="#0000b2" stroke-width="4.0" fill="#0000b2" />
<circle cx="840.0" cy="280.0" r="2.0" stroke="#b20000" stroke-width="4.0" fill="#b20000" />
<circle cx="840.0" cy="300.0" r="2.0" stroke="#b20000" stroke-width="4.0" fill="#b20000" />
<circle cx="840.0" cy="320.0" r="2.0" stroke="#b20000" stroke-width="4.0" fill="#b20000" />
<circle cx="840.0" cy="340.0" r="2.0" stroke="#b20000" stroke-width="4.0" fill="#b20000" />
</g>
<g>
<path d="M 528,305 L 558,305 L 558,335 L 528,335 Z" stroke="#000000" stroke-width="4.0" fill="none"/>
<text text-anchor="start" x="532.0" y="320.5" fill="#808080" style="font-size:18px">R</text>
<circle cx="560.0" cy="320.0" r="2.0" stroke="#b20000" stroke-width="4.0" fill="#b20000" />
</g>
<g>
<path d="M 529,265 L 559,265 L 559,295 L 529,295 Z" stroke="#000000" stroke-width="4.0" fill="none"/>
<path d="M 535,285 L 540,285 L 540,275 L 545,275 L 545,285 L 550,285 L 550,275 L 555,275" stroke="#000000" stroke-width="2.0" fill="none"/>
<circle cx="560.0" cy="280.0" r="2.0" stroke="#b20000" stroke-width="4.0" fill="#b20000" />
</g>
<g>
<text text-anchor="end" x="617.0" y="309.0" fill="#000000" style="font-size:24px">1</text>
<circle cx="620.0" cy="300.0" r="2.0" stroke="#b20000" stroke-width="4.0" fill="#b20000" />
</g>
<g>
<text text-anchor="end" x="617.0" y="349.0" fill="#000000" style="font-size:24px">639</text>
<circle cx="620.0" cy="340.0" r="2.0" stroke="#b20000" stroke-width="4.0" fill="#b20000" />
</g>
<g>
<text text-anchor="end" x="617.0" y="369.0" fill="#000000" style="font-size:24px">655</text>
<circle cx="620.0" cy="360.0" r="2.0" stroke="#b20000" stroke-width="4.0" fill="#b20000" />
</g>
<g>
<text text-anchor="end" x="617.0" y="389.0" fill="#000000" style="font-size:24px">751</text>
<circle cx="620.0" cy="380.0" r="2.0" stroke="#b20000" stroke-width="4.0" fill="#b20000" />
</g>
<g>
<text text-anchor="end" x="617.0" y="409.0" fill="#000000" style="font-size:24px">799</text>
<circle cx="620.0" cy="400.0" r="2.0" stroke="#b20000" stroke-width="4.0" fill="#b20000" />
</g>
<g>
<path d="M 661,6 L 839,6 L 839,154 L 661,154 Z" stroke="#ffffb4" stroke-width="0.0" fill="#ffffb4" fill-opacity="0.7843137254901961"/>
<path d="M 661,6 L 839,6 L 839,154 L 661,154 Z" stroke="#000000" stroke-width="4.0" fill="none"/>
<text text-anchor="start" x="664.0" y="26.75" fill="#808080" style="font-size:18px">relogio</text>
<text text-anchor="start" x="664.0" y="46.75" fill="#808080" style="font-size:18px">conta</text>
<text text-anchor="start" x="664.0" y="66.75" fill="#808080" style="font-size:18px">inicializa</text>
<text text-anchor="start" x="664.0" y="86.75" fill="#808080" style="font-size:18px">upix</text>
<text text-anchor="start" x="664.0" y="106.75" fill="#808080" style="font-size:18px">inisinc</text>
<text text-anchor="start" x="664.0" y="126.75" fill="#808080" style="font-size:18px">fimsinc</text>
<text text-anchor="start" x="664.0" y="146.75" fill="#808080" style="font-size:18px">fimcont</text>
<text text-anchor="end" x="836.0" y="26.75" fill="#808080" style="font-size:18px">contagem</text>
<text text-anchor="end" x="836.0" y="46.75" fill="#808080" style="font-size:18px">fim</text>
<text text-anchor="end" x="836.0" y="66.75" fill="#808080" style="font-size:18px">mostra</text>
<text text-anchor="end" x="836.0" y="86.75" fill="#808080" style="font-size:18px">sinc</text>
<text text-anchor="middle" x="750.0" y="171.5" fill="#808080" style="font-size:18px">temporiza</text>
<circle cx="660.0" cy="20.0" r="2.0" stroke="#0000b2" stroke-width="4.0" fill="#0000b2" />
<circle cx="660.0" cy="40.0" r="2.0" stroke="#0000b2" stroke-width="4.0" fill="#0000b2" />
<circle cx="660.0" cy="60.0" r="2.0" stroke="#0000b2" stroke-width="4.0" fill="#0000b2" />
<circle cx="660.0" cy="80.0" r="2.0" stroke="#0000b2" stroke-width="4.0" fill="#0000b2" />
<circle cx="660.0" cy="100.0" r="2.0" stroke="#0000b2" stroke-width="4.0" fill="#0000b2" />
<circle cx="660.0" cy="120.0" r="2.0" stroke="#0000b2" stroke-width="4.0" fill="#0000b2" />
<circle cx="660.0" cy="140.0" r="2.0" stroke="#0000b2" stroke-width="4.0" fill="#0000b2" />
<circle cx="840.0" cy="20.0" r="2.0" stroke="#b20000" stroke-width="4.0" fill="#b20000" />
<circle cx="840.0" cy="40.0" r="2.0" stroke="#b20000" stroke-width="4.0" fill="#b20000" />
<circle cx="840.0" cy="60.0" r="2.0" stroke="#b20000" stroke-width="4.0" fill="#b20000" />
<circle cx="840.0" cy="80.0" r="2.0" stroke="#b20000" stroke-width="4.0" fill="#b20000" />
</g>
<g>
<text text-anchor="end" x="617.0" y="89.0" fill="#000000" style="font-size:24px">479</text>
<circle cx="620.0" cy="80.0" r="2.0" stroke="#b20000" stroke-width="4.0" fill="#b20000" />
</g>
<g>
<text text-anchor="end" x="617.0" y="109.0" fill="#000000" style="font-size:24px">489</text>
<circle cx="620.0" cy="100.0" r="2.0" stroke="#b20000" stroke-width="4.0" fill="#b20000" />
</g>
<g>
<text text-anchor="end" x="617.0" y="129.0" fill="#000000" style="font-size:24px">491</text>
<circle cx="620.0" cy="120.0" r="2.0" stroke="#b20000" stroke-width="4.0" fill="#b20000" />
</g>
<g>
<text text-anchor="end" x="617.0" y="149.0" fill="#000000" style="font-size:24px">524</text>
<circle cx="620.0" cy="140.0" r="2.0" stroke="#b20000" stroke-width="4.0" fill="#b20000" />
</g>
<g>
<path d="M 1221,50 L 1279,50 L 1279,170 L 1221,170 Z" stroke="#000000" stroke-width="4.0" fill="none"/>
<text text-anchor="start" x="1224.0" y="66.75" fill="#808080" style="font-size:18px">R</text>
<text text-anchor="start" x="1224.0" y="86.75" fill="#808080" style="font-size:18px">G</text>
<text text-anchor="start" x="1224.0" y="106.75" fill="#808080" style="font-size:18px">B</text>
<text text-anchor="start" x="1224.0" y="126.75" fill="#808080" style="font-size:18px">H</text>
<text text-anchor="start" x="1224.0" y="146.75" fill="#808080" style="font-size:18px">V</text>
<path d="M 1221,167 L 1228,160 L 1221,153" stroke="#000000" stroke-width="2.0" fill="none"/>
<text text-anchor="start" x="1231.0" y="166.75" fill="#808080" style="font-size:18px">C</text>
<text text-anchor="middle" x="1250.0" y="187.5" fill="#808080" style="font-size:18px">VGA</text>
<circle cx="1220.0" cy="60.0" r="2.0" stroke="#0000b2" stroke-width="4.0" fill="#0000b2" />
<circle cx="1220.0" cy="80.0" r="2.0" stroke="#0000b2" stroke-width="4.0" fill="#0000b2" />
<circle cx="1220.0" cy="100.0" r="2.0" stroke="#0000b2" stroke-width="4.0" fill="#0000b2" />
<circle cx="1220.0" cy="120.0" r="2.0" stroke="#0000b2" stroke-width="4.0" fill="#0000b2" />
<circle cx="1220.0" cy="140.0" r="2.0" stroke="#0000b2" stroke-width="4.0" fill="#0000b2" />
<circle cx="1220.0" cy="160.0" r="2.0" stroke="#0000b2" stroke-width="4.0" fill="#0000b2" />
</g>
<g>
<text text-anchor="start" x="462.0" y="-23.0" fill="#000000" style="font-size:24px">640x480 60Hz, 25.175MHz, 640, 16, 96, 48, 480, 11, 2, 31</text>
<path d="M 460,-20 L 1340,-20 L 1340,480 L 460,480 Z" stroke-dasharray="4.0,4.0" stroke="#000000" stroke-width="1.0" fill="none"/>
</g>
<g>
<path d="M 901,88 L 919,100 L 901,112 Z" stroke="#000000" stroke-width="4.0" fill="none"/>
<circle cx="930.0" cy="100.0" r="9.0" stroke="#000000" stroke-width="4.0" fill="none" />
<circle cx="900.0" cy="100.0" r="2.0" stroke="#0000b2" stroke-width="4.0" fill="#0000b2" />
<circle cx="940.0" cy="100.0" r="2.0" stroke="#b20000" stroke-width="4.0" fill="#b20000" />
</g>
<g>
<path d="M 901,348 L 919,360 L 901,372 Z" stroke="#000000" stroke-width="4.0" fill="none"/>
<circle cx="930.0" cy="360.0" r="9.0" stroke="#000000" stroke-width="4.0" fill="none" />
<circle cx="900.0" cy="360.0" r="2.0" stroke="#0000b2" stroke-width="4.0" fill="#0000b2" />
<circle cx="940.0" cy="360.0" r="2.0" stroke="#b20000" stroke-width="4.0" fill="#b20000" />
</g>
<g>
<path d="M 1010,330 L 961,330 L 961,270 L 1010,270 C 1020,270 1040,280 1039,300 C 1039,320 1020,330 1010,330 Z" stroke="#000000" stroke-width="4.0" fill="none"/>
<circle cx="960.0" cy="280.0" r="2.0" stroke="#0000b2" stroke-width="4.0" fill="#0000b2" />
<circle cx="960.0" cy="320.0" r="2.0" stroke="#0000b2" stroke-width="4.0" fill="#0000b2" />
<circle cx="1040.0" cy="300.0" r="2.0" stroke="#b20000" stroke-width="4.0" fill="#b20000" />
</g>
<g>
<text text-anchor="end" x="1138.0" y="57.0" fill="#808080" style="font-size:12px">0-23</text>
<text text-anchor="start" x="1162.0" y="57.0" fill="#808080" style="font-size:12px">0-7</text>
<text text-anchor="start" x="1162.0" y="77.0" fill="#808080" style="font-size:12px">8-15</text>
<text text-anchor="start" x="1162.0" y="97.0" fill="#808080" style="font-size:12px">16-23</text>
<path d="M 1148,58 L 1152,58 L 1152,102 L 1148,102 Z" stroke="#000000" stroke-width="4.0" fill="#000000" fill-opacity="1.0"/>
<circle cx="1140.0" cy="60.0" r="2.0" stroke="#0000b2" stroke-width="4.0" fill="#0000b2" />
<circle cx="1160.0" cy="60.0" r="2.0" stroke="#b20000" stroke-width="4.0" fill="#b20000" />
<circle cx="1160.0" cy="80.0" r="2.0" stroke="#b20000" stroke-width="4.0" fill="#b20000" />
<circle cx="1160.0" cy="100.0" r="2.0" stroke="#b20000" stroke-width="4.0" fill="#b20000" />
</g>
<g>
<path d="M 1061,36 L 1099,45 L 1099,75 L 1061,84 Z" stroke="#000000" stroke-width="4.0" fill="none"/>
<text text-anchor="start" x="1063.0" y="55.5" fill="#808080" style="font-size:18px">0</text>
<circle cx="1080.0" cy="80.0" r="2.0" stroke="#0000b2" stroke-width="4.0" fill="#0000b2" />
<circle cx="1060.0" cy="40.0" r="2.0" stroke="#0000b2" stroke-width="4.0" fill="#0000b2" />
<circle cx="1060.0" cy="80.0" r="2.0" stroke="#0000b2" stroke-width="4.0" fill="#0000b2" />
<circle cx="1100.0" cy="60.0" r="2.0" stroke="#b20000" stroke-width="4.0" fill="#b20000" />
</g>
<g>
<text text-anchor="end" x="1017.0" y="49.0" fill="#000000" style="font-size:24px">0</text>
<circle cx="1020.0" cy="40.0" r="2.0" stroke="#b20000" stroke-width="4.0" fill="#b20000" />
</g>
<g>
<text text-anchor="end" x="1238.0" y="377.0" fill="#808080" style="font-size:12px">0-11</text>
<text text-anchor="start" x="1262.0" y="377.0" fill="#808080" style="font-size:12px">0</text>
<text text-anchor="start" x="1262.0" y="397.0" fill="#808080" style="font-size:12px">1</text>
<text text-anchor="start" x="1262.0" y="417.0" fill="#808080" style="font-size:12px">2</text>
<text text-anchor="start" x="1262.0" y="437.0" fill="#808080" style="font-size:12px">3</text>
<text text-anchor="start" x="1262.0" y="457.0" fill="#808080" style="font-size:12px">4-11</text>
<path d="M 1248,378 L 1252,378 L 1252,462 L 1248,462 Z" stroke="#000000" stroke-width="4.0" fill="#000000" fill-opacity="1.0"/>
<circle cx="1240.0" cy="380.0" r="2.0" stroke="#0000b2" stroke-width="4.0" fill="#0000b2" />
<circle cx="1260.0" cy="380.0" r="2.0" stroke="#b20000" stroke-width="4.0" fill="#b20000" />
<circle cx="1260.0" cy="400.0" r="2.0" stroke="#b20000" stroke-width="4.0" fill="#b20000" />
<circle cx="1260.0" cy="420.0" r="2.0" stroke="#b20000" stroke-width="4.0" fill="#b20000" />
<circle cx="1260.0" cy="440.0" r="2.0" stroke="#b20000" stroke-width="4.0" fill="#b20000" />
<circle cx="1260.0" cy="460.0" r="2.0" stroke="#b20000" stroke-width="4.0" fill="#b20000" />
</g>
<g>
<text text-anchor="end" x="1238.0" y="617.0" fill="#808080" style="font-size:12px">0-11</text>
<text text-anchor="start" x="1262.0" y="617.0" fill="#808080" style="font-size:12px">0</text>
<text text-anchor="start" x="1262.0" y="637.0" fill="#808080" style="font-size:12px">1</text>
<text text-anchor="start" x="1262.0" y="657.0" fill="#808080" style="font-size:12px">2</text>
<text text-anchor="start" x="1262.0" y="677.0" fill="#808080" style="font-size:12px">3</text>
<text text-anchor="start" x="1262.0" y="697.0" fill="#808080" style="font-size:12px">4-11</text>
<path d="M 1248,618 L 1252,618 L 1252,702 L 1248,702 Z" stroke="#000000" stroke-width="4.0" fill="#000000" fill-opacity="1.0"/>
<circle cx="1240.0" cy="620.0" r="2.0" stroke="#0000b2" stroke-width="4.0" fill="#0000b2" />
<circle cx="1260.0" cy="620.0" r="2.0" stroke="#b20000" stroke-width="4.0" fill="#b20000" />
<circle cx="1260.0" cy="640.0" r="2.0" stroke="#b20000" stroke-width="4.0" fill="#b20000" />
<circle cx="1260.0" cy="660.0" r="2.0" stroke="#b20000" stroke-width="4.0" fill="#b20000" />
<circle cx="1260.0" cy="680.0" r="2.0" stroke="#b20000" stroke-width="4.0" fill="#b20000" />
<circle cx="1260.0" cy="700.0" r="2.0" stroke="#b20000" stroke-width="4.0" fill="#b20000" />
</g>
<g>
<path d="M 1430,330 L 1381,330 L 1381,270 L 1430,270 C 1440,270 1460,280 1459,300 C 1459,320 1440,330 1430,330 Z" stroke="#000000" stroke-width="4.0" fill="none"/>
<circle cx="1380.0" cy="260.0" r="2.0" stroke="#0000b2" stroke-width="4.0" fill="#0000b2" />
<circle cx="1380.0" cy="280.0" r="2.0" stroke="#0000b2" stroke-width="4.0" fill="#0000b2" />
<circle cx="1380.0" cy="320.0" r="2.0" stroke="#0000b2" stroke-width="4.0" fill="#0000b2" />
<circle cx="1380.0" cy="340.0" r="2.0" stroke="#0000b2" stroke-width="4.0" fill="#0000b2" />
<circle cx="1460.0" cy="300.0" r="2.0" stroke="#b20000" stroke-width="4.0" fill="#b20000" />
</g>
<g>
<path d="M 1430,450 L 1381,450 L 1381,390 L 1430,390 C 1440,390 1460,400 1459,420 C 1459,440 1440,450 1430,450 Z" stroke="#000000" stroke-width="4.0" fill="none"/>
<circle cx="1370.0" cy="380.0" r="8.0" stroke="#000000" stroke-width="4.0" fill="none" />
<circle cx="1370.0" cy="400.0" r="8.0" stroke="#000000" stroke-width="4.0" fill="none" />
<circle cx="1370.0" cy="440.0" r="8.0" stroke="#000000" stroke-width="4.0" fill="none" />
<circle cx="1370.0" cy="460.0" r="8.0" stroke="#000000" stroke-width="4.0" fill="none" />
<circle cx="1360.0" cy="380.0" r="2.0" stroke="#0000b2" stroke-width="4.0" fill="#0000b2" />
<circle cx="1360.0" cy="400.0" r="2.0" stroke="#0000b2" stroke-width="4.0" fill="#0000b2" />
<circle cx="1360.0" cy="440.0" r="2.0" stroke="#0000b2" stroke-width="4.0" fill="#0000b2" />
<circle cx="1360.0" cy="460.0" r="2.0" stroke="#0000b2" stroke-width="4.0" fill="#0000b2" />
<circle cx="1460.0" cy="420.0" r="2.0" stroke="#b20000" stroke-width="4.0" fill="#b20000" />
</g>
<g>
<path d="M 1430,570 L 1381,570 L 1381,510 L 1430,510 C 1440,510 1460,520 1459,540 C 1459,560 1440,570 1430,570 Z" stroke="#000000" stroke-width="4.0" fill="none"/>
<circle cx="1380.0" cy="500.0" r="2.0" stroke="#0000b2" stroke-width="4.0" fill="#0000b2" />
<circle cx="1380.0" cy="520.0" r="2.0" stroke="#0000b2" stroke-width="4.0" fill="#0000b2" />
<circle cx="1380.0" cy="560.0" r="2.0" stroke="#0000b2" stroke-width="4.0" fill="#0000b2" />
<circle cx="1380.0" cy="580.0" r="2.0" stroke="#0000b2" stroke-width="4.0" fill="#0000b2" />
<circle cx="1460.0" cy="540.0" r="2.0" stroke="#b20000" stroke-width="4.0" fill="#b20000" />
</g>
<g>
<path d="M 1430,690 L 1381,690 L 1381,630 L 1430,630 C 1440,630 1460,640 1459,660 C 1459,680 1440,690 1430,690 Z" stroke="#000000" stroke-width="4.0" fill="none"/>
<circle cx="1370.0" cy="620.0" r="8.0" stroke="#000000" stroke-width="4.0" fill="none" />
<circle cx="1370.0" cy="640.0" r="8.0" stroke="#000000" stroke-width="4.0" fill="none" />
<circle cx="1370.0" cy="680.0" r="8.0" stroke="#000000" stroke-width="4.0" fill="none" />
<circle cx="1370.0" cy="700.0" r="8.0" stroke="#000000" stroke-width="4.0" fill="none" />
<circle cx="1360.0" cy="620.0" r="2.0" stroke="#0000b2" stroke-width="4.0" fill="#0000b2" />
<circle cx="1360.0" cy="640.0" r="2.0" stroke="#0000b2" stroke-width="4.0" fill="#0000b2" />
<circle cx="1360.0" cy="680.0" r="2.0" stroke="#0000b2" stroke-width="4.0" fill="#0000b2" />
<circle cx="1360.0" cy="700.0" r="2.0" stroke="#0000b2" stroke-width="4.0" fill="#0000b2" />
<circle cx="1460.0" cy="660.0" r="2.0" stroke="#b20000" stroke-width="4.0" fill="#b20000" />
</g>
<g>
<path d="M 1550,530 L 1520,530 C 1530,514 1530,486 1520,470 L 1540,470 C 1570,470 1590,480 1600,500 C 1590,520 1570,530 1550,530 Z" stroke="#000000" stroke-width="4.0" fill="none"/>
<circle cx="1520.0" cy="460.0" r="2.0" stroke="#0000b2" stroke-width="4.0" fill="#0000b2" />
<circle cx="1520.0" cy="480.0" r="2.0" stroke="#0000b2" stroke-width="4.0" fill="#0000b2" />
<circle cx="1520.0" cy="520.0" r="2.0" stroke="#0000b2" stroke-width="4.0" fill="#0000b2" />
<circle cx="1520.0" cy="540.0" r="2.0" stroke="#0000b2" stroke-width="4.0" fill="#0000b2" />
<circle cx="1600.0" cy="500.0" r="2.0" stroke="#b20000" stroke-width="4.0" fill="#b20000" />
</g>
<g>
<text text-anchor="end" x="1658.0" y="377.0" fill="#808080" style="font-size:12px">0</text>
<text text-anchor="end" x="1658.0" y="397.0" fill="#808080" style="font-size:12px">1</text>
<text text-anchor="end" x="1658.0" y="417.0" fill="#808080" style="font-size:12px">2</text>
<text text-anchor="end" x="1658.0" y="437.0" fill="#808080" style="font-size:12px">3</text>
<text text-anchor="end" x="1658.0" y="457.0" fill="#808080" style="font-size:12px">4</text>
<text text-anchor="end" x="1658.0" y="477.0" fill="#808080" style="font-size:12px">5</text>
<text text-anchor="end" x="1658.0" y="497.0" fill="#808080" style="font-size:12px">6</text>
<text text-anchor="end" x="1658.0" y="517.0" fill="#808080" style="font-size:12px">7</text>
<text text-anchor="end" x="1658.0" y="537.0" fill="#808080" style="font-size:12px">8</text>
<text text-anchor="end" x="1658.0" y="557.0" fill="#808080" style="font-size:12px">9</text>
<text text-anchor="end" x="1658.0" y="577.0" fill="#808080" style="font-size:12px">10</text>
<text text-anchor="end" x="1658.0" y="597.0" fill="#808080" style="font-size:12px">11</text>
<text text-anchor="end" x="1658.0" y="617.0" fill="#808080" style="font-size:12px">12</text>
<text text-anchor="end" x="1658.0" y="637.0" fill="#808080" style="font-size:12px">13</text>
<text text-anchor="end" x="1658.0" y="657.0" fill="#808080" style="font-size:12px">14</text>
<text text-anchor="end" x="1658.0" y="677.0" fill="#808080" style="font-size:12px">15</text>
<text text-anchor="end" x="1658.0" y="697.0" fill="#808080" style="font-size:12px">16</text>
<text text-anchor="end" x="1658.0" y="717.0" fill="#808080" style="font-size:12px">17</text>
<text text-anchor="end" x="1658.0" y="737.0" fill="#808080" style="font-size:12px">18</text>
<text text-anchor="end" x="1658.0" y="757.0" fill="#808080" style="font-size:12px">19</text>
<text text-anchor="end" x="1658.0" y="777.0" fill="#808080" style="font-size:12px">20</text>
<text text-anchor="end" x="1658.0" y="797.0" fill="#808080" style="font-size:12px">21</text>
<text text-anchor="end" x="1658.0" y="817.0" fill="#808080" style="font-size:12px">22</text>
<text text-anchor="end" x="1658.0" y="837.0" fill="#808080" style="font-size:12px">23</text>
<text text-anchor="start" x="1682.0" y="377.0" fill="#808080" style="font-size:12px">0-23</text>
<path d="M 1668,378 L 1672,378 L 1672,842 L 1668,842 Z" stroke="#000000" stroke-width="4.0" fill="#000000" fill-opacity="1.0"/>
<circle cx="1660.0" cy="380.0" r="2.0" stroke="#0000b2" stroke-width="4.0" fill="#0000b2" />
<circle cx="1660.0" cy="400.0" r="2.0" stroke="#0000b2" stroke-width="4.0" fill="#0000b2" />
<circle cx="1660.0" cy="420.0" r="2.0" stroke="#0000b2" stroke-width="4.0" fill="#0000b2" />
<circle cx="1660.0" cy="440.0" r="2.0" stroke="#0000b2" stroke-width="4.0" fill="#0000b2" />
<circle cx="1660.0" cy="460.0" r="2.0" stroke="#0000b2" stroke-width="4.0" fill="#0000b2" />
<circle cx="1660.0" cy="480.0" r="2.0" stroke="#0000b2" stroke-width="4.0" fill="#0000b2" />
<circle cx="1660.0" cy="500.0" r="2.0" stroke="#0000b2" stroke-width="4.0" fill="#0000b2" />
<circle cx="1660.0" cy="520.0" r="2.0" stroke="#0000b2" stroke-width="4.0" fill="#0000b2" />
<circle cx="1660.0" cy="540.0" r="2.0" stroke="#0000b2" stroke-width="4.0" fill="#0000b2" />
<circle cx="1660.0" cy="560.0" r="2.0" stroke="#0000b2" stroke-width="4.0" fill="#0000b2" />
<circle cx="1660.0" cy="580.0" r="2.0" stroke="#0000b2" stroke-width="4.0" fill="#0000b2" />
<circle cx="1660.0" cy="600.0" r="2.0" stroke="#0000b2" stroke-width="4.0" fill="#0000b2" />
<circle cx="1660.0" cy="620.0" r="2.0" stroke="#0000b2" stroke-width="4.0" fill="#0000b2" />
<circle cx="1660.0" cy="640.0" r="2.0" stroke="#0000b2" stroke-width="4.0" fill="#0000b2" />
<circle cx="1660.0" cy="660.0" r="2.0" stroke="#0000b2" stroke-width="4.0" fill="#0000b2" />
<circle cx="1660.0" cy="680.0" r="2.0" stroke="#0000b2" stroke-width="4.0" fill="#0000b2" />
<circle cx="1660.0" cy="700.0" r="2.0" stroke="#0000b2" stroke-width="4.0" fill="#0000b2" />
<circle cx="1660.0" cy="720.0" r="2.0" stroke="#0000b2" stroke-width="4.0" fill="#0000b2" />
<circle cx="1660.0" cy="740.0" r="2.0" stroke="#0000b2" stroke-width="4.0" fill="#0000b2" />
<circle cx="1660.0" cy="760.0" r="2.0" stroke="#0000b2" stroke-width="4.0" fill="#0000b2" />
<circle cx="1660.0" cy="780.0" r="2.0" stroke="#0000b2" stroke-width="4.0" fill="#0000b2" />
<circle cx="1660.0" cy="800.0" r="2.0" stroke="#0000b2" stroke-width="4.0" fill="#0000b2" />
<circle cx="1660.0" cy="820.0" r="2.0" stroke="#0000b2" stroke-width="4.0" fill="#0000b2" />
<circle cx="1660.0" cy="840.0" r="2.0" stroke="#0000b2" stroke-width="4.0" fill="#0000b2" />
<circle cx="1680.0" cy="380.0" r="2.0" stroke="#b20000" stroke-width="4.0" fill="#b20000" />
</g>
</g>
</svg>