<?xml version="1.0" encoding="UTF-8" standalone="no"?>
<!-- Created with Digital by H.Neemann -->
<!-- created: Sat Feb 17 19:27:24 BRT 2024 -->

<svg
   xmlns:svg="http://www.w3.org/2000/svg"
   xmlns="http://www.w3.org/2000/svg"
   width="238.65mm"
   height="100.35mm"
   viewBox="137 83 1591 669">
<g stroke-linecap="square">
<path d="M 200,160 L 220,160 L 620,160 L 1000,160 L 1380,160 L 1380,420 L 1480,420" stroke="#0000b2" stroke-width="4.0" fill="none"/>
<path d="M 460,260 L 500,260" stroke="#0000b2" stroke-width="4.0" fill="none"/>
<path d="M 860,260 L 900,260" stroke="#0000b2" stroke-width="4.0" fill="none"/>
<path d="M 1220,260 L 1280,260" stroke="#0000b2" stroke-width="4.0" fill="none"/>
<path d="M 220,160 L 220,420 L 360,420 L 364,420" stroke="#0000b2" stroke-width="4.0" fill="none"/>
<path d="M 1000,280 L 1000,420 L 1140,420 L 1154,420" stroke="#0000b2" stroke-width="4.0" fill="none"/>
<path d="M 1520,420 L 1540,420 L 1544,420" stroke="#0000b2" stroke-width="4.0" fill="none"/>
<path d="M 200,100 L 240,100 L 640,100 L 1020,100 L 1400,100 L 1400,260 L 1660,260" stroke="#0000b2" stroke-width="4.0" fill="none"/>
<path d="M 340,580 L 360,580 L 364,580" stroke="#0000b2" stroke-width="4.0" fill="none"/>
<path d="M 220,420 L 220,580 L 300,580" stroke="#0000b2" stroke-width="4.0" fill="none"/>
<path d="M 1380,420 L 1380,580 L 1540,580 L 1544,580" stroke="#0000b2" stroke-width="4.0" fill="none"/>
<path d="M 620,580 L 620,740 L 760,740" stroke="#0000b2" stroke-width="4.0" fill="none"/>
<path d="M 1000,560 L 1000,740 L 1160,740 L 1164,740" stroke="#0000b2" stroke-width="4.0" fill="none"/>
<path d="M 460,400 L 500,400" stroke="#0000b2" stroke-width="4.0" fill="none"/>
<path d="M 840,400 L 900,400" stroke="#0000b2" stroke-width="4.0" fill="none"/>
<path d="M 1240,400 L 1280,400" stroke="#0000b2" stroke-width="4.0" fill="none"/>
<path d="M 1620,400 L 1660,400" stroke="#0000b2" stroke-width="4.0" fill="none"/>
<path d="M 460,560 L 500,560" stroke="#0000b2" stroke-width="4.0" fill="none"/>
<path d="M 840,560 L 900,560" stroke="#0000b2" stroke-width="4.0" fill="none"/>
<path d="M 1000,420 L 1000,560 L 1280,560" stroke="#0000b2" stroke-width="4.0" fill="none"/>
<path d="M 1620,560 L 1660,560" stroke="#0000b2" stroke-width="4.0" fill="none"/>
<path d="M 440,720 L 500,720" stroke="#0000b2" stroke-width="4.0" fill="none"/>
<path d="M 240,540 L 240,720 L 400,720" stroke="#0000b2" stroke-width="4.0" fill="none"/>
<path d="M 860,720 L 900,720" stroke="#0000b2" stroke-width="4.0" fill="none"/>
<path d="M 1240,720 L 1280,720" stroke="#0000b2" stroke-width="4.0" fill="none"/>
<path d="M 1580,720 L 1660,720" stroke="#0000b2" stroke-width="4.0" fill="none"/>
<path d="M 740,240 L 760,240 L 764,240" stroke="#0000b2" stroke-width="4.0" fill="none"/>
<path d="M 640,100 L 640,240 L 700,240" stroke="#0000b2" stroke-width="4.0" fill="none"/>
<path d="M 1020,100 L 1020,240 L 1140,240" stroke="#0000b2" stroke-width="4.0" fill="none"/>
<path d="M 620,160 L 620,280 L 760,280 L 764,280" stroke="#0000b2" stroke-width="4.0" fill="none"/>
<path d="M 1000,160 L 1000,280 L 1140,280" stroke="#0000b2" stroke-width="4.0" fill="none"/>
<path d="M 240,100 L 240,380 L 360,380 L 364,380" stroke="#0000b2" stroke-width="4.0" fill="none"/>
<path d="M 240,380 L 240,540 L 360,540 L 364,540" stroke="#0000b2" stroke-width="4.0" fill="none"/>
<path d="M 1140,700 L 1160,700 L 1164,700" stroke="#0000b2" stroke-width="4.0" fill="none"/>
<path d="M 774,540 L 760,540 L 640,540 L 640,700 L 760,700" stroke="#0000b2" stroke-width="4.0" fill="none"/>
<path d="M 640,240 L 640,540" stroke="#0000b2" stroke-width="4.0" fill="none"/>
<path d="M 1544,380 L 1540,380 L 1400,380 L 1400,540 L 1540,540 L 1544,540" stroke="#0000b2" stroke-width="4.0" fill="none"/>
<path d="M 1400,260 L 1400,380" stroke="#0000b2" stroke-width="4.0" fill="none"/>
<path d="M 774,580 L 760,580 L 620,580 L 620,400 L 800,400" stroke="#0000b2" stroke-width="4.0" fill="none"/>
<path d="M 620,280 L 620,400" stroke="#0000b2" stroke-width="4.0" fill="none"/>
<path d="M 1154,380 L 1140,380 L 1020,380 L 1020,700 L 1100,700" stroke="#0000b2" stroke-width="4.0" fill="none"/>
<path d="M 1020,240 L 1020,380" stroke="#0000b2" stroke-width="4.0" fill="none"/>
<g>
<circle cx="220.0" cy="160.0" r="4.0" stroke="#0000b2" stroke-width="4.0" fill="#0000b2" />
<circle cx="620.0" cy="160.0" r="4.0" stroke="#0000b2" stroke-width="4.0" fill="#0000b2" />
<circle cx="1000.0" cy="160.0" r="4.0" stroke="#0000b2" stroke-width="4.0" fill="#0000b2" />
<circle cx="1400.0" cy="260.0" r="4.0" stroke="#0000b2" stroke-width="4.0" fill="#0000b2" />
<circle cx="220.0" cy="420.0" r="4.0" stroke="#0000b2" stroke-width="4.0" fill="#0000b2" />
<circle cx="1000.0" cy="420.0" r="4.0" stroke="#0000b2" stroke-width="4.0" fill="#0000b2" />
<circle cx="1380.0" cy="420.0" r="4.0" stroke="#0000b2" stroke-width="4.0" fill="#0000b2" />
<circle cx="240.0" cy="100.0" r="4.0" stroke="#0000b2" stroke-width="4.0" fill="#0000b2" />
<circle cx="640.0" cy="100.0" r="4.0" stroke="#0000b2" stroke-width="4.0" fill="#0000b2" />
<circle cx="1020.0" cy="100.0" r="4.0" stroke="#0000b2" stroke-width="4.0" fill="#0000b2" />
<circle cx="620.0" cy="580.0" r="4.0" stroke="#0000b2" stroke-width="4.0" fill="#0000b2" />
<circle cx="620.0" cy="400.0" r="4.0" stroke="#0000b2" stroke-width="4.0" fill="#0000b2" />
<circle cx="1000.0" cy="560.0" r="4.0" stroke="#0000b2" stroke-width="4.0" fill="#0000b2" />
<circle cx="640.0" cy="240.0" r="4.0" stroke="#0000b2" stroke-width="4.0" fill="#0000b2" />
<circle cx="1020.0" cy="240.0" r="4.0" stroke="#0000b2" stroke-width="4.0" fill="#0000b2" />
<circle cx="620.0" cy="280.0" r="4.0" stroke="#0000b2" stroke-width="4.0" fill="#0000b2" />
<circle cx="1000.0" cy="280.0" r="4.0" stroke="#0000b2" stroke-width="4.0" fill="#0000b2" />
<circle cx="240.0" cy="380.0" r="4.0" stroke="#0000b2" stroke-width="4.0" fill="#0000b2" />
<circle cx="1020.0" cy="380.0" r="4.0" stroke="#0000b2" stroke-width="4.0" fill="#0000b2" />
<circle cx="1400.0" cy="380.0" r="4.0" stroke="#0000b2" stroke-width="4.0" fill="#0000b2" />
<circle cx="240.0" cy="540.0" r="4.0" stroke="#0000b2" stroke-width="4.0" fill="#0000b2" />
<circle cx="640.0" cy="540.0" r="4.0" stroke="#0000b2" stroke-width="4.0" fill="#0000b2" />
</g>
<g>
<path d="M 169,85 L 199,85 L 199,115 L 169,115 Z" stroke="#000000" stroke-width="4.0" fill="none"/>
<circle cx="184.0" cy="100.0" r="9.0" stroke="#000000" stroke-width="4.0" fill="none" />
<text text-anchor="end" x="155.0" y="109.0" fill="#000000" style="font-size:24px"><tspan style="font-style:italic;">X</tspan></text>
<circle cx="200.0" cy="100.0" r="2.0" stroke="#b20000" stroke-width="4.0" fill="#b20000" />
</g>
<g>
<path d="M 169,145 L 199,145 L 199,175 L 169,175 Z" stroke="#000000" stroke-width="4.0" fill="none"/>
<circle cx="184.0" cy="160.0" r="9.0" stroke="#000000" stroke-width="4.0" fill="none" />
<text text-anchor="end" x="155.0" y="169.0" fill="#000000" style="font-size:24px"><tspan style="font-style:italic;">Y</tspan></text>
<circle cx="200.0" cy="160.0" r="2.0" stroke="#b20000" stroke-width="4.0" fill="#b20000" />
</g>
<g>
<circle cx="516.0" cy="260.0" r="9.0" stroke="#000000" stroke-width="4.0" fill="none" />
<circle cx="516.0" cy="260.0" r="15.0" stroke="#000000" stroke-width="4.0" fill="none" />
<text text-anchor="start" x="545.0" y="269.0" fill="#000000" style="font-size:24px"><tspan style="font-style:italic;">A</tspan></text>
<circle cx="500.0" cy="260.0" r="2.0" stroke="#0000b2" stroke-width="4.0" fill="#0000b2" />
</g>
<g>
<text text-anchor="end" x="457.0" y="269.0" fill="#000000" style="font-size:24px">0</text>
<circle cx="460.0" cy="260.0" r="2.0" stroke="#b20000" stroke-width="4.0" fill="#b20000" />
</g>
<g>
<circle cx="516.0" cy="400.0" r="9.0" stroke="#000000" stroke-width="4.0" fill="none" />
<circle cx="516.0" cy="400.0" r="15.0" stroke="#000000" stroke-width="4.0" fill="none" />
<text text-anchor="start" x="545.0" y="409.0" fill="#000000" style="font-size:24px"><tspan style="font-style:italic;">B</tspan></text>
<circle cx="500.0" cy="400.0" r="2.0" stroke="#0000b2" stroke-width="4.0" fill="#0000b2" />
</g>
<g>
<path d="M 390,430 L 360,430 C 370,414 370,386 360,370 L 380,370 C 410,370 430,380 440,400 C 430,420 410,430 390,430 Z" stroke="#000000" stroke-width="4.0" fill="none"/>
<circle cx="450.0" cy="400.0" r="9.0" stroke="#000000" stroke-width="4.0" fill="none" />
<circle cx="360.0" cy="380.0" r="2.0" stroke="#0000b2" stroke-width="4.0" fill="#0000b2" />
<circle cx="360.0" cy="420.0" r="2.0" stroke="#0000b2" stroke-width="4.0" fill="#0000b2" />
<circle cx="460.0" cy="400.0" r="2.0" stroke="#b20000" stroke-width="4.0" fill="#b20000" />
</g>
<g>
<circle cx="516.0" cy="560.0" r="9.0" stroke="#000000" stroke-width="4.0" fill="none" />
<circle cx="516.0" cy="560.0" r="15.0" stroke="#000000" stroke-width="4.0" fill="none" />
<text text-anchor="start" x="545.0" y="569.0" fill="#000000" style="font-size:24px"><tspan style="font-style:italic;">C</tspan></text>
<circle cx="500.0" cy="560.0" r="2.0" stroke="#0000b2" stroke-width="4.0" fill="#0000b2" />
</g>
<g>
<path d="M 390,590 L 360,590 C 370,574 370,546 360,530 L 380,530 C 410,530 430,540 440,560 C 430,580 410,590 390,590 Z" stroke="#000000" stroke-width="4.0" fill="none"/>
<circle cx="450.0" cy="560.0" r="9.0" stroke="#000000" stroke-width="4.0" fill="none" />
<circle cx="360.0" cy="540.0" r="2.0" stroke="#0000b2" stroke-width="4.0" fill="#0000b2" />
<circle cx="360.0" cy="580.0" r="2.0" stroke="#0000b2" stroke-width="4.0" fill="#0000b2" />
<circle cx="460.0" cy="560.0" r="2.0" stroke="#b20000" stroke-width="4.0" fill="#b20000" />
</g>
<g>
<path d="M 301,568 L 319,580 L 301,592 Z" stroke="#000000" stroke-width="4.0" fill="none"/>
<circle cx="330.0" cy="580.0" r="9.0" stroke="#000000" stroke-width="4.0" fill="none" />
<circle cx="300.0" cy="580.0" r="2.0" stroke="#0000b2" stroke-width="4.0" fill="#0000b2" />
<circle cx="340.0" cy="580.0" r="2.0" stroke="#b20000" stroke-width="4.0" fill="#b20000" />
</g>
<g>
<circle cx="516.0" cy="720.0" r="9.0" stroke="#000000" stroke-width="4.0" fill="none" />
<circle cx="516.0" cy="720.0" r="15.0" stroke="#000000" stroke-width="4.0" fill="none" />
<text text-anchor="start" x="545.0" y="729.0" fill="#000000" style="font-size:24px"><tspan style="font-style:italic;">D</tspan></text>
<circle cx="500.0" cy="720.0" r="2.0" stroke="#0000b2" stroke-width="4.0" fill="#0000b2" />
</g>
<g>
<path d="M 401,708 L 419,720 L 401,732 Z" stroke="#000000" stroke-width="4.0" fill="none"/>
<circle cx="430.0" cy="720.0" r="9.0" stroke="#000000" stroke-width="4.0" fill="none" />
<circle cx="400.0" cy="720.0" r="2.0" stroke="#0000b2" stroke-width="4.0" fill="#0000b2" />
<circle cx="440.0" cy="720.0" r="2.0" stroke="#b20000" stroke-width="4.0" fill="#b20000" />
</g>
<g>
<circle cx="916.0" cy="260.0" r="9.0" stroke="#000000" stroke-width="4.0" fill="none" />
<circle cx="916.0" cy="260.0" r="15.0" stroke="#000000" stroke-width="4.0" fill="none" />
<text text-anchor="start" x="945.0" y="269.0" fill="#000000" style="font-size:24px"><tspan style="font-style:italic;">E</tspan></text>
<circle cx="900.0" cy="260.0" r="2.0" stroke="#0000b2" stroke-width="4.0" fill="#0000b2" />
</g>
<g>
<path d="M 790,290 L 760,290 C 770,274 770,246 760,230 L 780,230 C 810,230 830,240 840,260 C 830,280 810,290 790,290 Z" stroke="#000000" stroke-width="4.0" fill="none"/>
<circle cx="850.0" cy="260.0" r="9.0" stroke="#000000" stroke-width="4.0" fill="none" />
<circle cx="760.0" cy="240.0" r="2.0" stroke="#0000b2" stroke-width="4.0" fill="#0000b2" />
<circle cx="760.0" cy="280.0" r="2.0" stroke="#0000b2" stroke-width="4.0" fill="#0000b2" />
<circle cx="860.0" cy="260.0" r="2.0" stroke="#b20000" stroke-width="4.0" fill="#b20000" />
</g>
<g>
<path d="M 701,228 L 719,240 L 701,252 Z" stroke="#000000" stroke-width="4.0" fill="none"/>
<circle cx="730.0" cy="240.0" r="9.0" stroke="#000000" stroke-width="4.0" fill="none" />
<circle cx="700.0" cy="240.0" r="2.0" stroke="#0000b2" stroke-width="4.0" fill="#0000b2" />
<circle cx="740.0" cy="240.0" r="2.0" stroke="#b20000" stroke-width="4.0" fill="#b20000" />
</g>
<g>
<circle cx="916.0" cy="400.0" r="9.0" stroke="#000000" stroke-width="4.0" fill="none" />
<circle cx="916.0" cy="400.0" r="15.0" stroke="#000000" stroke-width="4.0" fill="none" />
<text text-anchor="start" x="945.0" y="409.0" fill="#000000" style="font-size:24px"><tspan style="font-style:italic;">F</tspan></text>
<circle cx="900.0" cy="400.0" r="2.0" stroke="#0000b2" stroke-width="4.0" fill="#0000b2" />
</g>
<g>
<path d="M 801,388 L 819,400 L 801,412 Z" stroke="#000000" stroke-width="4.0" fill="none"/>
<circle cx="830.0" cy="400.0" r="9.0" stroke="#000000" stroke-width="4.0" fill="none" />
<circle cx="800.0" cy="400.0" r="2.0" stroke="#0000b2" stroke-width="4.0" fill="#0000b2" />
<circle cx="840.0" cy="400.0" r="2.0" stroke="#b20000" stroke-width="4.0" fill="#b20000" />
</g>
<g>
<circle cx="916.0" cy="560.0" r="9.0" stroke="#000000" stroke-width="4.0" fill="none" />
<circle cx="916.0" cy="560.0" r="15.0" stroke="#000000" stroke-width="4.0" fill="none" />
<text text-anchor="start" x="945.0" y="569.0" fill="#000000" style="font-size:24px"><tspan style="font-style:italic;">G</tspan></text>
<circle cx="900.0" cy="560.0" r="2.0" stroke="#0000b2" stroke-width="4.0" fill="#0000b2" />
</g>
<g>
<path d="M 790,590 L 770,590 C 780,574 780,546 770,530 L 790,530 C 810,530 830,540 840,560 C 830,580 810,590 790,590 Z" stroke="#000000" stroke-width="4.0" fill="none"/>
<path d="M 760,590 C 770,580 770,540 760,530" stroke="#000000" stroke-width="4.0" fill="none"/>
<circle cx="760.0" cy="540.0" r="2.0" stroke="#0000b2" stroke-width="4.0" fill="#0000b2" />
<circle cx="760.0" cy="580.0" r="2.0" stroke="#0000b2" stroke-width="4.0" fill="#0000b2" />
<circle cx="840.0" cy="560.0" r="2.0" stroke="#b20000" stroke-width="4.0" fill="#b20000" />
</g>
<g>
<circle cx="916.0" cy="720.0" r="9.0" stroke="#000000" stroke-width="4.0" fill="none" />
<circle cx="916.0" cy="720.0" r="15.0" stroke="#000000" stroke-width="4.0" fill="none" />
<text text-anchor="start" x="945.0" y="729.0" fill="#000000" style="font-size:24px"><tspan style="font-style:italic;">H</tspan></text>
<circle cx="900.0" cy="720.0" r="2.0" stroke="#0000b2" stroke-width="4.0" fill="#0000b2" />
</g>
<g>
<path d="M 810,750 L 761,750 L 761,690 L 810,690 C 820,690 840,700 839,720 C 839,740 820,750 810,750 Z" stroke="#000000" stroke-width="4.0" fill="none"/>
<circle cx="850.0" cy="720.0" r="9.0" stroke="#000000" stroke-width="4.0" fill="none" />
<circle cx="760.0" cy="700.0" r="2.0" stroke="#0000b2" stroke-width="4.0" fill="#0000b2" />
<circle cx="760.0" cy="740.0" r="2.0" stroke="#0000b2" stroke-width="4.0" fill="#0000b2" />
<circle cx="860.0" cy="720.0" r="2.0" stroke="#b20000" stroke-width="4.0" fill="#b20000" />
</g>
<g>
<circle cx="1296.0" cy="260.0" r="9.0" stroke="#000000" stroke-width="4.0" fill="none" />
<circle cx="1296.0" cy="260.0" r="15.0" stroke="#000000" stroke-width="4.0" fill="none" />
<text text-anchor="start" x="1325.0" y="269.0" fill="#000000" style="font-size:24px"><tspan style="font-style:italic;">I</tspan></text>
<circle cx="1280.0" cy="260.0" r="2.0" stroke="#0000b2" stroke-width="4.0" fill="#0000b2" />
</g>
<g>
<path d="M 1190,290 L 1141,290 L 1141,230 L 1190,230 C 1200,230 1220,240 1219,260 C 1219,280 1200,290 1190,290 Z" stroke="#000000" stroke-width="4.0" fill="none"/>
<circle cx="1140.0" cy="240.0" r="2.0" stroke="#0000b2" stroke-width="4.0" fill="#0000b2" />
<circle cx="1140.0" cy="280.0" r="2.0" stroke="#0000b2" stroke-width="4.0" fill="#0000b2" />
<circle cx="1220.0" cy="260.0" r="2.0" stroke="#b20000" stroke-width="4.0" fill="#b20000" />
</g>
<g>
<circle cx="1296.0" cy="400.0" r="9.0" stroke="#000000" stroke-width="4.0" fill="none" />
<circle cx="1296.0" cy="400.0" r="15.0" stroke="#000000" stroke-width="4.0" fill="none" />
<text text-anchor="start" x="1325.0" y="409.0" fill="#000000" style="font-size:24px"><tspan style="font-style:italic;">J</tspan></text>
<circle cx="1280.0" cy="400.0" r="2.0" stroke="#0000b2" stroke-width="4.0" fill="#0000b2" />
</g>
<g>
<path d="M 1170,430 L 1150,430 C 1160,414 1160,386 1150,370 L 1170,370 C 1190,370 1210,380 1220,400 C 1210,420 1190,430 1170,430 Z" stroke="#000000" stroke-width="4.0" fill="none"/>
<path d="M 1140,430 C 1150,420 1150,380 1140,370" stroke="#000000" stroke-width="4.0" fill="none"/>
<circle cx="1230.0" cy="400.0" r="9.0" stroke="#000000" stroke-width="4.0" fill="none" />
<circle cx="1140.0" cy="380.0" r="2.0" stroke="#0000b2" stroke-width="4.0" fill="#0000b2" />
<circle cx="1140.0" cy="420.0" r="2.0" stroke="#0000b2" stroke-width="4.0" fill="#0000b2" />
<circle cx="1240.0" cy="400.0" r="2.0" stroke="#b20000" stroke-width="4.0" fill="#b20000" />
</g>
<g>
<circle cx="1296.0" cy="560.0" r="9.0" stroke="#000000" stroke-width="4.0" fill="none" />
<circle cx="1296.0" cy="560.0" r="15.0" stroke="#000000" stroke-width="4.0" fill="none" />
<text text-anchor="start" x="1325.0" y="569.0" fill="#000000" style="font-size:24px"><tspan style="font-style:italic;">K</tspan></text>
<circle cx="1280.0" cy="560.0" r="2.0" stroke="#0000b2" stroke-width="4.0" fill="#0000b2" />
</g>
<g>
<circle cx="1296.0" cy="720.0" r="9.0" stroke="#000000" stroke-width="4.0" fill="none" />
<circle cx="1296.0" cy="720.0" r="15.0" stroke="#000000" stroke-width="4.0" fill="none" />
<text text-anchor="start" x="1325.0" y="729.0" fill="#000000" style="font-size:24px"><tspan style="font-style:italic;">L</tspan></text>
<circle cx="1280.0" cy="720.0" r="2.0" stroke="#0000b2" stroke-width="4.0" fill="#0000b2" />
</g>
<g>
<path d="M 1190,750 L 1160,750 C 1170,734 1170,706 1160,690 L 1180,690 C 1210,690 1230,700 1240,720 C 1230,740 1210,750 1190,750 Z" stroke="#000000" stroke-width="4.0" fill="none"/>
<circle cx="1160.0" cy="700.0" r="2.0" stroke="#0000b2" stroke-width="4.0" fill="#0000b2" />
<circle cx="1160.0" cy="740.0" r="2.0" stroke="#0000b2" stroke-width="4.0" fill="#0000b2" />
<circle cx="1240.0" cy="720.0" r="2.0" stroke="#b20000" stroke-width="4.0" fill="#b20000" />
</g>
<g>
<path d="M 1101,688 L 1119,700 L 1101,712 Z" stroke="#000000" stroke-width="4.0" fill="none"/>
<circle cx="1130.0" cy="700.0" r="9.0" stroke="#000000" stroke-width="4.0" fill="none" />
<circle cx="1100.0" cy="700.0" r="2.0" stroke="#0000b2" stroke-width="4.0" fill="#0000b2" />
<circle cx="1140.0" cy="700.0" r="2.0" stroke="#b20000" stroke-width="4.0" fill="#b20000" />
</g>
<g>
<circle cx="1676.0" cy="260.0" r="9.0" stroke="#000000" stroke-width="4.0" fill="none" />
<circle cx="1676.0" cy="260.0" r="15.0" stroke="#000000" stroke-width="4.0" fill="none" />
<text text-anchor="start" x="1705.0" y="269.0" fill="#000000" style="font-size:24px"><tspan style="font-style:italic;">M</tspan></text>
<circle cx="1660.0" cy="260.0" r="2.0" stroke="#0000b2" stroke-width="4.0" fill="#0000b2" />
</g>
<g>
<circle cx="1676.0" cy="400.0" r="9.0" stroke="#000000" stroke-width="4.0" fill="none" />
<circle cx="1676.0" cy="400.0" r="15.0" stroke="#000000" stroke-width="4.0" fill="none" />
<text text-anchor="start" x="1705.0" y="409.0" fill="#000000" style="font-size:24px"><tspan style="font-style:italic;">N</tspan></text>
<circle cx="1660.0" cy="400.0" r="2.0" stroke="#0000b2" stroke-width="4.0" fill="#0000b2" />
</g>
<g>
<path d="M 1570,430 L 1540,430 C 1550,414 1550,386 1540,370 L 1560,370 C 1590,370 1610,380 1620,400 C 1610,420 1590,430 1570,430 Z" stroke="#000000" stroke-width="4.0" fill="none"/>
<circle cx="1540.0" cy="380.0" r="2.0" stroke="#0000b2" stroke-width="4.0" fill="#0000b2" />
<circle cx="1540.0" cy="420.0" r="2.0" stroke="#0000b2" stroke-width="4.0" fill="#0000b2" />
<circle cx="1620.0" cy="400.0" r="2.0" stroke="#b20000" stroke-width="4.0" fill="#b20000" />
</g>
<g>
<path d="M 1481,408 L 1499,420 L 1481,432 Z" stroke="#000000" stroke-width="4.0" fill="none"/>
<circle cx="1510.0" cy="420.0" r="9.0" stroke="#000000" stroke-width="4.0" fill="none" />
<circle cx="1480.0" cy="420.0" r="2.0" stroke="#0000b2" stroke-width="4.0" fill="#0000b2" />
<circle cx="1520.0" cy="420.0" r="2.0" stroke="#b20000" stroke-width="4.0" fill="#b20000" />
</g>
<g>
<circle cx="1676.0" cy="560.0" r="9.0" stroke="#000000" stroke-width="4.0" fill="none" />
<circle cx="1676.0" cy="560.0" r="15.0" stroke="#000000" stroke-width="4.0" fill="none" />
<text text-anchor="start" x="1705.0" y="569.0" fill="#000000" style="font-size:24px"><tspan style="font-style:italic;">O</tspan></text>
<circle cx="1660.0" cy="560.0" r="2.0" stroke="#0000b2" stroke-width="4.0" fill="#0000b2" />
</g>
<g>
<path d="M 1570,590 L 1540,590 C 1550,574 1550,546 1540,530 L 1560,530 C 1590,530 1610,540 1620,560 C 1610,580 1590,590 1570,590 Z" stroke="#000000" stroke-width="4.0" fill="none"/>
<circle cx="1540.0" cy="540.0" r="2.0" stroke="#0000b2" stroke-width="4.0" fill="#0000b2" />
<circle cx="1540.0" cy="580.0" r="2.0" stroke="#0000b2" stroke-width="4.0" fill="#0000b2" />
<circle cx="1620.0" cy="560.0" r="2.0" stroke="#b20000" stroke-width="4.0" fill="#b20000" />
</g>
<g>
<circle cx="1676.0" cy="720.0" r="9.0" stroke="#000000" stroke-width="4.0" fill="none" />
<circle cx="1676.0" cy="720.0" r="15.0" stroke="#000000" stroke-width="4.0" fill="none" />
<text text-anchor="start" x="1705.0" y="729.0" fill="#000000" style="font-size:24px"><tspan style="font-style:italic;">P</tspan></text>
<circle cx="1660.0" cy="720.0" r="2.0" stroke="#0000b2" stroke-width="4.0" fill="#0000b2" />
</g>
<g>
<text text-anchor="end" x="1577.0" y="729.0" fill="#000000" style="font-size:24px">1</text>
<circle cx="1580.0" cy="720.0" r="2.0" stroke="#b20000" stroke-width="4.0" fill="#b20000" />
</g>
</g>
</svg>